G04 Output by ViewMate Deluxe V11.12.18  PentaLogix*
G04 Wed Mar 06 15:41:31 2019*
%IPPOS*%
%FSLAX25Y25*%
%MOIN*%
%ADD167R,0.04337X0.04731*%
%ADD168C,0.00394*%
%ADD169R,0.0555X0.0555*%
%ADD170C,0.0555*%
%ADD171C,0.1103*%
%ADD172C,0.09849*%
%ADD173R,0.064X0.064*%
G04:---LTIenv:A174:16,0.064,0.0 *
%ADD174P,0.069273X8X22.5*%
%ADD175R,0.04731X0.04337*%
%ADD176R,0.02073X0.04337*%
%ADD177C,0.01581*%
%ADD178C,0.29928*%

%LPD*%
X0Y0D2*D168*G1X28991Y52889D2*X32238D1*X33500Y53282D2*X27730D1*X27290Y53674D2*X33940D1*X34224Y54066D2*X27005D1*X26822Y54458D2*X34407D1*X32873Y57988D2*X28356D1*X27597Y57596D2*X33632D1*X34028Y57204D2*X27201D1*X26948Y56812D2*X34282D1*X34440Y56419D2*X26790D1*X26706Y56027D2*X34523D1*X34552Y55635D2*X26678D1*Y55243D2*X34551D1*X34513Y54851D2*X26717D1*X34506Y54786D2*X34552Y55247D1*Y55739*X34506Y56200*X34372Y56643*X34154Y57051*X33860Y57409*X33502Y57703*X33093Y57921*X32650Y58056*X32189Y58101*X29040*X28579Y58056*X28136Y57921*X27728Y57703*X27370Y57409*X27076Y57051*X26857Y56643*X26723Y56200*X26678Y55739*Y55247*X26723Y54786*X26857Y54343*X27076Y53934*X27370Y53577*X27728Y53283*X28136Y53064*X28579Y52930*X29040Y52885*X32189*X32650Y52930*X33093Y53064*X33502Y53283*X33860Y53577*X34154Y53934*X34372Y54343*X34506Y54786*X41051Y53282D2*X43800D1*X44390Y52889D2*X40462D1*X40125Y52497D2*X44727D1*X44929Y52105D2*X39923D1*X39808Y51713D2*X45043D1*X45082Y51321D2*X39769D1*X39786Y50928D2*X45065D1*X44995Y50536D2*X39857D1*X40008Y50144D2*X44843D1*X44588Y49752D2*X40263D1*X40673Y49360D2*X44178D1*X43118Y48967D2*X41734D1*X42918Y48948D2*X43340Y48989D1*X43746Y49112*X44121Y49313*X44449Y49582*X44718Y49910*X44918Y50284*X45042Y50691*X45083Y51113*Y51310*X45042Y51732*X44918Y52138*X44718Y52513*X44449Y52841*X44121Y53110*X43746Y53310*X43340Y53434*X42918Y53475*X41934*X41511Y53434*X41105Y53310*X40731Y53110*X40402Y52841*X40133Y52513*X39933Y52138*X39810Y51732*X39768Y51310*Y51113*X39810Y50691*X39933Y50284*X40133Y49910*X40402Y49582*X40731Y49313*X41105Y49112*X41511Y48989*X41934Y48948*X42918*X40874Y30141D2*X43977D1*X44487Y30533D2*X40365D1*X40819Y34063D2*X44032D1*X44511Y33671D2*X40341D1*X40059Y33279D2*X44793D1*X44966Y32887D2*X39885D1*X39796Y32494D2*X45056D1*X45083Y32102D2*X39768D1*X39799Y31710D2*X45053D1*X44957Y31318D2*X39894D1*X40074Y30926D2*X44777D1*X40133Y30816D2*X40402Y30487D1*X40731Y30218*X41105Y30018*X41511Y29895*X41934Y29853*X42918*X43340Y29895*X43746Y30018*X44121Y30218*X44449Y30487*X44718Y30816*X44918Y31190*X45042Y31596*X45083Y32019*Y32215*X45042Y32638*X44918Y33044*X44718Y33418*X44449Y33746*X44121Y34016*X43746Y34216*X43340Y34339*X42918Y34381*X41934*X41511Y34339*X41105Y34216*X40731Y34016*X40402Y33746*X40133Y33418*X39933Y33044*X39810Y32638*X39768Y32215*Y32019*X39810Y31596*X39933Y31190*X40133Y30816*X28084Y25435D2*X33145D1*X33323Y30141D2*X27906D1*X27367Y29749D2*X33862D1*X34173Y29357D2*X27056D1*X26851Y28965D2*X34378D1*X34497Y28572D2*X26732D1*X26687Y28180D2*X34542D1*X34552Y27788D2*X26678D1*X26697Y27396D2*X34533D1*X34468Y27003D2*X26761D1*X26897Y26611D2*X34332D1*X34106Y26219D2*X27123D1*X27482Y25827D2*X33747D1*X27370Y25919D2*X27728Y25625D1*X28136Y25407*X28579Y25273*X29040Y25227*X32189*X32650Y25273*X33093Y25407*X33502Y25625*X33860Y25919*X34154Y26277*X34372Y26685*X34506Y27129*X34552Y27589*Y28081*X34506Y28542*X34372Y28985*X34154Y29394*X33860Y29752*X33502Y30046*X33093Y30264*X32650Y30398*X32189Y30444*X29040*X28579Y30398*X28136Y30264*X27728Y30046*X27370Y29752*X27076Y29394*X26857Y28985*X26723Y28542*X26678Y28081*Y27589*X26723Y27129*X26857Y26685*X27076Y26277*X27370Y25919*D167*X204906Y167698D3*Y174391D3*X214906D3*Y167698D3*X224906D3*Y174391D3*X234906D3*Y167698D3*X250752Y33544D3*X244060D3*D169*X124906Y12294D3*D170*X94906Y12294D3*X104906D3*X114906D3*D171*X51205Y150089D3*X31205D3*Y130089D3*X51205D3*D172*X41205Y140089D3*D173*X284906Y12294D3*X264906Y42294D3*X284906Y62294D3*X204906Y192294D3*X33656Y76044D3*D174*X33656Y86044D3*X254906Y192294D3*X244906D3*X234906D3*X224906D3*X214906D3*X204906Y182294D3*X214906D3*X224906D3*X234906D3*X244906D3*X254906D3*X294906Y152294D3*X284906D3*Y142294D3*X294906D3*Y132294D3*X284906D3*Y122294D3*X294906D3*Y112294D3*X284906D3*Y102294D3*X294906D3*Y92294D3*X284906D3*Y82294D3*X294906D3*Y62294D3*Y72294D3*X284906D3*X264906Y52294D3*X254906D3*X244906D3*X234906D3*Y42294D3*X244906D3*X254906D3*X284906Y22294D3*X274906D3*X264906D3*X254906D3*X244906D3*X234906D3*X224906D3*X214906D3*X204906D3*X194906D3*Y12294D3*X204906D3*X214906D3*X224906D3*X234906D3*X244906D3*X254906D3*X264906D3*X274906D3*D175*X226156Y42698D3*Y49391D3*X123656Y176891D3*Y170198D3*D176*X182130Y15198D3*X178981D3*X175831D3*X172682D3*Y21891D3*X175831D3*X178981D3*X182130D3*D177*X274906Y189688D3*X286717D3*X292623Y179459D3*X286717Y169231D3*X274906D3*X269001Y179459D3*X56402D3*X50497Y189688D3*X38686D3*X32780Y179459D3*X38686Y169231D3*X50497D3*X131756Y88131D3*X129197Y85572D3*X126638Y88131D3*X129197Y90690D3*X131756Y99942D3*X129197Y97383D3*X126638Y99942D3*X129197Y102501D3*Y109194D3*X126638Y111753D3*X129197Y114312D3*X131756Y111753D3*X141008Y109194D3*X138449Y111753D3*X141008Y114312D3*X143567Y111753D3*X155378D3*X152819Y114312D3*X150260Y111753D3*X152819Y109194D3*Y97383D3*X155378Y99942D3*X152819Y102501D3*X150260Y99942D3*X143567D3*X141008Y102501D3*X138449Y99942D3*X141008Y97383D3*Y90690D3*X138449Y88131D3*X141008Y85572D3*X143567Y88131D3*X155378D3*X152819Y90690D3*X150260Y88131D3*X152819Y85572D3*X156796Y32208D3*X144985D3*X139079Y21979D3*X144985Y11750D3*X156796D3*X162701Y21979D3*D178*X150890Y21979D3*X44591Y179459D3*X280812D3*X0Y0D2*M02*