G04 Output by ViewMate Deluxe V11.12.18  PentaLogix*
G04 Wed Mar 06 15:41:31 2019*
%IPPOS*%
%FSLAX25Y25*%
%MOIN*%
%ADD45C,0.02775*%
%ADD46C,0.024*%
%ADD47C,0.02381*%
%ADD48C,0.0315*%
%ADD49C,0.012*%
%ADD111R,0.03937X0.04331*%
%ADD112R,0.05118X0.05906*%
%ADD113R,0.05512X0.05906*%
%ADD114R,0.04331X0.03937*%
%ADD115R,0.1063X0.06299*%
%ADD116R,0.06299X0.1063*%
%ADD117R,0.05906X0.05118*%
%ADD118R,0.03937X0.0315*%
%ADD119R,0.02953X0.09843*%
%ADD120C,0.00394*%
%ADD121C,0.00443*%
%ADD122R,0.00394X0.01181*%
%ADD123R,0.05315X0.01575*%
%ADD124R,0.0748X0.07087*%
%ADD125R,0.0515X0.0515*%
%ADD126C,0.0515*%
%ADD127C,0.1063*%
%ADD128C,0.09449*%
%ADD129C,0.005*%
%ADD130R,0.06X0.06*%
G04:---LTIenv:A131:16,0.06,0.0 *
%ADD131P,0.064944X8X22.5*%
%ADD132R,0.0315X0.03543*%
%ADD133R,0.01673X0.03937*%
%ADD134R,0.02992X0.05*%
%ADD135R,0.06299X0.07874*%
%ADD136C,0.00319*%
%ADD137C,0.15276*%
%ADD138R,0.02165X0.05118*%
%ADD139R,0.02362X0.05906*%
%ADD140R,0.06299X0.01378*%
%ADD141R,0.05709X0.01772*%
%ADD142R,0.06299X0.01181*%
%ADD143C,0.29528*%
%ADD144C,0.008*%
%ADD145C,0.016*%

%LPD*%
X0Y0D2*D46*G1X208656Y149794D2*X213656D1*X214906Y148544*Y143534*X32406Y27294D2*X38656D1*Y21034D2*Y27294D1*X42406*Y32294*X39906Y56044D2*X31156D1*X42406Y51044D2*Y56044D1*X39906*Y64794*X39896*X32416D2*X33656Y66034D1*Y76044*X33666Y101139D2*Y104981D1*X48031Y92919D2*X39906Y101044D1*X94906Y100641D2*Y99794D1*X78656*Y98032*Y86044D2*X74906D1*X84906Y81448D2*X94906D1*X84168Y68544D2*X84906D1*Y81448*X82002*X78656Y84794*Y86044*Y98032*X64394*X59281Y92919*X48031*X33656Y86044D2*X33666Y86054D1*Y101139*X33760Y101044*X39906*X37406Y97107D2*Y93544D1*X41781Y89169*X59281*X62406Y86044*Y66044*X71156Y57294*X119906*X121156Y56044*X126156*X196156Y84794D2*Y87294D1*X191781Y91669*Y103141*X196156D2*X191781D1*Y109169*X181156Y119794*Y123751*Y134794D2*Y130837D1*X191156Y133141D2*X186560D1*X184906Y134794*X181156*Y149794*X200531*X188252Y157294D2*X196156D1*X181560D2*X181156Y156891D1*Y149794*D48*X83656Y132294D2*X82378Y132976D1*X81084Y133628*X79775Y134249*X78451Y134839*X77115Y135398*X75765Y135925*X74404Y136420*X73031Y136883*X71647Y137314*X70254Y137712*X68852Y138077*X67442Y138409*X66024Y138708*X64600Y138973*X63169Y139205*X61734Y139403*X60295Y139568*X58852Y139698*X57406Y139794*X41205Y140089*X83657Y132295D2*X84198Y131976D1*X84746Y131671*X85301Y131379*X85864Y131100*X86433Y130835*X87008Y130584*X87590Y130347*X88176Y130124*X88768Y129915*X89365Y129721*X89967Y129541*X90572Y129376*X91182Y129226*X91795Y129090*X92411Y128969*X93029Y128863*X93650Y128773*X94273Y128697*X94898Y128636*X95524Y128591*X96151Y128560*X96779Y128545*X97406*X103213Y128544D2*X97406D1*D49*X239896Y129794D2*Y131044D1*X241156*Y138456*X242317*X244906Y159794D2*Y182294D1*Y151044D2*X247406D1*X249906Y148544*Y143431*X251156Y142181*Y141044*X243567*X242317Y141015D2*X233627D1*X218656Y126044*X214906*X211156Y122294*Y120001*X210132*X196156Y103141D2*X197185Y104169D1*X199281*X204906Y109794*X210103*X210132Y112324D2*X200339D1*X196156Y108948*D120*X27071Y30926D2*X34158D1*X32819Y23474D2*X28410D1*X27733Y23866D2*X33496D1*X33829Y24258D2*X27400D1*X27204Y24650D2*X34026D1*X34126Y25042D2*X27103D1*X34158Y25326D2*Y31231D1*X27071*Y25326*X27121Y24888*X27266Y24471*X27501Y24098*X27813Y23787*X28186Y23552*X28602Y23406*X29040Y23357*X32189*X32628Y23406*X33044Y23552*X33417Y23787*X33729Y24098*X33963Y24471*X34109Y24888*X34158Y25326*X27071Y25435D2*X34158D1*Y25827D2*X27071D1*Y26219D2*X34158D1*Y26611D2*X27071D1*Y27003D2*X34158D1*Y27396D2*X27071D1*Y27788D2*X34158D1*Y28180D2*X27071D1*Y28572D2*X34158D1*Y28965D2*X27071D1*Y29357D2*X34158D1*Y29749D2*X27071D1*Y30141D2*X34158D1*Y30533D2*X27071D1*X40988D2*X43863D1*X44310Y30926D2*X40541D1*X40314Y31318D2*X44538D1*X44655Y31710D2*X40197D1*X40162Y32102D2*X44689D1*X44658Y32494D2*X40193D1*X40303Y32887D2*X44548D1*X44329Y33279D2*X40523D1*X40941Y33671D2*X43910D1*X41934Y33987D2*X41539Y33943D1*X41165Y33812*X40829Y33600*X40548Y33320*X40337Y32984*X40206Y32610*X40162Y32215*Y32019*X40206Y31624*X40337Y31250*X40548Y30914*X40829Y30633*X41165Y30422*X41539Y30291*X41934Y30247*X42918*X43312Y30291*X43687Y30422*X44022Y30633*X44303Y30914*X44514Y31250*X44645Y31624*X44689Y32019*Y32215*X44645Y32610*X44514Y32984*X44303Y33320*X44022Y33600*X43687Y33812*X43312Y33943*X42918Y33987*X41934*X43713Y52889D2*X41138D1*X41772Y49360D2*X43079D1*X44046Y49752D2*X40805D1*X40463Y50144D2*X44388D1*X44581Y50536D2*X40270D1*X40183Y50928D2*X44669D1*X44688Y51321D2*X40163D1*X40209Y51713D2*X44642D1*X44497Y52105D2*X40354D1*X40631Y52497D2*X44220D1*X40548Y52414D2*X40829Y52695D1*X41165Y52906*X41539Y53037*X41934Y53081*X42918*X43312Y53037*X43687Y52906*X44022Y52695*X44303Y52414*X44514Y52079*X44645Y51704*X44689Y51310*Y51113*X44645Y50719*X44514Y50344*X44303Y50008*X44022Y49728*X43687Y49517*X43312Y49386*X42918Y49341*X41934*X41539Y49386*X41165Y49517*X40829Y49728*X40548Y50008*X40337Y50344*X40206Y50719*X40162Y51113*Y51310*X40206Y51704*X40337Y52079*X40548Y52414*X32385Y59949D2*X28845D1*X27837Y59557D2*X33393D1*X34158Y52105D2*X27071D1*Y52497D2*X34158D1*Y52889D2*X27071D1*Y53282D2*X34158D1*Y53674D2*X27071D1*Y54066D2*X34158D1*Y54458D2*X27071D1*Y54851D2*X34158D1*Y55243D2*X27071D1*Y55635D2*X34158D1*Y56027D2*X27071D1*Y56419D2*X34158D1*Y56812D2*X27071D1*Y57204D2*X34158D1*Y57596D2*X27071D1*Y57988D2*X34158D1*X34115Y58380D2*X27114D1*X27237Y58773D2*X33993D1*X33770Y59165D2*X27460D1*X33729Y59230D2*X33417Y59542D1*X33044Y59776*X32628Y59922*X32189Y59971*X29040*X28602Y59922*X28186Y59776*X27813Y59542*X27501Y59230*X27266Y58857*X27121Y58441*X27071Y58003*Y52097*X34158*Y58003*X34109Y58441*X33963Y58857*X33729Y59230*D121*X27096Y53378D2*X34134D1*Y52936D2*X27096D1*Y52494D2*X34134D1*X27096Y52052D2*X34134D1*Y53382*X27096*Y52052*X34134Y31272D2*X27096D1*Y30830D2*X34134D1*Y30388D2*X27096D1*X34134Y31276D2*X27096D1*Y29946*X34134*Y31276*D129*X24906Y120441D2*X36205D1*Y120940D2*X24906D1*Y121438D2*X36205D1*Y121937D2*X24906D1*Y122435D2*X36205D1*Y122934D2*X24906D1*Y123432D2*X36205D1*Y123931D2*X24906D1*Y124429D2*X36205D1*Y124928D2*X24906D1*Y125426D2*X36205D1*Y125925D2*X24906D1*Y126423D2*X36205D1*Y126922D2*X24906D1*Y127420D2*X36205D1*Y127919D2*X24906D1*Y128417D2*X36205D1*Y128916D2*X24906D1*Y129414D2*X36205D1*Y129913D2*X24906D1*X36205Y130089D2*Y120089D1*X24906*Y130089*X36205*X24906Y159824D2*X36205D1*Y159325D2*X24906D1*Y158827D2*X36205D1*Y158328D2*X24906D1*Y157830D2*X36205D1*Y157331D2*X24906D1*Y156833D2*X36205D1*Y156334D2*X24906D1*Y155836D2*X36205D1*Y155337D2*X24906D1*Y154839D2*X36205D1*Y154340D2*X24906D1*Y153842D2*X36205D1*Y153343D2*X24906D1*Y152845D2*X36205D1*Y152346D2*X24906D1*Y151847D2*X36205D1*Y151349D2*X24906D1*Y150850D2*X36205D1*Y150352D2*X24906D1*X36205Y150089D2*X24906D1*Y160089*X36205*Y150089*X27268Y141877D2*X41205D1*Y141379D2*X27268D1*Y140880D2*X41205D1*Y140382D2*X27268D1*X41205Y138121D2*X27268D1*Y142058*X41205*Y138121*X27268Y138388D2*X41205D1*Y138886D2*X27268D1*Y139385D2*X41205D1*Y139883D2*X27268D1*D136*X108471Y145070D2*X111341D1*Y144752D2*X108471D1*Y144434D2*X111341D1*Y144116D2*X108471D1*Y143798D2*X111341D1*Y143480D2*X108471D1*Y143162D2*X111341D1*Y142844D2*X108471D1*Y142526D2*X111341D1*X108471Y145078D2*Y142208D1*X111341*Y145078*X108471*X113471Y145070D2*X116341D1*Y144752D2*X113471D1*Y144434D2*X116341D1*Y144116D2*X113471D1*Y143798D2*X116341D1*Y143480D2*X113471D1*Y143162D2*X116341D1*Y142844D2*X113471D1*Y142526D2*X116341D1*X113471Y145078D2*Y142208D1*X116341*Y145078*X113471*X118471Y145070D2*X121341D1*Y144752D2*X118471D1*Y144434D2*X121341D1*Y144116D2*X118471D1*Y143798D2*X121341D1*Y143480D2*X118471D1*Y143162D2*X121341D1*Y142844D2*X118471D1*Y142526D2*X121341D1*X118471Y145078D2*Y142208D1*X121341*Y145078*X118471*X123471Y145070D2*X126341D1*Y144752D2*X123471D1*Y144434D2*X126341D1*Y144116D2*X123471D1*Y143798D2*X126341D1*Y143480D2*X123471D1*Y143162D2*X126341D1*Y142844D2*X123471D1*Y142526D2*X126341D1*X123471Y145078D2*Y142208D1*X126341*Y145078*X123471*X128471Y145070D2*X131341D1*Y144752D2*X128471D1*Y144434D2*X131341D1*Y144116D2*X128471D1*Y143798D2*X131341D1*Y143480D2*X128471D1*Y143162D2*X131341D1*Y142844D2*X128471D1*Y142526D2*X131341D1*X128471Y145078D2*Y142208D1*X131341*Y145078*X128471*X133471Y145070D2*X136341D1*Y144752D2*X133471D1*Y144434D2*X136341D1*Y144116D2*X133471D1*Y143798D2*X136341D1*Y143480D2*X133471D1*Y143162D2*X136341D1*Y142844D2*X133471D1*Y142526D2*X136341D1*X133471Y145078D2*Y142208D1*X136341*Y145078*X133471*X138471Y145070D2*X141341D1*Y144752D2*X138471D1*Y144434D2*X141341D1*Y144116D2*X138471D1*Y143798D2*X141341D1*Y143480D2*X138471D1*Y143162D2*X141341D1*Y142844D2*X138471D1*Y142526D2*X141341D1*X138471Y145078D2*Y142208D1*X141341*Y145078*X138471*X143471Y145070D2*X146341D1*Y144752D2*X143471D1*Y144434D2*X146341D1*Y144116D2*X143471D1*Y143798D2*X146341D1*Y143480D2*X143471D1*Y143162D2*X146341D1*Y142844D2*X143471D1*Y142526D2*X146341D1*X143471Y145078D2*Y142208D1*X146341*Y145078*X143471*X148471Y145070D2*X151341D1*Y144752D2*X148471D1*Y144434D2*X151341D1*Y144116D2*X148471D1*Y143798D2*X151341D1*Y143480D2*X148471D1*Y143162D2*X151341D1*Y142844D2*X148471D1*Y142526D2*X151341D1*X148471Y145078D2*Y142208D1*X151341*Y145078*X148471*X153471Y145070D2*X156341D1*Y144752D2*X153471D1*Y144434D2*X156341D1*Y144116D2*X153471D1*Y143798D2*X156341D1*Y143480D2*X153471D1*Y143162D2*X156341D1*Y142844D2*X153471D1*Y142526D2*X156341D1*X153471Y145078D2*Y142208D1*X156341*Y145078*X153471*X158471Y145070D2*X161341D1*Y144752D2*X158471D1*Y144434D2*X161341D1*Y144116D2*X158471D1*Y143798D2*X161341D1*Y143480D2*X158471D1*Y143162D2*X161341D1*Y142844D2*X158471D1*Y142526D2*X161341D1*X158471Y145078D2*Y142208D1*X161341*Y145078*X158471*X165164Y144971D2*X168034D1*Y144653D2*X165164D1*Y144335D2*X168034D1*Y144017D2*X165164D1*Y143699D2*X168034D1*Y143381D2*X165164D1*Y143063D2*X168034D1*Y142745D2*X165164D1*Y142427D2*X168034D1*X165164Y144979D2*Y142109D1*X168034*Y144979*X165164*Y139971D2*X168034D1*Y139653D2*X165164D1*Y139335D2*X168034D1*Y139017D2*X165164D1*Y138699D2*X168034D1*Y138381D2*X165164D1*Y138063D2*X168034D1*Y137745D2*X165164D1*Y137427D2*X168034D1*X165164Y139979D2*Y137109D1*X168034*Y139979*X165164*Y134971D2*X168034D1*Y134653D2*X165164D1*Y134335D2*X168034D1*Y134017D2*X165164D1*Y133699D2*X168034D1*Y133381D2*X165164D1*Y133063D2*X168034D1*Y132745D2*X165164D1*Y132427D2*X168034D1*X165164Y134979D2*Y132109D1*X168034*Y134979*X165164*Y129971D2*X168034D1*Y129653D2*X165164D1*Y129335D2*X168034D1*Y129017D2*X165164D1*Y128699D2*X168034D1*Y128381D2*X165164D1*Y128063D2*X168034D1*Y127745D2*X165164D1*Y127427D2*X168034D1*X165164Y129979D2*Y127109D1*X168034*Y129979*X165164*Y124971D2*X168034D1*Y124653D2*X165164D1*Y124335D2*X168034D1*Y124017D2*X165164D1*Y123699D2*X168034D1*Y123381D2*X165164D1*Y123063D2*X168034D1*Y122745D2*X165164D1*Y122427D2*X168034D1*X165164Y124979D2*Y122109D1*X168034*Y124979*X165164*Y119971D2*X168034D1*Y119653D2*X165164D1*Y119335D2*X168034D1*Y119017D2*X165164D1*Y118699D2*X168034D1*Y118381D2*X165164D1*Y118063D2*X168034D1*Y117745D2*X165164D1*Y117427D2*X168034D1*X165164Y119979D2*Y117109D1*X168034*Y119979*X165164*Y114971D2*X168034D1*Y114653D2*X165164D1*Y114335D2*X168034D1*Y114017D2*X165164D1*Y113699D2*X168034D1*Y113381D2*X165164D1*Y113063D2*X168034D1*Y112745D2*X165164D1*Y112427D2*X168034D1*X165164Y114979D2*Y112109D1*X168034*Y114979*X165164*Y109971D2*X168034D1*Y109653D2*X165164D1*Y109335D2*X168034D1*Y109017D2*X165164D1*Y108699D2*X168034D1*Y108381D2*X165164D1*Y108063D2*X168034D1*Y107745D2*X165164D1*Y107427D2*X168034D1*X165164Y109979D2*Y107109D1*X168034*Y109979*X165164*Y104971D2*X168034D1*Y104653D2*X165164D1*Y104335D2*X168034D1*Y104017D2*X165164D1*Y103699D2*X168034D1*Y103381D2*X165164D1*Y103063D2*X168034D1*Y102745D2*X165164D1*Y102427D2*X168034D1*X165164Y104979D2*Y102109D1*X168034*Y104979*X165164*Y99971D2*X168034D1*Y99653D2*X165164D1*Y99335D2*X168034D1*Y99017D2*X165164D1*Y98699D2*X168034D1*Y98381D2*X165164D1*Y98063D2*X168034D1*Y97745D2*X165164D1*Y97427D2*X168034D1*X165164Y99979D2*Y97109D1*X168034*Y99979*X165164*Y94971D2*X168034D1*Y94653D2*X165164D1*Y94335D2*X168034D1*Y94017D2*X165164D1*Y93699D2*X168034D1*Y93381D2*X165164D1*Y93063D2*X168034D1*Y92745D2*X165164D1*Y92427D2*X168034D1*X165164Y94979D2*Y92109D1*X168034*Y94979*X165164*Y89971D2*X168034D1*Y89653D2*X165164D1*Y89335D2*X168034D1*Y89017D2*X165164D1*Y88699D2*X168034D1*Y88381D2*X165164D1*Y88063D2*X168034D1*Y87745D2*X165164D1*Y87427D2*X168034D1*X165164Y89979D2*Y87109D1*X168034*Y89979*X165164*Y84971D2*X168034D1*Y84653D2*X165164D1*Y84335D2*X168034D1*Y84017D2*X165164D1*Y83699D2*X168034D1*Y83381D2*X165164D1*Y83063D2*X168034D1*Y82745D2*X165164D1*Y82427D2*X168034D1*X165164Y84979D2*Y82109D1*X168034*Y84979*X165164*Y79971D2*X168034D1*Y79653D2*X165164D1*Y79335D2*X168034D1*Y79017D2*X165164D1*Y78699D2*X168034D1*Y78381D2*X165164D1*Y78063D2*X168034D1*Y77745D2*X165164D1*Y77427D2*X168034D1*X165164Y79979D2*Y77109D1*X168034*Y79979*X165164*Y74971D2*X168034D1*Y74653D2*X165164D1*Y74335D2*X168034D1*Y74017D2*X165164D1*Y73699D2*X168034D1*Y73381D2*X165164D1*Y73063D2*X168034D1*Y72745D2*X165164D1*Y72427D2*X168034D1*X165164Y74979D2*Y72109D1*X168034*Y74979*X165164*Y69971D2*X168034D1*Y69653D2*X165164D1*Y69335D2*X168034D1*Y69017D2*X165164D1*Y68699D2*X168034D1*Y68381D2*X165164D1*Y68063D2*X168034D1*Y67745D2*X165164D1*Y67427D2*X168034D1*X165164Y69979D2*Y67109D1*X168034*Y69979*X165164*X161341Y69873D2*X158471D1*Y69555D2*X161341D1*Y69237D2*X158471D1*Y68919D2*X161341D1*Y68601D2*X158471D1*Y68283D2*X161341D1*Y67965D2*X158471D1*Y67647D2*X161341D1*Y67329D2*X158471D1*X161341Y67011D2*Y69881D1*X158471*Y67011*X161341*X156341Y69873D2*X153471D1*Y69555D2*X156341D1*Y69237D2*X153471D1*Y68919D2*X156341D1*Y68601D2*X153471D1*Y68283D2*X156341D1*Y67965D2*X153471D1*Y67647D2*X156341D1*Y67329D2*X153471D1*X156341Y67011D2*Y69881D1*X153471*Y67011*X156341*X151341Y69873D2*X148471D1*Y69555D2*X151341D1*Y69237D2*X148471D1*Y68919D2*X151341D1*Y68601D2*X148471D1*Y68283D2*X151341D1*Y67965D2*X148471D1*Y67647D2*X151341D1*Y67329D2*X148471D1*X151341Y67011D2*Y69881D1*X148471*Y67011*X151341*X146341Y69873D2*X143471D1*Y69555D2*X146341D1*Y69237D2*X143471D1*Y68919D2*X146341D1*Y68601D2*X143471D1*Y68283D2*X146341D1*Y67965D2*X143471D1*Y67647D2*X146341D1*Y67329D2*X143471D1*X146341Y67011D2*Y69881D1*X143471*Y67011*X146341*X141341Y69873D2*X138471D1*Y69555D2*X141341D1*Y69237D2*X138471D1*Y68919D2*X141341D1*Y68601D2*X138471D1*Y68283D2*X141341D1*Y67965D2*X138471D1*Y67647D2*X141341D1*Y67329D2*X138471D1*X141341Y67011D2*Y69881D1*X138471*Y67011*X141341*X136341Y69873D2*X133471D1*Y69555D2*X136341D1*Y69237D2*X133471D1*Y68919D2*X136341D1*Y68601D2*X133471D1*Y68283D2*X136341D1*Y67965D2*X133471D1*Y67647D2*X136341D1*Y67329D2*X133471D1*X136341Y67011D2*Y69881D1*X133471*Y67011*X136341*X131341Y69873D2*X128471D1*Y69555D2*X131341D1*Y69237D2*X128471D1*Y68919D2*X131341D1*Y68601D2*X128471D1*Y68283D2*X131341D1*Y67965D2*X128471D1*Y67647D2*X131341D1*Y67329D2*X128471D1*X131341Y67011D2*Y69881D1*X128471*Y67011*X131341*X126341Y69873D2*X123471D1*Y69555D2*X126341D1*Y69237D2*X123471D1*Y68919D2*X126341D1*Y68601D2*X123471D1*Y68283D2*X126341D1*Y67965D2*X123471D1*Y67647D2*X126341D1*Y67329D2*X123471D1*X126341Y67011D2*Y69881D1*X123471*Y67011*X126341*X121341Y69873D2*X118471D1*Y69555D2*X121341D1*Y69237D2*X118471D1*Y68919D2*X121341D1*Y68601D2*X118471D1*Y68283D2*X121341D1*Y67965D2*X118471D1*Y67647D2*X121341D1*Y67329D2*X118471D1*X121341Y67011D2*Y69881D1*X118471*Y67011*X121341*X116341Y69873D2*X113471D1*Y69555D2*X116341D1*Y69237D2*X113471D1*Y68919D2*X116341D1*Y68601D2*X113471D1*Y68283D2*X116341D1*Y67965D2*X113471D1*Y67647D2*X116341D1*Y67329D2*X113471D1*X116341Y67011D2*Y69881D1*X113471*Y67011*X116341*X111341Y69873D2*X108471D1*Y69555D2*X111341D1*Y69237D2*X108471D1*Y68919D2*X111341D1*Y68601D2*X108471D1*Y68283D2*X111341D1*Y67965D2*X108471D1*Y67647D2*X111341D1*Y67329D2*X108471D1*X111341Y67011D2*Y69881D1*X108471*Y67011*X111341*X104648Y69971D2*X101778D1*Y69653D2*X104648D1*Y69335D2*X101778D1*Y69017D2*X104648D1*Y68699D2*X101778D1*Y68381D2*X104648D1*Y68063D2*X101778D1*Y67745D2*X104648D1*Y67427D2*X101778D1*X104648Y67109D2*Y69979D1*X101778*Y67109*X104648*Y74971D2*X101778D1*Y74653D2*X104648D1*Y74335D2*X101778D1*Y74017D2*X104648D1*Y73699D2*X101778D1*Y73381D2*X104648D1*Y73063D2*X101778D1*Y72745D2*X104648D1*Y72427D2*X101778D1*X104648Y72109D2*Y74979D1*X101778*Y72109*X104648*Y79971D2*X101778D1*Y79653D2*X104648D1*Y79335D2*X101778D1*Y79017D2*X104648D1*Y78699D2*X101778D1*Y78381D2*X104648D1*Y78063D2*X101778D1*Y77745D2*X104648D1*Y77427D2*X101778D1*X104648Y77109D2*Y79979D1*X101778*Y77109*X104648*Y84971D2*X101778D1*Y84653D2*X104648D1*Y84335D2*X101778D1*Y84017D2*X104648D1*Y83699D2*X101778D1*Y83381D2*X104648D1*Y83063D2*X101778D1*Y82745D2*X104648D1*Y82427D2*X101778D1*X104648Y82109D2*Y84979D1*X101778*Y82109*X104648*Y89971D2*X101778D1*Y89653D2*X104648D1*Y89335D2*X101778D1*Y89017D2*X104648D1*Y88699D2*X101778D1*Y88381D2*X104648D1*Y88063D2*X101778D1*Y87745D2*X104648D1*Y87427D2*X101778D1*X104648Y87109D2*Y89979D1*X101778*Y87109*X104648*Y94971D2*X101778D1*Y94653D2*X104648D1*Y94335D2*X101778D1*Y94017D2*X104648D1*Y93699D2*X101778D1*Y93381D2*X104648D1*Y93063D2*X101778D1*Y92745D2*X104648D1*Y92427D2*X101778D1*X104648Y92109D2*Y94979D1*X101778*Y92109*X104648*Y99971D2*X101778D1*Y99653D2*X104648D1*Y99335D2*X101778D1*Y99017D2*X104648D1*Y98699D2*X101778D1*Y98381D2*X104648D1*Y98063D2*X101778D1*Y97745D2*X104648D1*Y97427D2*X101778D1*X104648Y97109D2*Y99979D1*X101778*Y97109*X104648*Y104971D2*X101778D1*Y104653D2*X104648D1*Y104335D2*X101778D1*Y104017D2*X104648D1*Y103699D2*X101778D1*Y103381D2*X104648D1*Y103063D2*X101778D1*Y102745D2*X104648D1*Y102427D2*X101778D1*X104648Y102109D2*Y104979D1*X101778*Y102109*X104648*Y109971D2*X101778D1*Y109653D2*X104648D1*Y109335D2*X101778D1*Y109017D2*X104648D1*Y108699D2*X101778D1*Y108381D2*X104648D1*Y108063D2*X101778D1*Y107745D2*X104648D1*Y107427D2*X101778D1*X104648Y107109D2*Y109979D1*X101778*Y107109*X104648*Y114971D2*X101778D1*Y114653D2*X104648D1*Y114335D2*X101778D1*Y114017D2*X104648D1*Y113699D2*X101778D1*Y113381D2*X104648D1*Y113063D2*X101778D1*Y112745D2*X104648D1*Y112427D2*X101778D1*X104648Y112109D2*Y114979D1*X101778*Y112109*X104648*Y119971D2*X101778D1*Y119653D2*X104648D1*Y119335D2*X101778D1*Y119017D2*X104648D1*Y118699D2*X101778D1*Y118381D2*X104648D1*Y118063D2*X101778D1*Y117745D2*X104648D1*Y117427D2*X101778D1*X104648Y117109D2*Y119979D1*X101778*Y117109*X104648*Y124971D2*X101778D1*Y124653D2*X104648D1*Y124335D2*X101778D1*Y124017D2*X104648D1*Y123699D2*X101778D1*Y123381D2*X104648D1*Y123063D2*X101778D1*Y122745D2*X104648D1*Y122427D2*X101778D1*X104648Y122109D2*Y124979D1*X101778*Y122109*X104648*Y129971D2*X101778D1*Y129653D2*X104648D1*Y129335D2*X101778D1*Y129017D2*X104648D1*Y128699D2*X101778D1*Y128381D2*X104648D1*Y128063D2*X101778D1*Y127745D2*X104648D1*Y127427D2*X101778D1*X104648Y127109D2*Y129979D1*X101778*Y127109*X104648*Y134971D2*X101778D1*Y134653D2*X104648D1*Y134335D2*X101778D1*Y134017D2*X104648D1*Y133699D2*X101778D1*Y133381D2*X104648D1*Y133063D2*X101778D1*Y132745D2*X104648D1*Y132427D2*X101778D1*X104648Y132109D2*Y134979D1*X101778*Y132109*X104648*Y139971D2*X101778D1*Y139653D2*X104648D1*Y139335D2*X101778D1*Y139017D2*X104648D1*Y138699D2*X101778D1*Y138381D2*X104648D1*Y138063D2*X101778D1*Y137745D2*X104648D1*Y137427D2*X101778D1*X104648Y137109D2*Y139979D1*X101778*Y137109*X104648*Y144971D2*X101778D1*Y144653D2*X104648D1*Y144335D2*X101778D1*Y144017D2*X104648D1*Y143699D2*X101778D1*Y143381D2*X104648D1*Y143063D2*X101778D1*Y142745D2*X104648D1*Y142427D2*X101778D1*X104648Y142109D2*Y144979D1*X101778*Y142109*X104648*D137*X129552Y103761D2*X152464D1*X129552Y111398D2*Y88486D1*X152464*Y111398*X129552*D144*X265306Y38227D2*X264506D1*Y39026D2*X265306D1*Y39824D2*X264506D1*Y40623D2*X265306D1*Y41421D2*X264506D1*X272256Y43817D2*X269306D1*Y44615D2*X272256D1*Y45414D2*X269306D1*X268968Y46212D2*X272256D1*X264506Y48608D2*X265306D1*Y49406D2*X264506D1*Y50205D2*X265306D1*Y51003D2*X264506D1*Y56593D2*X265306D1*Y55794D2*X264506D1*Y54996D2*X265306D1*Y53399D2*X264506D1*Y54197D2*X265306D1*X260587D2*X258660D1*X258338Y54996D2*X261385D1*X262184Y55794D2*X259136D1*X259935Y56593D2*X262982D1*X193656Y130056D2*X195525D1*Y129257D2*X193894D1*X205531Y117442D2*X210132D1*X209556Y122071D2*X206931D1*Y122869D2*X209556D1*X210267Y123668D2*X206931D1*Y124466D2*X211066D1*X211864Y125265D2*X206931D1*Y126063D2*X212663D1*X213461Y126862D2*X206931D1*X296831Y146026D2*X299097D1*Y145228D2*X297629D1*X299097Y144429D2*X298428D1*X298906Y143631D2*X299097D1*Y142832D2*X298906D1*Y142034D2*X299097D1*Y141235D2*X298906D1*X298705Y140437D2*X299097D1*Y139638D2*X297907D1*X297108Y138840D2*X299097D1*X280307Y119675D2*X278181D1*Y118877D2*X279509D1*X278181Y118078D2*X278710D1*X255844Y90732D2*X255206Y91369D1*X250132*Y88810D2*X245890D1*X255844Y81044D2*X256067Y81133D1*X239906Y73544D2*X232406D1*X228656Y69794*X123932Y23055D2*X124055D1*X71156Y17294D2*X71117Y17255D1*Y10414*X68936Y7085D2*X68337D1*Y7884D2*X68936D1*Y8682D2*X68337D1*Y9481D2*X68936D1*Y10279D2*X68337D1*Y11078D2*X68936D1*Y11876D2*X68337D1*Y12675D2*X68936D1*Y13473D2*X68337D1*X67846Y14272D2*X69426D1*X64466D2*X62886D1*X63376Y13473D2*X63975D1*Y12675D2*X63376D1*Y11876D2*X63975D1*Y11078D2*X63376D1*Y10279D2*X63975D1*Y9481D2*X63376D1*Y8682D2*X63975D1*Y7884D2*X63376D1*X63975Y7047D2*Y13781D1*X64561Y14367*X67751*X68337Y13781*Y7047*X67751Y6461*X64561*X63975Y7047*X63376Y7085D2*X63975D1*X59014D2*X58416D1*Y7884D2*X59014D1*Y8682D2*X58416D1*Y9481D2*X59014D1*Y10279D2*X58416D1*Y11078D2*X59014D1*Y11876D2*X58416D1*Y12675D2*X59014D1*Y13473D2*X58416D1*X59600Y14367D2*X62791D1*X63376Y13781*Y7047*X62791Y6461*X59600*X59014Y7047*Y13781*X59600Y14367*X57925Y14272D2*X59505D1*X38256Y10279D2*X39056D1*Y11078D2*X38256D1*Y11876D2*X39056D1*X26984Y17466D2*X35343D1*X34703Y18264D2*X26802D1*X26619Y19063D2*X34703D1*Y19861D2*X26437D1*X26380Y20660D2*X34703D1*X26743Y23055D2*X26306D1*Y22257D2*X28115D1*X34703Y21458D2*X26335D1*X34703Y22257D2*X33114D1*X34487Y23055D2*X34703D1*X30615Y30611D2*X30698Y30609D1*X30780Y30603*X30862Y30594*X30944Y30581*X31025Y30563*X31105Y30543*X31184Y30518*X31262Y30490*X31338Y30458*X31413Y30423*X31487Y30385*X31558Y30343*X31627Y30298*X31694Y30249*X31759Y30198*X31822Y30144*X31881Y30086*X31939Y30027*X31993Y29964*X32044Y29899*X32093Y29832*X32138Y29763*X32180Y29692*X32218Y29618*X32253Y29543*X32285Y29467*X32313Y29389*X32338Y29310*X32358Y29230*X32376Y29149*X32389Y29067*X32398Y28985*X32404Y28903*X32406Y28820*Y27294*X40910Y32294D2*X42406D1*X40634D2*X40609Y32292D1*X40584Y32287*X40560Y32278*X40538Y32266*X40518Y32251*X40500Y32233*X40485Y32213*X40473Y32191*X40464Y32167*X40459Y32142*X40457Y32117*X40910Y32294*X40634*X28457Y63779D2*X26306D1*Y62981D2*X28457D1*Y62182D2*X26306D1*Y61384D2*X28530D1*X26306Y60585D2*X27164D1*X26365Y59787D2*X26306D1*X31156Y56044D2*X30615D1*Y52717*X40457Y51211D2*Y51044D1*X42406*X54244Y46212D2*X45804D1*X46603Y47011D2*X54261D1*X54244Y45414D2*X47516D1*X58590Y36630D2*X57550D1*X63975Y28645D2*X63376D1*Y29443D2*X63975D1*Y30242D2*X63376D1*Y31041D2*X63975D1*Y31839D2*X63376D1*X68337Y35033D2*X68936D1*Y34235D2*X68337D1*Y33436D2*X68936D1*Y32638D2*X68337D1*Y31839D2*X68936D1*Y31041D2*X68337D1*Y30242D2*X68936D1*Y29443D2*X68337D1*Y28645D2*X68936D1*X69396Y27846D2*X67877D1*X72837D2*X74357D1*X73896Y28645D2*X73298D1*Y29443D2*X73896D1*Y30242D2*X73298D1*Y31041D2*X73896D1*Y31839D2*X73298D1*Y32638D2*X73896D1*Y33436D2*X73298D1*Y34235D2*X73896D1*X73298Y35041D2*Y28307D1*X72712Y27721*X69521*X68936Y28307*Y35041*X69521Y35627*X72712*X73298Y35041*X73896Y35033D2*X73298D1*X136895Y70966D2*X137917D1*X136895*X119793Y54197D2*X119892D1*X98656Y43544D2*X97219Y42107D1*X106686Y40623D2*X108126D1*X107784Y41421D2*X107028D1*Y42220D2*X107784D1*Y43018D2*X107028D1*X110752Y43544D2*X124906D1*X126156Y42294*Y38013*X126146Y38003*X130381Y35033D2*X128229D1*Y35832D2*X130381D1*Y36630D2*X128229D1*Y37429D2*X130381D1*Y38227D2*X128229D1*Y39026D2*X130381D1*Y39824D2*X128229D1*Y40623D2*X130381D1*Y41421D2*X127784D1*X127556Y42220D2*X130381D1*Y43018D2*X127412D1*X113632Y46212D2*X130381D1*Y45414D2*X113721D1*X125815Y44615D2*X130381D1*Y43817D2*X126613D1*X166156Y43544D2*Y40419D1*X172406Y34169*X196781*X201156Y38544*Y39794*X203166Y39824D2*X208782D1*Y39026D2*X202556D1*Y38227D2*X208782D1*Y37429D2*X202020D1*X201222Y36630D2*X208782D1*Y35832D2*X200423D1*X199625Y35033D2*X208782D1*Y34235D2*X198826D1*X198028Y33436D2*X208782D1*X192931Y26249D2*X193205D1*X184906Y32294D2*X171781D1*X153877Y50198*X153656Y56044D2*X153877Y55823D1*Y50198*X144906*X139906Y68446D2*Y52294D1*X152917Y70966D2*X151895D1*X152917*X157917D2*X156895D1*X157917*X171156Y76556D2*X169120D1*X173665*X169385Y75757D2*X174463D1*X175262Y74959D2*X169593D1*Y74160D2*X176060D1*X176859Y73362D2*X166996D1*X184906Y67294D2*X173656Y78544D1*X166599*X26306Y178765D2*X26324D1*X26439Y177967D2*X26306D1*Y177168D2*X26554D1*X26669Y176370D2*X26306D1*Y175571D2*X26784D1*X26898Y174773D2*X26306D1*Y173974D2*X27111D1*X27475Y173176D2*X26306D1*Y172377D2*X27840D1*X28205Y171578D2*X26306D1*Y170780D2*X28569D1*X28934Y169981D2*X26306D1*Y169183D2*X29441D1*X30133Y168384D2*X26306D1*Y167586D2*X30824D1*X31516Y166787D2*X26306D1*Y165989D2*X32208D1*X33168Y165190D2*X26306D1*Y164392D2*X34411D1*X35653Y163593D2*X26306D1*Y162795D2*X36896D1*X39537Y161996D2*X26306D1*X115734Y185153D2*X116578D1*X116302Y191541D2*X116010D1*X116152Y190743D2*X116160D1*X116152Y189944D2*X116160D1*Y189146D2*X116152D1*X121152D2*X121160D1*X121152Y189944D2*X121160D1*X121152Y190743D2*X121160D1*X121302Y191541D2*X121010D1*X205306Y196332D2*X204506D1*Y195534D2*X205306D1*Y194735D2*X204506D1*Y193937D2*X205306D1*X163632Y182758D2*X168975D1*X168591Y181959D2*X163632D1*X171560Y179794D2*X161156D1*Y181418*X122008Y141235D2*X122804D1*X122008*X87527Y133250D2*X102816D1*X69669Y117280D2*X39372D1*X85788Y105302D2*X85239D1*X93656Y106044D2*X96156Y108544D1*X103213*X137406Y121044D2*X141008Y112442D1*X157008Y141235D2*X157804D1*X157008*X152008D2*X152804D1*X152008*X152780Y146026D2*X152032D1*X156706Y153213D2*X159361D1*X158769Y154011D2*X156706D1*Y154810D2*X158769D1*Y155608D2*X156706D1*Y156407D2*X159356D1*Y157205D2*X156290D1*X155492Y158004D2*X159356D1*Y158802D2*X154693D1*X171731Y165989D2*X163632D1*Y166787D2*X170933D1*X170134Y167586D2*X163632D1*Y168384D2*X169336D1*X168537Y169183D2*X163632D1*Y169981D2*X167739D1*X166940Y170780D2*X163632D1*X163059Y171578D2*X166142D1*X154253D2*X153059D1*X153632Y170780D2*X153680D1*Y169981D2*X153632D1*Y169183D2*X153680D1*Y168384D2*X153632D1*Y167586D2*X153680D1*Y166787D2*X153632D1*Y165989D2*X153680D1*Y165190D2*X153632D1*Y164392D2*X153680D1*Y163593D2*X153632D1*Y162795D2*X153680D1*Y161996D2*X153632D1*Y161198D2*X153680D1*X143632Y160399D2*X143680D1*Y161198D2*X143632D1*Y161996D2*X143680D1*Y162795D2*X143632D1*Y163593D2*X143680D1*Y164392D2*X143632D1*Y165190D2*X143680D1*Y165989D2*X143632D1*Y166787D2*X143680D1*Y167586D2*X143632D1*Y168384D2*X143680D1*Y169183D2*X143632D1*Y169981D2*X143680D1*Y170780D2*X143632D1*X143059Y171578D2*X144253D1*X118576Y177168D2*X132029D1*X131230Y176370D2*X118543D1*X117809Y175571D2*X130644D1*X93066Y167586D2*X94246D1*X94034Y166787D2*X93278D1*Y165989D2*X94034D1*X49645Y161996D2*X87559D1*X54771Y164392D2*X67685D1*X67601Y165190D2*X56014D1*X56974Y165989D2*X67601D1*Y166787D2*X57666D1*X58358Y167586D2*X67601D1*Y168384D2*X59050D1*X88910D2*X76700D1*Y167586D2*X87553D1*X87341Y166787D2*X76700D1*Y165989D2*X87341D1*Y165190D2*X76700D1*X76615Y164392D2*X87341D1*Y163593D2*X75850D1*X52286Y162795D2*X87341D1*X68451Y163593D2*X53529D1*X71750D2*X72550D1*Y164392D2*X71750D1*Y165190D2*X72550D1*Y165989D2*X71750D1*Y166787D2*X72550D1*Y167586D2*X71750D1*Y168384D2*X72550D1*Y170780D2*X71750D1*Y171578D2*X72550D1*Y172377D2*X71750D1*Y173176D2*X72550D1*Y173974D2*X71750D1*X93797Y185952D2*X93515D1*Y183556D2*X93797D1*Y184355D2*X93515D1*Y185153D2*X93797D1*X75715D2*X87833D1*Y189146D2*X76300D1*Y189944D2*X88051D1*X106160Y190743D2*X76300D1*Y191541D2*X106302D1*X106856Y192340D2*X76300D1*Y193138D2*X106856D1*X107128Y193937D2*X76300D1*X144874Y193138D2*X111421D1*X192256Y197131D2*X158865D1*X159663Y196332D2*X192256D1*Y195534D2*X160462D1*X162857Y193138D2*X192256D1*Y193937D2*X162059D1*X161260Y194735D2*X192256D1*X147956Y189146D2*X154356D1*X153880Y189944D2*X148432D1*X148543Y190743D2*X153769D1*Y191541D2*X148543D1*X148237Y192340D2*X154075D1*X154874Y193138D2*X147438D1*X157766D2*X157438D1*X158565Y192340D2*X158237D1*X158543Y191541D2*X159356D1*Y190743D2*X158543D1*X158432Y189944D2*X159356D1*Y189146D2*X157956D1*Y188347D2*X159356D1*Y187549D2*X157956D1*X158632Y186750D2*X158680D1*Y185952D2*X158632D1*Y185153D2*X158680D1*Y184355D2*X158632D1*Y183556D2*X158680D1*Y182758D2*X158632D1*Y181959D2*X158680D1*Y181161D2*X158632D1*Y180362D2*X158680D1*Y179564D2*X158632D1*Y178765D2*X158680D1*Y177967D2*X158632D1*Y177168D2*X158680D1*Y176370D2*X158632D1*X158121Y175571D2*X159191D1*X153686D2*X154191D1*X148121D2*X148626D1*X143686D2*X144191D1*X141494Y181959D2*X140818D1*Y180362D2*X141494D1*Y179564D2*X140818D1*Y178765D2*X141494D1*Y177967D2*X140818D1*Y177168D2*X141494D1*Y176370D2*X140818D1*Y175571D2*X141494D1*X150290Y173974D2*X138181D1*Y173176D2*X149492D1*X99479Y172377D2*X133468D1*X100648Y173176D2*X99479D1*X130644Y173974D2*X104793D1*X104164Y173176D2*X131273D1*X111639Y161996D2*X110673D1*X111152Y161198D2*X111160D1*X111152Y160399D2*X111160D1*X111152Y159601D2*X111160D1*X112208Y151616D2*X110104D1*X110902Y152414D2*X111410D1*X111269Y153213D2*X111043D1*Y154011D2*X111269D1*X111545Y154810D2*X110767D1*X111071Y155608D2*X111241D1*X111152Y156407D2*X111160D1*X111152Y157205D2*X111160D1*X111152Y158004D2*X111160D1*Y158802D2*X111152D1*X118656Y158603D2*Y153544D1*X124906Y147294*X137804Y141235D2*X137008D1*X137804*X142804D2*X142008D1*X142804*X147008D2*X147804D1*X147008*X147780Y146026D2*X147032D1*X149906Y153544D2*Y143643D1*X152796Y155608D2*X151218D1*X153106Y154810D2*X152017D1*X152293Y154011D2*X153106D1*Y153213D2*X152293D1*X152152Y152414D2*X153106D1*Y151616D2*X151354D1*X151306Y150817D2*X153106D1*Y150019D2*X151306D1*Y149220D2*X153106D1*Y148422D2*X151306D1*Y147623D2*X153106D1*Y146825D2*X151306D1*X157032Y146026D2*X157780D1*X157032*X171156Y148422D2*X156706D1*X166202Y144429D2*X166996D1*Y146026D2*X166202D1*Y145228D2*X166996D1*X171156D2*X162501D1*X171156Y146026D2*X162032D1*X164006*X162501Y145228D2*X163616D1*X171156Y143631D2*X162501D1*X166996D2*X172881D1*X162501D2*X166202D1*X163604Y143941D2*Y145184D1*X163711Y145581*X163916Y145937*X164206Y146227*X164562Y146432*X164959Y146539*X166202*Y143941*X163604*Y144429D2*X162501D1*X171156*X172881D2*X169593D1*X169582Y145228D2*X172881D1*Y146026D2*X169192D1*X172881Y146825D2*X156706D1*X171156*Y147623D2*X156706D1*X172881*X156706Y148422D2*X172881D1*Y149220D2*X156706D1*Y150019D2*X172881D1*Y150817D2*X156706D1*Y151616D2*X172881D1*X160160Y152414D2*X156706D1*X172881D2*X162152D1*X162951Y153213D2*X172881D1*Y154011D2*X163543D1*Y154810D2*X172881D1*Y155608D2*X163543D1*X162956Y156407D2*X172881D1*Y157205D2*X162956D1*Y158004D2*X172881D1*Y158802D2*X162956D1*Y159601D2*X172881D1*Y160399D2*X163632D1*Y161198D2*X172881D1*Y161996D2*X163632D1*Y162795D2*X172881D1*Y163593D2*X163632D1*Y164392D2*X172881D1*X172530Y165190D2*X163632D1*X176169Y166787D2*X174893D1*X174094Y167586D2*X176852D1*Y168384D2*X173296D1*X172497Y169183D2*X176852D1*Y169981D2*X171699D1*X170900Y170780D2*X176852D1*Y171578D2*X170102D1*X169303Y172377D2*X176852D1*Y173176D2*X168504D1*X167706Y173974D2*X176852D1*Y174773D2*X166907D1*X163121Y175571D2*X176852D1*X168591Y177967D2*X163632D1*Y177168D2*X168638D1*X176852Y176370D2*X163632D1*X174482Y177168D2*X175330D1*X175284Y177967D2*X174528D1*Y178765D2*X175284D1*Y179564D2*X174528D1*Y180362D2*X175284D1*Y181161D2*X174528D1*Y181959D2*X175284D1*X175668Y182758D2*X174144D1*X163632Y183556D2*X177256D1*X177487Y184355D2*X163632D1*Y185153D2*X178285D1*X179084Y185952D2*X163632D1*Y186750D2*X179882D1*X180681Y187549D2*X162956D1*Y188347D2*X181479D1*X192256Y189146D2*X162956D1*Y189944D2*X192256D1*Y190743D2*X162956D1*Y191541D2*X192256D1*Y192340D2*X162956D1*X204506D2*X193656D1*X205306Y193138D2*X204506D1*X214506Y192340D2*X205306D1*X227889Y195534D2*X231923D1*X232722Y196332D2*X227090D1*X234506D2*X235306D1*Y195534D2*X234506D1*Y193937D2*X235306D1*Y194735D2*X234506D1*X259906D2*X258122D1*X258213Y189944D2*X259906D1*Y189146D2*X257415D1*X256616Y188347D2*X259906D1*X249306Y191541D2*X250906D1*Y190743D2*X249306D1*X248779Y189944D2*X251599D1*X252398Y189146D2*X247980D1*X248333Y188347D2*X253196D1*X259906Y187549D2*X249131D1*X259906Y171578D2*X259417D1*X258619Y172377D2*X259906D1*Y173176D2*X257820D1*X257022Y173974D2*X259906D1*Y174773D2*X256706D1*Y175571D2*X259906D1*Y176370D2*X256706D1*Y177168D2*X259906D1*Y177967D2*X256706D1*X257034Y178765D2*X259906D1*Y179564D2*X257832D1*X258631Y180362D2*X259906D1*Y181161D2*X258906D1*Y181959D2*X259906D1*Y182758D2*X258906D1*Y183556D2*X259906D1*Y184355D2*X258502D1*X257704Y185153D2*X259906D1*Y185952D2*X256905D1*X249930Y186750D2*X259906D1*X252907Y185952D2*X250728D1*X251306Y185153D2*X252108D1*X251306Y184355D2*X251310D1*X218071Y167586D2*X221741D1*Y168384D2*X218071D1*X217719Y169183D2*X222093D1*X221741Y170780D2*X218071D1*Y171578D2*X221741D1*Y172377D2*X218071D1*X224906Y182294D2*Y173141D1*X234906D2*Y182294D1*X228071Y167586D2*X231741D1*Y168384D2*X228071D1*X227719Y169183D2*X232093D1*X231741Y170780D2*X228071D1*Y171578D2*X231741D1*Y172377D2*X228071D1*Y173176D2*X231741D1*Y173974D2*X228071D1*Y174773D2*X231741D1*X231788Y175571D2*X228024D1*X226306Y176370D2*X233506D1*Y177168D2*X226306D1*Y177967D2*X233506D1*X232778Y178765D2*X227034D1*X227832Y179564D2*X231980D1*X231181Y180362D2*X228631D1*X228906Y181161D2*X230906D1*Y181959D2*X228906D1*Y182758D2*X230906D1*Y183556D2*X228906D1*X228502Y184355D2*X231310D1*X232108Y185153D2*X227704D1*X227980Y189146D2*X231832D1*X231033Y189944D2*X228779D1*X229306Y190743D2*X230506D1*Y191541D2*X229306D1*Y193138D2*X230506D1*Y193937D2*X229306D1*X228687Y194735D2*X231125D1*X215306Y192340D2*X224506D1*X214506Y193138D2*X215306D1*Y193937D2*X214506D1*Y194735D2*X215306D1*Y195534D2*X214506D1*Y196332D2*X215306D1*X208848D2*X212722D1*X211923Y195534D2*X209291D1*X209306Y194735D2*X211125D1*X210506Y193937D2*X209306D1*X210506Y192694D2*Y194117D1*X213083Y196694*X214506*Y192694*X210506*X209306Y193138D2*X210506D1*Y191541D2*X209306D1*Y190743D2*X210506D1*X211033Y189944D2*X209306D1*Y189146D2*X211832D1*X204906Y173141D2*Y182294D1*X202093Y169183D2*X193656D1*Y168384D2*X201741D1*Y167586D2*X193656D1*X202256Y151616D2*X202086D1*X205531Y117442D2*Y152919D1*X196556Y118877D2*X195756D1*Y118078D2*X196556D1*Y117280D2*X195756D1*Y116481D2*X196556D1*X196156Y115641D2*X195531Y116266D1*Y121044*X194321Y124466D2*X195525D1*Y123668D2*X193924D1*X193656Y122869D2*X196071D1*X198539Y122071D2*X193656D1*Y121272D2*X198539D1*Y120474D2*X193656D1*Y119675D2*X198539D1*X193656Y119113D2*X194003Y119206D1*X195756*Y116041*X196556*Y119206*X198309*X198539Y119144*Y122830*X196111*X195525Y123415*Y124982*X194321*Y124065*X193736Y123479*X193656*Y119113*X177385Y109295D2*X179262D1*X179241Y108496D2*X178184D1*X176524Y105302D2*X179241D1*X174906Y103544D2*X166599D1*X169193Y105302D2*X173288D1*X176620Y106101D2*X168665D1*X169193Y106899D2*X175821D1*X166599Y108544D2*X176156D1*X177810Y106891*X182406*X169193Y110093D2*X187746D1*X164004Y125265D2*X109532D1*X164004*X164570Y126063D2*X109641D1*X164570*X164004Y126862D2*X109641D1*X164004*Y127660D2*X109641D1*X164004*Y128459D2*X109641D1*X164004*Y129257D2*X109641D1*X164004*Y130056D2*X109641D1*X164004*X164399Y130854D2*X109641D1*X164399*X164004Y131653D2*X109641D1*X164004*X98656Y134048D2*X164004D1*X98656Y133250D2*X164004D1*X103610*X106208Y142832D2*X106912D1*Y142034D2*X106208D1*X105944Y141235D2*X107238D1*X100619Y140459D2*Y136629D1*X101298Y135950*X105128*X105808Y136629*Y140459*X105128Y141139*X101298*X100619Y140459*X66651Y141235D2*X100482D1*X70514Y140437D2*X100619D1*X98656*Y139638D2*X100619D1*X73210*X75379Y138840D2*X100619D1*X98656*Y138041D2*X100619D1*X77547*X79716Y137243D2*X100619D1*X98656*Y136444D2*X100803D1*X81497*X100362Y135645D2*X82953D1*X84408Y134847D2*X100219D1*Y134048D2*X85866D1*X89655Y132451D2*X100219D1*X92731Y131653D2*X100031D1*X98656*Y132451D2*X164004D1*X106208*X164004Y134048D2*X106208D1*X98656Y135645D2*X164191D1*X98656Y134847D2*X164004D1*X106208*X164191Y135645D2*X106064D1*X164189Y136444D2*X105623D1*X164189*X164004Y137243D2*X105808D1*X164004*Y138041D2*X105808D1*X164004*Y138840D2*X105808D1*X164004*Y139638D2*X105808D1*X164004*Y140437D2*X105808D1*X164004*X163868Y141235D2*X162008D1*X171156*Y142034D2*X162501D1*X163604*Y142832D2*X162501D1*X171156*X172881D2*X169593D1*Y142034D2*X172881D1*Y141235D2*X169330D1*X172881Y140437D2*X169193D1*X171156*Y139638D2*X169193D1*X172881*Y138840D2*X169193D1*X171156*Y138041D2*X169193D1*X172881*Y137243D2*X169193D1*X171156*Y136444D2*X169009D1*X172881*Y135645D2*X169007D1*X171156*Y134847D2*X169193D1*X172881*Y134048D2*X169193D1*X171156*Y133250D2*X169193D1*X172881*Y132451D2*X169193D1*X171156*Y131653D2*X169193D1*X172881*Y130854D2*X168798D1*X171156*Y130056D2*X169193D1*X172881*Y129257D2*X169193D1*X171156*Y128459D2*X169193D1*X172881*Y127660D2*X169193D1*X171156*Y126862D2*X169193D1*X172881*X172147Y125265D2*X169193D1*X171156*Y126063D2*X168628D1*X172881*X174281Y125419D2*Y165419D1*X166156Y173544*X158656*X159253Y171578D2*X158059D1*X158632Y170780D2*X158680D1*Y169981D2*X158632D1*Y169183D2*X158680D1*Y168384D2*X158632D1*Y167586D2*X158680D1*Y166787D2*X158632D1*Y165989D2*X158680D1*Y165190D2*X158632D1*Y164392D2*X158680D1*Y163593D2*X158632D1*Y162795D2*X158680D1*Y161996D2*X158632D1*Y161198D2*X158680D1*Y160399D2*X158632D1*X159356Y159749D2*X159265D1*X158680Y160335*Y171006*X159265Y171591*X163047*X163632Y171006*Y160335*X163047Y159749*X162956*Y156370*X163543Y155783*Y153805*X162145Y152407*X160167*X158769Y153805*Y155783*X159356Y156370*Y159749*X153895Y159601D2*X159356D1*X153680Y160335D2*Y171006D1*X154265Y171591*X158047*X158632Y171006*Y160335*X158047Y159749*X154265*X153680Y160335*X153632Y160399D2*X153680D1*X148680D2*X148632D1*Y161198D2*X148680D1*Y161996D2*X148632D1*Y162795D2*X148680D1*Y163593D2*X148632D1*Y164392D2*X148680D1*Y165190D2*X148632D1*Y165989D2*X148680D1*Y166787D2*X148632D1*Y167586D2*X148680D1*Y168384D2*X148632D1*Y169183D2*X148680D1*Y169981D2*X148632D1*Y170780D2*X148680D1*X148047Y171591D2*X148632Y171006D1*Y160335*X148047Y159749*X144265*X143680Y160335*Y171006*X144265Y171591*X148047*X149253Y171578D2*X148059D1*X138181Y172377D2*X149356D1*X138181Y171578D2*X139253D1*X138680Y170780D2*X138181D1*Y169981D2*X138680D1*Y169183D2*X138181D1*Y168384D2*X138680D1*Y167586D2*X138181D1*Y166787D2*X138680D1*Y165989D2*X138181D1*Y165190D2*X138680D1*Y164392D2*X138181D1*Y163593D2*X138680D1*Y162795D2*X138181D1*Y161996D2*X138680D1*Y161198D2*X138181D1*Y160399D2*X138680D1*X139356Y159601D2*X138329D1*X139602Y158802D2*X139128D1*X140401Y158004D2*X139926D1*X141199Y157205D2*X140725D1*X141306Y156407D2*X141998D1*X148594Y155608D2*X141306D1*Y154810D2*X147795D1*X147519Y154011D2*X141306D1*Y153213D2*X147519D1*X147660Y152414D2*X141306D1*Y151616D2*X148458D1*X148506Y150817D2*X141306D1*Y150019D2*X148506D1*Y149220D2*X141306D1*Y148422D2*X148506D1*Y147623D2*X141306D1*Y146825D2*X148506D1*X142032Y146026D2*X142780D1*X139906Y143643D2*Y156044D1*X136781Y159169*Y177919*X138052Y179564D2*X138280D1*Y178765D2*X137915D1*X138280Y177967D2*X138181D1*Y177168D2*X138280D1*Y176370D2*X138181D1*Y175571D2*X138626D1*X151089Y174773D2*X138181D1*X151494Y175571D2*X150818D1*Y176370D2*X151494D1*Y177168D2*X150818D1*Y177967D2*X151494D1*Y178765D2*X150818D1*Y179564D2*X151494D1*Y180362D2*X150818D1*Y181959D2*X151494D1*Y182758D2*X150818D1*Y183556D2*X151494D1*Y184355D2*X150818D1*Y185153D2*X151494D1*Y185952D2*X150818D1*Y186750D2*X151494D1*Y187549D2*X150818D1*X154356D2*X153338D1*X147956Y188347D2*X154356D1*X147956Y187549D2*X148974D1*X143338D2*X144356D1*X140818D2*X141494D1*Y186750D2*X140818D1*Y185952D2*X141494D1*Y185153D2*X140818D1*Y184355D2*X141494D1*Y183556D2*X140818D1*Y182758D2*X141494D1*X137819D2*X138280D1*X136156Y181044D2*Y178544D1*X136781Y177919*X134832Y176370D2*X135381D1*Y177168D2*X134033D1*X119374Y177967D2*X134756D1*Y178765D2*X120173D1*X120456Y179564D2*X134260D1*X133769Y180362D2*X120456D1*Y181161D2*X133769D1*Y181959D2*X120456D1*Y182758D2*X134493D1*X138280Y183556D2*X120456D1*Y184355D2*X138280D1*X121578Y185153D2*X120734D1*X138280D2*X125734D1*X126152Y185952D2*X138280D1*X138340Y186750D2*X126152D1*Y187549D2*X138974D1*X144356Y188347D2*X126152D1*Y189146D2*X144356D1*X143880Y189944D2*X126152D1*Y190743D2*X143769D1*Y191541D2*X126010D1*X110622Y192340D2*X144075D1*X111302Y191541D2*X111010D1*X111152Y190743D2*X111160D1*X111152Y189944D2*X111160D1*X111152Y189146D2*X111160D1*X111152Y188347D2*X111160D1*X111152Y187549D2*X111160D1*X111152Y186750D2*X111160D1*Y185952D2*X111152D1*X110734Y185153D2*X111578D1*X99479D2*X106578D1*X116856Y184355D2*X99479D1*X99256Y183556D2*X116856D1*Y182758D2*X98796D1*Y181959D2*X116856D1*Y181161D2*X98796D1*Y180362D2*X116678D1*X114251Y178765D2*X99022D1*X98796Y179564D2*X115049D1*X95770Y178765D2*X91542D1*X91999Y177967D2*X95314D1*Y177168D2*X91999D1*Y176370D2*X95314D1*X76008Y173974D2*X87833D1*Y173176D2*X76640D1*X76700Y172377D2*X87833D1*X88910Y171578D2*X76700D1*Y170780D2*X88910D1*Y169981D2*X76700D1*X72550Y169183D2*X88910D1*X71750Y169981D2*X72550D1*X59741Y169183D2*X71750D1*X67601Y169981D2*X60248D1*X60613Y170780D2*X67601D1*Y171578D2*X60978D1*X61342Y172377D2*X67601D1*X67661Y173176D2*X61707D1*X68141Y173887D2*X68460Y174071D1*X68816Y174167*X71750*Y169230*X72550*Y174167*X75484*X75840Y174071*X76159Y173887*X76420Y173626*X76604Y173307*X76700Y172951*Y169229*X72550*Y168430*X76700*Y164708*X76604Y164352*X76420Y164033*X76159Y163772*X75840Y163588*X75484Y163493*X72550*Y168429*X71750*Y163493*X68816*X68460Y163588*X68141Y163772*X67880Y164033*X67696Y164352*X67601Y164708*Y168430*X71750*Y169229*X67601*Y172951*X67696Y173307*X67880Y173626*X68141Y173887*X62072Y173974D2*X68292D1*X87833Y174773D2*X62284D1*X62399Y175571D2*X87833D1*Y176370D2*X62513D1*X62628Y177168D2*X87833D1*Y177967D2*X62743D1*X62858Y178765D2*X88290D1*X95996Y179564D2*X62943D1*X62828Y180362D2*X95996D1*X110322Y197131D2*X48936D1*X51655Y196332D2*X109524D1*X108725Y195534D2*X53205D1*X76005Y194735D2*X107927D1*X54447D2*X68295D1*X68001Y193937D2*X55690D1*X56793Y193138D2*X68001D1*Y192340D2*X57485D1*X58177Y191541D2*X68001D1*Y190743D2*X58869D1*X59561Y189944D2*X68001D1*Y189146D2*X60153D1*X60518Y188347D2*X68001D1*Y187549D2*X60882D1*X61247Y186750D2*X68001D1*Y185952D2*X61612D1*X61976Y185153D2*X68585D1*X87833Y184355D2*X62254D1*X62369Y183556D2*X88057D1*X95996Y182758D2*X62483D1*X62598Y181959D2*X95996D1*Y181161D2*X62713D1*X93656Y186753D2*Y181044D1*X93515Y187549D2*X93797D1*Y188347D2*X93515D1*Y189146D2*X93797D1*Y189944D2*X93515D1*X106160D2*X99261D1*X99479Y189146D2*X106160D1*Y188347D2*X99479D1*X108656Y188485D2*X106924Y186753D1*X97396*Y175335*X101865*X102406Y174794*X99479Y177168D2*X101404D1*X113769Y177967D2*X99479D1*X103408Y177168D2*X113769D1*Y176370D2*X104207D1*X115167Y174907D2*X117145D1*X118543Y176305*Y177136*X119402Y177994*X120456Y179048*Y184985*X120566*X121075Y185494*X121237*X121746Y184985*X125566*X126152Y185571*Y191399*X125566Y191985*X121746*X121160Y191399*Y189094*X121152*Y191399*X120566Y191985*X116746*X116160Y191399*Y189094*X116152*Y191399*X115566Y191985*X111746*X111160Y191399*Y185571*X111746Y184985*X115566*X116075Y185494*X116237*X116746Y184985*X116856*Y180540*X115998Y179681*X115167*X113769Y178283*Y176305*X115167Y174907*X104793Y175571D2*X114503D1*X130644Y174773D2*X104793D1*X133031Y174794D2*X134906Y172919D1*Y143643*X132008Y141235D2*X132804D1*X132008*X127804D2*X127008D1*X127804*X129906Y143643D2*Y147294D1*X123656Y153544*Y158603*X127406Y163544D2*Y153544D1*X131156Y149794*X133506Y151616D2*X132711D1*X130516Y152414D2*X133506D1*Y153213D2*X129717D1*X128919Y154011D2*X133506D1*Y154810D2*X128806D1*Y155608D2*X133506D1*Y156407D2*X128806D1*Y157205D2*X133506D1*Y158004D2*X128806D1*Y158802D2*X133506D1*Y159601D2*X128806D1*Y160399D2*X133506D1*Y161198D2*X128806D1*Y161996D2*X133506D1*Y162795D2*X128806D1*Y163593D2*X133506D1*Y164392D2*X128538D1*X127740Y165190D2*X133506D1*Y165989D2*X126941D1*X99971Y166787D2*X133506D1*Y167586D2*X99759D1*X91710Y168384D2*X133506D1*Y169183D2*X91710D1*Y169981D2*X133506D1*Y170780D2*X91710D1*Y171578D2*X133506D1*X95314Y172362D2*Y178309D1*X95899Y178894*X95996*Y183194*X95899*X95809Y183284*X95598Y183073*X95279Y182889*X94923Y182794*X93797*Y186611*X93515*Y182794*X92389*X92033Y182889*X91714Y183073*X91503Y183284*X91413Y183194*X88419*X87833Y183779*Y185494*X76056*X75714Y185152*X68586*X68001Y185738*Y194441*X68586Y195026*X75714*X76300Y194441*Y189094*X87833*Y189726*X88419Y190312*X91413*X91503Y190221*X91714Y190432*X92033Y190616*X92389Y190712*X93515*Y186894*X93797*Y190712*X94923*X95279Y190616*X95598Y190432*X95809Y190221*X95899Y190312*X98893*X99479Y189726*Y188153*X106160*Y191399*X106746Y191985*X106856*Y193665*X107910Y194719*X110410Y197219*X158777*X159831Y196165*X162956Y193040*Y187339*X163047*X163632Y186754*Y181194*X168591*Y182374*X169177Y182959*X173942*X174528Y182374*Y177215*X173942Y176629*X169177*X168591Y177215*Y178394*X163632*Y176083*X163047Y175497*X159265*X158680Y176083*Y186754*X159265Y187339*X159356*Y191548*X157285Y193619*X111902*X110456Y192173*Y191985*X110566*X111152Y191399*Y185571*X110566Y184985*X106746*X106378Y185353*X99479*Y183779*X98893Y183194*X98796*Y178894*X98893*X99479Y178309*Y176735*X100971*X101417Y177181*X103395*X104793Y175783*Y173805*X103395Y172407*X101417*X100019Y173805*Y173935*X99479*Y172362*X98893Y171776*X95899*X95314Y172362*X91999Y172377D2*X95314D1*Y173176D2*X91999D1*Y173974D2*X95314D1*Y174773D2*X91999D1*Y175571D2*X95314D1*X89916Y175335D2*X90310Y174942D1*Y164794*X93278Y162215D2*X92692Y161629D1*X87927*X87341Y162215*Y167374*X87927Y167959*X88910*Y171776*X88419*X87833Y172362*Y178309*X88419Y178894*X91413*X91999Y178309*Y172362*X91710Y172073*Y167959*X92692*X93278Y167374*Y162215*X94252Y161996D2*X93060D1*X93278Y162795D2*X94034D1*Y163593D2*X93278D1*Y164392D2*X94034D1*Y165190D2*X93278D1*X97002Y164794D2*X126156D1*X127406Y163544*X126006Y161996D2*X125673D1*X99971Y162795D2*X126006D1*X106639Y161996D2*X99753D1*X26306Y161198D2*X106160D1*Y160399D2*X26306D1*Y159601D2*X106160D1*Y158802D2*X26306D1*Y158004D2*X106160D1*Y157205D2*X26306D1*Y156407D2*X106160D1*X106241Y155608D2*X26306D1*Y154810D2*X106545D1*X106269Y154011D2*X26306D1*Y153213D2*X106269D1*X106410Y152414D2*X26306D1*X107667Y151157D2*X106269Y152555D1*Y154533*X106839Y155103*X106746*X106160Y155689*Y161517*X106746Y162103*X110566*X111152Y161517*Y155689*X110566Y155103*X110473*X111043Y154533*Y152555*X109645Y151157*X107667*X26306Y151616D2*X107208D1*X121000Y149220D2*X26306D1*Y150019D2*X120202D1*X119403Y150817D2*X26306D1*X115104Y151616D2*X118605D1*X117806Y152414D2*X115902D1*X116043Y153213D2*X117256D1*Y154011D2*X116043D1*X115767Y154810D2*X117256D1*X116071Y155608D2*X116241D1*X116152Y156407D2*X116160D1*X116152Y157205D2*X116160D1*X116152Y158004D2*X116160D1*X116152Y158802D2*X116160D1*X116152Y159601D2*X116160D1*X116152Y160399D2*X116160D1*X116152Y161198D2*X116160D1*X115566Y162103D2*X116152Y161517D1*Y155689*X115566Y155103*X115473*X116043Y154533*Y152555*X114645Y151157*X112667*X111269Y152555*Y154533*X111839Y155103*X111746*X111160Y155689*Y161517*X111746Y162103*X115566*X116639Y161996D2*X115673D1*X121639D2*X120673D1*X121152Y161198D2*X121160D1*X121152Y160399D2*X121160D1*X121152Y159601D2*X121160D1*X121152Y158802D2*X121160D1*X121152Y158004D2*X121160D1*X121152Y157205D2*X121160D1*X121152Y156407D2*X121160D1*X121071Y155608D2*X121241D1*X122256Y154810D2*X120056D1*X120169Y154011D2*X122256D1*Y153213D2*X120967D1*X122806Y152414D2*X121766D1*X123605Y151616D2*X122564D1*X124403Y150817D2*X123363D1*X125202Y150019D2*X124161D1*X126000Y149220D2*X124960D1*X126799Y148422D2*X125758D1*X126306Y147623D2*X127597D1*X128396Y146825D2*X126306D1*X127032Y146026D2*X127780D1*X124906Y147294D2*Y143643D1*X122032Y146026D2*X122780D1*X122032*X117032D2*X117780D1*X117032*X117008Y141235D2*X117804D1*X117008*X112574D2*X112804D1*X98656*Y148422D2*X121799D1*X26306*Y147623D2*X122597D1*X98656*Y146825D2*X123396D1*X26306*Y137243D2*X26343D1*X38838Y134847D2*X26306D1*Y135645D2*X37518D1*X36720Y136444D2*X26306D1*X100219Y144429D2*X44996D1*X43824Y145228D2*X100230D1*X26306Y143631D2*X36616D1*X37414Y144429D2*X26306D1*Y145228D2*X38586D1*X100620Y146026D2*X26306D1*X102816Y145228D2*X103610D1*Y146026D2*X102816D1*X107218D2*X105807D1*X106196Y145228D2*X106912D1*Y144429D2*X106208D1*X110303D2*X109509D1*Y145228D2*X110303D1*Y146026D2*X109509D1*X112594D2*X112780D1*X98656*X112312Y145228D2*X98656D1*Y144429D2*X112312D1*Y143631D2*X98656D1*Y142832D2*X112312D1*Y142034D2*X98656D1*X109509Y141235D2*X110303D1*Y142034D2*X109509D1*Y142832D2*X110303D1*X109509Y143245D2*Y140648D1*X108266*X107869Y140754*X107513Y140960*X107223Y141250*X107018Y141606*X106912Y142002*Y143245*X109509*X103610Y143631D2*X109509D1*X103610Y143941D2*X106208D1*Y145184*X106101Y145581*X105896Y145937*X105606Y146227*X105250Y146432*X104853Y146539*X103610*Y143941*X102816Y144429D2*X103610D1*X102816Y143941D2*Y146539D1*X101573*X101176Y146432*X100821Y146227*X100530Y145937*X100325Y145581*X100219Y145184*Y143941*X102816*X45795Y143631D2*X102816D1*X100219Y142832D2*X46292D1*X62787Y142034D2*X100219D1*X46249Y137243D2*X54726D1*X63332Y136444D2*X45691D1*X44892Y135645D2*X67196D1*X70699Y134847D2*X43573D1*X26306Y134048D2*X72868D1*X75036Y133250D2*X26306D1*Y132451D2*X77205D1*X79136Y131653D2*X26306D1*Y130854D2*X80730D1*X82323Y130056D2*X26306D1*Y129257D2*X83651D1*X85209Y128459D2*X26306D1*Y127660D2*X87336D1*X89464Y126862D2*X26306D1*Y126063D2*X93920D1*X100140Y125265D2*X26306D1*Y122071D2*X100219D1*Y122869D2*X26306D1*X164004Y123668D2*X98656D1*X154264Y115683D2*X164228D1*X154264*X154810Y114884D2*X164004D1*X154810*Y114086D2*X164004D1*X154810*X151995Y107203D2*X150829Y108369D1*Y109762*X149436*X148270Y110928*Y112577*X149436Y113743*X150829*Y115136*X151995Y116302*X153644*X154810Y115136*Y113743*X156203*X157369Y112577*Y110928*X156203Y109762*X154810*Y108369*X153644Y107203*X151995*X153644*X154810Y108369*Y109762*X156203*X157369Y110928*Y112577*X156203Y113743*X154810*Y115136*X153644Y116302*X151995*X150829Y115136*Y113743*X149436*X148270Y112577*Y110928*X149436Y109762*X150829*Y108369*X151995Y107203*X151209Y103705D2*X142619D1*X151209*X150829Y102907D2*X142999D1*X150829*Y102108D2*X142999D1*X150829*X148813Y101309D2*X145015D1*X148813*X148270Y100511D2*X145558D1*X148270*Y99712D2*X145558D1*X148270*X148473Y98914D2*X145355D1*X148473*X149272Y98115D2*X144556D1*X149272*X151995Y95392D2*X150829Y96558D1*Y97951*X149436*X148270Y99117*Y100766*X149436Y101932*X150829*Y103325*X151995Y104491*X153644*X154810Y103325*Y101932*X156203*X157369Y100766*Y99117*X156203Y97951*X154810*Y96558*X153644Y95392*X151995*X153644*X154810Y96558*Y97951*X156203*X157369Y99117*Y100766*X156203Y101932*X154810*Y103325*X153644Y104491*X151995*X150829Y103325*Y101932*X149436*X148270Y100766*Y99117*X149436Y97951*X150829*Y96558*X151995Y95392*X148270Y87306D2*Y88955D1*X149436Y90121*X150829*Y91514*X151995Y92680*X153644*X154810Y91514*Y90121*X156203*X157369Y88955*Y87306*X156203Y86140*X154810*Y84747*X153644Y83581*X151995*X150829Y84747*Y86140*X149436*X148270Y87306*Y88955*X149436Y90121*X150829*Y91514*X151995Y92680*X153644*X154810Y91514*Y90121*X156203*X157369Y88955*Y87306*X156203Y86140*X154810*Y84747*X153644Y83581*X151995*X150829Y84747*Y86140*X149436*X148270Y87306*X141994Y83742D2*X151834D1*X141994*X142793Y84541D2*X151035D1*X142793*X142999Y85339D2*X150829D1*X142999*Y86138D2*X150829D1*X142999*X145188Y86936D2*X148640D1*X145188*X145558Y87735D2*X148270D1*X145558*Y88533D2*X148270D1*X145558*X145181Y89332D2*X148646D1*X145181*X142999Y90130D2*X150829D1*X142999*Y90929D2*X150829D1*X142999*X142786Y91727D2*X151042D1*X142786*X141987Y92526D2*X151840D1*X141987*X141833Y92680D2*X142999Y91514D1*Y90121*X144392*X145558Y88955*Y87306*X144392Y86140*X142999*Y84747*X141833Y83581*X140184*X139018Y84747*Y86140*X137625*X136459Y87306*Y88955*X137625Y90121*X139018*Y91514*X140184Y92680*X141833*X142999Y91514*Y90121*X144392*X145558Y88955*Y87306*X144392Y86140*X142999*Y84747*X141833Y83581*X140184*X139018Y84747*Y86140*X137625*X136459Y87306*Y88955*X137625Y90121*X139018*Y91514*X140184Y92680*X141833*X142161Y95720D2*X151667D1*X142161*X142959Y96518D2*X150869D1*X142959*X142999Y97317D2*X150829D1*X142999*X140440Y99712D2*X141577D1*X140440*Y100510D2*Y99373D1*X141577*Y100510*X140440*Y99373*X141577*Y100510*X140440*X139018Y103325D2*X140184Y104491D1*X141833*X142999Y103325*Y101932*X144392*X145558Y100766*Y99117*X144392Y97951*X142999*Y96558*X141833Y95392*X140184*X139018Y96558*Y97951*X137625*X136459Y99117*Y100766*X137625Y101932*X139018*Y103325*X140184Y104491*X141833*X142999Y103325*Y101932*X144392*X145558Y100766*Y99117*X144392Y97951*X142999*Y96558*X141833Y95392*X140184*X139018Y96558*Y97951*X137625*X136459Y99117*Y100766*X137625Y101932*X139018*Y103325*X134906Y106044D2*X141008Y99942D1*Y112442*X142453Y115683D2*X151375D1*X142453*X142999Y114884D2*X150829D1*X142999*Y114086D2*X150829D1*X142999*X144848Y113287D2*X148980D1*X144848*X145558Y112489D2*X148270D1*X145558*Y111690D2*X148270D1*X145558*X145521Y110892D2*X148306D1*X145521*X144723Y110093D2*X149105D1*X144723*X142999Y109295D2*X150829D1*X142999*Y108496D2*X150829D1*X142999*X142327Y107698D2*X151500D1*X142327*X139689D2*X130516D1*X139689*X139018Y108496D2*X131188D1*X139018*Y109295D2*X131188D1*X139018*X137294Y110093D2*X132912D1*X137294*X136459Y112577D2*X137625Y113743D1*X139018*Y115136*X140184Y116302*X141833*X142999Y115136*Y113743*X144392*X145558Y112577*Y110928*X144392Y109762*X142999*Y108369*X141833Y107203*X140184*X139018Y108369*Y109762*X137625*X136459Y110928*Y112577*X137625Y113743*X139018*Y115136*X140184Y116302*X141833*X142999Y115136*Y113743*X144392*X145558Y112577*Y110928*X144392Y109762*X142999*Y108369*X141833Y107203*X140184*X139018Y108369*Y109762*X137625*X136459Y110928*Y112577*X130642Y115683D2*X139564D1*X130642*X131188Y114884D2*X139018D1*X131188*Y114086D2*X139018D1*X131188*X133037Y113287D2*X137169D1*X133037*X133747Y112489D2*X136459D1*X133747*Y111690D2*X136459D1*X133747*X133710Y110892D2*X136495D1*X133710*X133747Y110928D2*X132581Y109762D1*X131188*Y108369*X130022Y107203*X128373*X127207Y108369*Y109762*X125814*X124648Y110928*Y112577*X125814Y113743*X127207*Y115136*X128373Y116302*X130022*X131188Y115136*Y113743*X132581*X133747Y112577*Y110928*X132581Y109762*X131188*Y108369*X130022Y107203*X128373*X127207Y108369*Y109762*X125814*X124648Y110928*Y112577*X125814Y113743*X127207*Y115136*X128373Y116302*X130022*X131188Y115136*Y113743*X132581*X133747Y112577*Y110928*X134906Y111044D2*X137406Y121044D1*X134906Y106044*X130808Y103705D2*X139398D1*X130808*X131188Y102907D2*X139018D1*X131188*Y102108D2*X139018D1*X131188*X133204Y101309D2*X137002D1*X133204*X133747Y100511D2*X136459D1*X133747*Y99712D2*X136459D1*X133747*X133544Y98914D2*X136662D1*X133544*X132745Y98115D2*X137461D1*X132745*X131188Y97317D2*X139018D1*X131188*X131148Y96518D2*X139058D1*X131148*X130350Y95720D2*X139856D1*X130350*X130022Y95392D2*X128373D1*X127207Y96558*Y97951*X125814*X124648Y99117*Y100766*X125814Y101932*X127207*Y103325*X128373Y104491*X130022*X131188Y103325*Y101932*X132581*X133747Y100766*Y99117*X132581Y97951*X131188*Y96558*X130022Y95392*X128373*X127207Y96558*Y97951*X125814*X124648Y99117*Y100766*X125814Y101932*X127207*Y103325*X128373Y104491*X130022*X131188Y103325*Y101932*X132581*X133747Y100766*Y99117*X132581Y97951*X131188*Y96558*X130022Y95392*X130176Y92526D2*X140029D1*X130176*X130975Y91727D2*X139231D1*X130975*X131188Y90929D2*X139018D1*X131188*Y90130D2*X139018D1*X131188*X133370Y89332D2*X136835D1*X133370*X133747Y88533D2*X136459D1*X133747*Y87735D2*X136459D1*X133747*X133377Y86936D2*X136829D1*X133377*X131188Y86138D2*X139018D1*X131188*Y85339D2*X139018D1*X131188*X130982Y84541D2*X139224D1*X130982*X130183Y83742D2*X140023D1*X130183*X124648Y87306D2*Y88955D1*X125814Y90121*X127207*Y91514*X128373Y92680*X130022*X131188Y91514*Y90121*X132581*X133747Y88955*Y87306*X132581Y86140*X131188*Y84747*X130022Y83581*X128373*X127207Y84747*Y86140*X125814*X124648Y87306*Y88955*X125814Y90121*X127207*Y91514*X128373Y92680*X130022*X131188Y91514*Y90121*X132581*X133747Y88955*Y87306*X132581Y86140*X131188*Y84747*X130022Y83581*X128373*X127207Y84747*Y86140*X125814*X124648Y87306*X105808Y83742D2*X128212D1*X105808*Y84541D2*X127413D1*X105808*Y85339D2*X127207D1*X105808*X105317Y86138D2*X127207D1*X105317*X105808Y86936D2*X125018D1*X105808*Y87735D2*X124648D1*X105808*Y88533D2*X124648D1*X105808*Y89332D2*X125024D1*X105808*Y90130D2*X127207D1*X105808*X105673Y90929D2*X127207D1*X105338*X98275Y89332D2*X100619D1*X98656*Y90130D2*X100619D1*X98275*X100753Y90929D2*X98131D1*X98656D2*X101088D1*X98656Y92526D2*X128218D1*X106208*X106160Y91727D2*X127420D1*X98656*X100266D2*X98275D1*Y92526D2*X100219D1*X84971Y97317D2*X92223D1*X91597Y96518D2*X84971D1*Y95720D2*X91538D1*Y94921D2*X84971D1*X84625Y94123D2*X94506D1*X58731Y96518D2*X59769D1*X58731Y95720D2*X58971D1*X52314Y86138D2*X53064D1*X52587Y78951D2*X52570D1*X56146Y73628D2*Y82294D1*X54256Y65376D2*X51015D1*X51149Y64578D2*X54064D1*Y63779D2*X51149D1*Y62981D2*X54064D1*Y61384D2*X51149D1*Y60585D2*X54064D1*Y59787D2*X51149D1*X50982Y58988D2*X54312D1*X46306D2*X46349D1*X43371Y58190D2*X43506D1*Y58988D2*X42106D1*Y59787D2*X43506D1*Y60585D2*X42106D1*X43506Y61384D2*X43412D1*X43455Y62182D2*X43506D1*Y62981D2*X43455D1*Y63779D2*X43506D1*Y64578D2*X43455D1*Y65376D2*X43509D1*X44307Y66175D2*X43455D1*Y66974D2*X45106D1*X45904Y67772D2*X43455D1*X43046Y68571D2*X46703D1*X36116D2*X36747D1*X32016D2*X32816D1*Y67772D2*X32016D1*Y66974D2*X32816D1*Y66175D2*X32016D1*Y65376D2*X32816D1*X26306Y64578D2*X32016D1*X28457Y65376D2*X26306D1*Y66175D2*X28457D1*Y66974D2*X26306D1*Y67772D2*X28457D1*X47070Y70168D2*X26306D1*Y70966D2*X46583D1*X29447Y79750D2*X26306D1*Y78951D2*X29256D1*Y78153D2*X26306D1*Y77354D2*X29256D1*Y76556D2*X26306D1*X46583D2*X38056D1*X49066Y78153D2*X48266D1*Y78951D2*X49066D1*Y79750D2*X48266D1*Y80548D2*X49066D1*Y81347D2*X48266D1*Y82944D2*X49066D1*Y83742D2*X48266D1*Y84541D2*X49066D1*Y85339D2*X48266D1*Y86138D2*X49066D1*X36111Y91727D2*X35866D1*Y90929D2*X36910D1*X37709Y90130D2*X35866D1*X36025Y89332D2*X38507D1*X39306Y88533D2*X36824D1*X37622Y87735D2*X40104D1*X44707Y83742D2*X37011D1*X37656Y84541D2*X44707D1*Y85339D2*X37656D1*Y86138D2*X45018D1*X58403Y86936D2*X37656D1*X59705Y85339D2*X60000D1*X60206Y84541D2*X59705D1*Y83742D2*X60206D1*Y82944D2*X59705D1*Y82145D2*X60206D1*Y81347D2*X59705D1*Y80548D2*X60206D1*Y79750D2*X59705D1*Y78951D2*X60206D1*Y78153D2*X57546D1*Y77354D2*X60206D1*Y76556D2*X58229D1*Y75757D2*X60206D1*Y74959D2*X58229D1*Y74160D2*X60206D1*Y73362D2*X58229D1*Y72563D2*X60206D1*Y71765D2*X58229D1*Y70966D2*X60206D1*Y70168D2*X57742D1*X57556Y69369D2*X60206D1*Y68571D2*X56912D1*X56114Y67772D2*X60206D1*Y66974D2*X55315D1*X68580Y62981D2*X68612D1*X67782Y63779D2*X68595D1*Y64578D2*X66983D1*X66185Y65376D2*X68595D1*Y66175D2*X65386D1*X64606Y66974D2*X68595D1*Y67772D2*X64606D1*X72744D2*X73544D1*Y66974D2*X72744D1*Y66175D2*X73544D1*Y65376D2*X72744D1*Y64578D2*X73544D1*Y63779D2*X72744D1*Y62981D2*X73544D1*Y62182D2*X72744D1*X107329Y54197D2*X75129D1*X75928Y53399D2*X106531D1*X76043Y52600D2*X86515D1*X86081Y51802D2*X76043D1*X75742Y51003D2*X86081D1*X67668Y47011D2*X68746D1*X67948Y46212D2*X67668D1*X71856Y43018D2*X71506D1*X84916Y42107D2*X80093D1*X87256Y44615D2*X87168D1*X90056D2*X90144D1*X102660Y47011D2*X90056D1*X91231Y47809D2*X102660D1*Y48608D2*X91231D1*Y49406D2*X102660D1*X103337Y50205D2*X91231D1*Y51003D2*X104135D1*X104934Y51802D2*X91231D1*X90797Y52600D2*X105732D1*X100517Y66175D2*X96901D1*X96306Y66974D2*X100219D1*Y67772D2*X96306D1*X98656Y70966D2*X101281D1*X107312Y70168D2*X98656D1*X106208Y66974D2*X107312D1*X98656*Y67772D2*X107312D1*X106208*X103610Y68571D2*X107312D1*X98656*Y69369D2*X107312D1*X106208*X107312Y70168D2*X106208D1*X105145Y70966D2*X107917D1*X105867*X112917D2*X111895D1*X112917*X117917D2*X116895D1*X117917*X122917D2*X121895D1*X122917*X124906Y62294D2*Y68446D1*X129906D2*Y62294D1*X127917Y70966D2*X126895D1*X127917*X132917D2*X131895D1*X132917*X134906Y68446D2*Y64794D1*X135531Y64169*Y42919*X136156Y42294*X159281*X171156Y30419*X190568Y24652D2*X168872D1*X168987Y23854D2*X190906D1*Y23055D2*X169102D1*X167721Y15070D2*X186254D1*X185644Y15869D2*X168085D1*X168450Y16667D2*X185644D1*Y17466D2*X168608D1*X168723Y18264D2*X186250D1*X192480Y19063D2*X168838D1*X168952Y19861D2*X191682D1*X190906Y20660D2*X169067D1*X169182Y21458D2*X190906D1*Y22257D2*X169217D1*X184906Y32294D2*X194906Y22294D1*X208782Y32638D2*X186542D1*X232931Y26249D2*X233205D1*X222406Y31669D2*X225531D1*X234906Y22294*X237332Y19063D2*X241915D1*X241116Y19861D2*X238130D1*X238906Y20660D2*X240506D1*Y21458D2*X238906D1*X236608Y26249D2*X242639D1*X241840Y25451D2*X237406D1*X238205Y24652D2*X241042D1*X240506Y23854D2*X238906D1*Y23055D2*X240506D1*X244506Y22257D2*X238906D1*X245306D2*X250906D1*X244506Y23055D2*X245306D1*Y23854D2*X244506D1*Y24652D2*X245306D1*Y25451D2*X244506D1*Y26249D2*X245306D1*X244506Y26694D2*Y22694D1*X240506*Y24117*X243083Y26694*X244506*X226542Y32638D2*X245083D1*X245881Y31839D2*X227341D1*X228140Y31041D2*X246680D1*X247478Y30242D2*X228938D1*X229737Y29443D2*X248277D1*X249075Y28645D2*X230535D1*X231334Y27846D2*X249874D1*X250672Y27048D2*X232132D1*X247173Y26249D2*X251471D1*X252269Y25451D2*X247972D1*X260906Y21458D2*X258906D1*Y20660D2*X260906D1*X261682Y19861D2*X258130D1*X289306Y11876D2*X295995D1*X295358Y11078D2*X289306D1*Y10279D2*X294722D1*X294085Y9481D2*X289306D1*X289169Y8682D2*X293280D1*X285306D2*X284506D1*Y9481D2*X285306D1*Y10279D2*X284506D1*Y11078D2*X285306D1*Y11876D2*X284506D1*Y18264D2*X285306D1*Y16667D2*X284506D1*Y15869D2*X285306D1*Y15070D2*X284506D1*Y14272D2*X285306D1*X278864D2*X280506D1*Y15070D2*X279662D1*X280621Y15869D2*X280461D1*X281259Y16667D2*X281622D1*X279906Y17294D2*X274906Y12294D1*X269906Y17294*X268506Y19063D2*X267332D1*X268506Y19861D2*X268130D1*X273205Y26249D2*X272931D1*X278506Y24652D2*X278205D1*X281306Y25451D2*X281840D1*X282639Y26249D2*X281306D1*X285306D2*X284506D1*Y25451D2*X285306D1*Y24652D2*X284506D1*Y23854D2*X285306D1*Y23055D2*X284506D1*X285306Y22257D2*X299097D1*X284506Y21458D2*X285306D1*Y20660D2*X284506D1*Y19861D2*X285306D1*Y19063D2*X284506D1*X298783D2*X287897D1*X288696Y19861D2*X298966D1*X299023Y20660D2*X289306D1*Y21458D2*X299067D1*X299097Y23055D2*X289306D1*Y23854D2*X299097D1*Y24652D2*X288770D1*X287972Y25451D2*X299097D1*Y26249D2*X287173D1*X281306Y27048D2*X299097D1*Y27846D2*X281306D1*Y28645D2*X299097D1*Y29443D2*X281306D1*Y30242D2*X299097D1*Y31041D2*X281306D1*Y31839D2*X299097D1*Y32638D2*X281306D1*X280744Y33436D2*X299097D1*Y34235D2*X279945D1*X279147Y35033D2*X299097D1*Y35832D2*X278348D1*X277550Y36630D2*X299097D1*Y37429D2*X276751D1*X275953Y38227D2*X299097D1*Y39026D2*X275154D1*X275056Y39824D2*X299097D1*Y40623D2*X275056D1*Y41421D2*X299097D1*Y42220D2*X275056D1*Y43018D2*X299097D1*Y43817D2*X275056D1*Y44615D2*X299097D1*Y45414D2*X275056D1*Y46212D2*X299097D1*Y47011D2*X275056D1*Y47809D2*X299097D1*X285306Y58190D2*X284506D1*Y58988D2*X285306D1*Y59787D2*X284506D1*Y60585D2*X285306D1*Y62981D2*X284506D1*Y63779D2*X285306D1*Y64578D2*X284506D1*Y65376D2*X285306D1*Y66175D2*X284506D1*X297248D2*X299097D1*Y65376D2*X298046D1*X299097Y64578D2*X298845D1*X298621Y59787D2*X299097D1*Y58190D2*X297024D1*X297823Y58988D2*X299097D1*X294506Y61384D2*X295306D1*Y60585D2*X294506D1*Y59787D2*X295306D1*Y58988D2*X294506D1*Y58190D2*X295306D1*X288782D2*X292788D1*X291989Y58988D2*X289273D1*X289306Y59787D2*X291191D1*X290506Y60585D2*X289306D1*X290506Y61894D2*X294506D1*Y57894*X293083*X290506Y60472*Y61894*X289306Y61384D2*X290506D1*Y62981D2*X289306D1*Y63779D2*X290506D1*X290967Y64578D2*X289306D1*Y65376D2*X291766D1*X292564Y66175D2*X289005D1*X286839Y68571D2*X292973D1*X284906Y72294D2*X279906D1*X278656Y73544*Y77294*X272180Y88810D2*X277672D1*X280113Y86251D2*X272180D1*X284906Y92294D2*X281156D1*X277672Y88810*X276729Y90929D2*X277811D1*X278609Y91727D2*X276729D1*X276619Y92526D2*X279408D1*X280206Y93324D2*X275644D1*X281078Y94123D2*X279965D1*X281877Y94921D2*X280763D1*X281562Y95720D2*X282675D1*X278656Y106044D2*X273031Y100419D1*X263031*X256156Y93544*X246156*X244906Y92294*Y89794*X245890Y88810*X241156Y83544D2*X246127Y78574D1*X250132*X256067Y81133D2*X250132D1*X255844Y86044D2*X255949Y86251D1*X250132*Y83692D2*X246008D1*X243031Y86669*Y92919*X245531Y95419*X255531*X262406Y102294*X272406*X276781Y106669*Y124169*X250371Y118877D2*X252634D1*X253432Y119675D2*X250371D1*Y120474D2*X254231D1*X251556Y134847D2*X250756D1*Y134048D2*X251556D1*Y133250D2*X250756D1*Y132451D2*X251556D1*Y131653D2*X250756D1*Y126862D2*X251556D1*Y127660D2*X250756D1*Y128459D2*X251556D1*Y129257D2*X250756D1*X255381Y130056D2*X255312D1*Y129257D2*X255381D1*Y128459D2*X255312D1*X255214Y127660D2*X255381D1*Y126862D2*X254310D1*X249594Y124466D2*X255381D1*Y123668D2*X250298D1*X250371Y122869D2*X255381D1*Y122071D2*X250371D1*X247403Y121272D2*X255029D1*X243707Y123668D2*X243234D1*X243278Y122869D2*X243634D1*Y122071D2*X243278D1*Y120474D2*X243634D1*Y119675D2*X243278D1*Y118877D2*X243634D1*X227630Y111450D2*Y112324D1*X232180*Y114883D2*X253120D1*X258656Y120419*Y146044*X273656Y147294D2*X268656Y142294D1*X299097Y138041D2*X282633D1*X281834Y137243D2*X299097D1*X276781Y124169D2*X284906Y132294D1*X279058Y124466D2*X281421D1*X280906Y123668D2*X278260D1*X278181Y122869D2*X280906D1*Y122071D2*X278181D1*Y121272D2*X280906D1*X281070Y120474D2*X278181D1*X281872Y117280D2*X299097D1*Y118078D2*X282670D1*X297146Y118877D2*X299097D1*Y119675D2*X297944D1*X298743Y120474D2*X299097D1*Y121272D2*X298906D1*Y122071D2*X299097D1*Y122869D2*X298906D1*Y123668D2*X299097D1*Y124466D2*X298391D1*X297592Y125265D2*X299097D1*Y126063D2*X296794D1*X296728Y128459D2*X299097D1*Y129257D2*X297526D1*X299097Y130056D2*X298325D1*X299097Y130854D2*X298906D1*Y131653D2*X299097D1*Y132451D2*X298906D1*Y133250D2*X299097D1*Y134048D2*X298808D1*X298010Y134847D2*X299097D1*Y135645D2*X297211D1*X281036Y136444D2*X299097D1*X282601Y135645D2*X280681D1*Y134847D2*X281802D1*X280681Y134048D2*X281004D1*X280906Y133250D2*X280681D1*Y132451D2*X280906D1*Y131653D2*X280681D1*Y130854D2*X280906D1*X280688Y130056D2*X280681D1*X283051Y128459D2*X283084D1*X299097Y127660D2*X282252D1*X281454Y126862D2*X299097D1*X280655Y126063D2*X283018D1*X282220Y125265D2*X279857D1*X284906Y122294D2*X278656Y116044D1*Y106044*X280056Y107698D2*X280830D1*X281628Y108496D2*X280056D1*X287555Y105302D2*X289918D1*X290717Y104504D2*X288353D1*X288906Y103705D2*X290906D1*Y102907D2*X288906D1*X297183Y98914D2*X299097D1*Y99712D2*X297981D1*X298780Y100511D2*X299097D1*Y101309D2*X298906D1*Y102108D2*X299097D1*Y102907D2*X298906D1*Y103705D2*X299097D1*Y104504D2*X298353D1*X297555Y105302D2*X299097D1*Y106101D2*X296756D1*X292281Y106899D2*X299097D1*X290684Y108496D2*X293047D1*X299097Y107698D2*X291482D1*X296765Y108496D2*X299097D1*Y109295D2*X297563D1*X299097Y110093D2*X298362D1*X299097Y110892D2*X298906D1*Y111690D2*X299097D1*Y112489D2*X298906D1*Y113287D2*X299097D1*Y114086D2*X298771D1*X297973Y114884D2*X299097D1*Y115683D2*X297174D1*X281073Y116481D2*X299097D1*X282638Y115683D2*X280275D1*X280056Y114884D2*X281839D1*X281041Y114086D2*X280056D1*Y113287D2*X280906D1*Y112489D2*X280056D1*Y111690D2*X280906D1*Y110892D2*X280056D1*Y110093D2*X281450D1*X282249Y109295D2*X280056D1*X292249D2*X287563D1*X288362Y110093D2*X291450D1*X290906Y110892D2*X288906D1*Y111690D2*X290906D1*Y112489D2*X288906D1*Y113287D2*X290906D1*X291041Y114086D2*X288771D1*X287973Y114884D2*X291839D1*X292638Y115683D2*X287174D1*X293249Y116294D2*X296563D1*X298906Y113951*Y110637*X296563Y108294*X293249*X290906Y110637*Y113951*X293249Y116294*X287146Y118877D2*X292667D1*X291868Y119675D2*X287944D1*X288743Y120474D2*X291070D1*X290906Y121272D2*X288906D1*Y122071D2*X290906D1*Y122869D2*X288906D1*Y123668D2*X290906D1*X291421Y124466D2*X288391D1*X287592Y125265D2*X292220D1*X293018Y126063D2*X286794D1*X293249Y126294D2*X296563D1*X298906Y123951*Y120637*X296563Y118294*X293249*X290906Y120637*Y123951*X293249Y126294*X286728Y128459D2*X293084D1*X292286Y129257D2*X287526D1*X288325Y130056D2*X291487D1*X290906Y130854D2*X288906D1*Y131653D2*X290906D1*Y132451D2*X288906D1*Y133250D2*X290906D1*X291004Y134048D2*X288808D1*X288010Y134847D2*X291802D1*X292601Y135645D2*X287211D1*X293249Y136294D2*X296563D1*X298906Y133951*Y130637*X296563Y128294*X293249*X290906Y130637*Y133951*X293249Y136294*X287108Y138840D2*X292704D1*X284906Y142294D2*X279281Y136669D1*Y129794*X274906Y125419*Y107294*X271781Y104169*X261781*X254906Y97294*X244906*X241156Y93544*Y83544*X240456Y82145D2*X240575D1*X241373Y81347D2*X240456D1*Y80548D2*X242172D1*X242971Y79750D2*X240456D1*Y78951D2*X243769D1*X244568Y78153D2*X240549D1*X241043Y77354D2*X245366D1*X245983Y76556D2*X241043D1*Y75757D2*X245983D1*X246034Y74959D2*X240322D1*X241270Y74160D2*X245983D1*Y73362D2*X242068D1*X245262Y70168D2*X245583D1*Y70966D2*X244464D1*X243665Y71765D2*X245608D1*X245983Y72563D2*X242867D1*X250132Y70896D2*Y70897D1*X245583*Y71671*X245678Y72027*X245863Y72347*X245983Y72467*Y74460*X246258Y74735*X245983Y75010*Y77019*X246137Y77174*X245547*X240576Y82144*X240456Y82264*Y78245*X241043Y77658*Y75680*X240307Y74944*X240486*X241306Y74124*X245693Y69737*X245694*X245678Y69766*X245583Y70122*Y70896*X250132*X262241*X266156Y66982*X267630Y65376D2*X263950D1*X272180Y63219D2*X262731D1*X262406Y63544*X258656D2*X253863Y68337D1*X250132*X245113*X239906Y73544*X237195Y67772D2*X239323D1*X230809Y68571D2*X237128D1*X230010Y67772D2*X230924D1*X242016Y61384D2*X227796D1*X237470Y62182D2*X237816D1*X234906Y52294D2*X243656Y61044D1*X254906*X256156Y62294*Y63544*X253922Y65778*X250132*Y63219D2*X242327D1*X240752Y64794*Y68323*X238656Y70419*X232606Y71765D2*X236625D1*X236269Y70966D2*X231808D1*X231043Y70168D2*X236269D1*X236330Y69369D2*X231043D1*X233660Y67772D2*X234460D1*Y66974D2*X233660D1*Y66175D2*X234460D1*Y65376D2*X233660D1*Y63779D2*X234460D1*Y62981D2*X233660D1*Y62182D2*X234460D1*X237225Y56593D2*X232587D1*X231789Y57391D2*X238023D1*X238822Y58190D2*X230990D1*X230192Y58988D2*X239620D1*X240419Y59787D2*X229393D1*X228595Y60585D2*X241217D1*X227556Y62182D2*X230649D1*X230494Y62981D2*X227556D1*X230494Y64394D2*X233660D1*Y61426*X231710*X231354Y61521*X231035Y61705*X230774Y61966*X230590Y62285*X230494Y62641*Y64394*X227556Y63779D2*X230494D1*X233660Y64578D2*X227556D1*X229906Y64794D2*X234060D1*X227556Y65376D2*X230494D1*Y66175D2*X227556D1*Y66974D2*X230501D1*X227556Y67518D2*Y61624D1*X233068Y56112*X233249Y56294*X236563*X236745Y56112*X242451Y61819*X241747*X241741Y61826*X238173*X237587Y62411*Y62500*X237530Y62285*X237345Y61966*X237085Y61705*X236765Y61521*X236409Y61426*X234460*Y64394*X233660*Y65194*X230494*Y66947*X230590Y67303*X230774Y67622*X231035Y67883*X231354Y68067*X231710Y68163*X233660*Y65194*X234460*Y68163*X236409*X236765Y68067*X237085Y67883*X237345Y67622*X237530Y67303*X237587Y67088*Y67177*X238173Y67763*X239333*X239064Y68032*X237667*X236269Y69430*Y71408*X237005Y72144*X232986*X231043Y70202*Y68805*X229645Y67407*X227667*X227556Y67518*X224281Y70419D2*X226156Y68544D1*Y61044*X234906Y52294*X239906Y47294*Y39794*X221030Y38227D2*X239493D1*X240292Y37429D2*X221030D1*X248506Y39026D2*X247294D1*X248506Y39824D2*X248093D1*X254906Y42294D2*Y38544D1*X269906Y23544*Y17294*X269351Y15869D2*X266988D1*X262556Y16667D2*X268553D1*X268506Y17466D2*X262556D1*X262166Y18264D2*X268506D1*X257332Y19063D2*X262480D1*X259756Y15869D2*X256988D1*X257787Y15070D2*X260150D1*X260948Y14272D2*X258585D1*X258906Y13473D2*X260906D1*Y12675D2*X258906D1*Y11876D2*X260906D1*Y11078D2*X258906D1*X258548Y10279D2*X261264D1*X262063Y9481D2*X257749D1*X256951Y8682D2*X262861D1*X244906Y12294D2*X239906Y7294D1*X252861Y8682D2*X246951D1*X247749Y9481D2*X252063D1*X251264Y10279D2*X248548D1*X248906Y11078D2*X250906D1*Y11876D2*X248906D1*Y12675D2*X250906D1*Y13473D2*X248906D1*X248585Y14272D2*X251227D1*X252025Y15070D2*X247787D1*X246988Y15869D2*X252824D1*X252480Y19063D2*X247897D1*X248696Y19861D2*X251682D1*X250906Y20660D2*X249306D1*Y21458D2*X250906D1*Y23055D2*X249306D1*Y23854D2*X250906D1*X251608Y24652D2*X248770D1*X254906Y22294D2*Y24794D1*X239906Y39794*X238506Y39824D2*X238093D1*X237294Y39026D2*X238695D1*X221030D2*X232518D1*X231719Y39824D2*X221030D1*Y40623D2*X230921D1*X230906Y41421D2*X221030D1*Y42220D2*X230906D1*Y43018D2*X221030D1*X221219Y43817D2*X230838D1*X230039Y44615D2*X221467D1*Y45414D2*X229241D1*X211465Y50205D2*X212048D1*X212071Y49406D2*X211442D1*X214592D2*X215220D1*X215197Y50205D2*X214615D1*X218347D2*X217764D1*X217742Y49406D2*X218370D1*X216481Y46448D2*Y35094D1*X224906Y26669*Y22294*X214906D2*Y32919D1*X213331Y34494*Y46448*X210182D2*Y27570D1*X204906Y22294*X197332Y19063D2*X202480D1*X201682Y19861D2*X198130D1*X198906Y20660D2*X200906D1*Y21458D2*X198906D1*Y22257D2*X200906D1*Y23055D2*X198906D1*Y23854D2*X200906D1*X201608Y24652D2*X198205D1*X197406Y25451D2*X202406D1*X203205Y26249D2*X196608D1*X206881D2*X206608D1*X192132Y27048D2*X207680D1*X208479Y27846D2*X191334D1*X190535Y28645D2*X208782D1*Y29443D2*X189737D1*X188938Y30242D2*X208782D1*Y31041D2*X188139D1*X187341Y31839D2*X208782D1*X180988Y26249D2*X181324D1*X189769Y25451D2*X180189D1*X183488Y26249D2*X188971D1*X188172Y27048D2*X184286D1*X184793Y27846D2*X187374D1*X186575Y28645D2*X184793D1*Y29443D2*X185777D1*X184084Y30242D2*X184978D1*X182406Y28544D2*X180531Y30419D1*X171156*X167652Y29443D2*X167467D1*X168450Y28645D2*X167832D1*X168196Y27846D2*X169249D1*X170047Y27048D2*X168528D1*X168643Y26249D2*X170846D1*X177123Y25451D2*X168758D1*X178656Y27294D2*X171781D1*X158656Y40419*X135531*X133656Y42294*Y58544*X129906Y62294*X129281Y59169D2*X123031D1*X119906Y62294*Y68446*X117145Y66175D2*X117667D1*X109906Y68446D2*Y62294D1*X112145Y66175D2*X112667D1*X118506Y65376D2*X111306D1*Y64578D2*X118506D1*Y63779D2*X111797D1*X112293Y62981D2*X118506D1*Y62182D2*X112293D1*Y61384D2*X118836D1*X119635Y60585D2*X111574D1*X80775Y59787D2*X120433D1*X108238Y60585D2*X81043D1*Y61384D2*X107519D1*Y62182D2*X80894D1*X96469Y62981D2*X107519D1*X97268Y63779D2*X108015D1*X98656*Y64578D2*X108506D1*X97293*Y65376D2*X108506D1*X98656*Y66175D2*X107667D1*X105910*X102816D2*X103610D1*Y66974D2*X102816D1*Y67772D2*X103610D1*X102816Y68147D2*Y65550D1*X101573*X101176Y65656*X100821Y65861*X100530Y66152*X100325Y66507*X100219Y66904*Y68147*X102816*X96306Y68571D2*X102816D1*X100219Y69369D2*X96306D1*Y70168D2*X100219D1*X100560Y70966D2*X96808D1*X98656Y71765D2*X100619D1*X97606*X103213Y73544D2*X97406D1*X94906Y71044*Y64794*X88317Y62981D2*X93343D1*X92544Y63779D2*X88317D1*Y64578D2*X92519D1*Y65376D2*X88317D1*Y66175D2*X92911D1*X93506Y66974D2*X88317D1*Y67772D2*X93506D1*Y68571D2*X88317D1*Y69369D2*X93506D1*Y70168D2*X88317D1*Y70966D2*X93506D1*X93647Y71765D2*X88317D1*Y72563D2*X94445D1*X95244Y73362D2*X88317D1*Y74160D2*X96042D1*X91938Y78951D2*X87106D1*X82819Y83742D2*X91938D1*X92451Y84541D2*X82021D1*X81222Y85339D2*X91688D1*X91538Y86138D2*X80856D1*Y86936D2*X91538D1*Y87735D2*X80856D1*Y88533D2*X94506D1*X91538Y89332D2*X80856D1*Y90130D2*X91538D1*X91681Y90929D2*X80856D1*Y91727D2*X91538D1*Y92526D2*X80856D1*Y93324D2*X91538D1*X71739Y102108D2*X72853D1*X71435Y108496D2*X71941D1*X59502Y105375D2*X59896Y104981D1*X71941Y107698D2*X61940D1*X71821Y106899D2*X71941D1*Y106101D2*X71821D1*Y105302D2*X72073D1*X68656Y104573D2*X69685Y103544D1*X87406*X91938Y102108D2*X89346D1*X89793Y102907D2*X91938D1*X92422Y103705D2*X89793D1*Y104504D2*X91820D1*X91269Y105302D2*X89024D1*X85371Y106101D2*X91269D1*Y106899D2*X85371D1*Y107698D2*X91933D1*X78256Y110892D2*X79056D1*Y111690D2*X78256D1*Y112489D2*X79056D1*Y113287D2*X78256D1*X62471Y115683D2*X86168D1*X85370Y114884D2*X62471D1*X85019Y113287D2*X84869D1*X71384Y114086D2*X85019D1*X71821Y113287D2*X72443D1*X71968Y112489D2*X71821D1*Y111690D2*X71941D1*Y110892D2*X71821D1*Y110093D2*X71941D1*X78256Y109295D2*X71821D1*X79056Y110093D2*X78256D1*X94927Y109295D2*X79056D1*X85371Y108496D2*X94128D1*X100619Y110093D2*X85371D1*Y110892D2*X101051D1*X85884Y111690D2*X85371D1*X100619D2*X88928D1*X100619Y112144D2*X89382D1*X88395Y111157*X86417*X85371Y112203*Y109456*X79056*Y108656*X85371*Y105722*X85276Y105366*X85091Y105047*X84989Y104944*X85430*X86417Y105931*X88395*X89793Y104533*Y102555*X89232Y101994*X91938*Y103220*X92521Y103803*X91269Y105055*Y107033*X92667Y108431*X94064*X95576Y109944*X100619*Y110459*X101203Y111044*X100619Y111629*Y112144*X87406Y113544D2*X103213D1*X88644Y115683D2*X100842D1*X98656*Y116481D2*X100766D1*X62113*X56892D2*X55949D1*X56178Y115683D2*X56534D1*Y114884D2*X56178D1*Y114086D2*X56534D1*X43721Y112489D2*X49441D1*Y111690D2*X43721D1*X43648Y110892D2*X49522D1*X50268Y110093D2*X42546D1*X53210D2*X52410D1*Y110892D2*X53210D1*Y111690D2*X52410D1*Y112489D2*X53210D1*Y114086D2*X52410D1*Y114884D2*X53210D1*Y115683D2*X52410D1*Y116481D2*X53210D1*X43363D2*X49670D1*X49441Y115683D2*X43721D1*Y114884D2*X49441D1*Y114086D2*X43721D1*X52810Y113544D2*X47406D1*X52410Y113144D2*Y109979D1*X50657*X50301Y110074*X49981Y110258*X49721Y110519*X49536Y110838*X49441Y111194*Y113144*X52410*X43721Y113287D2*X52410D1*X40752Y113544D2*X41146Y113150D1*Y104981*X49441Y106101D2*X45579D1*X43721Y106899D2*X49441D1*X49806Y107698D2*X43190D1*X52803D2*X52028D1*Y106899D2*X52803D1*Y106101D2*X52028D1*X65573Y102108D2*X54869D1*X62471Y102907D2*X65491D1*Y103705D2*X62471D1*Y104504D2*X65491D1*Y105302D2*X62471D1*Y106101D2*X65491D1*Y106899D2*X62471D1*X60902Y108496D2*X65877D1*X65491Y109295D2*X60902D1*Y110093D2*X65491D1*Y110892D2*X62398D1*X68656Y111266D2*X67224Y112698D1*X60349*X59502Y113544*Y105375*X52803Y105302D2*X57321D1*X52028Y104504D2*X52803D1*Y103705D2*X52028D1*Y102907D2*X52803D1*Y102108D2*X52028D1*X53581Y98914D2*X52766D1*X51968Y99712D2*X54001D1*X72341Y100511D2*X51169D1*X50371Y101309D2*X72341D1*X49572Y102108D2*X49963D1*X48773Y102907D2*X49473D1*X49441Y103705D2*X47975D1*X47176Y104504D2*X49441D1*X52028Y105302D2*X46378D1*X52406Y104991D2*X52416Y104981D1*X52810Y105375*Y113544*X56534Y113287D2*X53210D1*X56178Y112489D2*X56534D1*Y111690D2*X56178D1*X56097Y110892D2*X56607D1*X55318Y110074D2*X54962Y109979D1*X53210*Y113144*X52410*Y113944*X49441*Y115894*X49536Y116250*X49721Y116569*X49981Y116830*X50301Y117014*X50657Y117109*X52410*Y113944*X53210*Y117109*X54962*X55318Y117014*X55638Y116830*X55898Y116569*X56083Y116250*X56178Y115894*Y113944*X53210*Y113144*X56178*Y111194*X56083Y110838*X55898Y110519*X55638Y110258*X55318Y110074*X58102Y110093D2*X55351D1*X42546Y109295D2*X58102D1*Y108496D2*X42546D1*X55026Y107698D2*X57852D1*X57321Y106899D2*X55391D1*Y106101D2*X57321D1*X55391Y105369D2*Y106937D1*X55295Y107293*X55111Y107612*X54850Y107873*X54531Y108057*X54175Y108153*X52803*Y105369*X55391*X57321Y104504D2*X55391D1*Y103705D2*X57321D1*X55391Y103025D2*X55295Y102669D1*X55111Y102350*X54850Y102089*X54531Y101905*X54175Y101809*X52803*Y104594*X52028*Y101809*X50657*X50301Y101905*X49981Y102089*X49721Y102350*X49536Y102669*X49441Y103025*Y104594*X52028*Y105369*X49441*Y106937*X49536Y107293*X49721Y107612*X49981Y107873*X50301Y108057*X50657Y108153*X52028*Y105369*X52803*Y104594*X55391*Y103025*X57321Y102907D2*X55359D1*X57907Y102209D2*X57321Y102795D1*Y107167*X57907Y107753*X58102*Y110379*X57120*X56534Y110965*Y116124*X57120Y116709*X61885*X62471Y116124*Y114098*X65940*X66076Y114234*X71236*X71821Y113648*Y108883*X71236Y108297*X66076*X65491Y108883*Y111298*X62471*Y110965*X61885Y110379*X60902*Y107753*X61885*X62471Y107167*Y102795*X61885Y102209*X57907*X62963Y99712D2*X58311D1*X58731Y98914D2*X62165D1*X61366Y98115D2*X58731D1*Y97317D2*X60568D1*X56156Y97107D2*X55969Y97294D1*X52406*X44719Y104981*X41146*X26306Y106101D2*X31091D1*Y106899D2*X26306D1*Y107698D2*X31622D1*X32266Y108496D2*X26306D1*Y109295D2*X32266D1*Y110093D2*X26306D1*Y110892D2*X31164D1*X31091Y111690D2*X26306D1*Y112489D2*X31091D1*Y113287D2*X26306D1*Y114086D2*X31091D1*Y114884D2*X26306D1*Y115683D2*X31091D1*X31449Y116481D2*X26306D1*Y117280D2*X35412D1*X36210Y118078D2*X26306D1*Y118877D2*X37009D1*X37807Y119675D2*X26306D1*Y120474D2*X38606D1*X69883Y121272D2*X26306D1*X100460D2*X72429D1*X105793Y120474D2*X164019D1*X105793*X105808Y119675D2*X164004D1*X105808*Y118877D2*X164004D1*X105808*Y118078D2*X164004D1*X105808*Y117280D2*X164004D1*X105808*X105660Y116481D2*X164152D1*X105660*X105584Y115683D2*X127753D1*X105584*X105808Y114884D2*X127207D1*X105808*Y114086D2*X127207D1*X105808*Y113287D2*X125358D1*X105808*Y112489D2*X124648D1*X105808*Y111690D2*X124648D1*X105808*X105375Y110892D2*X124684D1*X105375*X105808Y110093D2*X125483D1*X105808*Y109295D2*X127207D1*X105808*Y108496D2*X127207D1*X105808*Y107698D2*X127878D1*X105808*Y103705D2*X127587D1*X105808*Y102907D2*X127207D1*X105808*Y102108D2*X127207D1*X105808*X105488Y101309D2*X125191D1*X105488*X105756Y100511D2*X124648D1*X105756*X105808Y99712D2*X124648D1*X105808*Y98914D2*X124851D1*X105808*Y98115D2*X125650D1*X105808*Y97317D2*X127207D1*X105808*X105697Y96518D2*X127247D1*X105697*X106021Y95720D2*X128045D1*X98656*Y97317D2*X99724D1*X97875Y98115D2*X98450D1*X99724Y97317D2*X97589D1*X98656Y96518D2*X100729D1*X98215*X98275Y95720D2*X100405D1*X100219Y94921D2*X98275D1*X95306Y94123D2*X100219D1*X94506Y93324D2*X95306D1*Y92526D2*X94506D1*Y91727D2*X95306D1*Y90929D2*X94506D1*Y90130D2*X95306D1*Y89332D2*X94506D1*X95306Y88533D2*X100619D1*X98656*X98275Y87735D2*X100619D1*X98656*Y86936D2*X100619D1*X98275*Y86138D2*X101110D1*X98656*Y85339D2*X99156D1*X98124*X98357Y84541D2*X97361D1*X100254Y81347D2*X100901D1*X100707Y80548D2*X99456D1*X97875Y79750D2*X100619D1*Y78951D2*X97875D1*X87106Y78153D2*X100619D1*Y77354D2*X87106D1*Y76556D2*X100692D1*X100916Y75757D2*X87106D1*Y74959D2*X100619D1*X77174D2*X77256D1*X73544D2*X72744D1*Y74160D2*X73544D1*Y73362D2*X72744D1*Y72563D2*X73544D1*Y71765D2*X72744D1*Y70966D2*X73544D1*Y70168D2*X72744D1*Y69369D2*X73544D1*X64606Y68571D2*X72744D1*X68595Y69369D2*X64606D1*Y70168D2*X68595D1*Y70966D2*X64606D1*Y71765D2*X68595D1*Y72563D2*X64606D1*Y73362D2*X68595D1*X68626Y74160D2*X64606D1*X69135Y74979D2*X69454Y75164D1*X69810Y75259*X72744*Y68944*X68595*Y74043*X68690Y74399*X68874Y74719*X69135Y74979*X64606Y74959D2*X69114D1*X77047Y75757D2*X64606D1*Y76556D2*X76348D1*X75649Y77354D2*X64606D1*Y78153D2*X74951D1*X74252Y78951D2*X64606D1*Y79750D2*X73553D1*X72855Y80548D2*X64606D1*Y81347D2*X72156D1*X71457Y82145D2*X64606D1*Y82944D2*X70759D1*X70060Y83742D2*X64606D1*Y84541D2*X69361D1*X68631Y85339D2*X64606D1*Y86138D2*X68506D1*Y86936D2*X64606D1*X63827Y87735D2*X68506D1*Y88533D2*X63028D1*X62230Y89332D2*X68506D1*Y90130D2*X61431D1*X60633Y90929D2*X68506D1*Y91727D2*X61201D1*X61999Y92526D2*X68173D1*X67519Y93324D2*X62798D1*X68081Y95720D2*X65193D1*X64395Y94921D2*X67519D1*Y94123D2*X63596D1*X69906Y94169D2*Y86044D1*X78656Y76044*Y61044*X70177Y61384D2*X76269D1*Y60585D2*X70976D1*X71774Y59787D2*X76537D1*X72067Y59494D2*X76830D1*X76269Y60055*Y61829*X73544*Y68144*X72744*Y68944*X73544*Y75259*X76478*X76834Y75164*X77153Y74979*X77256Y74877*Y75518*X68883Y85087*X68506Y85464*Y85518*X68471Y85559*X68506Y86091*Y92193*X67519Y93180*Y95158*X68193Y95832*X65305*X60517Y91044*X63317Y88244*X64606Y86955*Y66955*X68623Y62938*X68595Y63045*Y68144*X72744*Y61829*X69810*X69704Y61858*X72067Y59494*X68455Y55794D2*X69544D1*X68455Y56593D2*X68746D1*X62195Y58190D2*X67149D1*X66350Y58988D2*X61389D1*X60583Y59787D2*X65552D1*X64753Y60585D2*X59776D1*X58970Y61384D2*X63955D1*X63156Y62182D2*X58229D1*Y62981D2*X62358D1*X61559Y63779D2*X58229D1*Y64578D2*X60761D1*X60206Y65376D2*X58036D1*X48267Y66175D2*X60206D1*X48525Y65376D2*X48807D1*Y64578D2*X48525D1*Y63779D2*X48807D1*Y62981D2*X48525D1*X48807Y62352D2*X51149D1*Y64954*X51053Y65310*X50869Y65629*X50608Y65890*X50289Y66074*X49933Y66169*X48807*Y62352*X48125Y61044D2*X48666Y62210D1*X48807Y61384D2*X48525D1*Y60585D2*X48807D1*Y59787D2*X48525D1*Y58988D2*X48807D1*X48656Y56044D2*Y62201D1*X48666Y62210*X54064Y62182D2*X48807D1*X56146Y62210D2*X64896Y53544D1*Y45188*X69906Y44794D2*X64502D1*X67668Y43018D2*X68306D1*X71856Y42220D2*X67476D1*X65902Y41421D2*X71856D1*Y40623D2*X65902D1*Y39824D2*X72330D1*X73129Y39026D2*X65902D1*X65953Y38227D2*X73927D1*X74726Y37429D2*X66751D1*X67550Y36630D2*X75524D1*X76323Y35832D2*X67556D1*X78258Y35033D2*X78857D1*Y34235D2*X78258D1*Y33436D2*X78857D1*Y32638D2*X78258D1*Y31839D2*X78857D1*Y31041D2*X78258D1*Y30242D2*X78857D1*Y29443D2*X78258D1*Y28645D2*X78857D1*X79317Y27846D2*X77798D1*X83106D2*X82758D1*X67556Y27048D2*X83106D1*Y26249D2*X67556D1*Y25451D2*X83106D1*Y24652D2*X67556D1*X67196Y23854D2*X83106D1*X83995Y20660D2*X64002D1*X64800Y21458D2*X83196D1*X83106Y22257D2*X65599D1*X66397Y23055D2*X83106D1*X40856Y24652D2*X64034D1*X64756Y26249D2*X44473D1*X43674Y25451D2*X64756D1*X63236Y23854D2*X42609D1*Y23055D2*X62437D1*X61639Y22257D2*X42609D1*Y21458D2*X60840D1*X53792Y20660D2*X42609D1*Y19861D2*X52993D1*X52195Y19063D2*X42609D1*Y18264D2*X51396D1*X50598Y17466D2*X41969D1*X42905Y16667D2*X49799D1*X49756Y15869D2*X43009D1*Y15070D2*X49756D1*X49584Y14272D2*X43009D1*X51274Y10414D2*X51156Y10532D1*Y16044*X54906Y19794*X61156*X66156Y24794*Y31674*Y36044*X64502Y37698*Y44794*X64896Y45188*X60908Y47809D2*X63496D1*X61321Y50205D2*X61337D1*X63496Y49406D2*X60722D1*X48181Y48608D2*X63496D1*X54711Y47809D2*X47401D1*X48181Y49406D2*X54109D1*X53511Y50205D2*X48181D1*Y51003D2*X53457D1*Y51802D2*X48181D1*Y52600D2*X53457D1*X57016Y53399D2*X47656D1*X57816Y54197D2*X57016D1*Y54996D2*X57816D1*Y55794D2*X57016D1*Y56593D2*X57816D1*Y57391D2*X57016D1*X46306Y58190D2*X58216D1*X53771Y57391D2*X46306D1*Y56593D2*X53457D1*Y55794D2*X46306D1*Y54996D2*X53457D1*Y54197D2*X46858D1*X53457Y53944D2*Y56681D1*X53552Y57037*X53737Y57356*X53997Y57617*X54316Y57801*X54672Y57897*X57016*Y53944*X53457*X57416Y53544D2*X51781D1*X57016Y52600D2*X57816D1*Y51802D2*X57016D1*Y51003D2*X57816D1*Y50205D2*X57016D1*Y49406D2*X57816D1*X57016Y49191D2*X54672D1*X54316Y49287*X53997Y49471*X53737Y49732*X53552Y50051*X53457Y50407*Y53144*X57016*Y49191*X58210Y47809D2*X57410D1*Y47011D2*X58210D1*Y46212D2*X57410D1*Y45414D2*X58210D1*X53656Y44794D2*X57810D1*X50710Y42220D2*X54377D1*X54244Y43018D2*X49912D1*X49113Y43817D2*X54244D1*X57410Y44615D2*X48315D1*X58210Y43817D2*X57410D1*Y43018D2*X58210D1*X57410Y41426D2*X55460D1*X55104Y41521*X54785Y41705*X54524Y41966*X54340Y42285*X54244Y42641*Y44394*X57410*Y41426*X58210Y42220D2*X57410D1*X61529D2*X61242D1*X51509Y41421D2*X63102D1*Y40623D2*X52307D1*X59356Y39824D2*X63102D1*Y39026D2*X60154D1*X60953Y38227D2*X63102D1*Y37429D2*X61751D1*X63590Y36630D2*X62550D1*X62556Y35832D2*X64389D1*X63975Y35033D2*X63376D1*Y34235D2*X63975D1*Y33436D2*X63376D1*Y32638D2*X63975D1*X58416D2*X59014D1*Y33436D2*X58416D1*Y34235D2*X59014D1*Y35033D2*X58416D1*X57556Y35832D2*X59389D1*X54054Y35033D2*X53796D1*X53855Y34235D2*X54054D1*Y32638D2*X53855D1*Y33436D2*X54054D1*X45644D2*X48693D1*Y34235D2*X45142D1*X45001Y35033D2*X48753D1*X49042Y37429D2*X45204D1*X44890Y38227D2*X48243D1*X47445Y39026D2*X44804D1*Y39824D2*X46646D1*X44804Y40264D2*Y38313D1*X44924Y38193*X45108Y37874*X45204Y37518*Y36546*X41146*X49380Y35832D2*X45204D1*X49909Y36027D2*X50443D1*X50381Y36089*X46206Y40264*X44804*X41146Y41664D2*X46786D1*X51781Y36669*X55531*X56156Y36044*Y31753*X56235Y31674*X54514Y27846D2*X53560D1*X53855Y28645D2*X54054D1*Y29443D2*X53855D1*Y30242D2*X54054D1*Y31041D2*X53855D1*X51465Y31839D2*X54054D1*X51084Y31041D2*X51465D1*Y30242D2*X51084D1*Y29443D2*X51465D1*Y28645D2*X51084D1*Y27846D2*X51465D1*X51156Y24794D2*X51274Y24912D1*Y31674*X45920Y31839D2*X51084D1*X48693Y32638D2*X45903D1*X45789Y31041D2*X48693D1*Y30242D2*X45324D1*X44606Y29443D2*X48693D1*Y28645D2*X44606D1*X48973Y27862D2*X48788Y28181D1*X48693Y28537*Y31483*X51084*Y27321*X49909*X49553Y27417*X49233Y27601*X48973Y27862*X44606Y27846D2*X48988D1*X64756Y27048D2*X44606D1*X62916Y27846D2*X64436D1*X57955D2*X59475D1*X59014Y28645D2*X58416D1*Y29443D2*X59014D1*Y30242D2*X58416D1*Y31041D2*X59014D1*Y31839D2*X58416D1*X61195Y31674D2*X61156Y31713D1*Y36044*X58656Y38544*X52406*X46727Y44223*X41146*Y46782D2*X44394D1*X46781Y49169*Y52294*X44906Y54169*Y64794*X48031Y67919*X54281*X56156Y69794*Y73618*X56146Y73628*X52547Y74160D2*X52265D1*Y74959D2*X52547D1*Y75757D2*X52265D1*Y76556D2*X52547D1*Y77354D2*X52265D1*X54746D2*X54267D1*X51966Y78153D2*X54746D1*X38056Y77354D2*X50545D1*X45366Y78153D2*X38056D1*Y78951D2*X44762D1*X44707Y79750D2*X37865D1*X26306Y80548D2*X44707D1*Y81347D2*X26306D1*X44707Y81894D2*X48266D1*Y77941*X45922*X45566Y78037*X45247Y78221*X44987Y78482*X44802Y78801*X44707Y79157*Y81894*Y82694D2*Y85431D1*X44802Y85787*X44987Y86106*X45247Y86367*X45566Y86551*X45922Y86647*X48266*Y82694*X44707*X36213Y82944D2*X44707D1*X48266Y82145D2*X35414D1*X48666Y82294D2*X52406Y79804D1*Y73628*X52547Y73362D2*X52265D1*Y72563D2*X52547D1*Y71765D2*X52265D1*Y70966D2*X52547D1*Y70168D2*X52265D1*X26306Y69369D2*X53751D1*X28716Y68571D2*X26306D1*X29672Y69147D2*X32016D1*Y65194*X28457*Y67931*X28552Y68287*X28737Y68606*X28997Y68867*X29316Y69051*X29672Y69147*X26306Y71765D2*X30072D1*X29336Y72563D2*X26306D1*Y73362D2*X29256D1*Y74160D2*X26306D1*Y74959D2*X29256D1*X33256Y75757D2*X26306D1*X34056Y74959D2*X33256D1*Y74160D2*X34056D1*Y73362D2*X33256D1*Y72563D2*X34056D1*X33256Y71644D2*X30472D1*X30116Y71740*X29796Y71924*X29536Y72184*X29351Y72504*X29256Y72860*Y75644*X33256*Y71644*X34056Y71765D2*X33256D1*X46583D2*X37240D1*X37977Y72563D2*X46583D1*Y73362D2*X38056D1*Y74160D2*X46583D1*Y74959D2*X38056D1*X34056Y75757D2*X46583D1*X33256Y76556D2*X34056D1*Y77354D2*X33256D1*Y78153D2*X34056D1*Y78951D2*X33256D1*Y79750D2*X34056D1*X33256Y80444D2*Y76444D1*X34056*Y80444*X36840*X37196Y80349*X37516Y80164*X37776Y79904*X37961Y79584*X38056Y79228*Y76444*X34056*Y75644*X38056*Y72860*X37961Y72504*X37776Y72184*X37516Y71924*X37196Y71740*X36840Y71644*X34056*Y75644*X33256*Y76444*X29256*Y79228*X29351Y79584*X29536Y79904*X29796Y80164*X30116Y80349*X30472Y80444*X33256*X26306Y82145D2*X31898D1*X31100Y82944D2*X26306D1*Y83742D2*X30301D1*X29656Y84541D2*X26306D1*Y85339D2*X29656D1*Y86138D2*X26306D1*Y86936D2*X29656D1*X29690Y87735D2*X26306D1*Y88533D2*X30488D1*X31287Y89332D2*X26306D1*Y90130D2*X31466D1*Y90929D2*X26306D1*Y91727D2*X31466D1*Y92526D2*X26306D1*Y93324D2*X31466D1*Y94123D2*X26306D1*Y94921D2*X31466D1*Y95720D2*X26306D1*Y96518D2*X31466D1*Y97317D2*X26306D1*Y98115D2*X31466D1*Y98914D2*X26306D1*Y99712D2*X31466D1*Y100511D2*X26306D1*Y101309D2*X31466D1*Y102108D2*X26306D1*Y102907D2*X31091D1*Y103705D2*X26306D1*Y104504D2*X31091D1*Y105302D2*X26306D1*X33666Y104981D2*Y113150D1*X34060Y113544*Y113948*X39281Y119169*X71156*X72643Y117280D2*X100619D1*X98656*Y118078D2*X100619D1*X73441*X73543Y118877D2*X100619D1*X98656*Y119675D2*X100619D1*X73543*X73228Y120474D2*X100633D1*X98656*Y121272D2*X164361D1*X105966*X106208Y122071D2*X164004D1*X98656*Y122869D2*X164004D1*X106208*Y124466D2*X164004D1*X98656*X100140Y125265D2*X98656D1*X26306Y124466D2*X100219D1*X102816Y123668D2*X26306D1*X164004D2*X103610D1*X166599Y123544D2*X172406D1*X174281Y125419*X178188Y125265D2*X177556D1*Y124466D2*X178188D1*Y123668D2*X177556D1*Y122869D2*X178188D1*Y122071D2*X177556D1*Y121272D2*X178677D1*X178956Y120474D2*X177556D1*Y119675D2*X178956D1*X178962Y118877D2*X177556D1*Y118078D2*X179761D1*X180559Y117280D2*X177556D1*X177323Y116481D2*X181358D1*X182156Y115683D2*X176525D1*X175726Y114884D2*X182955D1*X183753Y114086D2*X174928D1*X174129Y113287D2*X184552D1*X185350Y112489D2*X173330D1*X169193Y111690D2*X186149D1*X186947Y110892D2*X168761D1*X188544Y109295D2*X185550D1*X185571Y108496D2*X189343D1*X189581Y107698D2*X185571D1*Y106899D2*X189581D1*Y106101D2*X185571D1*Y105302D2*X189581D1*Y104504D2*X185567D1*X187419Y100511D2*X189581D1*Y99712D2*X188218D1*X189581Y98914D2*X189016D1*X189581Y98115D2*X189431D1*Y97317D2*X189581D1*X188031Y95419D2*Y94794D1*Y97919*X186156Y99794*X189581Y101309D2*X185571D1*Y102108D2*X189581D1*Y102907D2*X185245D1*X177293Y103705D2*X189581D1*X179245Y104504D2*X177293D1*Y102907D2*X179567D1*X179241Y102108D2*X176846D1*X176048Y101309D2*X179241D1*X179739Y97317D2*X173113D1*X172315Y98115D2*X179241D1*Y98914D2*X171516D1*X170718Y99712D2*X179241D1*X172966Y102108D2*X169193D1*X168874Y101309D2*X173764D1*X179241Y100511D2*X169142D1*X182406Y100198D2*X182810Y99794D1*X186156*X185571Y98115D2*X185855D1*X186631Y97317D2*X185073D1*X173806Y96518D2*X186379D1*X185644Y95720D2*X173806D1*Y94921D2*X185644D1*Y94123D2*X174432D1*X175231Y93324D2*X186124D1*X186923Y92526D2*X176029D1*X189581D2*X189139D1*X176828Y91727D2*X189581D1*Y90929D2*X177626D1*X178425Y90130D2*X190209D1*X191007Y89332D2*X179223D1*X201269Y93324D2*X199147D1*X199525Y94123D2*X201484D1*X202256Y94921D2*X199525D1*Y95720D2*X202256D1*X196556D2*X195756D1*Y94921D2*X196556D1*Y94123D2*X195756D1*X196556Y92882D2*Y96048D1*X199525*Y94098*X199429Y93742*X199245Y93423*X198984Y93162*X198665Y92978*X198309Y92882*X196556*X195756Y93324D2*X196556D1*X201269Y92526D2*X194036D1*X194834Y91727D2*X201471D1*X202270Y90929D2*X195633D1*X185333Y81347D2*X214479D1*X199906Y74794D2*X187406D1*X179281Y82919*Y87294*X172406Y94169*Y96044*X169906Y98544*X166599*X98656Y94921D2*X164004D1*X98656Y94123D2*X164004D1*X106208*X164004Y94921D2*X106208D1*X164265Y95720D2*X153972D1*X164265*X164115Y96518D2*X154770D1*X164115*X164004Y97317D2*X154810D1*X164004*Y98115D2*X156367D1*X164004*Y98914D2*X157166D1*X164004*Y99712D2*X157369D1*X164004*X164056Y100511D2*X157369D1*X164056*X164324Y101309D2*X156826D1*X164324*X164004Y102108D2*X154810D1*X164004*Y102907D2*X154810D1*X164004*Y103705D2*X154430D1*X164004*Y104504D2*X105808D1*X164004*Y105302D2*X105808D1*X164004*X164533Y106101D2*X105279D1*X164533*X164004Y106899D2*X105808D1*X164004*Y107698D2*X154138D1*X164004*Y108496D2*X154810D1*X164004*Y109295D2*X154810D1*X164004*Y110093D2*X156534D1*X164004*X164437Y110892D2*X157332D1*X164437*X164004Y111690D2*X157369D1*X164004*Y112489D2*X157369D1*X164004*Y113287D2*X156659D1*X164004*X166599Y113544D2*X172406D1*X176156Y117294*Y164794*X178252Y166891*Y179794*X178656Y180198*Y183544*X182406Y187294*X247406*X249906Y184794*Y167294*X258656Y158544*X238071Y170780D2*X243306D1*Y171578D2*X238071D1*Y172377D2*X243306D1*Y173176D2*X238071D1*Y173974D2*X243306D1*Y174773D2*X238071D1*X238024Y175571D2*X243306D1*Y176370D2*X236306D1*Y177168D2*X243306D1*Y177967D2*X236306D1*X237034Y178765D2*X242778D1*X241980Y179564D2*X237832D1*X238631Y180362D2*X241181D1*X240906Y181161D2*X238906D1*Y181959D2*X240906D1*Y182758D2*X238906D1*Y183556D2*X240906D1*X241310Y184355D2*X238502D1*X237704Y185153D2*X242108D1*X241832Y189146D2*X237980D1*X238779Y189944D2*X241033D1*X240506Y190743D2*X239306D1*Y191541D2*X240506D1*Y193138D2*X239306D1*Y193937D2*X240506D1*X241125Y194735D2*X238687D1*X237889Y195534D2*X241923D1*X242722Y196332D2*X237090D1*X244506Y193937D2*X245306D1*Y194735D2*X244506D1*Y195534D2*X245306D1*Y196332D2*X244506D1*X259906D2*X247090D1*X257323Y195534D2*X259906D1*X247889D2*X252489D1*X251690Y194735D2*X248687D1*X249306Y193937D2*X250906D1*Y193138D2*X249306D1*X245306Y192340D2*X250906D1*X244506Y193138D2*X245306D1*X244506Y192694D2*Y196694D1*X243083*X240506Y194117*Y192694*X244506*X235306Y192340D2*X244506D1*X234506Y193138D2*X235306D1*X234506Y192694D2*Y196694D1*X233083*X230506Y194117*Y192694*X234506*X225306Y192340D2*X234506D1*X224506Y193138D2*X225306D1*Y193937D2*X224506D1*Y194735D2*X225306D1*Y195534D2*X224506D1*Y196332D2*X225306D1*X217090D2*X222722D1*X221923Y195534D2*X217889D1*X218687Y194735D2*X221125D1*X220506Y193937D2*X219306D1*X220506Y192694D2*Y194117D1*X223083Y196694*X224506*Y192694*X220506*X219306Y193138D2*X220506D1*Y191541D2*X219306D1*Y190743D2*X220506D1*X221033Y189944D2*X218779D1*X217980Y189146D2*X221832D1*X222108Y185153D2*X217704D1*X218502Y184355D2*X221310D1*X220906Y183556D2*X218906D1*Y182758D2*X220906D1*Y181959D2*X218906D1*Y181161D2*X220906D1*X221181Y180362D2*X218631D1*X217832Y179564D2*X221980D1*X222778Y178765D2*X217034D1*X216306Y177967D2*X223506D1*Y177168D2*X216306D1*Y176370D2*X223506D1*X221788Y175571D2*X218024D1*X218071Y174773D2*X221741D1*Y173974D2*X218071D1*Y173176D2*X221741D1*X214906Y182294D2*Y173141D1*X207704Y185153D2*X212108D1*X211310Y184355D2*X208502D1*X208906Y183556D2*X210906D1*Y182758D2*X208906D1*Y181959D2*X210906D1*Y181161D2*X208906D1*X208631Y180362D2*X211181D1*X211980Y179564D2*X207832D1*X207034Y178765D2*X212778D1*X213506Y177967D2*X206306D1*Y177168D2*X213506D1*Y176370D2*X206306D1*X208024Y175571D2*X211788D1*X211741Y174773D2*X208071D1*Y173974D2*X211741D1*Y173176D2*X208071D1*Y172377D2*X211741D1*Y171578D2*X208071D1*Y170780D2*X211741D1*X212093Y169183D2*X207719D1*X208071Y168384D2*X211741D1*Y167586D2*X208071D1*X207186Y161198D2*X211830D1*X212519Y161996D2*X207293D1*Y162795D2*X212519D1*X212212Y163593D2*X207600D1*X208071Y164392D2*X211741D1*Y165190D2*X208071D1*Y165989D2*X211741D1*Y166787D2*X208071D1*X214906Y166448D2*Y162294D1*X205531Y152919*X205056Y154810D2*X205442D1*X206240Y155608D2*X205056D1*Y156407D2*X207039D1*X207837Y157205D2*X205547D1*X206306Y158004D2*X208636D1*X209434Y158802D2*X206306D1*Y159601D2*X210233D1*X211031Y160399D2*X206388D1*X238654Y147623D2*X228658D1*X228849Y146825D2*X238463D1*Y146026D2*X228849D1*Y145228D2*X238463D1*Y144429D2*X228849D1*Y143631D2*X238463D1*X214906Y143534D2*X216156Y143574D1*X214506Y136444D2*X206931D1*X215306Y132451D2*X214506D1*Y133250D2*X215306D1*Y134048D2*X214506D1*Y134847D2*X215306D1*Y135645D2*X214506D1*X221290Y136444D2*X215306D1*X219259Y137243D2*X220779D1*X220740Y138041D2*X219259D1*X219247Y138840D2*X220740D1*X220770Y139638D2*X218814D1*X218734Y140437D2*X221140D1*Y141235D2*X218859D1*Y146026D2*X221140D1*Y146825D2*X218542D1*X217106Y147623D2*X221331D1*X247766Y148422D2*X217106D1*X246458Y149220D2*X246967D1*X240531Y156669D2*X248031D1*X258656Y146044*X254993Y145228D2*X254912D1*Y144429D2*X255381D1*Y143631D2*X254912D1*Y142832D2*X255381D1*Y142034D2*X254912D1*Y141235D2*X255381D1*Y140437D2*X254912D1*Y139638D2*X255381D1*Y138840D2*X254912D1*X242756Y136444D2*X255381D1*Y137243D2*X246172D1*Y138041D2*X255381D1*X246172Y138840D2*X247400D1*X243567Y141044D2*X242317Y141015D1*X246172Y142832D2*X247400D1*Y143631D2*X246172D1*Y144429D2*X247400D1*Y145228D2*X246172D1*Y146026D2*X247878D1*X248306Y146825D2*X246172D1*X245981Y147623D2*X248306D1*X217106Y149220D2*X243354D1*X242555Y150019D2*X216543D1*X215744Y150817D2*X242519D1*Y151616D2*X214946D1*X207006Y152414D2*X242900D1*X207101Y151616D2*X206931D1*Y147623D2*X207451D1*X211270Y146825D2*X206931D1*Y146026D2*X210953D1*Y145228D2*X206931D1*Y144429D2*X210953D1*Y143631D2*X206931D1*Y142832D2*X210953D1*Y142034D2*X206931D1*Y141235D2*X210953D1*X211078Y140437D2*X206931D1*Y139638D2*X210998D1*X210565Y138840D2*X206931D1*Y138041D2*X210553D1*Y137243D2*X206931D1*Y135645D2*X210553D1*Y134847D2*X206931D1*Y134048D2*X210553D1*X210570Y133250D2*X206931D1*Y132451D2*X211017D1*X222002Y131653D2*X206931D1*X222801Y132451D2*X218795D1*X219243Y133250D2*X223599D1*X224398Y134048D2*X219259D1*Y134847D2*X225196D1*X219259Y135654D2*Y133311D1*X219163Y132954*X218979Y132635*X218718Y132375*X218399Y132190*X218043Y132095*X215306*Y135654*X219259*X225995Y135645D2*X219259D1*X225038Y136444D2*X224952D1*Y137243D2*X225038D1*Y138041D2*X224952D1*X229987Y139638D2*X229219D1*X228849Y140437D2*X230786D1*X231584Y141235D2*X228849D1*Y142034D2*X232383D1*X238463Y142832D2*X228849D1*X233714Y138840D2*X238463D1*Y138041D2*X232916D1*X232117Y137243D2*X238463D1*X239556Y136444D2*X231319D1*X230520Y135645D2*X239556D1*X232016Y134048D2*X232816D1*Y133250D2*X232016D1*Y132451D2*X232816D1*Y131653D2*X232016D1*Y130854D2*X232816D1*X224132Y129257D2*X228457D1*Y128459D2*X223334D1*X222535Y127660D2*X228457D1*Y126862D2*X221737D1*X220938Y126063D2*X228689D1*X217993Y127644D2*X226519Y136170D1*X225038*Y138413*X224952*Y136170*X221956*X221600Y136265*X221281Y136449*X221020Y136710*X220836Y137029*X220740Y137385*Y138413*X224952*Y138498*X220740*Y139526*X220836Y139882*X221020Y140201*X221140Y140321*Y141774*X218859*Y140561*X218273Y139975*X218184*X218399Y139918*X218718Y139733*X218979Y139473*X219163Y139153*X219259Y138797*Y136454*X215306*Y135654*X214506*Y132095*X211769*X211413Y132190*X211094Y132375*X210833Y132635*X210649Y132954*X210553Y133311*Y135654*X214506*Y136454*X210553*Y138797*X210649Y139153*X210833Y139473*X211094Y139733*X211413Y139918*X211628Y139975*X211539*X210953Y140561*Y146508*X211539Y147093*X212706*Y147594*X209832*X209645Y147407*X207667*X206931Y148143*Y121690*X209556*Y122957*X210493Y123894*X214243Y127644*X217993*X206931Y127660D2*X218010D1*X218808Y128459D2*X206931D1*Y129257D2*X219607D1*X220405Y130056D2*X206931D1*Y130854D2*X221204D1*X194321D2*X202256D1*Y131653D2*X194321D1*Y132451D2*X202256D1*X195125Y136444D2*X193656D1*X194199Y135645D2*X195125D1*Y134847D2*X194321D1*Y134048D2*X195373D1*X202256Y133250D2*X194321D1*X199681Y134048D2*X198881D1*Y134847D2*X199681D1*Y135645D2*X198881D1*Y136444D2*X199681D1*Y137243D2*X198881D1*Y138840D2*X199681D1*Y139638D2*X198881D1*Y140437D2*X199681D1*Y141235D2*X198881D1*Y142034D2*X199681D1*X199281Y137806D2*Y143544D1*X193656Y138041D2*X198881D1*X195125Y137243D2*X193656D1*Y138840D2*X195125D1*Y139638D2*X193656D1*Y140437D2*X195125D1*X195203Y141235D2*X193656D1*Y142034D2*X195933D1*X202256Y142832D2*X193656D1*Y143631D2*X202256D1*Y144429D2*X193656D1*Y145228D2*X202256D1*Y146026D2*X193656D1*X202256Y147623D2*X201736D1*X193656Y146825D2*X202256D1*X193656Y147594D2*Y136109D1*X193736*X194321Y135523*Y130758*X193736Y130172*X193656*Y129416*X193736*X194321Y128830*Y128582*X195525*Y130149*X196111Y130735*X202256*Y133462*X202221Y133453*X199681*Y137406*X198881*Y133453*X196341*X195985Y133549*X195666Y133733*X195405Y133994*X195221Y134313*X195125Y134669*Y137406*X198881*Y138206*X195125*Y140943*X195221Y141299*X195405Y141618*X195666Y141879*X195985Y142063*X196341Y142159*X198881*Y138206*X199681*Y142159*X202221*X202256Y142149*Y148143*X201520Y147407*X199542*X199355Y147594*X193656*X202256Y152414D2*X193656D1*Y153213D2*X202256D1*Y154011D2*X193656D1*Y154810D2*X202256D1*Y155608D2*X193656D1*Y156407D2*X202256D1*Y157205D2*X193656D1*Y158004D2*X202386D1*X203184Y158802D2*X193656D1*Y159601D2*X203506D1*X203424Y160399D2*X193656D1*Y161198D2*X202626D1*X202519Y161996D2*X193656D1*Y162795D2*X202519D1*X202212Y163593D2*X193656D1*Y164392D2*X201741D1*Y165190D2*X193656D1*Y165989D2*X201741D1*Y166787D2*X193656D1*X204906Y166448D2*Y162294D1*Y158544*X203656Y157294*Y116044*X204817Y114883*X210132*X221628Y108496D2*X214117D1*X214282Y107698D2*X220830D1*X220031Y106899D2*X214282D1*X214280Y106101D2*X219756D1*Y105302D2*X214282D1*Y104504D2*X219756D1*Y103705D2*X214282D1*X215023Y102907D2*X219756D1*Y102108D2*X215822D1*X216621Y101309D2*X219295D1*X218769Y100511D2*X217419D1*X218769Y99712D2*X218218D1*X221156Y99794D2*Y106044D1*X222317Y107206*X232180*X229995*Y107205D2*X229978Y107207D1*X229961Y107212*X229946Y107220*X229932Y107231*X229921Y107245*X229913Y107260*X229908Y107277*X229906Y107294*Y109794*X232180Y109765D2*Y109794D1*X229906*X214282Y109295D2*X228030D1*X227842Y110892D2*X214258D1*X228030Y110655D2*X227910Y110775D1*X227725Y111094*X227630Y111450*X214282Y111690D2*X227630D1*Y112489D2*X214282D1*Y113287D2*X227654D1*X228030Y114086D2*X214282D1*Y114884D2*X228030D1*Y115683D2*X214282D1*Y116481D2*X228030D1*Y117280D2*X214282D1*Y118078D2*X228030D1*X228051Y118877D2*X214261D1*X214282Y119675D2*X228030D1*Y120474D2*X214282D1*X214114Y121272D2*X228198D1*X237341Y122071D2*X213195D1*X213994Y122869D2*X237341D1*X237385Y123668D2*X214792D1*X236142Y126063D2*X236701D1*X232016D2*X232816D1*Y126862D2*X232016D1*Y127660D2*X232816D1*Y128459D2*X232016D1*Y129257D2*X232816D1*X232016Y129394D2*Y125441D1*X229672*X229316Y125537*X228997Y125721*X228737Y125982*X228552Y126301*X228457Y126657*Y129394*X232016*X224931Y130056D2*X232016D1*X228457Y130854D2*X225729D1*X226528Y131653D2*X228457D1*Y132451D2*X227326D1*X228542Y133250D2*X228125D1*X229311Y134048D2*X228923D1*X229672Y134147D2*X232016D1*Y130194*X228457*Y132931*X228552Y133287*X228737Y133606*X228997Y133867*X229316Y134051*X229672Y134147*X239556Y134847D2*X229722D1*X236289Y133250D2*X236426D1*X239556Y134048D2*X235520D1*X239906Y129804D2*X239896Y129794D1*X250756Y130854D2*X243455D1*X251556Y130056D2*X250756D1*X255381Y130854D2*X251556D1*X255381Y131653D2*X255312D1*Y132451D2*X255381D1*Y133250D2*X255312D1*Y134048D2*X255381D1*Y134847D2*X255103D1*X242756Y135645D2*X255381D1*X247209Y134847D2*X242756D1*Y134048D2*X247000D1*Y133250D2*X243366D1*X243455Y132451D2*X247000D1*Y131653D2*X243455D1*X247000Y131557D2*X250756D1*Y135510*X248216*X247860Y135415*X247541Y135230*X247280Y134970*X247096Y134650*X247000Y134294*Y131557*X243455Y130056D2*X247000D1*Y129257D2*X243455D1*Y128459D2*X247000D1*X247098Y127660D2*X243455D1*X247860Y126900D2*X247541Y127084D1*X247280Y127345*X247096Y127664*X247000Y128020*Y130757*X250756*Y131557*X251556*Y135510*X254096*X254452Y135415*X254772Y135230*X255032Y134970*X255217Y134650*X255312Y134294*Y131557*X251556*Y130757*X255312*Y128020*X255217Y127664*X255032Y127345*X254772Y127084*X254452Y126900*X254096Y126805*X251556*Y130757*X250756*Y126805*X248216*X247860Y126900*X243455Y126862D2*X248002D1*X255381Y126063D2*X243091D1*X220140Y125265D2*X255381D1*X244411Y124466D2*X219341D1*X247402D2*X246602D1*Y123668D2*X247402D1*Y122869D2*X246602D1*Y122071D2*X247402D1*X246602Y121444D2*Y124609D1*X244850*X244494Y124514*X244174Y124330*X243914Y124069*X243729Y123750*X243634Y123394*Y121444*X246602*X243278Y121272D2*X246602D1*X240310Y121044D2*X239266Y120001D1*X232180*Y117442D2*X253179D1*X256781Y121044*Y145419*X248031Y154169*X233031*X207805Y153213D2*X232007D1*X231209Y154011D2*X208603D1*X209402Y154810D2*X230410D1*X229612Y155608D2*X210200D1*X210999Y156407D2*X228813D1*X228015Y157205D2*X211797D1*X212596Y158004D2*X227216D1*X226418Y158802D2*X213394D1*X214193Y159601D2*X225619D1*X223424Y160399D2*X216388D1*X217186Y161198D2*X222626D1*X222519Y161996D2*X217293D1*Y162795D2*X222519D1*X222212Y163593D2*X217600D1*X218071Y164392D2*X221741D1*Y165190D2*X218071D1*Y165989D2*X221741D1*Y166787D2*X218071D1*X224906Y166448D2*Y162294D1*X233031Y154169*X239612Y155608D2*X233572D1*X232773Y156407D2*X238813D1*X238015Y157205D2*X231975D1*X231176Y158004D2*X237216D1*X236418Y158802D2*X230378D1*X229579Y159601D2*X235619D1*X233424Y160399D2*X228781D1*X227982Y161198D2*X232626D1*X232519Y161996D2*X227293D1*Y162795D2*X232519D1*X232212Y163593D2*X227600D1*X228071Y164392D2*X231741D1*Y165190D2*X228071D1*Y165989D2*X231741D1*Y166787D2*X228071D1*X234906Y166448D2*Y162294D1*X240531Y156669*X240378Y158802D2*X242522D1*X242519Y159601D2*X239579D1*X238781Y160399D2*X242519D1*X242933Y161198D2*X237982D1*X237293Y161996D2*X243306D1*Y162795D2*X237293D1*X237600Y163593D2*X243306D1*Y164392D2*X238071D1*Y165190D2*X243306D1*Y165989D2*X238071D1*Y166787D2*X243306D1*Y167586D2*X238071D1*Y168384D2*X243306D1*Y169183D2*X237719D1*X193656Y169981D2*X243306D1*X201741Y170780D2*X193656D1*Y171578D2*X201741D1*Y172377D2*X193656D1*Y173176D2*X201741D1*Y173974D2*X193656D1*Y174773D2*X201741D1*X201788Y175571D2*X193656D1*Y176370D2*X203506D1*Y177168D2*X193656D1*Y177967D2*X203506D1*X202778Y178765D2*X193656D1*Y179564D2*X201980D1*X201181Y180362D2*X193656D1*Y181161D2*X200906D1*Y181959D2*X193656D1*Y182758D2*X200906D1*Y183556D2*X193656D1*Y184355D2*X201310D1*X202108Y185153D2*X193656D1*X202849Y185894D2*X193656D1*Y151994*X199355*X199542Y152181*X201520*X202256Y151445*Y157874*X203506Y159124*Y160318*X202519Y161305*Y163283*X202715Y163479*X202326*X201741Y164065*Y168830*X202326Y169416*X207486*X208071Y168830*Y164065*X207486Y163479*X207097*X207293Y163283*Y161305*X206306Y160318*Y157964*X205486Y157144*X205056Y156714*Y154424*X212519Y161887*Y163283*X212715Y163479*X212326*X211741Y164065*Y168830*X212326Y169416*X217486*X218071Y168830*Y164065*X217486Y163479*X217097*X217293Y163283*Y161305*X215895Y159907*X214499*X206931Y152339*Y151445*X207667Y152181*X209645*X209832Y151994*X214567*X215817Y150744*X217106Y149455*Y147093*X218273*X218859Y146508*Y145374*X221140*Y147433*X221726Y148018*X228263*X228849Y147433*Y140321*X228969Y140201*X229154Y139882*X229249Y139526*Y138900*X232964Y142615*X238463*Y147433*X239049Y148018*X245586*X246172Y147433*Y142644*X247400*Y145548*X247986Y146134*X248306*Y147881*X246743Y149444*X246682*X245895Y148657*X243917*X242519Y150055*Y152033*X243255Y152769*X232451*X225314Y159907*X223917*X222519Y161305*Y163283*X222715Y163479*X222326*X221741Y164065*Y168830*X222326Y169416*X227486*X228071Y168830*Y164065*X227486Y163479*X227097*X227293Y163283*Y161887*X233611Y155569*X239651*X235314Y159907*X233917*X232519Y161305*Y163283*X232715Y163479*X232326*X231741Y164065*Y168830*X232326Y169416*X237486*X238071Y168830*Y164065*X237486Y163479*X237097*X237293Y163283*Y161887*X241111Y158069*X243255*X242519Y158805*Y160783*X243306Y161570*Y178294*X243249*X240906Y180637*Y183951*X242849Y185894*X236963*X238906Y183951*Y180637*X236563Y178294*X236306*Y176109*X237486*X238071Y175523*Y170758*X237486Y170172*X232326*X231741Y170758*Y175523*X232326Y176109*X233506*Y178294*X233249*X230906Y180637*Y183951*X232849Y185894*X226963*X228906Y183951*Y180637*X226563Y178294*X226306*Y176109*X227486*X228071Y175523*Y170758*X227486Y170172*X222326*X221741Y170758*Y175523*X222326Y176109*X223506*Y178294*X223249*X220906Y180637*Y183951*X222849Y185894*X216963*X218906Y183951*Y180637*X216563Y178294*X216306*Y176109*X217486*X218071Y175523*Y170758*X217486Y170172*X212326*X211741Y170758*Y175523*X212326Y176109*X213506*Y178294*X213249*X210906Y180637*Y183951*X212849Y185894*X206963*X208906Y183951*Y180637*X206563Y178294*X206306*Y176109*X207486*X208071Y175523*Y170758*X207486Y170172*X202326*X201741Y170758*Y175523*X202326Y176109*X203506*Y178294*X203249*X200906Y180637*Y183951*X202849Y185894*X193656Y189146D2*X200506D1*Y189944D2*X193656D1*Y190743D2*X200506D1*Y191541D2*X193656D1*Y193138D2*X200506D1*Y193937D2*X193656D1*Y194735D2*X200506D1*X200521Y195534D2*X193656D1*X201046Y196414D2*X201366Y196599D1*X201722Y196694*X204506*Y192694*X200506*Y195478*X200601Y195834*X200786Y196154*X201046Y196414*X193656Y196332D2*X200964D1*X193656Y197744D2*Y188694D1*X200636*X200601Y188754*X200506Y189110*Y191894*X204506*Y192694*X205306*Y196694*X208090*X208446Y196599*X208766Y196414*X209026Y196154*X209211Y195834*X209306Y195478*Y192694*X205306*Y191894*X209306*Y189110*X209211Y188754*X209176Y188694*X212284*X210506Y190472*Y191894*X214506*Y192694*X215306*Y196694*X216729*X219306Y194117*Y192694*X215306*Y191894*X219306*Y190472*X217529Y188694*X222284*X220506Y190472*Y191894*X224506*Y192694*X225306*Y196694*X226729*X229306Y194117*Y192694*X225306*Y191894*X229306*Y190472*X227529Y188694*X232284*X230506Y190472*Y191894*X234506*Y192694*X235306*Y196694*X236729*X239306Y194117*Y192694*X235306*Y191894*X239306*Y190472*X237529Y188694*X242284*X240506Y190472*Y191894*X244506*Y192694*X245306*Y196694*X246729*X249306Y194117*Y192694*X245306*Y191894*X249306*Y190472*X247529Y188694*X247986*X250486Y186194*X251306Y185374*Y184351*X253249Y186294*X256563*X258906Y183951*Y180637*X256706Y178437*Y174290*X259906Y171090*Y190494*X258763*X256563Y188294*X253249*X250906Y190637*Y193951*X253249Y196294*X256563*X258763Y194094*X259906*Y197744*X193656*X259906Y197131D2*X193656D1*X261306D2*X276467D1*X273748Y196332D2*X261306D1*Y195534D2*X272198D1*X270955Y194735D2*X261306D1*Y193937D2*X269713D1*X268609Y193138D2*X261306D1*Y192340D2*X267917D1*X267225Y191541D2*X261306D1*Y190743D2*X266534D1*X265842Y189944D2*X261306D1*Y189146D2*X265249D1*X264885Y188347D2*X261306D1*Y187549D2*X264520D1*X264155Y186750D2*X261306D1*Y185952D2*X263791D1*X263426Y185153D2*X261306D1*Y184355D2*X263149D1*X263034Y183556D2*X261306D1*Y182758D2*X262919D1*X262804Y181959D2*X261306D1*Y181161D2*X262690D1*X262575Y180362D2*X261306D1*Y179564D2*X262460D1*X262545Y178765D2*X261306D1*Y177967D2*X262660D1*X262774Y177168D2*X261306D1*Y176370D2*X262889D1*X263004Y175571D2*X261306D1*Y174773D2*X263119D1*X263331Y173974D2*X261306D1*Y173176D2*X263696D1*X264060Y172377D2*X261306D1*Y171578D2*X264425D1*X264790Y170780D2*X261306D1*Y169981D2*X265154D1*X265661Y169183D2*X261813D1*X262611Y168384D2*X266353D1*X267045Y167586D2*X263410D1*X299097Y161198D2*X269798D1*X299097Y161996D2*X285866D1*X299078Y178765D2*X299097D1*Y177967D2*X298963D1*X298849Y177168D2*X299097D1*Y176370D2*X298734D1*X298619Y175571D2*X299097D1*Y174773D2*X298504D1*X298292Y173974D2*X299097D1*Y173176D2*X297927D1*X297563Y172377D2*X299097D1*Y171578D2*X297198D1*X296833Y170780D2*X299097D1*Y169981D2*X296469D1*X295962Y169183D2*X299097D1*Y168384D2*X295270D1*X294578Y167586D2*X299097D1*Y166787D2*X293886D1*X293194Y165989D2*X299097D1*Y165190D2*X292234D1*X290992Y164392D2*X299097D1*Y163593D2*X289749D1*X288507Y162795D2*X299097D1*X288047Y154810D2*X291765D1*X292563Y155608D2*X287249D1*X297249D2*X299097D1*Y154810D2*X298047D1*X299097Y154011D2*X298846D1*X298906Y153213D2*X299097D1*Y152414D2*X298906D1*Y151616D2*X299097D1*Y150817D2*X298906D1*X298287Y150019D2*X299097D1*Y149220D2*X297489D1*X296690Y148422D2*X299097D1*X288287Y150019D2*X291525D1*X292323Y149220D2*X287489D1*X290758Y148422D2*X293122D1*X299097Y147623D2*X291557D1*X292355Y146825D2*X299097D1*X287629Y145228D2*X289993D1*X290791Y144429D2*X288428D1*X288906Y143631D2*X290906D1*Y142832D2*X288906D1*Y142034D2*X290906D1*Y141235D2*X288906D1*X288705Y140437D2*X291107D1*X291905Y139638D2*X287907D1*X294906Y142294D2*X289906Y147294D1*X273656*X281765Y154810D2*X276186D1*X275387Y155608D2*X282563D1*X299097Y156407D2*X274589D1*X273790Y157205D2*X299097D1*Y158004D2*X272992D1*X272193Y158802D2*X299097D1*Y159601D2*X271395D1*X270596Y160399D2*X299097D1*X268999Y161996D2*X275758D1*X273116Y162795D2*X268201D1*X267402Y163593D2*X271874D1*X270631Y164392D2*X266604D1*X265805Y165190D2*X269389D1*X268429Y165989D2*X265007D1*X264208Y166787D2*X267737D1*X261306Y164392D2*X261513D1*X262311Y163593D2*X261306D1*Y162795D2*X263110D1*X263908Y161996D2*X261306D1*Y161198D2*X264707D1*X265505Y160399D2*X261306D1*Y159601D2*X266304D1*X267102Y158802D2*X261306D1*Y158004D2*X267901D1*X268522Y157205D2*X261306D1*Y156407D2*X267723D1*X266925Y155608D2*X261306D1*Y154810D2*X266126D1*X265328Y154011D2*X261306D1*Y153213D2*X264529D1*X263731Y152414D2*X261306D1*Y151616D2*X262932D1*X262481Y150817D2*X261306D1*Y150019D2*X262481D1*Y149220D2*X261306D1*Y148422D2*X262481D1*Y147623D2*X261306D1*Y146825D2*X262481D1*Y146026D2*X261306D1*Y145228D2*X262481D1*Y144429D2*X261306D1*Y143631D2*X262481D1*Y142832D2*X261306D1*Y142034D2*X262481D1*Y141235D2*X261306D1*Y140437D2*X262481D1*Y139638D2*X261306D1*Y138840D2*X262481D1*Y138041D2*X261306D1*Y137243D2*X262481D1*Y136444D2*X261306D1*Y135645D2*X262481D1*Y134847D2*X261306D1*Y134048D2*X262481D1*Y133250D2*X261306D1*Y132451D2*X262481D1*Y131653D2*X261306D1*Y130854D2*X262481D1*Y130056D2*X261306D1*Y129257D2*X262481D1*Y128459D2*X261306D1*Y127660D2*X262481D1*Y126862D2*X261306D1*Y126063D2*X262481D1*Y125265D2*X261306D1*Y124466D2*X262481D1*Y123668D2*X261306D1*Y122869D2*X262481D1*Y122071D2*X261306D1*Y121272D2*X262481D1*Y120474D2*X261306D1*Y119675D2*X262481D1*Y118877D2*X260969D1*X260170Y118078D2*X262481D1*Y117280D2*X259372D1*X258573Y116481D2*X262481D1*Y115683D2*X257775D1*X256976Y114884D2*X261826D1*X261027Y114086D2*X256177D1*X255379Y113287D2*X260229D1*X259430Y112489D2*X254580D1*X253782Y111690D2*X258631D1*X257833Y110892D2*X252983D1*X252185Y110093D2*X257034D1*X256236Y109295D2*X251386D1*X250588Y108496D2*X255437D1*X254639Y107698D2*X249789D1*X248991Y106899D2*X253840D1*X253042Y106101D2*X248192D1*X247394Y105302D2*X252243D1*X251445Y104504D2*X246595D1*X245797Y103705D2*X250646D1*X249848Y102907D2*X244998D1*X244200Y102108D2*X249049D1*X243686Y101594D2*X248535D1*X262481Y115540*Y151165*X263535Y152219*X268610Y157294*X261306Y164599*Y119214*X243686Y101594*X236631Y98914D2*X239026D1*X239824Y99712D2*X237429D1*X238181Y100511D2*X240623D1*X241421Y101309D2*X238181D1*Y102108D2*X242220D1*X243018Y102907D2*X238181D1*Y103705D2*X243817D1*X244615Y104504D2*X238181D1*X237628Y105302D2*X245414D1*X246212Y106101D2*X236327D1*X236329Y106899D2*X247011D1*X247810Y107698D2*X236329D1*X236164Y108496D2*X248608D1*X249407Y109295D2*X236329D1*Y110093D2*X250205D1*X251004Y110892D2*X236517D1*X236729Y111690D2*X251802D1*X253399Y113287D2*X236705D1*X236729Y112489D2*X252601D1*X238656Y112294D2*X238627Y112324D1*X232180*X236729*Y111450*X236634Y111094*X236450Y110775*X236329Y110655*Y108661*X236153Y108485*X236329Y108309*Y106102*X236273Y106046*X236884*X237361Y105569*X238181Y104749*Y100464*X236261Y98544*X238656*X253595Y113483*X236653*X236729Y113197*Y112324*X232180*X227630*Y113197*X227725Y113553*X227910Y113872*X228030Y113992*Y115986*X228206Y116162*X228030Y116339*Y118545*X228206Y118721*X228030Y118898*Y121104*X228616Y121690*X235743*X236032Y121401*X237341*Y123624*X237927Y124209*X242692*X243278Y123624*Y118842*X243634*Y120644*X246602*Y121444*X247402*Y124609*X249155*X249511Y124514*X249831Y124330*X250091Y124069*X250276Y123750*X250371Y123394*Y121444*X247403*Y120644*X250371*Y118842*X252599*X255381Y121624*Y144839*X254912Y145308*Y138814*X254326Y138228*X247986*X247400Y138814*Y139444*X246172*Y137155*X245586Y136570*X242756*Y133747*X242869*X243455Y133161*Y126427*X242869Y125841*X236923*X236337Y126427*Y126516*X236280Y126301*X236095Y125982*X235835Y125721*X235515Y125537*X235159Y125441*X232816*Y129394*X232016*Y130194*X232816*Y134147*X235159*X235515Y134051*X235835Y133867*X236095Y133606*X236280Y133287*X236337Y133072*Y133161*X236923Y133747*X239556*Y136570*X239049*X238463Y137155*Y139415*X234289*X220256Y125381*X219319Y124444*X215569*X212814Y121690*X213696*X214282Y121104*Y118898*X214106Y118721*X214282Y118545*Y116339*X214106Y116162*X214282Y115986*Y113779*X214106Y113603*X214282Y113427*Y111220*X214106Y111044*X214282Y110868*Y108661*X214106Y108485*X214282Y108309*Y106102*X214106Y105926*X214282Y105750*Y103543*X214226Y103487*X214443*X218769Y99161*Y100783*X219756Y101770*Y106624*X220576Y107444*X221738Y108605*X228086*X228030Y108661*Y110655*X214282Y110093D2*X228030D1*X210132Y109765D2*X210103Y109794D1*X210132Y107206D2*X206067D1*X203656Y104794*Y92919*X214595Y90929D2*X205042D1*X218246Y89332D2*X217767D1*X221396D2*X220916D1*X224066D2*X224545D1*X222731Y86448D2*Y77619D1*X218031Y73544*X213331Y53141D2*Y71994D1*X210182Y53141D2*Y56945D1*X211156Y57919*Y70419*X208656Y72919*X203031*X201156Y71044*X186156*X168656Y88544*X166599*Y83544D2*X171156D1*X185531Y69169*X201781*X204906Y69794D2*X202406D1*X201781Y69169*X203656Y66669D2*X203031Y67294D1*X184906*X169295Y66175D2*X184045D1*X183247Y66974D2*X169593D1*Y67772D2*X182448D1*X171156Y68571D2*X162501D1*X166202*Y67772D2*X166996D1*Y66974D2*X166202D1*Y66175D2*X166996D1*X159906Y68446D2*Y61669D1*X154906Y68446D2*Y64169D1*X159906Y59169*X186781*X187697Y50205D2*X187115D1*X187092Y49406D2*X187720D1*X184571D2*X183942D1*X183965Y50205D2*X184548D1*X165850D2*X177369D1*X176571Y51003D2*X165052D1*X164253Y51802D2*X176269D1*Y52600D2*X163455D1*X162656Y53399D2*X176384D1*X177183Y54197D2*X161858D1*X160261Y55794D2*X181116D1*X180845Y54996D2*X161059D1*X180845Y54197D2*X180129D1*X182682Y53141D2*X181835Y52294D1*X178656*X181398Y50205D2*X179943D1*X166649Y49406D2*X181421D1*X180845Y48608D2*X167447D1*X168246Y47809D2*X180845D1*Y47011D2*X169044D1*X169843Y46212D2*X180845D1*Y45414D2*X170641D1*X171440Y44615D2*X180845D1*X180699Y43817D2*X172238D1*X173037Y43018D2*X179900D1*X179102Y42220D2*X173835D1*X174634Y41421D2*X178157D1*X177519Y40623D2*X175432D1*X177828Y38227D2*X178097D1*X177029Y39026D2*X177519D1*Y39824D2*X176231D1*X179906Y39794D2*Y41044D1*X182682Y43820*Y46448*X185831Y41969D2*Y46448D1*X184906Y39794D2*Y41044D1*X185831Y41969*X189281Y39794D2*X188981Y40094D1*Y46448*X192130D2*Y42570D1*X193656Y41044*Y39794*X196359Y38227D2*X195465D1*X196043Y39026D2*X197158D1*X197256Y39824D2*X196043D1*Y40623D2*X197256D1*Y41421D2*X195405D1*X194460Y42220D2*X197256D1*Y43018D2*X193662D1*X193719Y43817D2*X197256D1*Y44615D2*X193967D1*Y45414D2*X197296D1*X198094Y46212D2*X193967D1*Y47011D2*X198893D1*X199691Y47809D2*X193967D1*Y48608D2*X200490D1*X190242Y49406D2*X190870D1*X190847Y50205D2*X190264D1*X208345Y52600D2*X193967D1*Y51802D2*X208345D1*Y51003D2*X193967D1*X193414Y50205D2*X208898D1*X202392Y49406D2*X193391D1*X208921D2*X204920D1*X205719Y48608D2*X208345D1*Y47809D2*X206043D1*Y47011D2*X208345D1*Y46212D2*X205950D1*X205152Y45414D2*X208345D1*Y44615D2*X204711D1*X205510Y43817D2*X208593D1*X208782Y43018D2*X206043D1*Y42220D2*X208782D1*Y41421D2*X206043D1*X205361Y40623D2*X208782D1*X201156Y39794D2*X203656Y42294D1*X200056Y41421D2*X200803D1*X201269Y42220D2*X200056D1*Y43018D2*X201269D1*X201802Y43817D2*X200056D1*X200457Y44615D2*X202601D1*X202160Y45414D2*X201256D1*X203656Y47294D2*X201156D1*X198656Y44794*Y38544*X196156Y36044*X178031*X154906Y59169*X151781*X150531Y57919*X144906*Y56891*Y68446*X142917Y70966D2*X141895D1*X142917*X147917D2*X146895D1*X147917*X149906Y68446D2*X150004D1*Y62196*X151156Y61044*X155531*X159281Y57294*X184906*X185831Y56369*Y53141*X188656Y53465D2*X188981Y53141D1*Y56969*X186781Y59169*X209756Y62182D2*X190748D1*X191546Y61384D2*X209756D1*Y60585D2*X192345D1*X193143Y59787D2*X209756D1*Y58988D2*X193530D1*Y58190D2*X209447D1*X208782Y57391D2*X193530D1*Y56593D2*X208782D1*X208616Y55794D2*X193696D1*X193967Y54996D2*X208345D1*Y54197D2*X193967D1*Y53399D2*X208345D1*X192406Y53416D2*X192130Y53141D1*Y58820*X189906Y61044*X160531*X159906Y61669*X209756Y62981D2*X161306D1*X209756Y63779D2*X161306D1*X171156*Y64578D2*X161306D1*X209756*X209490Y65376D2*X209756D1*X208031Y67294D2*X207406Y66669D1*X203656*X202969Y65376D2*X161306D1*X171156*Y66175D2*X162145D1*X163902*X163604Y66974D2*X162501D1*X171156*Y67772D2*X162501D1*X163604*Y68147D2*X166202D1*Y65550*X164959*X164562Y65656*X164206Y65861*X163916Y66152*X163711Y66507*X163604Y66904*Y68147*Y69369D2*X162501D1*X171156*Y70168D2*X162501D1*X163604*X163945Y70966D2*X161895D1*X171156*Y71765D2*X105808D1*X163642*X163604Y72563D2*X105808D1*X171156*X177657D2*X169593D1*X169556Y71765D2*X178456D1*X179254Y70966D2*X169252D1*X169593Y70168D2*X180053D1*X180851Y69369D2*X169593D1*X166996Y68571D2*X181650D1*X166202Y69369D2*X166996D1*Y70168D2*X166202D1*Y70966D2*X166996D1*Y71765D2*X166202D1*Y72563D2*X166996D1*X166202Y73147D2*Y68941D1*X166996*Y68147*X169593*Y66904*X169487Y66507*X169282Y66152*X168991Y65861*X168636Y65656*X168239Y65550*X166996*Y68147*X166202*Y68941*X163604*Y70184*X163711Y70581*X163916Y70937*X164023Y71044*X163916Y71152*X163711Y71507*X163604Y71904*Y73147*X166202*Y73362D2*X105808D1*X171156*Y74160D2*X105808D1*X163604*Y74959D2*X105808D1*X171156*Y75757D2*X105510D1*X163812*X164078Y76556D2*X105734D1*X164078*X164004Y77354D2*X105808D1*X164004*Y78153D2*X105808D1*X164004*Y78951D2*X105808D1*X164004*Y79750D2*X105808D1*X164004*X164093Y80548D2*X105719D1*X164093*X164287Y81347D2*X105526D1*X164287*X164004Y82145D2*X105808D1*X164004*Y82944D2*X105808D1*X164004*Y83742D2*X153805D1*X164004*Y84541D2*X154604D1*X164004*Y85339D2*X154810D1*X164004*X164495Y86138D2*X154810D1*X164495*X164004Y86936D2*X156999D1*X164004*Y87735D2*X157369D1*X164004*Y88533D2*X157369D1*X164004*Y89332D2*X156992D1*X164004*Y90130D2*X154810D1*X164004*X164474Y90929D2*X154810D1*X164474*X164004Y91629D2*Y95459D1*X164589Y96044*X164004Y96629*Y100459*X164589Y101044*X164004Y101629*Y105459*X164589Y106044*X164004Y106629*Y110459*X164589Y111044*X164004Y111629*Y115459*X164589Y116044*X164004Y116629*Y120459*X164589Y121044*X164004Y121629*Y125459*X164589Y126044*X164004Y126629*Y130459*X164589Y131044*X164004Y131629*Y135459*X164589Y136044*X164004Y136629*Y140459*X164684Y141139*X168514*X169193Y140459*Y136629*X168609Y136044*X169193Y135459*Y131629*X168609Y131044*X169193Y130459*Y126629*X168609Y126044*X169193Y125459*Y124944*X171156*Y148544*X156706*Y146237*X156821*X157406Y145652*X157991Y146237*X161821*X162501Y145558*Y141727*X161821Y141048*X157991*X157406Y141633*X156821Y141048*X152991*X152406Y141633*X151821Y141048*X147991*X147406Y141633*X146821Y141048*X142991*X142406Y141633*X141821Y141048*X137991*X137406Y141633*X136821Y141048*X132991*X132406Y141633*X131821Y141048*X127991*X127406Y141633*X126821Y141048*X122991*X122406Y141633*X121821Y141048*X117991*X117406Y141633*X116821Y141048*X112991*X112312Y141727*Y145558*X112991Y146237*X116821*X117406Y145652*X117991Y146237*X121821*X122406Y145652*X122991Y146237*X123506*Y146714*X121676Y148544*X98656*Y131144*X100031*Y131735*X100265Y131969*X109407*X109641Y131735*Y125373*X109407Y125139*X100265*X100031Y125373*Y125944*X98656*Y114944*X100619*Y115459*X101203Y116044*X100619Y116629*Y120459*X100947Y120788*X100821Y120861*X100530Y121152*X100325Y121507*X100219Y121904*Y123147*X102816*Y123941*X100219*Y125184*Y125186*X100031Y125373*Y125944*X97422*X94782Y125912*X89552Y126829*X84580Y128695*X82379Y130028*X78478Y131983*X70238Y135017*X61638Y136794*X57287Y137196*X46313Y137396*X46079Y136833*X44462Y135215*X42349Y134340*X40062*X37948Y135215*X36331Y136833*X36326Y136846*X26740*X26306Y137280*Y59728*X26559Y59981*X26751Y60287*X26755Y60288*X26756Y60291*X27062Y60483*X27317Y60739*X27321*X27323Y60742*X27663Y60861*X27969Y61053*X27973*X27975Y61056*X28334Y61096*X28614Y61194*X28552Y61301*X28457Y61657*Y64394*X32016*Y65194*X32816*Y69147*X35159*X35515Y69051*X35835Y68867*X36095Y68606*X36280Y68287*X36337Y68072*Y68161*X36923Y68747*X42869*X43455Y68161*Y61427*X42869Y60841*X42106*Y58244*X43317*X43506Y58055*Y65374*X46631Y68499*X47451Y69319*X53701*X54306Y69924*X54029Y69764*X53673Y69669*X52547*Y73486*X52265*Y69669*X51139*X50783Y69764*X50464Y69948*X50253Y70159*X50163Y70069*X47169*X46583Y70654*Y76601*X47169Y77187*X50163*X50253Y77096*X50464Y77307*X50783Y77491*X51139Y77587*X52265*Y73769*X52547*Y77587*X53673*X54029Y77491*X54348Y77307*X54559Y77096*X54649Y77187*X54746*Y78341*X53173*X52587Y78927*Y79016*X52530Y78801*X52345Y78482*X52085Y78221*X51765Y78037*X51409Y77941*X49066*Y81894*X48266*Y82694*X49066*Y86647*X51409*X51765Y86551*X52085Y86367*X52345Y86106*X52530Y85787*X52587Y85572*Y85661*X53173Y86247*X59092*X58370Y86969*X40870*X39581Y88258*X35866Y91973*Y89491*X37656Y87701*Y84387*X35313Y82044*X31999*X29656Y84387*Y87701*X31466Y89511*Y102420*X31091Y102795*Y107167*X31677Y107753*X32266*Y110379*X31677*X31091Y110965*Y116124*X31677Y116709*X34841*X37881Y119749*X38701Y120569*X69180*X70167Y121556*X72145*X73543Y120158*Y118180*X72145Y116782*X70167*X69180Y117769*X39861*X38801Y116709*X43135*X43721Y116124*Y110965*X43135Y110379*X42546*Y107753*X43135*X43721Y107167*Y106381*X45299*X52986Y98694*X53581*Y99293*X54167Y99879*X58145*X58731Y99293*Y95480*X62194Y98944*X63483Y100232*X72341*Y101596*X72889Y102144*X71776*X71236Y101604*X66076*X65491Y102190*Y106955*X66076Y107541*X71236*X71821Y106955*Y104944*X72323*X72221Y105047*X72036Y105366*X71941Y105722*Y108656*X78256*Y109456*X71941*Y112390*X72036Y112746*X72221Y113065*X72481Y113326*X72801Y113510*X73157Y113605*X78256*Y109456*X79056*Y113605*X84155*X84511Y113510*X84831Y113326*X85019Y113138*Y114533*X86417Y115931*X88395*X89382Y114944*X100619*Y115459*X101203Y116044*X100619Y116629*Y120459*X101298Y121139*X105128*X105808Y120459*Y116629*X105223Y116044*X105808Y115459*Y111629*X105223Y111044*X105808Y110459*Y106629*X105223Y106044*X105808Y105459*Y101629*X105223Y101044*X105808Y100459*Y96629*X105128Y95950*X101298*X100619Y96629*Y96744*X100410*X100027Y97127*X98656Y97986*Y84840*X99160Y85344*X100619*Y85459*X101203Y86044*X100619Y86629*Y90459*X101298Y91139*X105128*X105808Y90459*Y86629*X105223Y86044*X105808Y85459*Y81629*X105223Y81044*X105808Y80459*Y76629*X105223Y76044*X105808Y75459*Y71629*X105128Y70950*X101298*X100619Y71629*Y72144*X98656*Y63544*X107780*X108506Y64270*Y65851*X107991*X107312Y66530*Y70361*X107991Y71040*X111821*X112406Y70455*X112991Y71040*X116821*X117406Y70455*X117991Y71040*X121821*X122406Y70455*X122991Y71040*X126821*X127406Y70455*X127991Y71040*X131821*X132406Y70455*X132991Y71040*X136821*X137406Y70455*X137991Y71040*X141821*X142406Y70455*X142991Y71040*X146821*X147406Y70455*X147991Y71040*X151821*X152406Y70455*X152991Y71040*X156821*X157406Y70455*X157991Y71040*X161821*X162501Y70361*Y66530*X161821Y65851*X161306*Y63544*X171156*Y77144*X169193*Y76629*X168514Y75950*X164684*X164004Y76629*Y80459*X164589Y81044*X164004Y81629*Y85459*X164589Y86044*X164004Y86629*Y90459*X164589Y91044*X164004Y91629*Y91727D2*X154597D1*X164004*Y92526D2*X153798D1*X164004*X98656Y93324D2*X164004D1*X98275Y93548D2*Y91598D1*X98179Y91242*X98065Y91044*X98179Y90846*X98275Y90490*Y88541*X95306*Y93548*X94506*Y94348*X91538*Y96297*X91633Y96653*X91817Y96973*X92078Y97233*X92397Y97418*X92612Y97475*X92523*X92404Y97594*X84971*Y94468*X84385Y93883*X80856*Y86955*Y85705*X82914Y83648*X91938*Y84027*X92523Y84613*X92612*X92397Y84671*X92078Y84855*X91817Y85116*X91633Y85435*X91538Y85791*Y87741*X94506*Y88541*X91538*Y90490*X91633Y90846*X91747Y91044*X91633Y91242*X91538Y91598*Y93548*X94506*Y90382*Y88541*X95306*Y87741*X98275*Y85791*X98179Y85435*X97995Y85116*X97734Y84855*X97415Y84671*X97200Y84613*X97289*X97808Y84094*X97910*X98106Y84290*X99160Y85344*X100619*Y85459*X101203Y86044*X100619Y86629*Y90459*X100947Y90788*X100821Y90861*X100530Y91152*X100325Y91507*X100219Y91904*Y93147*X102816*Y93941*X100219*Y95184*X100325Y95581*X100530Y95937*X100821Y96227*X100947Y96300*X100619Y96629*Y96744*X100410*X100027Y97127*X97875Y98476*Y98061*X97289Y97475*X97200*X97415Y97418*X97734Y97233*X97995Y96973*X98179Y96653*X98275Y96297*Y94348*X95306*Y93548*X98275*X102816Y93324D2*X98275D1*X164004D2*X103610D1*X166599Y93544D2*X174099Y86044D1*X176156*Y83544*X186781Y72919*X200531*X203031Y75419*X209906*X213331Y71994*X213969Y73857D2*X210531Y77294D1*X202406*X199906Y74794*X188527Y78153D2*X198785D1*X199583Y78951D2*X187729D1*X186930Y79750D2*X200382D1*X201180Y80548D2*X186132D1*X203656Y84794D2*X196156Y92294D1*Y96448*X202256Y96518D2*X196556D1*X208077D2*X205056D1*Y95720D2*X208875D1*X209674Y94921D2*X205056D1*X205829Y94123D2*X210472D1*X211271Y93324D2*X206043D1*Y92526D2*X212069D1*X214595Y91727D2*X205841D1*X216432Y93141D2*X213435D1*X205531Y101044*Y104169*X206008Y104646*X210132*Y102087D2*X213863D1*X219581Y96369*Y93141*X222731D2*Y96369D1*X228449Y102087*X232180*Y104646D2*X236304D1*X236781Y104169*Y101044*X228877Y93141*X225880*X227717Y90929D2*X228290D1*X229088Y91727D2*X227717D1*X230531Y89794D2*Y87294D1*X229281Y86044*X226284*X225880Y86448*X228992Y87735D2*X227717D1*Y88533D2*X228416D1*X228144Y89332D2*X227216D1*X196431Y90130D2*X228144D1*X215096Y89332D2*X197230D1*X198028Y88533D2*X214595D1*Y87735D2*X198356D1*Y86936D2*X214595D1*Y86138D2*X198356D1*X198543Y85339D2*X214595D1*Y84541D2*X198543D1*X198480Y83742D2*X214918D1*X215032Y82944D2*X197682D1*X184535Y82145D2*X215032D1*X194630Y82944D2*X183806D1*Y83742D2*X193832D1*X193769Y84541D2*X184279D1*X184793Y85339D2*X193769D1*X193956Y86138D2*X184793D1*Y86936D2*X193403D1*X192604Y87735D2*X184092D1*X180022Y88533D2*X191806D1*X180681Y87695D2*X181417Y88431D1*X183395*X184793Y87033*Y85055*X183806Y84068*Y82874*X188611Y78069*X198701*X201201Y80569*X213701*X215032Y81900*Y83628*X214595Y84065*Y88830*X215181Y89416*X217682*X218006Y89092*X218330Y89416*X220832*X221156Y89092*X221480Y89416*X223982*X224306Y89092*X224630Y89416*X227131*X227717Y88830*Y87444*X228701*X229103Y87846*X228144Y88805*Y90783*X229101Y91741*X227717*Y90758*X227131Y90172*X224630*X224306Y90496*X223982Y90172*X221480*X221156Y90496*X220832Y90172*X218330*X218006Y90496*X217682Y90172*X215181*X214595Y90758*Y91741*X212855*X212035Y92561*X207451Y97144*X205056*Y94895*X206043Y93908*Y91930*X204645Y90532*X202667*X201269Y91930*Y93908*X202256Y94895*Y97144*X199525*Y96848*X196556*Y96048*X195756*Y92882*X194003*X193981Y92888*Y92580*X197067Y89494*X198356Y88205*Y85970*X198543Y85783*Y83805*X197145Y82407*X195167*X193769Y83805*Y85783*X193956Y85970*Y86383*X189581Y90758*Y92968*X189020Y92407*X187042*X185644Y93805*Y95783*X186631Y96770*Y97339*X185576Y98394*X185571*Y97815*X184986Y97229*X179826*X179241Y97815*Y102580*X179826Y103166*X184986*X185571Y102580*Y101194*X186736*X188611Y99319*X189431Y98499*Y96770*X189581Y96620*Y108258*X178956Y118883*Y121176*X178773*X178188Y121762*Y125644*X177556*Y116714*X172986Y112144*X169193*Y111629*X168609Y111044*X169193Y110459*Y109944*X176736*X178389Y108291*X179241*Y109273*X179826Y109859*X184986*X185571Y109273*Y104508*X184986Y103922*X179826*X179241Y104508*Y105491*X177230*X176410Y106311*X175576Y107144*X169193*Y106629*X168609Y106044*X169193Y105459*Y104944*X172930*X173917Y105931*X175895*X177293Y104533*Y102555*X175895Y101157*X173917*X172930Y102144*X169193*Y101629*X168609Y101044*X169193Y100459*Y99944*X170486*X172986Y97444*X173806Y96624*Y94749*X179861Y88694*X180681Y87874*Y87695*X180720Y87735D2*X180681D1*X182406Y86044D2*Y82294D1*X188031Y76669*X199281*X201781Y79169*X214281*X216432Y81320*Y86448*X219581D2*X219906Y86123D1*Y79794*X213969Y73857*X215531Y72294*Y57919*X216481Y56969*Y53141*X219630D2*Y58544D1*X219906*X221856Y56593D2*X221331D1*X221196Y55794D2*X221856D1*Y54996D2*X221467D1*Y54197D2*X221856D1*Y53399D2*X221467D1*Y52600D2*X222054D1*X222853Y51802D2*X221467D1*Y51003D2*X223651D1*X224450Y50205D2*X220914D1*X220891Y49406D2*X225248D1*X226047Y48608D2*X221467D1*Y47809D2*X226845D1*X227644Y47011D2*X221467D1*Y46212D2*X228442D1*X219630Y46448D2*Y34445D1*X222406Y31669*X244284Y33436D2*X222619D1*X221820Y34235D2*X243486D1*X221030Y35025D2*X222986Y33069D1*X226111*X233068Y26112*X233249Y26294*X236563*X238906Y23951*Y20637*X236963Y18694*X242284*X240506Y20472*Y21894*X244506*Y22694*X245306*Y26694*X246729*X249306Y24117*Y22694*X245306*Y21894*X249306*Y20472*X247529Y18694*X252849*X250906Y20637*Y23951*X252338Y25383*X238506Y39214*Y40237*X236563Y38294*X233249*X230906Y40637*Y43748*X221856Y52798*Y57118*X221030Y56292*Y55960*X221467Y55523*Y50758*X220881Y50172*X218380*X218056Y50496*X217732Y50172*X215230*X214906Y50496*X214582Y50172*X212080*X211756Y50496*X211432Y50172*X208931*X208345Y50758*Y55523*X208782Y55960*Y57525*X209602Y58345*X209756Y58499*Y65643*X209020Y64907*X207042*X206680Y65269*X203076*X202451Y65894*X184326*X183506Y66714*X173076Y77144*X169193*Y76629*X168865Y76300*X168991Y76227*X169282Y75937*X169487Y75581*X169593Y75184*Y73941*X166996*Y73147*X169593*Y71904*X169487Y71507*X169282Y71152*X169174Y71044*X169282Y70937*X169487Y70581*X169593Y70184*Y68941*X166996*Y70550*Y73147*X166202*Y73941*X163604*Y75184*X163711Y75581*X163916Y75937*X164206Y76227*X164333Y76300*X164004Y76629*Y80459*X164589Y81044*X164004Y81629*Y85459*X164589Y86044*X164004Y86629*Y90459*X164589Y91044*X164004Y91629*Y95459*X164589Y96044*X164004Y96629*Y100459*X164589Y101044*X164004Y101629*Y105459*X164589Y106044*X164004Y106629*Y110459*X164589Y111044*X164004Y111629*Y115459*X164589Y116044*X164004Y116629*Y120459*X164589Y121044*X164004Y121629*Y125459*X164589Y126044*X164004Y126629*Y130459*X164589Y131044*X164004Y131629*Y135459*X164589Y136044*X164004Y136629*Y140459*X164333Y140788*X164206Y140861*X163916Y141152*X163711Y141507*X163604Y141904*Y143147*X166202*Y143941*X166996*Y146539*X168239*X168636Y146432*X168991Y146227*X169282Y145937*X169487Y145581*X169593Y145184*Y143941*X166996*Y143147*X169593*Y141904*X169487Y141507*X169282Y141152*X168991Y140861*X168865Y140788*X169193Y140459*Y136629*X168609Y136044*X169193Y135459*Y131629*X168609Y131044*X169193Y130459*Y126629*X168609Y126044*X169193Y125459*Y124944*X171826*X172881Y125999*Y164839*X165576Y172144*X159802*X159402Y171744*X153152*X152999Y171591*X153047*X153632Y171006*Y160335*X153047Y159749*X149265*X148680Y160335*Y171006*X149265Y171591*X149356*Y173040*X150606Y174290*X151494Y175178*Y181080*X150818*Y175097*X149495*X149139Y175192*X148820Y175377*X148559Y175637*X148423Y175873*X148047Y175497*X144265*X143889Y175873*X143753Y175637*X143492Y175377*X143173Y175192*X142817Y175097*X141494*Y181080*X140818*Y175097*X139495*X139139Y175192*X138820Y175377*X138559Y175637*X138375Y175956*X138280Y176313*Y179791*X137584Y179096*X138181Y178499*Y159749*X141306Y156624*Y146237*X141821*X142406Y145652*X142991Y146237*X146821*X147406Y145652*X147991Y146237*X148506*Y151568*X147519Y152555*Y154533*X148917Y155931*X150895*X152293Y154533*Y152555*X151306Y151568*Y146237*X151821*X152406Y145652*X152991Y146237*X153106*Y155299*X152285Y156119*X142285*X141231Y157173*X139356Y159048*Y159749*X139265*X138680Y160335*Y171006*X139265Y171591*X143047*X143632Y171006*Y160335*X143397Y160099*X143777Y159719*X153777*X154831Y158665*X155652Y157844*X156706Y156790*Y146237*X156821*X157406Y145652*X157991Y146237*X161821*X162501Y145558*Y141727*X161821Y141048*X157991*X157406Y141633*X156821Y141048*X152991*X152406Y141633*X151821Y141048*X147991*X147406Y141633*X146821Y141048*X142991*X142406Y141633*X141821Y141048*X137991*X137406Y141633*X136821Y141048*X132991*X132406Y141633*X131821Y141048*X127991*X127406Y141633*X126821Y141048*X122991*X122406Y141633*X121821Y141048*X117991*X117406Y141633*X116821Y141048*X112991*X112662Y141377*X112589Y141250*X112299Y140960*X111943Y140754*X111546Y140648*X110303*Y143245*X109509*Y144040*X106912*Y145283*X107018Y145679*X107223Y146035*X107513Y146325*X107869Y146531*X108266Y146637*X109509*Y144040*X110303*Y146637*X111546*X111943Y146531*X112299Y146325*X112589Y146035*X112662Y145908*X112991Y146237*X116821*X117406Y145652*X117991Y146237*X121821*X122406Y145652*X122991Y146237*X123506*Y146714*X117256Y152964*Y155103*X116746*X116160Y155689*Y161517*X116746Y162103*X120566*X121152Y161517*Y155689*X120566Y155103*X120056*Y154124*X125486Y148694*X126306Y147874*Y146237*X126821*X127406Y145652*X127991Y146237*X128506*Y146714*X122256Y152964*Y155103*X121746*X121160Y155689*Y161517*X121746Y162103*X125566*X126006Y161663*Y162964*X125576Y163394*X99971*Y162215*X99385Y161629*X94620*X94034Y162215*Y167374*X94620Y167959*X99385*X99971Y167374*Y166194*X126736*X127986Y164944*X128806Y164124*Y154124*X130749Y152181*X132145*X133506Y150820*Y172339*X133439Y172407*X132042*X130644Y173805*Y175783*X132042Y177181*X134020*X135381Y175820*Y177339*X134756Y177964*Y179068*X133769Y180055*Y182033*X135167Y183431*X137145*X138280Y182297*Y186524*X138375Y186880*X138559Y187199*X138820Y187460*X139139Y187644*X139495Y187739*X140818*Y181756*X141494*Y187739*X142817*X143173Y187644*X143492Y187460*X143753Y187199*X143889Y186963*X144265Y187339*X144356*Y189468*X143769Y190055*Y192033*X145167Y193431*X147145*X148543Y192033*Y190055*X147956Y189468*Y187339*X148047*X148423Y186963*X148559Y187199*X148820Y187460*X149139Y187644*X149495Y187739*X150818*Y181756*X151494*Y187739*X152817*X153173Y187644*X153492Y187460*X153753Y187199*X153889Y186963*X154265Y187339*X154356*Y189468*X153769Y190055*Y192033*X155167Y193431*X157145*X158543Y192033*Y190055*X157956Y189468*Y187339*X158047*X158632Y186754*Y176083*X158047Y175497*X154265*X153889Y175873*X153753Y175637*X153492Y175377*X153436Y175344*X159402*X159802Y174944*X166736*X167556Y174124*X175531Y166149*X176852Y167470*Y176629*X175870*X175284Y177215*Y182374*X175870Y182959*X177256*Y184124*X181826Y188694*X192256*Y197744*X44591*X42713Y197639*X47205*X52221Y196166*X56619Y193340*X60042Y189389*X62214Y184634*X62958Y179459*X62214Y174285*X60042Y169530*X56619Y165579*X52221Y162753*X47205Y161280*X41977*X36961Y162753*X32564Y165579*X29140Y169530*X26969Y174285*X26306Y178893*Y142899*X26740Y143333*X36326*X36331Y143346*X37948Y144963*X40062Y145839*X42349*X44462Y144963*X46079Y143346*X46390Y142595*X56986Y142402*X57032Y142419*X57501Y142393*X57970Y142384*X58016Y142365*X62332Y142128*X71715Y140188*X80706Y136878*X84504Y134795*X84561Y134786*X84955Y134547*X85360Y134325*X85361Y134323*X86904Y133484*X90953Y131965*X95212Y131218*X97369Y131144*X97390*X97892Y131150*X97907Y131144*X100031*Y131735*X100219Y131922*Y133147*X102816*Y133941*X100219*Y135184*X100325Y135581*X100530Y135937*X100821Y136227*X100947Y136300*X100619Y136629*Y140459*X100947Y140788*X100821Y140861*X100530Y141152*X100325Y141507*X100219Y141904*Y143147*X102816*Y143941*X103610*Y143147*X106208*Y141904*X106101Y141507*X105896Y141152*X105606Y140861*X105479Y140788*X105808Y140459*Y136629*X105479Y136300*X105606Y136227*X105896Y135937*X106101Y135581*X106208Y135184*Y133941*X103610*Y133147*X106208*Y131969*X109407*X109641Y131735*Y125373*X109407Y125139*X106208*Y123941*X103610*Y123147*X106208*Y121904*X106101Y121507*X105896Y121152*X105606Y120861*X105479Y120788*X105808Y120459*Y116629*X105223Y116044*X105808Y115459*Y111629*X105223Y111044*X105808Y110459*Y106629*X105223Y106044*X105808Y105459*Y101629*X105223Y101044*X105808Y100459*Y96629*X105479Y96300*X105606Y96227*X105896Y95937*X106101Y95581*X106208Y95184*Y93941*X103610*Y93147*X106208*Y91904*X106101Y91507*X105896Y91152*X105606Y90861*X105479Y90788*X105808Y90459*Y86629*X105223Y86044*X105808Y85459*Y81629*X105223Y81044*X105808Y80459*Y76629*X105223Y76044*X105808Y75459*Y71629*X105479Y71300*X105606Y71227*X105896Y70937*X106101Y70581*X106208Y70184*Y68941*X103610*Y68147*X106208*Y66904*X106101Y66507*X105896Y66152*X105606Y65861*X105250Y65656*X104853Y65550*X103610*Y68147*X102816*Y68941*X100219*Y70184*X100325Y70581*X100530Y70937*X100821Y71227*X100947Y71300*X100619Y71629*Y72144*X97986*X96306Y70464*Y66770*X97293Y65783*Y63805*X95895Y62407*X93917*X92519Y63805*Y65783*X93506Y66770*Y71624*X94326Y72444*X96826Y74944*X100619*Y75459*X101203Y76044*X100619Y76629*Y80459*X101203Y81044*X100619Y81629*Y81711*X99402Y80494*X97875*Y78868*X97289Y78282*X92523*X91938Y78868*Y79248*X87106*Y74859*X87732*X88317Y74273*Y62815*X87732Y62229*X80847*X81043Y62033*Y60055*X80482Y59494*X120726*X118506Y61714*Y65851*X117991*X117406Y66436*X116821Y65851*X112991*X112406Y66436*X111821Y65851*X111306*Y64270*X112293Y63283*Y61305*X110895Y59907*X108917*X107519Y61305*Y63283*X108506Y64270*Y65851*X107991*X107312Y66530*Y70361*X107991Y71040*X111821*X112406Y70455*X112991Y71040*X116821*X117406Y70455*X117991Y71040*X121821*X122406Y70455*X122991Y71040*X126821*X127406Y70455*X127991Y71040*X131821*X132406Y70455*X132991Y71040*X136821*X137406Y70455*X137991Y71040*X141821*X142406Y70455*X142991Y71040*X146821*X147406Y70455*X147991Y71040*X151821*X152406Y70455*X152991Y71040*X156821*X157406Y70455*X157991Y71040*X161821*X162501Y70361*Y66530*X161821Y65851*X161306*Y62444*X190486*X191306Y61624*X192710Y60220*X193530Y59400*Y55960*X193967Y55523*Y50758*X193381Y50172*X190880*X190556Y50496*X190232Y50172*X187730*X187406Y50496*X187082Y50172*X184580*X184256Y50496*X183932Y50172*X181431*X180845Y50758*Y50894*X180632*X179645Y49907*X177667*X176269Y51305*Y53283*X177667Y54681*X179645*X180632Y53694*X180845*Y55523*X181216Y55894*X160161*X178611Y37444*X178880*X177519Y38805*Y40783*X178917Y42181*X179064*X179326Y42444*X180896Y44014*X180845Y44065*Y48830*X181431Y49416*X183932*X184256Y49092*X184580Y49416*X187082*X187406Y49092*X187730Y49416*X190232*X190556Y49092*X190880Y49416*X193381*X193967Y48830*Y44065*X193530Y43628*Y43150*X194236Y42444*X194499Y42181*X194645*X196043Y40783*Y38805*X194682Y37444*X195576*X197256Y39124*Y45374*X199756Y47874*X200576Y48694*X201680*X202667Y49681*X204645*X206043Y48283*Y46305*X204645Y44907*X202667*X201708Y45866*X200056Y44214*Y40674*X201269Y41887*Y43283*X202667Y44681*X204645*X206043Y43283*Y41305*X204645Y39907*X203249*X202556Y39214*Y37964*X201736Y37144*X197361Y32769*X186411*X193068Y26112*X193249Y26294*X196563*X198906Y23951*Y20637*X196963Y18694*X202849*X200906Y20637*Y23951*X203249Y26294*X206563*X206745Y26112*X208782Y28150*Y43628*X208345Y44065*Y48830*X208931Y49416*X211432*X211756Y49092*X212080Y49416*X214582*X214906Y49092*X215230Y49416*X217732*X218056Y49092*X218380Y49416*X220881*X221467Y48830*Y44065*X221030Y43628*Y35025*X242687Y35033D2*X221030D1*Y35832D2*X241889D1*X241090Y36630D2*X221030D1*X248506Y38227D2*X243453D1*X244251Y37429D2*X248506D1*X248590Y36630D2*X245050D1*X245848Y35832D2*X249389D1*X250187Y35033D2*X246647D1*X247445Y34235D2*X250986D1*X251784Y33436D2*X248244D1*X249042Y32638D2*X252583D1*X253381Y31839D2*X249841D1*X250640Y31041D2*X254180D1*X254978Y30242D2*X251438D1*X252237Y29443D2*X255777D1*X256575Y28645D2*X253035D1*X253834Y27846D2*X257374D1*X258172Y27048D2*X254632D1*X256608Y26249D2*X258971D1*X259769Y25451D2*X257406D1*X258205Y24652D2*X260568D1*X260906Y23854D2*X258906D1*Y23055D2*X260906D1*Y22257D2*X258906D1*X264906Y22294D2*X249906Y37294D1*Y46044*X244906Y51044*Y52294*X251156Y58544*X254906*X258656Y62294*Y63544*X260064Y64578D2*X259602D1*X258804Y65376D2*X260862D1*X267630Y66175D2*X258005D1*X257206Y66974D2*X267763D1*X267630Y67772D2*X256408D1*X255609Y68571D2*X267630D1*X267699Y69369D2*X254811D1*X254682Y70168D2*X268030D1*Y70966D2*X254682D1*X258856Y71765D2*X268030D1*X260681Y74160D2*X261060D1*X261859Y73362D2*X260453D1*X262256Y72964D2*X263076Y72144D1*X268273*X268030Y71901*Y69908*X267910Y69788*X267725Y69468*X267630Y69112*Y68337*X272180*Y65778D2*Y68337D1*X267630*Y67563*X267725Y67206*X267811Y67058*X267725Y66909*X267630Y66553*Y65778*X272180*Y66347*Y68337*X267512*X266156Y66982*X267359Y65778*X272180*X267630*Y65003*X267725Y64647*X267742Y64619*X264707*X263395Y65931*X261417*X260019Y64533*Y64161*X259236Y64944*X254524Y69656*X254587Y69766*X254682Y70122*Y70896*X250133*Y70897*X254682*Y71519*X258611*X260681Y73589*Y74539*X262256Y72964*X259655Y72563D2*X262657D1*X255844Y76044D2*X256127Y76015D1*X250132*Y73456D2*X253745D1*X254281Y72919*X258031*X259281Y74169*Y94169*X263656Y98544*X273656*X282406Y107294*X289906*X294906Y102294*Y92294D2*X289906Y97294D1*X293093Y86138D2*X293042D1*X299097Y82944D2*X298906D1*Y83742D2*X299097D1*Y84541D2*X298316D1*X297518Y85339D2*X299097D1*Y86138D2*X296719D1*X292244Y86936D2*X299097D1*X289906Y87294D2*X281156D1*X280113Y86251*X284906Y82294D2*X281156D1*X279758Y83692*X272180*Y81133D2*X272268Y81044D1*X264431Y79750D2*X268201D1*X268030Y80548D2*X264431D1*Y81347D2*X268030D1*X268038Y82145D2*X264431D1*Y82944D2*X268030D1*Y83742D2*X264431D1*Y84541D2*X268030D1*Y85339D2*X264431D1*Y86138D2*X268030D1*Y86936D2*X264431D1*Y87735D2*X268100D1*X268030Y88533D2*X264431D1*Y89332D2*X268030D1*X267788Y90130D2*X264431D1*Y90929D2*X267630D1*Y91727D2*X264431D1*X264618Y92526D2*X267741D1*X268715Y93324D2*X265416D1*X272180Y91369D2*X267630D1*Y92144*X267725Y92500*X267910Y92819*X268170Y93080*X268490Y93264*X268846Y93359*X272180*Y91369*X267630*Y90594*X267725Y90238*X267910Y89919*X268030Y89798*Y87805*X268305Y87530*X268030Y87256*Y85246*X268305Y84971*X268030Y84696*Y82687*X268305Y82412*X268030Y82137*Y80128*X268305Y79853*X268030Y79578*X264431Y77354D2*X267361D1*X268030Y78153D2*X264431D1*X268155Y77444D2*X268030Y77569D1*Y79578*X264431Y78951D2*X268030D1*X266156Y78857D2*Y88544D1*X268981Y91369*X272180*X276729*X272180*Y93359*X275514*X275870Y93264*X276189Y93080*X276450Y92819*X276634Y92500*X276729Y92144*Y91369*Y90594*X276634Y90238*X276618Y90210*X277092*X279756Y92874*X280576Y93694*X280906*Y93951*X282849Y95894*X281736*X280056Y94214*X279236Y93394*X265486*X264431Y92339*Y77249*X264861Y76819*X266826*X267451Y77444*X268155*X272180Y76015D2*X272150Y76044D1*X268031*X267406Y75419*X264281*X263031Y76669*Y92919*X264906Y94794*X278656*X281156Y97294*X289906*X289500Y95720D2*X287137D1*X287936Y94921D2*X290299D1*X291078Y94123D2*X288734D1*X288906Y93324D2*X290906D1*Y92526D2*X288906D1*Y91727D2*X290906D1*Y90929D2*X288906D1*X288399Y90130D2*X291413D1*X292211Y89332D2*X287601D1*X290647Y88533D2*X293010D1*X299097Y87735D2*X291445D1*X296802Y88533D2*X299097D1*Y89332D2*X297601D1*X299097Y90130D2*X298399D1*X299097Y90929D2*X298906D1*Y91727D2*X299097D1*Y92526D2*X298906D1*Y93324D2*X299097D1*Y94123D2*X298734D1*X297936Y94921D2*X299097D1*Y95720D2*X297137D1*X292662Y96518D2*X299097D1*Y97317D2*X291863D1*X291065Y98115D2*X299097D1*X287183Y98914D2*X292629D1*X291831Y99712D2*X287981D1*X288780Y100511D2*X291032D1*X290906Y101309D2*X288906D1*Y102108D2*X290906D1*X284906Y102294D2*X281156D1*X275531Y96669*X264281*X261156Y93544*Y76044*X263656Y73544*X272091*X272180Y73456*Y70896D2*X272327Y71044D1*X276156*X277406Y69794*Y61044*X299097Y55794D2*X274782D1*X275581Y54996D2*X299097D1*Y54197D2*X276043D1*Y53399D2*X299097D1*Y52600D2*X276043D1*X275290Y51802D2*X299097D1*Y51003D2*X275056D1*Y50205D2*X299097D1*Y49406D2*X275056D1*Y48608D2*X299097D1*X267442D2*X272256D1*Y49406D2*X268241D1*X269039Y50205D2*X272256D1*Y51003D2*X269306D1*X265306Y52600D2*X271269D1*X264506Y51802D2*X265306D1*X258906Y52600D2*X264506D1*X260506Y53399D2*X258906D1*Y51802D2*X260506D1*Y51003D2*X258906D1*X258474Y50205D2*X260773D1*X261571Y49406D2*X258524D1*X259322Y48608D2*X262370D1*X272256Y47809D2*X260121D1*X260919Y47011D2*X272256D1*X265306Y46212D2*X264506D1*Y45414D2*X265306D1*Y44615D2*X264506D1*Y43817D2*X265306D1*Y43018D2*X264506D1*X272256Y42220D2*X265306D1*X269306Y43018D2*X272256D1*Y41421D2*X269306D1*Y40623D2*X272256D1*Y39824D2*X269306D1*X269283Y39026D2*X272256D1*Y38227D2*X268819D1*X261751Y37429D2*X272792D1*X273590Y36630D2*X262550D1*X263348Y35832D2*X274389D1*X275187Y35033D2*X264147D1*X264945Y34235D2*X275986D1*X276784Y33436D2*X265744D1*X266542Y32638D2*X277583D1*X278381Y31839D2*X267341D1*X268140Y31041D2*X278506D1*Y30242D2*X268938D1*X269737Y29443D2*X278506D1*Y28645D2*X270535D1*X271334Y27846D2*X278506D1*Y27048D2*X272132D1*X278506Y26249D2*X276608D1*X277406Y25451D2*X278506D1*X274906Y22294D2*X259906Y37294D1*Y46044*X254906Y51044*Y52294*Y53544*X259906Y58544*X274906*X277406Y61044*X284506Y62182D2*X278806D1*X285306Y61384D2*X284506D1*X294506Y62182D2*X285306D1*X294506Y62981D2*X295306D1*Y63779D2*X294506D1*Y64578D2*X295306D1*Y65376D2*X294506D1*Y66175D2*X295306D1*X294506Y66694D2*Y62694D1*X290506*Y64117*X293083Y66694*X294506*X296839Y68571D2*X299097D1*Y69369D2*X297638D1*X299097Y70168D2*X298436D1*X298906Y70966D2*X299097D1*Y71765D2*X298906D1*Y72563D2*X299097D1*Y73362D2*X298906D1*X298697Y74160D2*X299097D1*Y74959D2*X297898D1*X297100Y75757D2*X299097D1*Y76556D2*X292624D1*X291826Y77354D2*X299097D1*Y78153D2*X291027D1*X297220Y78951D2*X299097D1*Y79750D2*X298018D1*X298817Y80548D2*X299097D1*Y81347D2*X298906D1*Y82145D2*X299097D1*X289906Y87294D2*X294906Y82294D1*X287518Y85339D2*X289881D1*X290679Y84541D2*X288316D1*X288906Y83742D2*X290906D1*Y82944D2*X288906D1*Y82145D2*X290906D1*Y81347D2*X288906D1*X288817Y80548D2*X290995D1*X291794Y79750D2*X288018D1*X287220Y78951D2*X292592D1*X289463Y75757D2*X287100D1*X287898Y74959D2*X290262D1*X291060Y74160D2*X288697D1*X288906Y73362D2*X290906D1*Y72563D2*X288906D1*Y71765D2*X290906D1*Y70966D2*X288906D1*X288436Y70168D2*X291376D1*X292174Y69369D2*X287638D1*X294906Y72294D2*X289906Y77294D1*X282406*X278656Y81044*X272268*X272180Y78574D2*X272209Y78544D1*X277406*X278656Y77294*X276329Y76556D2*X277256D1*Y75757D2*X276329D1*X276278Y74959D2*X277256D1*Y74160D2*X276329D1*Y73362D2*X277256D1*X277657Y72563D2*X276329D1*X278456Y71765D2*X277415D1*X279254Y70966D2*X278214D1*X278806Y70168D2*X281376D1*X282174Y69369D2*X278806D1*Y68571D2*X282973D1*X299097Y67772D2*X278806D1*Y66974D2*X299097D1*X280807Y66175D2*X278806D1*Y65376D2*X280506D1*Y64578D2*X278806D1*Y63779D2*X280506D1*Y62981D2*X278806D1*X280506Y62694D2*X284506D1*Y66694*X281722*X281366Y66599*X281046Y66414*X280786Y66154*X280601Y65834*X280506Y65478*Y62694*X278806Y61384D2*X280506D1*Y60585D2*X278806D1*X278129Y59787D2*X280506D1*X280539Y58988D2*X277330D1*X281046Y58174D2*X280786Y58434D1*X280601Y58754*X280506Y59110*Y61894*X284506*Y62694*X285306*Y66694*X288090*X288446Y66599*X288766Y66414*X289026Y66154*X289211Y65834*X289306Y65478*Y62694*X285306*Y61894*X289306*Y59110*X289211Y58754*X289026Y58434*X288766Y58174*X288446Y57990*X288090Y57894*X285306*Y61894*X284506*Y57894*X281722*X281366Y57990*X281046Y58174*X276532Y58190D2*X281030D1*X299097Y57391D2*X275733D1*X266830Y56593D2*X299097D1*X272530Y55794D2*X267628D1*X268427Y54996D2*X271731D1*X271269Y54197D2*X269225D1*X269306Y53399D2*X271269D1*X269306Y52694D2*Y54117D1*X266729Y56694*X265306*Y52694*X264506*Y56694*X263083*X260506Y54117*Y52694*X264506*Y51894*X260506*Y50472*X263083Y47894*X264506*Y51894*X265306*Y52694*X269306*Y51894D2*Y50472D1*X266729Y47894*X265306*Y51894*X269306*X272022Y51802D2*X269306D1*X273656Y53544D2*Y38544D1*X279906Y32294*Y17294*X281915Y19063D2*X281306D1*Y18264D2*X282713D1*X298419Y17466D2*X281306D1*X287099Y18264D2*X298601D1*X298237Y16667D2*X288190D1*X289191Y15869D2*X298036D1*X297652Y15070D2*X289306D1*Y14272D2*X297267D1*X296883Y13473D2*X289306D1*X285306Y12675D2*X296498D1*X284506Y13473D2*X285306D1*X278906Y12675D2*X284506D1*X280506Y13473D2*X278906D1*X280506Y12694D2*Y15478D1*X280601Y15834*X280786Y16154*X281046Y16414*X281366Y16599*X281722Y16694*X284506*Y12694*X280506*X278906Y11876D2*X280506D1*Y11078D2*X278906D1*X278548Y10279D2*X280506D1*Y9481D2*X277749D1*X280601Y8754D2*X280506Y9110D1*Y11894*X284506*Y12694*X285306*Y16694*X288090*X288446Y16599*X288766Y16414*X289026Y16154*X289211Y15834*X289306Y15478*Y12694*X285306*Y11894*X289306*Y9110*X289211Y8754*X289026Y8434*X288766Y8174*X288446Y7990*X288090Y7894*X285306*Y11894*X284506*Y7894*X281722*X281366Y7990*X281046Y8174*X280786Y8434*X280601Y8754*X276951Y8682D2*X280643D1*X266951D2*X272861D1*X272063Y9481D2*X267749D1*X268548Y10279D2*X271264D1*X270906Y11078D2*X268906D1*Y11876D2*X270906D1*Y12675D2*X268906D1*Y13473D2*X270906D1*X270948Y14272D2*X268585D1*X267787Y15070D2*X270150D1*X264906Y12294D2*X261156Y16044D1*Y17294*X188031*Y16669*X190418Y15869D2*X192824D1*X192025Y15070D2*X189809D1*X167356Y14272D2*X191227D1*X190906Y13473D2*X166991D1*X166627Y12675D2*X190906D1*X163423Y8682D2*X170019D1*X170315Y7884D2*X162583D1*X161341Y7085D2*X171114D1*X173309Y6287D2*X160098D1*X192063Y9481D2*X174793D1*X174672Y10279D2*X191264D1*X190906Y11078D2*X173874D1*X166191Y11876D2*X190906D1*X170938Y11078D2*X165499D1*X164807Y10279D2*X170140D1*X170019Y9481D2*X164115D1*X172406Y9169D2*X174281Y7294D1*X239906*X292279Y7884D2*X242475D1*X241677Y7085D2*X291278D1*X290104Y6287D2*X240878D1*X158856Y5488D2*X288445D1*X286717Y4690D2*X156535D1*X153816Y3891D2*X283218D1*X139197Y7884D2*X131226D1*X130427Y7085D2*X140440D1*X141682Y6287D2*X129628D1*X128830Y5488D2*X142925D1*X145245Y4690D2*X128031D1*X42184Y3891D2*X147965D1*X109281Y4690D2*X38686D1*X106087Y7884D2*X99976D1*X100774Y8682D2*X105288D1*X101306Y9481D2*X102664D1*X101306Y10279D2*X101871D1*X94195Y15869D2*X93877D1*X98769Y21458D2*X95222D1*X96020Y20660D2*X99414D1*X114243Y19861D2*X96819D1*X102898Y20660D2*X115042D1*X115840Y21458D2*X103550D1*X104349Y22257D2*X116639D1*X106966Y24652D2*X107846D1*X107784Y25451D2*X107028D1*Y26249D2*X107784D1*X100853Y30242D2*X101459D1*X94528Y26249D2*X95284D1*Y25451D2*X94528D1*X94466Y24652D2*X95346D1*X99340Y23854D2*X92960D1*X93625Y23055D2*X98769D1*Y22257D2*X94423D1*X101156Y22294D2*X102406D1*X104060Y23948*Y27294*X98252*X94160Y30242D2*X95652D1*X95284Y29443D2*X94528D1*Y28645D2*X95284D1*Y27846D2*X94528D1*Y27048D2*X95284D1*X91560Y23141D2*Y27294D1*X86706Y24652D2*X88653D1*X88591Y25451D2*X86706D1*Y26249D2*X88591D1*Y27048D2*X86706D1*Y27846D2*X88591D1*Y28645D2*X86706D1*Y29443D2*X88591D1*X88959Y30242D2*X86706D1*X91156Y36044D2*X108656D1*X118656*X118666Y38534D2*Y38003D1*X118656Y37993*Y36044*X110223Y34235D2*X120970D1*X108152Y30242D2*X106660D1*X107028Y29443D2*X107784D1*Y28645D2*X107028D1*Y27846D2*X107784D1*Y27048D2*X107028D1*X117957Y27294D2*X110752D1*X113721Y25451D2*X116583D1*Y24652D2*X113659D1*X105460Y23854D2*X116583D1*X105460Y23368D2*X103806Y21714D1*X103543Y21452*Y21305*X102145Y19907*X100167*X98769Y21305*Y23283*X99614Y24129*X95870*X95284Y24715*Y29874*X95870Y30459*X100635*X101156Y29939*X101677Y30459*X106442*X107028Y29874*Y24715*X106442Y24129*X105460*Y23368*X117140Y23055D2*X105147D1*X118666Y22304D2*Y26585D1*X117957Y27294*X113721Y29443D2*X116583D1*X121082Y30242D2*X113353D1*X124181D2*X123730D1*X126288D2*X126005D1*Y29443D2*X126288D1*Y28645D2*X126005D1*Y27846D2*X126288D1*Y27048D2*X126005D1*Y25451D2*X126288D1*Y24652D2*X126005D1*Y23854D2*X126288D1*Y23055D2*X126005D1*X133181Y16667D2*X133330D1*X133695Y15869D2*X133181D1*Y15070D2*X134060D1*X134424Y14272D2*X133181D1*Y13473D2*X134789D1*X135154Y12675D2*X133181D1*Y11876D2*X135589D1*X136281Y11078D2*X133181D1*Y10279D2*X136973D1*X137665Y9481D2*X132823D1*X132024Y8682D2*X138357D1*X128881Y10279D2*X129661D1*X130381Y11078D2*X128881D1*Y11876D2*X130381D1*X124519Y15869D2*X125293D1*Y15070D2*X124519D1*Y14272D2*X125293D1*Y13473D2*X124519D1*Y11876D2*X125293D1*Y11078D2*X124519D1*Y10279D2*X125293D1*Y9481D2*X124519D1*Y8682D2*X125293D1*X120774D2*X121388D1*X127266Y7884D2*X119975D1*X119177Y7085D2*X126467D1*X118911Y6819D2*X126201D1*X127715Y8333*X127665Y8319*X125293*Y11907*X124519*Y8319*X122147*X121791Y8415*X121472Y8599*X121211Y8860*X121116Y9024*X118911Y6819*X114906Y12294D2*Y18544D1*X118666Y22304*X120880Y23055D2*X120192D1*X120066Y22257D2*X121006D1*Y21458D2*X119800D1*X119002Y20660D2*X121006D1*Y19861D2*X118203D1*X117405Y19063D2*X120945D1*X120146Y18264D2*X116606D1*X116306Y17466D2*X119348D1*X118549Y16667D2*X116306D1*Y15869D2*X118506D1*Y15070D2*X117185D1*X118506Y14272D2*X117956D1*X118506Y13473D2*X118287D1*X118481Y12675D2*X118506D1*X118481Y11876D2*X118506D1*Y11078D2*X118272D1*X117941Y10279D2*X118411D1*X117148Y9481D2*X117613D1*X112199D2*X112664D1*X111401Y10279D2*X111871D1*X111306Y11078D2*X111541D1*X111306Y11876D2*X111331D1*X111306Y12675D2*X111331D1*X111525Y13473D2*X111306D1*Y14272D2*X111856D1*X112627Y15070D2*X111306D1*X110811Y15869D2*X113506D1*Y16667D2*X110013D1*X109214Y17466D2*X113506D1*Y18264D2*X108416D1*X97617Y19063D2*X113506D1*X101396Y18264D2*X98416D1*X99214Y17466D2*X100598D1*X91560Y23141D2*X99906Y14794D1*X86706Y23854D2*X90160D1*Y23055D2*X86706D1*X87489Y22257D2*X90463D1*X91262Y21458D2*X88287D1*X89086Y20660D2*X92060D1*X92859Y19861D2*X89884D1*X90683Y19063D2*X93657D1*X94456Y18264D2*X91481D1*X92280Y17466D2*X95254D1*X96053Y16667D2*X93078D1*X96851Y15869D2*X95617D1*X97650Y15070D2*X97185D1*X98448Y14272D2*X97956D1*X98506Y13473D2*X98287D1*X98481Y12675D2*X98506D1*X98481Y11876D2*X98506D1*Y11078D2*X98272D1*X97941Y10279D2*X98411D1*X97148Y9481D2*X97613D1*X92199D2*X92664D1*X91401Y10279D2*X91871D1*X91541Y11078D2*X90602D1*X89804Y11876D2*X91331D1*Y12675D2*X89005D1*X88207Y13473D2*X91181D1*X90383Y14272D2*X87408D1*X86610Y15070D2*X89584D1*X88786Y15869D2*X85811D1*X85013Y16667D2*X87987D1*X83448Y14272D2*X82728D1*X84247Y13473D2*X83219D1*Y12675D2*X85045D1*X85844Y11876D2*X83219D1*Y11078D2*X86642D1*X87441Y10279D2*X83219D1*Y9481D2*X88240D1*X89038Y8682D2*X83219D1*Y7884D2*X89837D1*X90635Y7085D2*X83219D1*X35299Y6287D2*X91434D1*X108482Y5488D2*X36957D1*X98378Y6287D2*X107684D1*X106885Y7085D2*X99177D1*X108449Y9481D2*X108506D1*Y10279D2*X107941D1*X108506Y11078D2*X108272D1*X108481Y11876D2*X108506D1*X108481Y12675D2*X108506D1*Y13473D2*X108287D1*X107956Y14272D2*X108448D1*X107185Y15070D2*X107650D1*X105617Y15869D2*X106851D1*X102961D2*X104195D1*X102162Y15070D2*X102627D1*X101364Y14272D2*X101856D1*X101306Y13473D2*X101525D1*X101306Y12675D2*X101331D1*X101306Y11876D2*X101331D1*X101541Y11078D2*X101306D1*X104906Y12294D2*Y11044D1*X110531Y5419*X126781*X131781Y10419*Y56669*X129281Y59169*X129079Y57391D2*X128185D1*X128543Y56593D2*X129877D1*X130381Y55794D2*X128543D1*X128484Y54996D2*X130381D1*Y54197D2*X127686D1*X119793Y53399D2*X130381D1*Y52600D2*X119793D1*X119040Y51802D2*X130381D1*X108894D2*X115772D1*X130381Y51003D2*X108095D1*X107297Y50205D2*X130381D1*Y49406D2*X106498D1*X105700Y48608D2*X130381D1*Y47809D2*X105460D1*Y47011D2*X130381D1*X107873Y46212D2*X106940D1*X107028Y45414D2*X107784D1*Y44615D2*X107028D1*Y43817D2*X107784D1*X104060Y43544D2*Y48948D1*X108656Y53544*X117406*X68455Y54996D2*X115481D1*X72183Y54197D2*X68455D1*Y53399D2*X71384D1*X71269Y52600D2*X68455D1*Y51802D2*X71269D1*X71571Y51003D2*X68455D1*Y50205D2*X71856D1*Y49406D2*X66296D1*Y48608D2*X71856D1*Y47809D2*X66296D1*X71856Y47011D2*X71066D1*X76246D2*X75456D1*X80093Y42107D2*X77406Y44794D1*X82341Y43817D2*X80363D1*X79793Y44615D2*X82663D1*X87256Y45414D2*X79793D1*X79364Y46212D2*X87256D1*Y47011D2*X78566D1*X75456Y47809D2*X86081D1*Y48608D2*X75456D1*Y49406D2*X86081D1*Y50205D2*X75456D1*X88656Y49981D2*Y38544D1*X91156Y36044*X107463Y38227D2*X90953D1*X116583D2*X109849D1*X90154Y39026D2*X116583D1*X92406Y42117D2*X92396Y42107D1*X97219*X94971Y43817D2*X96269D1*X96351Y44615D2*X94649D1*X90056Y45414D2*X97149D1*X101180Y46212D2*X90056D1*X101091Y45414D2*X100163D1*X101091Y44615D2*X100961D1*X101043Y43817D2*X101091D1*Y43018D2*X101043D1*X100708Y42220D2*X101091D1*Y41421D2*X99909D1*X94971Y40623D2*X101433D1*X116583Y39824D2*X94874D1*X113379Y40623D2*X116583D1*X117028Y41421D2*X113721D1*X124509D2*X120303D1*X120749Y40623D2*X124064D1*Y39824D2*X120749D1*Y39026D2*X124064D1*Y38227D2*X120749D1*Y37429D2*X124064D1*Y36630D2*X120749D1*Y35832D2*X124064D1*Y35033D2*X120749D1*X124064Y35029D2*Y40976D1*X124649Y41562*X124756*Y41714*X124326Y42144*X113721*Y40965*X113135Y40379*X108370*X107784Y40965*Y46124*X108370Y46709*X113135*X113721Y46124*Y44944*X125486*X126736Y43694*X127556Y42874*Y41562*X127643*X128229Y40976*Y35029*X127643Y34444*X124649*X124064Y35029*X130381Y34235D2*X123842D1*X124640Y33436D2*X130381D1*Y32638D2*X124793D1*Y31839D2*X130381D1*Y31041D2*X124529D1*X128111Y30242D2*X130381D1*Y29443D2*X128598D1*X128629Y28645D2*X130381D1*Y27846D2*X128629D1*Y27048D2*X130381D1*Y26249D2*X128629D1*Y25451D2*X130381D1*Y24652D2*X128629D1*Y23854D2*X130381D1*Y23055D2*X128238D1*X123806Y22257D2*X130381D1*Y21458D2*X123806D1*Y20660D2*X130381D1*Y19861D2*X123806D1*Y19063D2*X130381D1*Y18264D2*X123806D1*X123308Y17466D2*X130381D1*Y16667D2*X122509D1*X128461Y15869D2*X130381D1*Y15070D2*X128876D1*X128881Y14272D2*X130381D1*Y13473D2*X128881D1*X125294Y12675D2*X130381D1*X124906Y12294D2*Y17294D1*X126146Y18534*Y26585*X126288Y26444D2*X128629D1*Y23842*X128533Y23486*X128349Y23167*X128088Y22906*X127769Y22722*X127413Y22626*X126288*Y26444*X126005Y26249D2*X126288D1*X126005Y26444D2*Y22626D1*X124879*X124523Y22722*X124204Y22906*X123993Y23117*X123903Y23026*X123806*Y17964*X122097Y16256*X122147Y16269*X124519*Y12682*X125293*Y16269*X127665*X128021Y16173*X128340Y15989*X128601Y15729*X128785Y15409*X128881Y15053*Y12681*X125294*Y11907*X128881*Y9535*X128868Y9486*X130381Y10999*Y56089*X128701Y57769*X127807*X128543Y57033*Y55055*X127145Y53657*X125167*X124980Y53844*X120245*X119793Y54295*Y52555*X118395Y51157*X116417*X115430Y52144*X109236*X105460Y48368*Y46709*X106442*X107028Y46124*Y40965*X106442Y40379*X101677*X101091Y40965*Y46124*X101677Y46709*X102660*Y49528*X107256Y54124*X108076Y54944*X115430*X115580Y55094*X70245*X68956Y56383*X68455Y56884*Y50177*X67869Y49591*X66296*Y47763*X67082*X67668Y47177*Y46194*X67930*X68917Y47181*X70895*X71856Y46220*Y50718*X71269Y51305*Y53283*X72667Y54681*X74645*X76043Y53283*Y51305*X75456Y50718*Y46220*X76417Y47181*X78395*X79793Y45783*Y44387*X80673Y43507*X82341*Y44293*X82927Y44879*X86905*X87256Y44528*Y47209*X86667*X86081Y47795*Y52167*X86667Y52753*X90645*X91231Y52167*Y47795*X90645Y47209*X90056*Y44528*X90407Y44879*X94385*X94971Y44293*Y43507*X96269*Y44533*X97667Y45931*X99645*X101043Y44533*Y42555*X99645Y41157*X98249*X97799Y40707*X94971*Y39921*X94385Y39335*X90407*X90056Y39687*Y39124*X91736Y37444*X106680*X107667Y38431*X109645*X110632Y37444*X116583*Y40976*X117169Y41562*X120163*X120749Y40976*Y35029*X120163Y34444*X117169*X116969Y34644*X110632*X110082Y34094*X120830*X121417Y34681*X123395*X124793Y33283*Y31305*X123633Y30144*X123903*X123993Y30054*X124204Y30265*X124523Y30449*X124879Y30544*X126005*Y26727*X126288*Y30544*X127413*X127769Y30449*X128088Y30265*X128349Y30004*X128533Y29685*X128629Y29329*Y26727*X126288*Y26444*X126005*X122406Y26585D2*Y18544D1*X119906Y16044*Y9794*X117406Y7294*X112406*X109906Y9794*Y14794*X107406Y17294*X102406*X99906Y14794*Y9794*X97406Y7294*X92406*X83656Y16044*X77406*X76156Y14794*X76077Y10414D2*X76156Y10493D1*Y14794*X79347Y14272D2*X77768D1*X78258Y13473D2*X78857D1*Y12675D2*X78258D1*Y11876D2*X78857D1*Y11078D2*X78258D1*Y10279D2*X78857D1*Y9481D2*X78258D1*Y8682D2*X78857D1*Y7884D2*X78258D1*X78857Y7047D2*Y13781D1*X79443Y14367*X82633*X83219Y13781*Y7047*X82633Y6461*X79443*X78857Y7047*X78258Y7085D2*X78857D1*X73298D2*X73896D1*Y7884D2*X73298D1*Y8682D2*X73896D1*Y9481D2*X73298D1*Y10279D2*X73896D1*Y11078D2*X73298D1*Y11876D2*X73896D1*Y12675D2*X73298D1*Y13473D2*X73896D1*X74387Y14272D2*X72807D1*X72517Y15070D2*X74756D1*X75251Y15869D2*X73107D1*X73543Y16667D2*X76049D1*X87189Y17466D2*X73543D1*Y18264D2*X86390D1*X85592Y19063D2*X72764D1*X63203Y19861D2*X84793D1*X69548Y19063D2*X62405D1*X55356Y18264D2*X68769D1*Y17466D2*X54558D1*X53759Y16667D2*X68769D1*X69205Y15869D2*X52961D1*X69717Y15357D2*X68769Y16305D1*Y18283*X70167Y19681*X72145*X73543Y18283*Y16305*X72517Y15278*Y14367*X72712*X73298Y13781*Y7047*X72712Y6461*X69521*X68936Y7047*Y13781*X69521Y14367*X69717*Y15357*X52556Y15070D2*X69717D1*X54544Y14272D2*X52965D1*X53455Y13473D2*X54054D1*Y12675D2*X53455D1*Y11876D2*X54054D1*Y11078D2*X53455D1*Y10279D2*X54054D1*Y9481D2*X53455D1*Y8682D2*X54054D1*Y7884D2*X53455D1*X54054Y7047D2*Y13781D1*X54639Y14367*X57830*X58416Y13781*Y7047*X57830Y6461*X54639*X54054Y7047*X53455Y7085D2*X54054D1*X34125D2*X49093D1*Y7884D2*X33124D1*X32122Y8682D2*X49093D1*X29407Y11876D2*X34303D1*Y11078D2*X30044D1*X30681Y10279D2*X34500D1*X49093Y9481D2*X31318D1*X42812Y10279D2*X49093D1*Y11078D2*X43009D1*Y11876D2*X49093D1*Y12675D2*X43009D1*X39056Y13473D2*X49093D1*X39056Y13154D2*X43009D1*Y10811*X42913Y10454*X42729Y10135*X42468Y9875*X42149Y9690*X41793Y9595*X39056*Y13154*X38256Y12675D2*X39056D1*X28520Y13473D2*X38256D1*X34303Y12675D2*X28905D1*X28135Y14272D2*X34303D1*Y15070D2*X27751D1*X27366Y15869D2*X34303D1*X27332Y15940D2*X29109Y12251D1*X31662Y9050*X34863Y6497*X38552Y4720*X42544Y3809*X44591Y3694*X280812*X282859Y3809*X286851Y4720*X290540Y6497*X293741Y9050*X296294Y12251*X298070Y15940*X298982Y19932*X299097Y21979*Y60262*X296729Y57894*X295306*Y61894*X294506*Y62694*X295306*Y66694*X296729*X299097Y64326*Y178893*X298434Y174285*X296262Y169530*X292839Y165579*X288441Y162753*X283425Y161280*X278198*X273182Y162753*X268784Y165579*X265361Y169530*X263189Y174285*X262445Y179459*X263189Y184634*X265361Y189389*X268784Y193340*X273182Y196166*X278198Y197639*X282690*X280812Y197744*X261306*Y169690*X271902Y159094*X276902Y154094*X281049*X283249Y156294*X286563*X288763Y154094*X291049*X293249Y156294*X296563*X298906Y153951*Y150637*X296563Y148294*X293249*X291049Y150494*X288763*X286963Y148694*X290486*X293068Y146112*X293249Y146294*X296563*X298906Y143951*Y140637*X296563Y138294*X293249*X290906Y140637*Y143951*X291088Y144133*X289326Y145894*X286963*X288906Y143951*Y140637*X286563Y138294*X283249*X283068Y138476*X280681Y136089*Y130049*X281088Y130456*X280906Y130637*Y133951*X283249Y136294*X286563*X288906Y133951*Y130637*X286563Y128294*X283249*X283068Y128476*X278181Y123589*Y117549*X281088Y120456*X280906Y120637*Y123951*X283249Y126294*X286563*X288906Y123951*Y120637*X286563Y118294*X283249*X283068Y118476*X280056Y115464*Y106924*X281826Y108694*X282849*X280906Y110637*Y113951*X283249Y116294*X286563*X288906Y113951*Y110637*X286963Y108694*X290486*X291306Y107874*X293068Y106112*X293249Y106294*X296563*X298906Y103951*Y100637*X296563Y98294*X293249*X290906Y100637*Y103951*X291088Y104133*X289326Y105894*X286963*X288906Y103951*Y100637*X286963Y98694*X290486*X291306Y97874*X293068Y96112*X293249Y96294*X296563*X298906Y93951*Y90637*X296563Y88294*X293249*X290906Y90637*Y93951*X291088Y94133*X289326Y95894*X286963*X288906Y93951*Y90637*X286963Y88694*X290486*X293068Y86112*X293249Y86294*X296563*X298906Y83951*Y80637*X296563Y78294*X293249*X290906Y80637*Y83951*X291088Y84133*X289326Y85894*X286963*X288906Y83951*Y80637*X286963Y78694*X290486*X293068Y76112*X293249Y76294*X296563*X298906Y73951*Y70637*X296563Y68294*X293249*X290906Y70637*Y73951*X291088Y74133*X289326Y75894*X286963*X288906Y73951*Y70637*X286563Y68294*X283249*X280906Y70637*Y70894*X279326*X278076Y72144*X277256Y72964*Y76714*X276826Y77144*X276204*X276329Y77019*Y75010*X276054Y74735*X276329Y74460*Y72451*X276323Y72444*X276736*X277986Y71194*X278806Y70374*Y60464*X276306Y57964*X275486Y57144*X260486*X258099Y54758*X258906Y53951*Y50637*X258099Y49831*X261306Y46624*Y46564*X261366Y46599*X261722Y46694*X264506*Y42694*X265306*Y46694*X268090*X268446Y46599*X268766Y46414*X269026Y46154*X269211Y45834*X269306Y45478*Y42694*X265306*Y41894*X269306*Y39110*X269211Y38754*X269026Y38434*X268766Y38174*X268446Y37990*X268090Y37894*X265306*Y41894*X264506*Y37894*X261722*X261366Y37990*X261306Y38024*Y37874*X273068Y26112*X273249Y26294*X276563*X278506Y24351*Y31714*X273076Y37144*X272256Y37964*Y51568*X271269Y52555*Y54533*X272667Y55931*X274645*X276043Y54533*Y52555*X275056Y51568*Y39124*X281306Y32874*Y24917*X283083Y26694*X284506*Y22694*X285306*Y26694*X286729*X289306Y24117*Y22694*X285306*Y21894*X289306*Y20472*X286729Y17894*X285306*Y21894*X284506*Y17894*X283083*X281306Y19672*Y16714*X280486Y15894*X278724Y14133*X278906Y13951*Y10637*X276563Y8294*X273249*X270906Y10637*Y13951*X271088Y14133*X269326Y15894*X268506Y16714*Y20237*X266563Y18294*X263249*X260906Y20637*Y23951*X261088Y24133*X249326Y35894*X248506Y36714*Y40237*X246563Y38294*X243386*X255386Y26294*X256563*X258906Y23951*Y20637*X256963Y18694*X261736*X262556Y17874*Y16624*X263068Y16112*X263249Y16294*X266563*X268906Y13951*Y10637*X266563Y8294*X263249*X260906Y10637*Y13951*X261088Y14133*X259756Y15464*Y15894*X256963*X258906Y13951*Y10637*X256563Y8294*X253249*X250906Y10637*Y13951*X252849Y15894*X246963*X248906Y13951*Y10637*X246563Y8294*X243249*X243068Y8476*X241306Y6714*X240486Y5894*X173701*X172814Y6782*X171417*X170019Y8180*Y10158*X171417Y11556*X173395*X174793Y10158*Y8762*X174861Y8694*X192849*X190906Y10637*Y13951*X192849Y15894*X190418*Y15680*X189020Y14282*X187042*X185644Y15680*Y17658*X187042Y19056*X189020*X189382Y18694*X192849*X190906Y20637*Y23951*X191088Y24133*X184326Y30894*X183432*X184793Y29533*Y27555*X183395Y26157*X181417*X181043Y26530*Y26305*X179645Y24907*X177667*X176680Y25894*X171201*X170381Y26714*X167312Y29783*X168513Y27154*X169257Y21979*X168513Y16805*X166341Y12049*X162918Y8099*X158520Y5272*X153504Y3800*X148276*X143261Y5272*X138863Y8099*X135439Y12049*X133268Y16805*X133181Y17408*Y9839*X128181Y4839*X127361Y4019*X109951*X105251Y8719*X104195*X102881Y9264*X101875Y10269*X101331Y11583*Y13005*X101875Y14319*X102881Y15325*X104195Y15869*X105617*X106931Y15325*X107937Y14319*X108481Y13005*Y11583*X107937Y10269*X107799Y10131*X108506Y9424*Y14214*X106826Y15894*X102986*X101306Y14214*Y9214*X98806Y6714*X97986Y5894*X91826*X83076Y14644*X77986*X77691Y14349*X78258Y13781*Y7047*X77673Y6461*X74482*X73896Y7047*Y13781*X74482Y14367*X74756*Y15374*X75576Y16194*X76826Y17444*X84236*X85056Y16624*X92986Y8694*X96826*X98506Y10374*Y14214*X90160Y22561*Y24129*X89177*X88591Y24715*Y29874*X89177Y30459*X93942*X94528Y29874*Y24715*X93942Y24129*X92960*Y23720*X99906Y16774*X101826Y18694*X107986*X108806Y17874*X111306Y15374*Y10374*X112986Y8694*X116826*X118506Y10374*Y16624*X119326Y17444*X121006Y19124*Y23026*X120909*X120536Y23400*X120163Y23026*X120066*Y21724*X116306Y17964*Y15584*X116931Y15325*X117937Y14319*X118481Y13005*Y11583*X117937Y10269*X116931Y9264*X115617Y8719*X114195*X112881Y9264*X111875Y10269*X111331Y11583*Y13005*X111875Y14319*X112881Y15325*X113506Y15584*Y19124*X114326Y19944*X117266Y22884*Y23026*X117169*X116583Y23612*Y25894*X113721*Y24715*X113135Y24129*X108370*X107784Y24715*Y29874*X108370Y30459*X113135*X113721Y29874*Y28694*X116583*Y29559*X117169Y30144*X120163*X120536Y29771*X120909Y30144*X121179*X120830Y30494*X86706*Y23040*X93970Y15776*X94195Y15869*X95617*X96931Y15325*X97937Y14319*X98481Y13005*Y11583*X97937Y10269*X96931Y9264*X95617Y8719*X94195*X92881Y9264*X91875Y10269*X91331Y11583*Y13005*X91424Y13230*X83106Y21548*Y28194*X82633Y27721*X79443*X78857Y28307*Y35041*X79310Y35494*X77805*X78258Y35041*Y28307*X77673Y27721*X74482*X73896Y28307*Y35041*X74482Y35627*X76528*X75606Y36548*Y36549*X71856Y40298*Y43368*X70895Y42407*X68917*X67930Y43394*X67668*Y42411*X67082Y41826*X65902*Y38278*X66736Y37444*X67556Y36624*Y35627*X67751*X68337Y35041*Y28307*X67751Y27721*X67556*Y24214*X62556Y19214*X61736Y18394*X55486*X52556Y15464*Y14367*X52869*X53455Y13781*Y7047*X52869Y6461*X49679*X49093Y7047*Y13781*X49679Y14367*X49756*Y16624*X50576Y17444*X54326Y21194*X60576*X64756Y25374*Y27721*X64561*X63975Y28307*Y35041*X64561Y35627*X64593*X63102Y37118*Y41826*X61923*X61337Y42411*Y42500*X61280Y42285*X61095Y41966*X60835Y41705*X60515Y41521*X60159Y41426*X58210*Y44394*X57410*Y45194*X54244*Y46947*X54340Y47303*X54524Y47622*X54785Y47883*X55104Y48067*X55460Y48163*X57410*Y45194*X58210*Y48163*X60159*X60515Y48067*X60835Y47883*X61095Y47622*X61280Y47303*X61337Y47088*Y47177*X61923Y47763*X63496*Y49591*X61923*X61337Y50177*Y50266*X61280Y50051*X61095Y49732*X60835Y49471*X60515Y49287*X60159Y49191*X57816*Y53144*X57016*Y53944*X57816*Y57897*X58512*X57696Y58705*X57643Y58651*X54649*X54064Y59237*Y65184*X54649Y65769*X57643*X58229Y65184*Y62118*X62895Y57497*X67842*X60206Y65133*Y85133*X59705Y85634*Y78927*X59119Y78341*X57546*Y77187*X57643*X58229Y76601*Y70654*X57643Y70069*X57556*Y69214*X56736Y68394*X54861Y66519*X48611*X48261Y66169*X48525*Y62352*X48807*Y62069*X51149*Y59467*X51053Y59111*X50869Y58792*X50608Y58531*X50289Y58347*X49933Y58251*X48807*Y62069*X48525*Y58251*X47399*X47043Y58347*X46724Y58531*X46463Y58792*X46306Y59064*Y54749*X48181Y52874*Y48589*X47361Y47769*X45215Y45623*X47307*X52986Y39944*X59236*X61736Y37444*X62556Y36624*Y35627*X62791*X63376Y35041*Y28307*X62791Y27721*X59600*X59014Y28307*Y35041*X59597Y35623*X58076Y37144*X57036*X57556Y36624*Y35627*X57830*X58416Y35041*Y28307*X57830Y27721*X54639*X54054Y28307*Y35041*X54282Y35269*X53701*X53760Y35167*X53855Y34811*Y31865*X51465*Y31483*X53855*Y28537*X53760Y28181*X53576Y27862*X53315Y27601*X52996Y27417*X52640Y27321*X51465*Y31483*X51084*Y31865*X48693*Y34811*X48788Y35167*X48973Y35486*X49233Y35747*X49553Y35931*X49909Y36027*X45204Y36630D2*X49840D1*X46156Y36669D2*X46033Y36546D1*X41146*X45204*Y35574*X45108Y35218*X44924Y34899*X44670Y34645*X44773Y34542*X45028Y34382*X45053Y34376*X45063Y34360*X45079Y34350*X45085Y34326*X45245Y34071*X45457Y33858*X45480Y33847*X45486Y33829*X45500Y33816*Y33791*X45599Y33507*X45759Y33252*X45779Y33236*X45781Y33217*X45791Y33201*X45786Y33177*X45819Y32878*X45873Y32725*X45886Y32711*Y32686*X45938Y32537*X45889Y32434*X45934Y32377*X45905Y32117*X45934Y31857*X45889Y31800*X45938Y31697*X45886Y31548*Y31523*X45873Y31509*X45819Y31356*X45786Y31057*X45791Y31033*X45781Y31017*X45779Y30998*X45759Y30982*X45599Y30727*X45500Y30443*Y30418*X45486Y30405*X45480Y30387*X45457Y30376*X45245Y30163*X45085Y29908*X45079Y29884*X45063Y29874*X45053Y29857*X45028Y29852*X44773Y29692*X44606Y29524*Y26383*X43317Y25094*X40856*Y24593*X42023*X42609Y24008*Y18061*X42023Y17475*X41934*X42149Y17418*X42468Y17233*X42729Y16973*X42913Y16653*X43009Y16297*Y13954*X39056*Y13154*X38256*Y9595*X35519*X35163Y9690*X34844Y9875*X34583Y10135*X34399Y10454*X34303Y10811*Y13154*X38256*Y13954*X34303*Y16297*X34399Y16653*X34583Y16973*X34844Y17233*X35163Y17418*X35378Y17475*X35289*X34703Y18061*Y23380*X34670Y23347*X34478Y23042*X34474Y23041*X34473Y23037*X34168Y22845*X33913Y22590*X33909*X33907Y22586*X33566Y22467*X33261Y22275*X33257Y22276*X33254Y22273*X32896Y22232*X32555Y22113*X32457Y22160*X32257*X31831Y22112*X31771Y22160*X29459*X29398Y22112*X28973Y22160*X28773*X28675Y22113*X28334Y22232*X27975Y22273*X27973Y22276*X27969Y22275*X27663Y22467*X27323Y22586*X27321Y22590*X27317*X27062Y22845*X26756Y23037*X26755Y23041*X26751Y23042*X26559Y23347*X26306Y23600*Y21979*X26421Y19932*X27332Y15940*X34407Y16667D2*X27166D1*D145*X84906Y32294D2*Y22294D1*X94906Y12294*X122406Y32294D2*X84906D1*Y36044*X83656Y37294*X77406*X73656Y41044*Y52294*X73144Y68544D2*X66781D1*X94906Y81448D2*X95752Y82294D1*X98656*X99906Y83544*X103213*X94906Y88141D2*Y93948D1*X96560Y93544*X103213*Y98544D2*X101156D1*X97810Y100641*X94906*X89916Y186753D2*Y187294D1*X72406*X72150Y190089D2*X72406D1*Y187294*Y177919D2*Y169085D1*X72150Y168830*X108656Y153544D2*Y158603D1*X113656D2*Y153544D1*X156156Y191044D2*Y181418D1*X151156D2*Y191044D1*X146156D2*Y181418D1*X141156D2*Y191044D1*X116156Y177294D2*X118656Y179794D1*Y188485*X119847Y187294*X123656Y188485D2*X123654Y188418D1*X123649Y188352*X123639Y188286*X123626Y188220*X123609Y188155*X123589Y188092*X123565Y188029*X123538Y187968*X123507Y187909*X123473Y187851*X123436Y187796*X123396Y187742*X123353Y187691*X123307Y187643*X123259Y187597*X123208Y187554*X123154Y187514*X123099Y187477*X123041Y187443*X122982Y187412*X122921Y187385*X122858Y187361*X122795Y187341*X122730Y187324*X122664Y187311*X122598Y187301*X122532Y187296*X122465Y187294*X121156*X119847*X113656*Y188485*X108656D2*Y192919D1*X111156Y195419*X158031*X161156Y192294*Y181418*Y165670D2*Y154794D1*X158656Y173544D2*X152406D1*X151156Y172294*Y165670*X141156D2*Y159794D1*X143031Y157919*X153031*X154906Y156044*Y143643*X200339Y112324D2*Y125724D1*X199281Y126782*X191156Y126448D2*X191491Y126782D1*X199281*X224995Y143574D2*X216156D1*X254906Y192294D2*X264276D1*Y191270*X263095*Y189144*X254906Y182294D2*Y173544D1*X271156Y157294*X294906Y152294D2*X284906D1*X276156*X271156Y157294*X264281Y150419*Y114794*X249281Y99794*X244281*X238656Y94169*Y76669*X226156*X219906Y70419*Y62294*X222406*X223656Y61044*Y53544*X234906Y42294*D45*X170182Y149144D3*X181205Y196389D3*X187504D3*X196156Y177294D3*X289281Y159794D3*X297741Y166074D3*X269394Y196389D3*X263095D3*Y189144D3*X241156Y169794D3*X244906Y151044D3*X219906Y153544D3*X199281Y143544D3*X208656Y149794D3*X200531D3*X196156Y157294D3*X204906Y162294D3*X214906D3*X224906D3*X234906D3*X244906Y159794D3*X258656Y158544D3*X264281D3*X268656Y142294D3*X266156Y78857D3*X283656Y42944D3*X254434Y5050D3*X260733D3*X267032D3*X273331D3*X279630D3*X285930Y5837D3*X292229Y9381D3*X295772Y14893D3*X297741Y21192D3*Y27491D3*Y33790D3*Y40089D3*X291756Y42944D3*X297741Y46389D3*Y52688D3*X291756Y51044D3*X283656D3*X273656Y53544D3*X262406Y63544D3*X266156Y66982D3*X258656Y69169D3*X255844Y76044D3*Y81044D3*Y86044D3*Y90732D3*X203656Y92919D3*Y84794D3*X196156D3*X122406Y32294D3*X78656Y61044D3*X73656Y52294D3*X69906Y44794D3*X77406D3*X98656Y43544D3*X108656Y36044D3*X101156Y22294D3*X78056Y5050D3*X84355D3*X90654D3*X100103D3*X106402D3*X131599D3*X134581Y8869D3*X137898Y5050D3*X163095D3*X169394D3*X167731Y10444D3*X172406Y9169D3*X188031Y16669D3*X178656Y27294D3*X182406Y28544D3*X178656Y52294D3*X170182Y64105D3*X172406Y73544D3*X176156Y86044D3*X182406D3*X188031Y94794D3*X177406D3*X174906Y103544D3*X180531Y112919D3*X195531Y121044D3*X214906Y129794D3*X221781Y134169D3*X226781Y128544D3*X246156Y126669D3*X251781Y122294D3*X259281Y114794D3*X254281Y109794D3*X249281Y104794D3*X238656Y112294D3*X221156Y111044D3*Y99794D3*X230531Y89794D3*X238656Y76669D3*X243656Y75419D3*X238656Y70419D3*X219906Y58544D3*Y62294D3*X229906Y64794D3*X228656Y69794D3*X224281Y70419D3*X218031Y73544D3*X208656Y72919D3*X204906Y69794D3*X208031Y67294D3*X199906Y54794D3*X203656Y47294D3*Y42294D3*X193656Y39794D3*X189281D3*X184906D3*X179906D3*X176156Y44794D3*X166156Y43544D3*X153656Y56044D3*X139906Y52294D3*X124906Y62294D3*X126156Y56044D3*X117406Y53544D3*X109906Y62294D3*X101781D3*X94906Y64794D3*X91781Y74794D3*X69906Y94169D3*X65531Y91044D3*X27662Y65286D3*Y71585D3*X41781Y81044D3*X27662Y90483D3*Y96782D3*Y103081D3*Y109381D3*Y121979D3*Y115680D3*X47406Y113544D3*X95531Y158544D3*X80531D3*X61781D3*X27662Y159774D3*Y166074D3*X55221Y196389D3*X61520D3*X72406Y177919D3*X105615Y196389D3*X103031Y191969D3*X99315Y196389D3*X93016D3*X86717D3*X84281Y191969D3*X93656Y181044D3*X102406Y174794D3*X116156Y177294D3*X133031Y174794D3*X136156Y181044D3*X141156Y191044D3*X146156D3*X151156D3*X156156D3*X162308Y196389D3*X168607D3*X174906D3*X175856Y190394D3*X170182Y186940D3*Y174341D3*Y161743D3*Y155444D3*X161156Y154794D3*X159832Y149720D3*X149906Y153544D3*X131082Y159720D3*X131156Y149794D3*X113656Y153544D3*X108656D3*X95531Y148544D3*X85531D3*X78449Y129853D3*X84355Y126704D3*X91048Y124538D3*X97347Y123948D3*Y133003D3*X90654Y134184D3*X84355Y137333D3*X78056Y140089D3*X72150Y142058D3*X65851Y143633D3*X59552Y144223D3*Y134971D3*X65851Y133790D3*X72150Y131822D3*X61781Y124794D3*X71156Y119169D3*X75531Y115419D3*X87406Y113544D3*X93656Y106044D3*X87406Y103544D3*X88031Y93544D3*X84281Y87294D3*X74906Y86044D3*X66781Y78544D3*Y68544D3*X48656Y56044D3*X51781Y53544D3*X53656Y44794D3*X46156Y36669D3*X51156Y24794D3*X45378Y14843D3*X27662Y21192D3*X29237Y14893D3*X34355Y8593D3*X40260Y5837D3*X46560Y5050D3*X52859D3*X59158D3*X65457D3*X71756D3*X71156Y17294D3*X77406Y22294D3*D47*X156156Y77294D3*X149906D3*X143656D3*X137406D3*X131156D3*X124906D3*X112406D3*X118656D3*Y83544D3*X112406D3*Y89794D3*X118656D3*Y96044D3*X112406D3*Y102294D3*X118656D3*X131156Y121044D3*X137406D3*X143656D3*X149906D3*X156156D3*Y127294D3*X149906D3*X143656D3*X137406D3*X131156D3*Y133544D3*X137406D3*X143656D3*X149906D3*X156156D3*D111*X196156Y96448D3*Y103141D3*Y108948D3*Y115641D3*X247002Y121044D3*X240310D3*X178252Y179794D3*X171560D3*X97002Y164794D3*X90310D3*X34060Y113544D3*X40752D3*X52810D3*X59502D3*X94906Y100641D3*Y93948D3*Y88141D3*Y81448D3*X104060Y43544D3*X110752D3*Y27294D3*X104060D3*X98252D3*X91560D3*D112*X56146Y82294D3*X48666D3*X32416Y64794D3*X39896D3*X57416Y53544D3*X64896D3*X239896Y129794D3*X232416D3*D113*X251156Y131157D3*Y142181D3*X199281Y137806D3*Y126782D3*D114*X68656Y111266D3*Y104573D3*X57810Y44794D3*X64502D3*X144906Y50198D3*Y56891D3*X240752Y64794D3*X234060D3*X182406Y100198D3*Y106891D3*X191156Y126448D3*Y133141D3*X181560Y157294D3*X188252D3*X204906Y166448D3*Y173141D3*X214906D3*Y166448D3*X224906D3*Y173141D3*X234906D3*Y166448D3*D115*X78656Y98032D3*Y109056D3*D116*X84168Y68544D3*X73144D3*D117*X214906Y143534D3*Y136054D3*X38656Y13554D3*Y21034D3*D118*X181156Y123751D3*Y130837D3*D119*X161156Y181418D3*X156156D3*X151156D3*X146156D3*X141156D3*Y165670D3*X146156D3*X151156D3*X156156D3*X161156D3*D122*X40457Y32117D3*Y51211D3*D123*X41146Y46782D3*Y44223D3*Y41664D3*Y39105D3*Y36546D3*D124*X30615Y37137D3*Y46192D3*D125*X124906Y12294D3*D126*X94906Y12294D3*X104906D3*X114906D3*D127*X51205Y150089D3*X31205D3*Y130089D3*X51205D3*D128*X41205Y140089D3*D130*X284906Y12294D3*X264906Y42294D3*X284906Y62294D3*X204906Y192294D3*X33656Y76044D3*D131*X33656Y86044D3*X254906Y192294D3*X244906D3*X234906D3*X224906D3*X214906D3*X204906Y182294D3*X214906D3*X224906D3*X234906D3*X244906D3*X254906D3*X294906Y152294D3*X284906D3*Y142294D3*X294906D3*Y132294D3*X284906D3*Y122294D3*X294906D3*Y112294D3*X284906D3*Y102294D3*X294906D3*Y92294D3*X284906D3*Y82294D3*X294906D3*Y62294D3*Y72294D3*X284906D3*X264906Y52294D3*X254906D3*X244906D3*X234906D3*Y42294D3*X244906D3*X254906D3*X284906Y22294D3*X274906D3*X264906D3*X254906D3*X244906D3*X234906D3*X224906D3*X214906D3*X204906D3*X194906D3*Y12294D3*X204906D3*X214906D3*X224906D3*X234906D3*X244906D3*X254906D3*X264906D3*X274906D3*D132*X92396Y42107D3*X84916D3*X88656Y49981D3*X56156Y97107D3*X59896Y104981D3*X52416D3*X41146D3*X33666D3*X37406Y97107D3*D133*X216432Y93141D3*X219581D3*X222731D3*X225880D3*Y86448D3*X222731D3*X219581D3*X216432D3*X210182Y46448D3*X213331D3*X216481D3*X219630D3*Y53141D3*X216481D3*X213331D3*X210182D3*X182682D3*X185831D3*X188981D3*X192130D3*Y46448D3*X188981D3*X185831D3*X182682D3*D134*X123656Y188485D3*X118656D3*X113656D3*X108656D3*Y158603D3*X113656D3*X118656D3*X123656D3*D135*X72150Y168830D3*Y190089D3*D138*X97396Y186753D3*X93656D3*X89916D3*Y175335D3*X97396D3*X118666Y26585D3*X122406D3*X126146D3*Y38003D3*X118666D3*X56146Y62210D3*X48666D3*Y73628D3*X52406D3*X56146D3*D139*X81038Y10414D3*X76077D3*X71117D3*X66156D3*X61195D3*X56235D3*X51274D3*Y31674D3*X56235D3*X61195D3*X66156D3*X71117D3*X76077D3*X81038D3*D140*X232180Y102087D3*Y104646D3*Y107206D3*Y109765D3*Y112324D3*Y114883D3*Y117442D3*Y120001D3*X210132D3*Y117442D3*Y114883D3*Y112324D3*Y109765D3*Y107206D3*Y104646D3*Y102087D3*D141*X242317Y138456D3*Y141015D3*Y143574D3*Y146133D3*X224995D3*Y143574D3*Y141015D3*Y138456D3*D142*X272180Y91369D3*Y88810D3*Y86251D3*Y83692D3*Y81133D3*Y78574D3*Y76015D3*Y73456D3*Y70896D3*Y68337D3*Y65778D3*Y63219D3*X250132D3*Y65778D3*Y68337D3*Y70896D3*Y73456D3*Y76015D3*Y78574D3*Y81133D3*Y83692D3*Y86251D3*Y88810D3*Y91369D3*D143*X280812Y179459D3*X44591D3*X150890Y21979D3*D144*X26969Y174285D3*X29140Y169530D3*X32564Y165579D3*X154831Y158665D3*X52221Y162753D3*X56619Y165579D3*D3*X167556Y174124D3*X71715Y140188D3*X80706Y136878D3*X60042Y169530D3*X62214Y174285D3*Y184634D3*X62332Y142128D3*X84580Y128695D3*X89552Y126829D3*X168513Y16805D3*X232180Y112324D3*X291306Y107874D3*X241306Y74124D3*X168513Y27154D3*X41146Y36546D3*X273182Y196166D3*X265361Y189389D3*X262445Y179459D3*X263189Y174285D3*X292839Y165579D3*X288441Y162753D3*X273182D3*X268784Y165579D3*X232180Y112324D3*X191306Y61624D3*X192710Y60220D3*X94782Y125912D3*X155652Y157844D3*X52221Y196166D3*X56619Y193340D3*X60042Y189389D3*X36961Y162753D3*X272180Y68337D3*Y67772D3*Y66974D3*Y66175D3*Y68337D3*Y65778D3*D3*Y93324D3*Y92526D3*Y91727D3*Y91369D3*D3*D3*X162918Y8099D3*D3*X158520Y5272D3*X143261D3*X135439Y12049D3*X265361Y169530D3*X263189Y184634D3*X268784Y193340D3*D3*X166341Y12049D3*X0Y0D2*M02*