G04 Output by ViewMate Deluxe V11.12.18  PentaLogix*
G04 Wed Mar 06 15:41:31 2019*
%IPPOS*%
%FSLAX25Y25*%
%MOIN*%
%ADD148R,0.03937X0.04331*%
%ADD149C,0.00394*%
%ADD150R,0.0515X0.0515*%
%ADD151C,0.0515*%
%ADD152C,0.1063*%
%ADD153C,0.09449*%
%ADD154R,0.06X0.06*%
G04:---LTIenv:A155:16,0.06,0.0 *
%ADD155P,0.064944X8X22.5*%
%ADD156R,0.04331X0.03937*%
%ADD157R,0.01673X0.03937*%
%ADD158C,0.15276*%
%ADD159C,0.29528*%
%ADD160R,0.05X0.05*%
%ADD161C,0.02775*%
%ADD162C,0.008*%
%ADD163C,0.016*%
%ADD164C,0.02381*%
%ADD165C,0.012*%
%ADD166C,0.024*%

%LPD*%
X0Y0D2*D149*G1X33212Y29749D2*X28017D1*X27549Y29357D2*X33681D1*X33945Y28965D2*X27284D1*X28168Y25827D2*X33061D1*X33586Y26219D2*X27644D1*X27344Y26611D2*X33885D1*X34057Y27003D2*X27172D1*X27093Y27396D2*X34136D1*X34158Y27788D2*X27071D1*X27082Y28180D2*X34147D1*X34090Y28572D2*X27139D1*X34109Y28520D2*X33963Y28936D1*X33729Y29309*X33417Y29621*X33044Y29855*X32628Y30001*X32189Y30050*X29040*X28602Y30001*X28186Y29855*X27813Y29621*X27501Y29309*X27266Y28936*X27121Y28520*X27071Y28081*Y27589*X27121Y27151*X27266Y26735*X27501Y26362*X27813Y26050*X28186Y25816*X28602Y25670*X29040Y25621*X32189*X32628Y25670*X33044Y25816*X33417Y26050*X33729Y26362*X33963Y26735*X34109Y27151*X34158Y27589*Y28081*X34109Y28520*X40988Y30533D2*X43863D1*X44310Y30926D2*X40541D1*X40314Y31318D2*X44538D1*X44655Y31710D2*X40197D1*X40162Y32102D2*X44689D1*X44658Y32494D2*X40193D1*X40303Y32887D2*X44548D1*X44329Y33279D2*X40523D1*X40941Y33671D2*X43910D1*X41934Y33987D2*X41539Y33943D1*X41165Y33812*X40829Y33600*X40548Y33320*X40337Y32984*X40206Y32610*X40162Y32215*Y32019*X40206Y31624*X40337Y31250*X40548Y30914*X40829Y30633*X41165Y30422*X41539Y30291*X41934Y30247*X42918*X43312Y30291*X43687Y30422*X44022Y30633*X44303Y30914*X44514Y31250*X44645Y31624*X44689Y32019*Y32215*X44645Y32610*X44514Y32984*X44303Y33320*X44022Y33600*X43687Y33812*X43312Y33943*X42918Y33987*X41934*X43713Y52889D2*X41138D1*X41772Y49360D2*X43079D1*X44046Y49752D2*X40805D1*X40463Y50144D2*X44388D1*X44581Y50536D2*X40270D1*X40183Y50928D2*X44669D1*X44688Y51321D2*X40163D1*X40209Y51713D2*X44642D1*X44497Y52105D2*X40354D1*X40631Y52497D2*X44220D1*X40548Y52414D2*X40829Y52695D1*X41165Y52906*X41539Y53037*X41934Y53081*X42918*X43312Y53037*X43687Y52906*X44022Y52695*X44303Y52414*X44514Y52079*X44645Y51704*X44689Y51310*Y51113*X44645Y50719*X44514Y50344*X44303Y50008*X44022Y49728*X43687Y49517*X43312Y49386*X42918Y49341*X41934*X41539Y49386*X41165Y49517*X40829Y49728*X40548Y50008*X40337Y50344*X40206Y50719*X40162Y51113*Y51310*X40206Y51704*X40337Y52079*X40548Y52414*X28424Y57596D2*X32805D1*X33491Y57204D2*X27738D1*X29010Y53282D2*X32219D1*X33363Y53674D2*X27867D1*X27472Y54066D2*X33758D1*X33986Y54458D2*X27243D1*X27116Y54851D2*X34113D1*X34158Y55243D2*X27072D1*X27071Y55635D2*X34158D1*X34126Y56027D2*X27104D1*X27206Y56419D2*X34024D1*X33826Y56812D2*X27404D1*X33729Y56966D2*X33417Y57278D1*X33044Y57513*X32628Y57658*X32189Y57707*X29040*X28602Y57658*X28186Y57513*X27813Y57278*X27501Y56966*X27266Y56593*X27121Y56177*X27071Y55739*Y55247*X27121Y54809*X27266Y54393*X27501Y54020*X27813Y53708*X28186Y53473*X28602Y53328*X29040Y53278*X32189*X32628Y53328*X33044Y53473*X33417Y53708*X33729Y54020*X33963Y54393*X34109Y54809*X34158Y55247*Y55739*X34109Y56177*X33963Y56593*X33729Y56966*D158*X129552Y103761D2*X152464D1*X129552Y111398D2*Y88486D1*X152464*Y111398*X129552*D162*X121976Y114884D2*X127207D1*Y114086D2*X121178D1*X120379Y113287D2*X125358D1*X124648Y112489D2*X119580D1*X118782Y111690D2*X124648D1*X124684Y110892D2*X117983D1*X117185Y110093D2*X125483D1*X127207Y109295D2*X116386D1*X115588Y108496D2*X127207D1*X127878Y107698D2*X114789D1*X280692Y106101D2*X283056D1*X282257Y105302D2*X280056D1*Y104504D2*X281459D1*X280906Y103705D2*X280056D1*Y102907D2*X280906D1*Y102108D2*X280056D1*Y101309D2*X280906D1*X281032Y100511D2*X280056D1*Y99712D2*X281831D1*X282629Y98914D2*X280056D1*X287183D2*X292629D1*X291831Y99712D2*X287981D1*X288780Y100511D2*X291032D1*X290906Y101309D2*X288906D1*Y102108D2*X290906D1*Y102907D2*X288906D1*Y103705D2*X290906D1*X291459Y104504D2*X288353D1*X287555Y105302D2*X292257D1*X286563Y106294D2*X288906Y103951D1*Y100637*X286563Y98294*X283249*X280906Y100637*Y103951*X283249Y106294*X286563*X293056Y106101D2*X286756D1*X286765Y108496D2*X293047D1*X290906Y111690D2*X288906D1*Y110892D2*X290906D1*X291450Y110093D2*X288362D1*X287563Y109295D2*X292249D1*X284906Y112294D2*X278656Y106044D1*Y89794*X252406Y82294D2*X255844Y81044D1*X238656Y76669D2*Y70419D1*X248506Y90929D2*X232773D1*X231974Y91727D2*X248506D1*X225056D2*X229088D1*X248506Y92526D2*X225056D1*Y93324D2*X248506D1*Y96518D2*X225056D1*Y95720D2*X248506D1*Y94921D2*X225056D1*X221556Y94123D2*X248506D1*X205841Y91727D2*X217256D1*X216069Y74959D2*X209993D1*X218031Y73544D2*X209281D1*X208656Y72919*X206312Y71765D2*X206434D1*X236269Y76556D2*X197956D1*Y77354D2*X236269D1*X236763Y78153D2*X197956D1*Y78951D2*X237562D1*X251303Y81347D2*X197956D1*Y82145D2*X250575D1*X249776Y82944D2*X197956D1*X198480Y83742D2*X248978D1*X248506Y84541D2*X198543D1*Y85339D2*X248506D1*Y86138D2*X198189D1*X197390Y86936D2*X248506D1*X201269Y93324D2*X191481D1*X190682Y94123D2*X201484D1*X202282Y94921D2*X190418D1*X217256D2*X205030D1*X190418Y95720D2*X217256D1*Y96518D2*X189683D1*X193656Y98914D2*X218769D1*X217256Y99712D2*X193656D1*Y100511D2*X217256D1*Y101309D2*X193656D1*Y102108D2*X217324D1*X217999Y102907D2*X193656D1*X220756D2*X221556D1*X221156Y99169D2*Y111044D1*Y94169D2*Y99794D1*X205829Y94123D2*X220756D1*X217256Y93324D2*X206043D1*Y92526D2*X217256D1*X203656Y92919D2*X202406Y91669D1*X191156*X181332Y83742D2*X177230D1*X178029Y84541D2*X180533D1*X180720Y87735D2*X177842D1*X176156Y86044D2*X182406D1*X174470Y87735D2*X157369D1*X156999Y86936D2*X173769D1*Y86138D2*X154810D1*Y85339D2*X173769D1*X174283Y84541D2*X154604D1*X153805Y83742D2*X175082D1*X130176Y92526D2*X140029D1*X139231Y91727D2*X130975D1*X131188Y90929D2*X139018D1*Y90130D2*X131188D1*X133370Y89332D2*X136835D1*X136459Y88533D2*X133747D1*Y87735D2*X136459D1*X136829Y86936D2*X133377D1*X131188Y86138D2*X139018D1*Y85339D2*X131188D1*X130982Y84541D2*X139224D1*X140023Y83742D2*X130183D1*X151834D2*X141994D1*X142793Y84541D2*X151035D1*X150829Y85339D2*X142999D1*Y86138D2*X150829D1*X148640Y86936D2*X145188D1*X145558Y87735D2*X148270D1*Y88533D2*X145558D1*X145181Y89332D2*X148646D1*X150829Y90130D2*X142999D1*Y90929D2*X150829D1*X151042Y91727D2*X142786D1*X141987Y92526D2*X151840D1*X141833Y92680D2*X142999Y91514D1*Y90121*X144392*X145558Y88955*Y87306*X144392Y86140*X142999*Y84747*X141833Y83581*X140184*X139018Y84747*Y86140*X137625*X136459Y87306*Y88955*X137625Y90121*X139018*Y91514*X140184Y92680*X141833*X141577Y99373D2*Y100510D1*X140440*Y99373*X141577*X140440Y99712D2*X141577D1*X141008Y99942D2*X134906Y106044D1*X137406Y121044*X120491Y178765D2*X118061D1*X117263Y179564D2*X120781D1*X62943D2*X115049D1*X114251Y178765D2*X62858D1*X104164Y173176D2*X107045D1*X109440Y170780D2*X103806D1*Y171578D2*X108642D1*X107843Y172377D2*X103806D1*X121024Y173974D2*X110206D1*X103806Y167586D2*X120720D1*X120491Y168384D2*X103806D1*Y169183D2*X120491D1*X110239Y169981D2*X103806D1*X111156Y171044D2*X122810D1*X123656Y170198*X126821Y177967D2*X141099D1*X126288Y173974D2*X130644D1*Y174773D2*X126821D1*Y175571D2*X130644D1*X131230Y176370D2*X126821D1*Y177168D2*X132029D1*X123656Y176891D2*X123252Y177294D1*X116156*X120491Y175571D2*X117809D1*X109407Y174773D2*X120491D1*X114503Y175571D2*X108609D1*X104207Y176370D2*X113769D1*Y177168D2*X103408D1*X62743Y177967D2*X113769D1*X101404Y177168D2*X62628D1*X62513Y176370D2*X100605D1*X100019Y175571D2*X62399D1*X62284Y174773D2*X100019D1*Y173974D2*X62072D1*X61707Y173176D2*X100648D1*X101006Y172377D2*X61342D1*X60978Y171578D2*X101006D1*Y170780D2*X60613D1*X60248Y169981D2*X101006D1*Y169183D2*X59741D1*X59050Y168384D2*X101006D1*Y167586D2*X58358D1*X57666Y166787D2*X101006D1*Y165989D2*X56974D1*X56014Y165190D2*X101006D1*Y164392D2*X54771D1*X53529Y163593D2*X101006D1*Y162795D2*X52286D1*X49645Y161996D2*X101006D1*X26306Y178765D2*X26324D1*X26439Y177967D2*X26306D1*Y177168D2*X26554D1*X26669Y176370D2*X26306D1*Y175571D2*X26784D1*X26898Y174773D2*X26306D1*X27111Y173974D2*X26306D1*Y173176D2*X27475D1*X27840Y172377D2*X26306D1*Y171578D2*X28205D1*X28569Y170780D2*X26306D1*Y169981D2*X28934D1*X29441Y169183D2*X26306D1*Y168384D2*X30133D1*X30824Y167586D2*X26306D1*Y166787D2*X31516D1*X32208Y165989D2*X26306D1*Y165190D2*X33168D1*X34411Y164392D2*X26306D1*Y163593D2*X35653D1*X36896Y162795D2*X26306D1*Y161996D2*X39537D1*X101006Y161198D2*X26306D1*Y160399D2*X101006D1*Y159601D2*X26306D1*Y158802D2*X101006D1*Y158004D2*X26306D1*Y157205D2*X101006D1*Y156407D2*X26306D1*X119161Y150019D2*X120651D1*X121449Y150817D2*X118363D1*X117564Y151616D2*X122248D1*X123046Y152414D2*X116766D1*X116043Y153213D2*X123845D1*X111410Y152414D2*X110902D1*X110104Y151616D2*X112208D1*X26306Y146825D2*X108396D1*X107597Y147623D2*X26306D1*Y148422D2*X106799D1*X106000Y149220D2*X26306D1*Y150019D2*X105202D1*X104403Y150817D2*X26306D1*Y151616D2*X103605D1*X102806Y152414D2*X26306D1*Y153213D2*X102007D1*X101209Y154011D2*X26306D1*Y154810D2*X101006D1*Y155608D2*X26306D1*X107344D2*X103806D1*X104370Y154810D2*X106545D1*X106269Y154011D2*X105169D1*X106269Y153213D2*X105967D1*X108656Y153544D2*Y151044D1*X109906Y149794*X114906*X116781Y147919*Y119169*X111781Y114169*X125024Y89332D2*X36025D1*X36824Y88533D2*X124648D1*X26306Y93324D2*X67519D1*X68173Y92526D2*X26306D1*X194356Y82145D2*X76706D1*Y81347D2*X194356D1*Y80548D2*X76706D1*Y79750D2*X194356D1*Y78951D2*X76706D1*Y78153D2*X194356D1*Y77354D2*X76706D1*Y76556D2*X194356D1*Y75757D2*X76706D1*Y74959D2*X194356D1*Y74160D2*X76706D1*Y73362D2*X194356D1*X76246Y47011D2*X71066D1*X71864Y46212D2*X75448D1*X75806Y43018D2*X71506D1*X69906Y44794D2*X77406D1*X72369Y50205D2*X45792D1*X45928Y51003D2*X71571D1*X71269Y51802D2*X45886D1*X45600Y52600D2*X71269D1*X71384Y53399D2*X45098D1*X43704Y54197D2*X72183D1*X26306Y58190D2*X27014D1*X40256Y48608D2*X26306D1*Y49406D2*X39458D1*X39060Y50205D2*X26306D1*Y51003D2*X38923D1*X26429Y53399D2*X26306D1*Y52600D2*X27227D1*X38965Y51802D2*X26306D1*X34002Y52600D2*X39252D1*X39753Y53399D2*X34800D1*X35244Y54197D2*X41147D1*X73106Y54996D2*X35355D1*X35356Y55794D2*X73106D1*Y56593D2*X35266D1*X34952Y57391D2*X73106D1*Y58190D2*X34215D1*X26306Y58988D2*X73106D1*Y59787D2*X26306D1*Y60585D2*X73106D1*Y61384D2*X26306D1*Y62182D2*X73106D1*Y74160D2*X38056D1*Y73362D2*X73106D1*Y72563D2*X37977D1*X37240Y71765D2*X73106D1*X33256D2*X34056D1*Y72563D2*X33256D1*Y73362D2*X34056D1*Y74160D2*X33256D1*Y79750D2*X34056D1*Y78951D2*X33256D1*Y78153D2*X34056D1*Y77354D2*X33256D1*Y76556D2*X34056D1*X33256Y75757D2*X26306D1*X34056Y74959D2*X33256D1*X73106Y75757D2*X34056D1*X38056Y74959D2*X73106D1*Y76556D2*X38056D1*Y77354D2*X73106D1*Y78153D2*X38056D1*Y78951D2*X73106D1*Y79750D2*X37865D1*X26306Y80548D2*X73106D1*X29447Y79750D2*X26306D1*Y78951D2*X29256D1*Y78153D2*X26306D1*Y77354D2*X29256D1*Y76556D2*X26306D1*X29256Y76444D2*X33256D1*Y80444*X30472*X30116Y80349*X29796Y80164*X29536Y79904*X29351Y79584*X29256Y79228*Y76444*X26306Y74959D2*X29256D1*Y74160D2*X26306D1*Y73362D2*X29256D1*X29336Y72563D2*X26306D1*X30116Y71740D2*X29796Y71924D1*X29536Y72184*X29351Y72504*X29256Y72860*Y75644*X33256*Y76444*X34056*Y80444*X36840*X37196Y80349*X37516Y80164*X37776Y79904*X37961Y79584*X38056Y79228*Y76444*X34056*Y75644*X38056*Y72860*X37961Y72504*X37776Y72184*X37516Y71924*X37196Y71740*X36840Y71644*X34056*Y75644*X33256*Y71644*X30472*X30116Y71740*X26306Y71765D2*X30072D1*X73106Y70966D2*X26306D1*Y70168D2*X73106D1*Y69369D2*X26306D1*Y68571D2*X73106D1*Y67772D2*X26306D1*Y66974D2*X73106D1*Y66175D2*X26306D1*Y65376D2*X73106D1*Y64578D2*X26306D1*Y63779D2*X73106D1*Y62981D2*X26306D1*X77217D2*X76706D1*X81232Y58988D2*X79977D1*X78656Y61044D2*X81156D1*X76706Y58988D2*X77335D1*X82030Y58190D2*X76706D1*Y57391D2*X82829D1*X83627Y56593D2*X76706D1*Y55794D2*X84426D1*X85224Y54996D2*X76706D1*Y54197D2*X86023D1*X86821Y53399D2*X76706D1*X76508Y52600D2*X87620D1*X88418Y51802D2*X76043D1*X75742Y51003D2*X89217D1*X90015Y50205D2*X74943D1*X45393Y49406D2*X90814D1*X44561Y48573D2*X44550Y48551D1*X44532Y48545*X44518Y48531*X44493*X44209Y48432*X43954Y48272*X43939Y48252*X43920Y48250*X43904Y48240*X43879Y48245*X43580Y48212*X43427Y48158*X43414Y48144*X43388*X43239Y48092*X43131Y48144*X42985*X42559Y48097*X42499Y48144*X42352*X42292Y48097*X41866Y48144*X41720*X41612Y48092*X41463Y48144*X41438*X41424Y48158*X41271Y48212*X40972Y48245*X40948Y48240*X40932Y48250*X40913Y48252*X40897Y48272*X40642Y48432*X40358Y48531*X40333*X40320Y48545*X40302Y48551*X40291Y48573*X40078Y48786*X39823Y48946*X39799Y48952*X39789Y48968*X39772Y48978*X39767Y49003*X39607Y49257*X39394Y49470*X39371Y49481*X39365Y49499*X39352Y49513*Y49538*X39252Y49822*X39092Y50076*X39073Y50092*X39070Y50111*X39060Y50127*X39066Y50152*X39032Y50451*X38979Y50604*X38965Y50617*Y50642*X38913Y50791*X38962Y50894*X38917Y50951*X38946Y51211*X38917Y51472*X38962Y51529*X38913Y51631*X38965Y51780*Y51806*X38979Y51819*X39032Y51972*X39066Y52271*X39060Y52296*X39070Y52312*X39073Y52331*X39092Y52346*X39252Y52601*X39352Y52885*Y52910*X39365Y52924*X39371Y52942*X39394Y52953*X39607Y53165*X39767Y53420*X39772Y53445*X39789Y53455*X39799Y53471*X39823Y53477*X40078Y53637*X40291Y53849*X40302Y53872*X40320Y53878*X40333Y53892*X40358*X40642Y53991*X40897Y54151*X40913Y54171*X40932Y54173*X40948Y54183*X40972Y54178*X41271Y54211*X41424Y54265*X41438Y54278*X41463*X41612Y54330*X41720Y54278*X41866*X42292Y54326*X42352Y54278*X42499*X42559Y54326*X42985Y54278*X43131*X43239Y54330*X43388Y54278*X43414*X43427Y54265*X43580Y54211*X43879Y54178*X43904Y54183*X43920Y54173*X43939Y54171*X43954Y54151*X44209Y53991*X44493Y53892*X44518*X44532Y53878*X44550Y53872*X44561Y53849*X44773Y53637*X45028Y53477*X45053Y53471*X45063Y53455*X45079Y53445*X45085Y53420*X45245Y53165*X45457Y52953*X45480Y52942*X45486Y52924*X45500Y52910*Y52885*X45599Y52601*X45759Y52346*X45779Y52331*X45781Y52312*X45791Y52296*X45786Y52271*X45819Y51972*X45873Y51819*X45886Y51806*Y51780*X45938Y51631*X45889Y51529*X45934Y51472*X45905Y51211*X45934Y50951*X45889Y50894*X45938Y50791*X45886Y50642*Y50617*X45873Y50604*X45819Y50451*X45786Y50152*X45791Y50127*X45781Y50111*X45779Y50092*X45759Y50076*X45599Y49822*X45500Y49538*Y49513*X45486Y49499*X45480Y49481*X45457Y49470*X45245Y49257*X45085Y49003*X45079Y48978*X45063Y48968*X45053Y48952*X45028Y48946*X44773Y48786*X44561Y48573*X91612Y48608D2*X44595D1*X79006Y43018D2*X96269D1*Y43817D2*X79793D1*Y44615D2*X95605D1*X94807Y45414D2*X79793D1*X79364Y46212D2*X94008D1*X93209Y47011D2*X78566D1*X26306Y47809D2*X92411D1*X68746Y47011D2*X26306D1*Y46212D2*X67948D1*X67519Y45414D2*X26306D1*Y44615D2*X67519D1*Y43817D2*X26306D1*X68917Y42407D2*X67519Y43805D1*Y45783*X68917Y47181*X70895*X71882Y46194*X75430*X76417Y47181*X78395*X79793Y45783*Y43805*X78395Y42407*X76417*X75430Y43394*X71882*X70895Y42407*X68917*X26306Y43018D2*X68306D1*X96604Y42220D2*X26306D1*X181434Y6287D2*X160098D1*X173698Y7085D2*X180635D1*X179837Y7884D2*X174497D1*X174793Y8682D2*X179038D1*X178240Y9481D2*X174793D1*X174672Y10279D2*X177581D1*Y11078D2*X174120D1*X174082Y11876D2*X177581D1*X172682Y15198D2*Y10695D1*X172406Y9169*X161341Y7085D2*X171114D1*X170315Y7884D2*X162583D1*X163423Y8682D2*X170019D1*Y9481D2*X164115D1*X164807Y10279D2*X170140D1*X170938Y11078D2*X165499D1*X166191Y11876D2*X171282D1*X170985Y12675D2*X166627D1*X166991Y13473D2*X170845D1*Y14272D2*X167356D1*X167721Y15070D2*X170845D1*Y15869D2*X168085D1*X168450Y16667D2*X170845D1*Y17466D2*X168608D1*X174440Y19063D2*X174073D1*X177589D2*X177223D1*X180739D2*X180372D1*X189809Y15070D2*X192025D1*X192824Y15869D2*X190418D1*X214906Y12294D2*X209906Y17294D1*X225640Y31041D2*X241091D1*Y31839D2*X224841D1*X237897Y35033D2*X241091D1*Y35832D2*X237098D1*X236306Y36630D2*X241597D1*X229640Y51802D2*X229293D1*X232137Y49406D2*X231141D1*X229321Y48608D2*X232936D1*X226156Y49391D2*X229906Y50198D1*X232406Y52294*X234906*X226636Y55794D2*X232749D1*X231951Y54996D2*X225838D1*X225039Y54197D2*X231152D1*X230906Y53399D2*X224241D1*X223442Y52600D2*X230592D1*X222644Y51802D2*X223019D1*X222991Y51003D2*X221845D1*X221047Y50205D2*X222991D1*Y49406D2*X220248D1*X219450Y48608D2*X222991D1*Y47809D2*X218651D1*X217853Y47011D2*X222991D1*X176151Y47809D2*X201269D1*X201593Y48608D2*X176950D1*X177748Y49406D2*X202392D1*X178656Y52294D2*X175531Y49169D1*X114281*X26306Y39026D2*X127158D1*X127956Y39824D2*X26306D1*Y40623D2*X128755D1*X97403Y41421D2*X26306D1*X129553D2*X99909D1*X100708Y42220D2*X130352D1*X131150Y43018D2*X101043D1*Y43817D2*X131949D1*X132747Y44615D2*X100961D1*X100163Y45414D2*X133546D1*X81156Y61044D2*X98656Y43544D1*X194356Y66974D2*X96103D1*X96901Y66175D2*X194356D1*X108015Y63779D2*X97268D1*X97625Y61384D2*X107519D1*Y62182D2*X96900D1*X96469Y62981D2*X107519D1*X94906Y64794D2*Y62294D1*X107406Y48544*X108656Y47294*X112064Y49406D2*X108524D1*X107788Y50205D2*X111265D1*X110467Y51003D2*X107062D1*X106337Y51802D2*X109668D1*X108870Y52600D2*X105611D1*X104885Y53399D2*X108506D1*Y54197D2*X104159D1*X103433Y54996D2*X108506D1*Y55794D2*X102707D1*X101981Y56593D2*X108506D1*Y57391D2*X101255D1*X100529Y58190D2*X108506D1*Y58988D2*X99803D1*X99077Y59787D2*X108506D1*X108238Y60585D2*X98351D1*X109906Y62294D2*Y53544D1*X114281Y49169*X137821Y51003D2*X114427D1*X119040Y51802D2*X137519D1*Y52600D2*X119793D1*Y53399D2*X137634D1*X124906Y62294D2*X123656D1*X175825Y61384D2*X127293D1*Y62182D2*X176624D1*X177422Y62981D2*X127293D1*X126797Y63779D2*X178221D1*X194356Y64578D2*X125998D1*X97293Y65376D2*X194356D1*X108814Y64578D2*X97293D1*X123814D2*X110998D1*X111797Y63779D2*X123015D1*X122363Y62981D2*X112293D1*Y62182D2*X121856D1*X121285Y61384D2*X112293D1*X111574Y60585D2*X120715D1*X120145Y59787D2*X111306D1*Y58988D2*X119574D1*X119004Y58190D2*X111306D1*Y57391D2*X118434D1*X117863Y56593D2*X111306D1*Y55794D2*X116280D1*X115481Y54996D2*X111306D1*Y54197D2*X115019D1*Y53399D2*X112031D1*X112830Y52600D2*X115019D1*X115772Y51802D2*X113628D1*X123656Y62294D2*X117406Y53544D1*X174228Y59787D2*X123586D1*X126574Y60585D2*X175027D1*X152426Y58190D2*X127387D1*X172631D2*X154887D1*X123015Y58988D2*X173430D1*X122445Y58190D2*X124926D1*X124127Y57391D2*X121875D1*X121304Y56593D2*X123769D1*Y55794D2*X120734D1*X120163Y54996D2*X123828D1*X119793Y54478D2*X123774Y60050D1*X123917Y59907*X125895*X127293Y61305*Y63283*X125895Y64681*X123917*X122519Y63283*Y63137*X122256Y62874*Y62743*X117391Y55931*X116417*X115019Y54533*Y52555*X116417Y51157*X118395*X119793Y52555*Y54478*X124626Y54197D2*X119793D1*X138433D2*X127686D1*X139906Y52294D2*X141156Y51044D1*X171156*X108656Y47294D2*X167406D1*X97968Y46212D2*X107758D1*X106959Y47011D2*X97169D1*X96371Y47809D2*X106161D1*X105456Y48608D2*X95572D1*X94774Y49406D2*X104730D1*X104004Y50205D2*X93975D1*X93177Y51003D2*X103278D1*X102552Y51802D2*X92378D1*X91580Y52600D2*X101827D1*X101101Y53399D2*X90781D1*X89983Y54197D2*X100375D1*X99649Y54996D2*X89184D1*X88386Y55794D2*X98923D1*X98197Y56593D2*X87587D1*X86789Y57391D2*X97471D1*X96745Y58190D2*X85990D1*X85192Y58988D2*X96019D1*X95293Y59787D2*X84393D1*X83595Y60585D2*X94567D1*X93836Y61384D2*X82796D1*X81998Y62182D2*X93499D1*X93343Y62981D2*X80095D1*X76706Y63779D2*X92544D1*X92519Y64578D2*X76706D1*Y65376D2*X92519D1*X92911Y66175D2*X76706D1*Y66974D2*X93709D1*X194356Y67772D2*X76706D1*Y68571D2*X194356D1*Y69369D2*X76706D1*Y70168D2*X194356D1*Y70966D2*X76706D1*Y71765D2*X194356D1*Y72563D2*X76706D1*X206269D2*X197956D1*Y73362D2*X206269D1*X206521Y74160D2*X197956D1*Y74959D2*X207319D1*X216868Y75757D2*X197956D1*X236269D2*X219194D1*X219993Y74959D2*X236990D1*X237256Y74160D2*X220418D1*Y73362D2*X237256D1*X227250Y71765D2*X226312D1*X228656Y69794D2*X226156Y67294D1*X208031*X260862Y65376D2*X209490D1*X267628Y55794D2*X269426D1*X270224Y54996D2*X268427D1*X269225Y54197D2*X271023D1*X271269Y53399D2*X269306D1*X273656Y53544D2*X267406Y59794D1*X262406*X262782Y58190D2*X267030D1*X262406Y59794D2*X259906Y57294D1*X280506Y61384D2*X263622D1*X268595Y60585D2*X280506D1*Y59787D2*X269393D1*X270192Y58988D2*X280539D1*X281030Y58190D2*X270990D1*X285306D2*X284506D1*Y58988D2*X285306D1*Y59787D2*X284506D1*Y60585D2*X285306D1*Y62981D2*X284506D1*Y63779D2*X285306D1*Y64578D2*X284506D1*Y65376D2*X285306D1*Y66175D2*X284506D1*X259446Y77354D2*X299097D1*X255844Y76044D2*X256156D1*X262094Y81982*X271156*X278656Y89794*X261842Y79750D2*X281794D1*X280995Y80548D2*X262640D1*X272501Y81347D2*X280906D1*Y82145D2*X273254D1*X274020Y82944D2*X280906D1*Y83742D2*X274787D1*X275554Y84541D2*X281496D1*X282294Y85339D2*X276320D1*X277087Y86138D2*X283093D1*X299097Y86936D2*X277853D1*X296719Y86138D2*X299097D1*Y85339D2*X297518D1*X299097Y84541D2*X298316D1*X299097Y83742D2*X298906D1*Y82944D2*X299097D1*Y82145D2*X298906D1*Y81347D2*X299097D1*Y80548D2*X298817D1*X298018Y79750D2*X299097D1*Y78951D2*X297220D1*X260245Y78153D2*X299097D1*X282592Y78951D2*X261043D1*X257336Y74160D2*X281115D1*X281914Y74959D2*X258134D1*X258231Y75757D2*X282712D1*X299097Y76556D2*X258647D1*X297100Y75757D2*X299097D1*Y74959D2*X297898D1*X299097Y74160D2*X298697D1*X299097Y73362D2*X298906D1*Y72563D2*X299097D1*Y71765D2*X298906D1*Y70966D2*X299097D1*Y70168D2*X298436D1*X297638Y69369D2*X299097D1*Y68571D2*X296839D1*X298845Y64578D2*X299097D1*Y65376D2*X298046D1*X297248Y66175D2*X299097D1*X294506D2*X295306D1*Y65376D2*X294506D1*Y64578D2*X295306D1*Y63779D2*X294506D1*Y62981D2*X295306D1*Y58988D2*X294506D1*Y58190D2*X295306D1*X288782D2*X292788D1*X291989Y58988D2*X289273D1*X289306Y59787D2*X291191D1*X290506Y60585D2*X289306D1*Y61384D2*X290506D1*Y62981D2*X289306D1*Y63779D2*X290506D1*X290967Y64578D2*X289306D1*Y65376D2*X291766D1*X292564Y66175D2*X289005D1*X293083Y66694D2*X294506D1*Y62694*X290506*Y64117*X293083Y66694*X286839Y68571D2*X292973D1*X292174Y69369D2*X287638D1*X288436Y70168D2*X291376D1*X290906Y70966D2*X288906D1*Y71765D2*X290906D1*Y72563D2*X288906D1*Y73362D2*X290906D1*X291115Y74160D2*X288697D1*X287898Y74959D2*X291914D1*X292712Y75757D2*X287100D1*X293249Y76294D2*X296563D1*X298906Y73951*Y70637*X296563Y68294*X293249*X290906Y70637*Y73951*X293249Y76294*X287220Y78951D2*X292592D1*X291794Y79750D2*X288018D1*X288817Y80548D2*X290995D1*X290906Y81347D2*X288906D1*Y82145D2*X290906D1*Y82944D2*X288906D1*Y83742D2*X290906D1*X291496Y84541D2*X288316D1*X287518Y85339D2*X292294D1*X286563Y86294D2*X288906Y83951D1*Y80637*X286563Y78294*X283249*X280906Y80637*Y83951*X283249Y86294*X286563*X293093Y86138D2*X286719D1*X293249Y86294D2*X296563D1*X298906Y83951*Y80637*X296563Y78294*X293249*X290906Y80637*Y83951*X293249Y86294*X286802Y88533D2*X293010D1*X292211Y89332D2*X287601D1*X288399Y90130D2*X291413D1*X290906Y90929D2*X288906D1*Y91727D2*X290906D1*Y92526D2*X288906D1*Y93324D2*X290906D1*X291078Y94123D2*X288734D1*X287936Y94921D2*X291877D1*X292675Y95720D2*X287137D1*X297137D2*X299097D1*Y94921D2*X297936D1*X298734Y94123D2*X299097D1*Y93324D2*X298906D1*Y92526D2*X299097D1*Y91727D2*X298906D1*Y90929D2*X299097D1*Y90130D2*X298399D1*X297601Y89332D2*X299097D1*X296563Y88294D2*X293249D1*X290906Y90637*Y93951*X293249Y96294*X296563*X298906Y93951*Y90637*X296563Y88294*X299097Y88533D2*X296802D1*X278620Y87735D2*X299097D1*X283010Y88533D2*X279386D1*X280066Y89332D2*X282211D1*X281413Y90130D2*X280056D1*Y90929D2*X280906D1*Y91727D2*X280056D1*Y92526D2*X280906D1*Y93324D2*X280056D1*Y94123D2*X281078D1*X281877Y94921D2*X280056D1*X283249Y96294D2*X286563D1*X288906Y93951*Y90637*X286563Y88294*X283249*X280906Y90637*Y93951*X283249Y96294*X280056Y95720D2*X282675D1*X299097Y96518D2*X280056D1*Y97317D2*X299097D1*Y98115D2*X280056D1*X297183Y98914D2*X299097D1*Y99712D2*X297981D1*X298780Y100511D2*X299097D1*Y101309D2*X298906D1*Y102108D2*X299097D1*Y102907D2*X298906D1*Y103705D2*X299097D1*Y104504D2*X298353D1*X297555Y105302D2*X299097D1*X296563Y106294D2*X293249D1*X290906Y103951*Y100637*X293249Y98294*X296563*X298906Y100637*Y103951*X296563Y106294*X299097Y106101D2*X296756D1*X281491Y106899D2*X299097D1*Y107698D2*X282289D1*X296765Y108496D2*X299097D1*Y109295D2*X297563D1*X299097Y110093D2*X298362D1*X298906Y110892D2*X299097D1*Y111690D2*X298906D1*Y112489D2*X299097D1*Y113287D2*X298906D1*X298771Y114086D2*X299097D1*Y114884D2*X297973D1*X297174Y115683D2*X299097D1*Y116481D2*X292699D1*X291900Y117280D2*X299097D1*Y118078D2*X291102D1*X297146Y118877D2*X299097D1*Y119675D2*X297944D1*X299097Y120474D2*X298743D1*X298906Y121272D2*X299097D1*X290721Y128459D2*X293084D1*X263572Y155608D2*X282563D1*X281765Y154810D2*X264370D1*X265169Y154011D2*X280966D1*X280906Y153213D2*X265967D1*X266766Y152414D2*X280906D1*Y151616D2*X267564D1*X268363Y150817D2*X280906D1*X281525Y150019D2*X269161D1*X269960Y149220D2*X282323D1*X258656Y158544D2*X268656Y148544D1*X234906Y162294D2*Y167698D1*X103806Y158004D2*X192256D1*Y158802D2*X103806D1*Y159601D2*X192256D1*Y160399D2*X103806D1*Y161198D2*X192256D1*Y161996D2*X103806D1*Y162795D2*X192256D1*Y163593D2*X103806D1*Y164392D2*X192256D1*Y165190D2*X103806D1*Y165989D2*X192256D1*Y166787D2*X103806D1*X204906Y162294D2*Y167698D1*X223424Y160399D2*X216388D1*X217186Y161198D2*X222626D1*X222519Y161996D2*X217293D1*Y162795D2*X222519D1*X222829Y163593D2*X216983D1*X216306Y164392D2*X223506D1*X221938Y165190D2*X217875D1*Y165989D2*X221938D1*Y166787D2*X217875D1*X224906Y162294D2*Y167698D1*X233424Y160399D2*X226388D1*X227186Y161198D2*X232626D1*X232519Y161996D2*X227293D1*Y162795D2*X232519D1*X232829Y163593D2*X226983D1*X226306Y164392D2*X233506D1*X231938Y165190D2*X227875D1*Y165989D2*X231938D1*Y166787D2*X227875D1*Y167586D2*X231938D1*Y168384D2*X227875D1*Y169183D2*X231938D1*Y169981D2*X227875D1*X227372Y170780D2*X232440D1*X231694Y171578D2*X228118D1*X228275Y172377D2*X231538D1*Y173176D2*X228275D1*Y173974D2*X231538D1*Y175571D2*X228275D1*Y176370D2*X231538D1*X231674Y177168D2*X228138D1*X234506Y176370D2*X235306D1*Y177168D2*X234506D1*X276467Y197131D2*X261306D1*Y196332D2*X273748D1*X272198Y195534D2*X261306D1*Y194735D2*X270955D1*X269713Y193937D2*X261306D1*Y193138D2*X268609D1*X267917Y192340D2*X261306D1*Y191541D2*X267225D1*X266534Y190743D2*X261306D1*Y189944D2*X265842D1*X265249Y189146D2*X261306D1*Y188347D2*X264885D1*X264520Y187549D2*X261306D1*Y186750D2*X264155D1*X263791Y185952D2*X261306D1*Y185153D2*X263426D1*X263149Y184355D2*X261306D1*Y183556D2*X263034D1*X262919Y182758D2*X261306D1*Y181959D2*X262804D1*X262690Y181161D2*X261306D1*Y180362D2*X262575D1*X262460Y179564D2*X261306D1*Y178765D2*X262545D1*X262660Y177967D2*X261306D1*Y177168D2*X262774D1*X262889Y176370D2*X261306D1*Y175571D2*X263004D1*X263119Y174773D2*X261306D1*Y173974D2*X263331D1*X263696Y173176D2*X261306D1*Y172377D2*X264060D1*X264425Y171578D2*X261306D1*Y170780D2*X264790D1*X265154Y169981D2*X261306D1*Y169183D2*X265661D1*X266353Y168384D2*X261306D1*Y167586D2*X267045D1*X267737Y166787D2*X261306D1*Y165989D2*X268429D1*X269389Y165190D2*X261306D1*Y164392D2*X270631D1*X271874Y163593D2*X261306D1*Y162795D2*X273116D1*X275758Y161996D2*X261306D1*X299078Y178765D2*X299097D1*X298963Y177967D2*X299097D1*Y177168D2*X298849D1*X298734Y176370D2*X299097D1*Y175571D2*X298619D1*X298504Y174773D2*X299097D1*X298292Y173974D2*X299097D1*Y173176D2*X297927D1*X297563Y172377D2*X299097D1*Y171578D2*X297198D1*X296833Y170780D2*X299097D1*Y169981D2*X296469D1*X295962Y169183D2*X299097D1*Y168384D2*X295270D1*X294578Y167586D2*X299097D1*Y166787D2*X293886D1*X293194Y165989D2*X299097D1*Y165190D2*X292234D1*X290992Y164392D2*X299097D1*Y163593D2*X289749D1*X288507Y162795D2*X299097D1*Y161996D2*X285866D1*X261306Y161198D2*X299097D1*Y160399D2*X261306D1*Y159601D2*X299097D1*Y158802D2*X261306D1*Y158004D2*X299097D1*Y157205D2*X261975D1*X262773Y156407D2*X299097D1*X246506Y154011D2*X259906D1*Y154810D2*X246506D1*Y155608D2*X259612D1*X257417Y156407D2*X246506D1*Y157205D2*X256619D1*X256269Y158004D2*X246506D1*X247291Y158802D2*X256269D1*X256336Y159601D2*X247293D1*Y160399D2*X257135D1*X259906Y161198D2*X246879D1*X246080Y161996D2*X259906D1*X236388Y160399D2*X242519D1*X242933Y161198D2*X237186D1*X237293Y161996D2*X243732D1*X259906Y162795D2*X237293D1*X236983Y163593D2*X259906D1*Y164392D2*X236306D1*X237875Y165190D2*X259906D1*Y165989D2*X237875D1*Y166787D2*X259906D1*Y167586D2*X237875D1*Y168384D2*X259906D1*Y169183D2*X237875D1*Y169981D2*X259906D1*Y170780D2*X237372D1*X238118Y171578D2*X259906D1*Y172377D2*X238275D1*Y173176D2*X259906D1*Y173974D2*X238275D1*X247034Y178765D2*X252778D1*X251980Y179564D2*X247832D1*X248631Y180362D2*X251181D1*X250906Y181161D2*X248906D1*Y181959D2*X250906D1*Y182758D2*X248906D1*Y183556D2*X250906D1*X251310Y184355D2*X248502D1*X247704Y185153D2*X252108D1*X252907Y185952D2*X246905D1*X249306Y191541D2*X250906D1*Y190743D2*X249306D1*X248779Y189944D2*X251599D1*X252398Y189146D2*X247980D1*X247182Y188347D2*X253196D1*X237980Y189146D2*X241832D1*X241033Y189944D2*X238779D1*X239306Y190743D2*X240506D1*Y191541D2*X239306D1*Y193138D2*X240506D1*Y193937D2*X239306D1*X238687Y194735D2*X241125D1*X241923Y195534D2*X237889D1*X237090Y196332D2*X242722D1*X234506D2*X235306D1*Y195534D2*X234506D1*Y194735D2*X235306D1*Y193937D2*X234506D1*Y191541D2*X235306D1*Y190743D2*X234506D1*Y189944D2*X235306D1*Y189146D2*X234506D1*Y188347D2*X235306D1*X216905Y185952D2*X222907D1*X222108Y185153D2*X217704D1*X218502Y184355D2*X221310D1*X220906Y183556D2*X218906D1*Y182758D2*X220906D1*Y181959D2*X218906D1*Y181161D2*X220906D1*X221181Y180362D2*X218631D1*X217832Y179564D2*X221980D1*X215306Y177168D2*X214506D1*Y176370D2*X215306D1*X205306D2*X204506D1*Y177168D2*X205306D1*X193656Y179564D2*X201980D1*X201181Y180362D2*X193656D1*Y181161D2*X200906D1*Y181959D2*X193656D1*Y182758D2*X200906D1*Y183556D2*X193656D1*Y184355D2*X201310D1*X202108Y185153D2*X193656D1*Y185952D2*X202907D1*X259906Y186750D2*X193656D1*X256905Y185952D2*X259906D1*Y185153D2*X257704D1*X258502Y184355D2*X259906D1*Y183556D2*X258906D1*Y182758D2*X259906D1*Y181959D2*X258906D1*Y181161D2*X259906D1*Y180362D2*X258631D1*X257832Y179564D2*X259906D1*X256563Y178294D2*X253249D1*X250906Y180637*Y183951*X253249Y186294*X256563*X258906Y183951*Y180637*X256563Y178294*X259906Y178765D2*X257034D1*X193656Y177967D2*X259906D1*X202778Y178765D2*X193656D1*Y177168D2*X201674D1*X201538Y176370D2*X193656D1*Y175571D2*X201538D1*X126821Y172377D2*X192256D1*Y171578D2*X126821D1*Y170780D2*X192256D1*Y169981D2*X126821D1*Y169183D2*X192256D1*Y168384D2*X126821D1*X126592Y167586D2*X192256D1*X116043Y154011D2*X147519D1*X147795Y154810D2*X115767D1*X114968Y155608D2*X148594D1*X109968D2*X112344D1*X111545Y154810D2*X110767D1*X111043Y154011D2*X111269D1*Y153213D2*X111043D1*X113656Y153544D2*X118656Y148544D1*Y118544*X112406Y112294*X88656*X87406Y113544*X125191Y101309D2*X88548D1*X89346Y102108D2*X127207D1*X87406Y103544D2*X93031Y110419D1*X113031*X120531Y117919*Y147919*X124906Y152294*X148656*X149906Y153544*X151354Y151616D2*X153865D1*X155062Y152414D2*X152152D1*X152293Y153213D2*X156260D1*X157458Y154011D2*X152293D1*X152017Y154810D2*X158656D1*X158769Y155608D2*X151218D1*X103806Y156407D2*X159392D1*X192256Y157205D2*X103806D1*X259906Y146026D2*X193656D1*Y145228D2*X259906D1*Y144429D2*X193656D1*Y143631D2*X259906D1*Y142832D2*X193656D1*Y142034D2*X259906D1*Y141235D2*X193656D1*Y140437D2*X259906D1*Y139638D2*X193656D1*Y138840D2*X259906D1*X123806Y134048D2*X192256D1*Y133250D2*X123806D1*Y132451D2*X192256D1*Y131653D2*X123806D1*Y130854D2*X192256D1*Y130056D2*X123806D1*Y129257D2*X192256D1*Y128459D2*X123806D1*Y127660D2*X192256D1*Y126862D2*X123806D1*Y126063D2*X192256D1*Y125265D2*X123806D1*Y124466D2*X192256D1*Y123668D2*X123806D1*Y122869D2*X192256D1*Y122071D2*X123806D1*Y121272D2*X192256D1*Y120474D2*X123806D1*Y119675D2*X192256D1*Y118877D2*X123806D1*Y118078D2*X192256D1*Y117280D2*X123806D1*X123573Y116481D2*X192256D1*X127753Y115683D2*X122775D1*X139564D2*X130642D1*X131188Y114884D2*X139018D1*Y114086D2*X131188D1*X133037Y113287D2*X137169D1*X136459Y112489D2*X133747D1*Y111690D2*X136459D1*X136495Y110892D2*X133710D1*X132912Y110093D2*X137294D1*X139018Y109295D2*X131188D1*Y108496D2*X139018D1*X130022Y107203D2*X128373D1*X127207Y108369*Y109762*X125814*X124648Y110928*Y112577*X125814Y113743*X127207*Y115136*X128373Y116302*X130022*X131188Y115136*Y113743*X132581*X133747Y112577*Y110928*X132581Y109762*X131188*Y108369*X130022Y107203*X139689Y107698D2*X130516D1*X151500D2*X142327D1*X142999Y108496D2*X150829D1*Y109295D2*X142999D1*X144723Y110093D2*X149105D1*X148306Y110892D2*X145521D1*X145558Y111690D2*X148270D1*Y112489D2*X145558D1*X144848Y113287D2*X148980D1*X150829Y114086D2*X142999D1*Y114884D2*X150829D1*X142999Y115136D2*X141833Y116302D1*X140184*X139018Y115136*Y113743*X137625*X136459Y112577*Y110928*X137625Y109762*X139018*Y108369*X140184Y107203*X141833*X142999Y108369*Y109762*X144392*X145558Y110928*Y112577*X144392Y113743*X142999*Y115136*X151375Y115683D2*X142453D1*X192256D2*X154264D1*X154810Y114884D2*X192256D1*Y114086D2*X154810D1*X156659Y113287D2*X192256D1*Y112489D2*X157369D1*Y111690D2*X192256D1*Y110892D2*X157332D1*X156534Y110093D2*X192256D1*Y109295D2*X154810D1*Y108496D2*X192256D1*X153644Y107203D2*X151995D1*X150829Y108369*Y109762*X149436*X148270Y110928*Y112577*X149436Y113743*X150829*Y115136*X151995Y116302*X153644*X154810Y115136*Y113743*X156203*X157369Y112577*Y110928*X156203Y109762*X154810*Y108369*X153644Y107203*X192256Y107698D2*X154138D1*X246212Y106101D2*X193656D1*Y106899D2*X247011D1*X247810Y107698D2*X193656D1*Y108496D2*X248608D1*X249407Y109295D2*X193656D1*Y110093D2*X250205D1*X251004Y110892D2*X193656D1*Y111690D2*X251802D1*X252601Y112489D2*X193656D1*Y113287D2*X253399D1*X254198Y114086D2*X193656D1*Y114884D2*X254996D1*X255795Y115683D2*X193656D1*Y116481D2*X256593D1*X257392Y117280D2*X193656D1*Y118078D2*X258190D1*X258989Y118877D2*X193656D1*Y119675D2*X259787D1*X259906Y120474D2*X193656D1*Y121272D2*X259906D1*Y122071D2*X193656D1*Y122869D2*X259906D1*Y123668D2*X193656D1*Y124466D2*X259906D1*Y125265D2*X193656D1*Y126063D2*X259906D1*Y126862D2*X193656D1*Y127660D2*X259906D1*Y128459D2*X193656D1*Y129257D2*X259906D1*Y130056D2*X193656D1*Y130854D2*X259906D1*Y131653D2*X193656D1*Y132451D2*X259906D1*Y133250D2*X193656D1*Y134048D2*X259906D1*Y134847D2*X193656D1*Y135645D2*X259906D1*Y136444D2*X193656D1*Y137243D2*X259906D1*Y138041D2*X193656D1*X278673D2*X261306D1*Y137243D2*X277875D1*X277076Y136444D2*X261306D1*Y135645D2*X276278D1*X275479Y134847D2*X261306D1*Y134048D2*X274680D1*X273882Y133250D2*X261306D1*Y132451D2*X273083D1*X272285Y131653D2*X261306D1*Y130854D2*X271486D1*X270688Y130056D2*X261306D1*Y129257D2*X269889D1*X269756Y128459D2*X261306D1*Y127660D2*X269756D1*Y126862D2*X261306D1*Y126063D2*X269756D1*Y125265D2*X261306D1*Y124466D2*X269756D1*Y123668D2*X261306D1*Y122869D2*X269756D1*Y122071D2*X261306D1*Y121272D2*X269756D1*Y120474D2*X261306D1*Y119675D2*X269756D1*Y118877D2*X260969D1*X260170Y118078D2*X269756D1*Y117280D2*X259372D1*X258573Y116481D2*X269756D1*Y115683D2*X257775D1*X256976Y114884D2*X269756D1*Y114086D2*X256178D1*X255379Y113287D2*X269756D1*Y112489D2*X254580D1*X253782Y111690D2*X269756D1*Y110892D2*X252983D1*X252185Y110093D2*X269756D1*Y109295D2*X251386D1*X250588Y108496D2*X269756D1*Y107698D2*X249789D1*X248991Y106899D2*X269756D1*Y106101D2*X248192D1*X247394Y105302D2*X269756D1*Y104504D2*X246595D1*X245797Y103705D2*X269756D1*Y102907D2*X244998D1*X244200Y102108D2*X269756D1*Y101309D2*X243401D1*X242603Y100511D2*X269756D1*X251595Y99712D2*X241804D1*X241006Y98914D2*X250796D1*X249199Y97317D2*X239409D1*X240207Y98115D2*X249997D1*X223543Y98914D2*X239026D1*X239824Y99712D2*X225056D1*Y100511D2*X240623D1*X241421Y101309D2*X225056D1*X224988Y102108D2*X242220D1*X243018Y102907D2*X224313D1*X193656Y103705D2*X243817D1*X244615Y104504D2*X193656D1*Y105302D2*X245414D1*X176524D2*X192256D1*Y104504D2*X177293D1*Y103705D2*X192256D1*Y102907D2*X177523D1*X178322Y102108D2*X192256D1*Y101309D2*X179121D1*X179919Y100511D2*X192256D1*Y99712D2*X180718D1*X181516Y98914D2*X192256D1*Y98115D2*X182315D1*X183113Y97317D2*X192903D1*X72638Y94921D2*X181549D1*X182347Y94123D2*X72293D1*X185644Y94921D2*X185509D1*X184710Y95720D2*X185644D1*X186379Y96518D2*X183912D1*X191156Y91669D2*X188031Y94794D1*X157369Y88533D2*X187937D1*X187138Y89332D2*X156992D1*X154810Y90130D2*X186340D1*X185541Y90929D2*X154810D1*X154597Y91727D2*X184743D1*X153644Y92680D2*X154810Y91514D1*Y90121*X156203*X157369Y88955*Y87306*X156203Y86140*X154810*Y84747*X153644Y83581*X151995*X150829Y84747*Y86140*X149436*X148270Y87306*Y88955*X149436Y90121*X150829*Y91514*X151995Y92680*X153644*X183944Y92526D2*X153798D1*X72293Y93324D2*X183146D1*X128218Y92526D2*X71639D1*X26306Y91727D2*X127420D1*X127207Y90929D2*X26306D1*Y90130D2*X127207D1*X31287Y89332D2*X26306D1*Y88533D2*X30488D1*X29690Y87735D2*X26306D1*Y86936D2*X29656D1*Y86138D2*X26306D1*Y85339D2*X29656D1*Y84541D2*X26306D1*Y83742D2*X30301D1*X31100Y82944D2*X26306D1*Y82145D2*X31898D1*X73106Y81347D2*X26306D1*X35414Y82145D2*X73106D1*Y82944D2*X36213D1*X37011Y83742D2*X73106D1*X73033Y84541D2*X37656D1*Y85339D2*X72519D1*Y86138D2*X37656D1*Y86936D2*X72519D1*X37656Y87701D2*Y84387D1*X35313Y82044*X31999*X29656Y84387*Y87701*X31999Y90044*X35313*X37656Y87701*X73220Y87735D2*X37622D1*X124648D2*X76592D1*X77293Y86936D2*X125018D1*X127207Y86138D2*X77293D1*Y85339D2*X127207D1*X76706Y84468D2*Y62470D1*X77667Y63431*X79645*X80632Y62444*X81736*X98249Y45931*X99645*X101043Y44533*Y42555*X99645Y41157*X97667*X96269Y42555*Y43952*X80604Y59616*X79645Y58657*X77667*X76706Y59618*Y52798*X76043Y52136*Y51305*X74645Y49907*X72667*X71269Y51305*Y53283*X72667Y54681*X73106*Y84468*X72519Y85055*Y87033*X73917Y88431*X75895*X77293Y87033*Y85055*X76706Y84468*X127413Y84541D2*X76779D1*X128373Y83581D2*X127207Y84747D1*Y86140*X125814*X124648Y87306*Y88955*X125814Y90121*X127207*Y91514*X128373Y92680*X130022*X131188Y91514*Y90121*X132581*X133747Y88955*Y87306*X132581Y86140*X131188*Y84747*X130022Y83581*X128373*X76706Y83742D2*X128212D1*X194356Y82944D2*X76706D1*X183480Y83742D2*X193832D1*X193769Y84541D2*X184279D1*X184793Y85339D2*X193769D1*X194123Y86138D2*X184793D1*Y86936D2*X194922D1*X183395Y88431D2*X184793Y87033D1*Y85055*X183395Y83657*X181417*X180430Y84644*X178132*X177145Y83657*X175167*X173769Y85055*Y87033*X175167Y88431*X177145*X178132Y87444*X180430*X181417Y88431*X183395*X229214Y87735D2*X184092D1*X248506D2*X231848D1*X232647Y88533D2*X248506D1*Y89332D2*X232918D1*Y90130D2*X248506D1*X230531Y89794D2*X188656D1*X174906Y103544*X154430Y103705D2*X172519D1*Y102907D2*X154810D1*Y102108D2*X172966D1*X173764Y101309D2*X156826D1*X157369Y100511D2*X175959D1*X176758Y99712D2*X157369D1*X157166Y98914D2*X177556D1*X178355Y98115D2*X156367D1*X154810Y97317D2*X179153D1*X179952Y96518D2*X154770D1*X153972Y95720D2*X180750D1*X142161D2*X151667D1*X150869Y96518D2*X142959D1*X142999Y97317D2*X150829D1*X149272Y98115D2*X144556D1*X145355Y98914D2*X148473D1*X148270Y99712D2*X145558D1*Y100511D2*X148270D1*X148813Y101309D2*X145015D1*X142999Y102108D2*X150829D1*Y102907D2*X142999D1*X150829Y103325D2*X151995Y104491D1*X153644*X154810Y103325*Y101932*X156203*X157369Y100766*Y99117*X156203Y97951*X154810*Y96558*X153644Y95392*X151995*X150829Y96558*Y97951*X149436*X148270Y99117*Y100766*X149436Y101932*X150829*Y103325*X142619Y103705D2*X151209D1*X130808D2*X139398D1*X139018Y102907D2*X131188D1*Y102108D2*X139018D1*X137002Y101309D2*X133204D1*X133747Y100511D2*X136459D1*Y99712D2*X133747D1*X133544Y98914D2*X136662D1*X137461Y98115D2*X132745D1*X131188Y97317D2*X139018D1*X139058Y96518D2*X131148D1*X140184Y95392D2*X139018Y96558D1*Y97951*X137625*X136459Y99117*Y100766*X137625Y101932*X139018*Y103325*X140184Y104491*X141833*X142999Y103325*Y101932*X144392*X145558Y100766*Y99117*X144392Y97951*X142999*Y96558*X141833Y95392*X140184*X130350Y95720D2*X139856D1*X73437D2*X128045D1*X127247Y96518D2*X74235D1*X75034Y97317D2*X127207D1*X125650Y98115D2*X75832D1*X76631Y98914D2*X124851D1*X124648Y99712D2*X77429D1*X78228Y100511D2*X124648D1*X86264Y101309D2*X79026D1*X79825Y102108D2*X85466D1*X85019Y102907D2*X80623D1*X81306Y103705D2*X85019D1*Y104504D2*X81306D1*Y105302D2*X85788D1*X87689Y106101D2*X81306D1*Y106899D2*X88342D1*X80412Y117280D2*X72643D1*X86168Y115683D2*X82775D1*X81976Y114884D2*X85370D1*X85019Y114086D2*X81306D1*Y113287D2*X85019D1*X85085Y112489D2*X81306D1*Y111690D2*X85884D1*X91609Y110892D2*X81306D1*Y110093D2*X90955D1*X90302Y109295D2*X81306D1*Y108496D2*X89649D1*X88995Y107698D2*X81306D1*X90653Y105302D2*X91269D1*X91820Y104504D2*X90000D1*X89793Y103705D2*X92619D1*X127207Y102907D2*X89793D1*X127207Y103325D2*X128373Y104491D1*X130022*X131188Y103325*Y101932*X132581*X133747Y100766*Y99117*X132581Y97951*X131188*Y96558*X130022Y95392*X128373*X127207Y96558*Y97951*X125814*X124648Y99117*Y100766*X125814Y101932*X127207*Y103325*X94693Y103705D2*X127587D1*X172519Y104504D2*X95492D1*X96043Y105302D2*X173288D1*X192256Y106899D2*X96491D1*X96043Y106101D2*X192256D1*X93656Y106044D2*X96156Y108544D1*X113656*X122406Y117294*Y147294*X124906Y149794*X131156*X153656*X161156Y154794*X192256Y156407D2*X162920D1*X163543Y155608D2*X192256D1*Y154810D2*X163543D1*Y154011D2*X192256D1*Y153213D2*X162951D1*X162152Y152414D2*X192256D1*X160110D2*X160160D1*X192256Y151616D2*X158912D1*X157715Y150817D2*X192256D1*Y150019D2*X156517D1*X155319Y149220D2*X192256D1*Y148422D2*X154263D1*X132361Y147623D2*X192256D1*X124715D2*X129951D1*X192256Y146825D2*X123916D1*X123806Y146026D2*X192256D1*Y145228D2*X123806D1*Y144429D2*X192256D1*Y143631D2*X123806D1*Y142832D2*X192256D1*Y142034D2*X123806D1*Y141235D2*X192256D1*Y140437D2*X123806D1*Y139638D2*X192256D1*Y138840D2*X123806D1*Y138041D2*X192256D1*Y137243D2*X123806D1*Y136444D2*X192256D1*Y135645D2*X123806D1*Y134847D2*X192256D1*X43573D2*X113506D1*Y135645D2*X44892D1*X45691Y136444D2*X113506D1*Y137243D2*X46249D1*X46580Y138041D2*X113506D1*Y138840D2*X46911D1*X46955Y139638D2*X113506D1*Y140437D2*X46955D1*X46954Y141235D2*X113506D1*Y142034D2*X46623D1*X46292Y142832D2*X113506D1*Y143631D2*X45795D1*X44996Y144429D2*X113506D1*Y145228D2*X43824D1*X26306Y146026D2*X113506D1*X38586Y145228D2*X26306D1*Y144429D2*X37414D1*X36616Y143631D2*X26306D1*Y142832D2*X36118D1*X35787Y142034D2*X26306D1*Y141235D2*X35457D1*X35456Y140437D2*X26306D1*Y139638D2*X35456D1*X35500Y138840D2*X26306D1*Y138041D2*X35831D1*X36161Y137243D2*X26306D1*Y136444D2*X36720D1*X37518Y135645D2*X26306D1*X37948Y135215D2*X40062Y134340D1*X42349*X44462Y135215*X46079Y136833*X46955Y138946*Y141233*X46079Y143346*X44462Y144963*X42349Y145839*X40062*X37948Y144963*X36331Y143346*X35456Y141233*Y138946*X36331Y136833*X37948Y135215*X26306Y134847D2*X38838D1*X113506Y134048D2*X26306D1*Y133250D2*X113506D1*Y132451D2*X26306D1*Y131653D2*X113506D1*Y130854D2*X26306D1*Y130056D2*X113506D1*Y129257D2*X26306D1*Y128459D2*X113506D1*Y127660D2*X26306D1*Y126862D2*X113506D1*Y126063D2*X26306D1*Y125265D2*X113506D1*Y124466D2*X26306D1*Y123668D2*X113506D1*Y122869D2*X26306D1*Y122071D2*X113506D1*X79613Y116481D2*X26306D1*Y115683D2*X78815D1*X78506Y114884D2*X26306D1*Y114086D2*X78506D1*Y113287D2*X26306D1*Y112489D2*X78506D1*Y111690D2*X26306D1*Y110892D2*X78506D1*Y110093D2*X26306D1*Y109295D2*X78506D1*Y108496D2*X26306D1*Y107698D2*X78506D1*Y106899D2*X26306D1*Y106101D2*X78506D1*Y105302D2*X26306D1*Y104504D2*X78261D1*X77462Y103705D2*X26306D1*Y102907D2*X76664D1*X75865Y102108D2*X26306D1*Y101309D2*X75067D1*X74268Y100511D2*X26306D1*Y99712D2*X73470D1*X72671Y98914D2*X26306D1*Y98115D2*X71872D1*X71074Y97317D2*X26306D1*Y96518D2*X68879D1*X68081Y95720D2*X26306D1*Y94921D2*X67519D1*Y94123D2*X26306D1*X69906Y94169D2*X79906Y104169D1*Y114794*X82406Y117294*X88656*X91781Y114169*X111781*X97152Y118078D2*X111210D1*X112009Y118877D2*X96194D1*X95235Y119675D2*X112807D1*X113506Y120474D2*X94331D1*X72429Y121272D2*X113506D1*X26306D2*X69883D1*X69084Y120474D2*X26306D1*Y119675D2*X68769D1*Y118877D2*X26306D1*Y118078D2*X68871D1*X69669Y117280D2*X26306D1*X71156Y119169D2*X93656D1*X97406Y116044*X111156*X114906Y119794*Y146669*X113656Y147919*X109281*X102406Y154794*Y174794*X107406*X111156Y171044*X111736Y172444D2*X120491D1*Y172580*X121076Y173166*X126236*X126821Y172580*Y167815*X126236Y167229*X121076*X120491Y167815*Y169644*X110576*X106826Y173394*X104382*X103806Y172818*Y155374*X106269Y152911*Y154533*X107667Y155931*X109645*X111043Y154533*Y152555*X110084Y151596*X110486Y151194*X112630*X111269Y152555*Y154533*X112667Y155931*X114645*X116043Y154533*Y153137*X119236Y149944*X119906Y149274*X119951Y149319*X124326Y153694*X147519*Y154533*X148917Y155931*X150895*X152293Y154533*Y152555*X150932Y151194*X153232*X158769Y154885*Y155783*X160167Y157181*X162145*X163543Y155783*Y153805*X162145Y152407*X160167*X160140Y152434*X154548Y148706*X154236Y148394*X154080*X153950Y148308*X153517Y148394*X133132*X132145Y147407*X130167*X129180Y148394*X125486*X123806Y146714*Y116714*X122986Y115894*X115056Y107964*X114236Y107144*X96736*X96043Y106452*Y105055*X94645Y103657*X92667*X91269Y105055*Y106054*X89793Y104251*Y102555*X88395Y101157*X86417*X85019Y102555*Y104533*X86417Y105931*X87550*X91611Y110894*X88076*X87814Y111157*X86417*X85019Y112555*Y114533*X86380Y115894*X82986*X81306Y114214*Y103589*X72293Y94577*Y93180*X70895Y91782*X68917*X67519Y93180*Y95158*X68917Y96556*X70314*X78506Y104749*Y115374*X79326Y116194*X80901Y117769*X73132*X72145Y116782*X70167*X68769Y118180*Y120158*X70167Y121556*X72145*X73132Y120569*X93593*X94107Y120616*X94163Y120569*X94236*X94601Y120204*X97913Y117444*X110576*X113506Y120374*Y146089*X113076Y146519*X108701*X107881Y147339*X101006Y154214*Y172818*X100019Y173805*Y175783*X101417Y177181*X103395*X104382Y176194*X107986*X108806Y175374*X111736Y172444*X131273Y173176D2*X111004D1*X192256D2*X134789D1*X141066Y173974D2*X192256D1*Y174773D2*X141864D1*X142663Y175571D2*X192256D1*Y176370D2*X143461D1*X144260Y177168D2*X192256D1*Y177967D2*X145058D1*X145857Y178765D2*X192256D1*Y179564D2*X146655D1*X147454Y180362D2*X192256D1*Y181161D2*X148252D1*X149051Y181959D2*X192256D1*Y182758D2*X149849D1*X150648Y183556D2*X192256D1*Y184355D2*X151447D1*X152245Y185153D2*X192256D1*Y188347D2*X155439D1*X154641Y187549D2*X192256D1*Y186750D2*X153842D1*X153044Y185952D2*X192256D1*X136156Y181044D2*X146156Y191044D1*X141897Y178765D2*X137253D1*X138052Y179564D2*X142696D1*X143494Y180362D2*X138543D1*Y181161D2*X144293D1*X145091Y181959D2*X139051D1*X139849Y182758D2*X145890D1*X146688Y183556D2*X140648D1*X141447Y184355D2*X147487D1*X148285Y185153D2*X142245D1*X143044Y185952D2*X149084D1*X149882Y186750D2*X143842D1*X144641Y187549D2*X150681D1*X151479Y188347D2*X145439D1*X147634Y189146D2*X152278D1*X153076Y189944D2*X148432D1*X148543Y190743D2*X153769D1*Y191541D2*X148543D1*X148237Y192340D2*X154075D1*X154874Y193138D2*X147438D1*X192256D2*X157438D1*X158237Y192340D2*X192256D1*Y191541D2*X158543D1*Y190743D2*X192256D1*Y189944D2*X158432D1*X157634Y189146D2*X192256D1*X156156Y191044D2*X139906Y174794D1*X133031*X139502Y176370D2*X134832D1*X134033Y177168D2*X140300D1*X134020Y177181D2*X135007Y176194D1*X139326*X153769Y190637*Y192033*X155167Y193431*X157145*X158543Y192033*Y190055*X157145Y188657*X155749*X140486Y173394*X135007*X134020Y172407*X132042*X130644Y173805*Y175783*X132042Y177181*X134020*X126821Y178765D2*X135059D1*X126821Y179273D2*Y174508D1*X126236Y173922*X121076*X120491Y174508*Y175894*X118132*X117145Y174907*X115167*X113769Y176305*Y178283*X115167Y179681*X117145*X118132Y178694*X120491*Y179273*X121076Y179859*X126236*X126821Y179273*X134260Y179564D2*X126531D1*X62828Y180362D2*X133769D1*Y181161D2*X62713D1*X62598Y181959D2*X133769D1*X134493Y182758D2*X62483D1*X62369Y183556D2*X136688D1*X137487Y184355D2*X62254D1*X61976Y185153D2*X138285D1*X139084Y185952D2*X61612D1*X61247Y186750D2*X139882D1*X140681Y187549D2*X60882D1*X60518Y188347D2*X141479D1*X142278Y189146D2*X60153D1*X59561Y189944D2*X143076D1*X143769Y190743D2*X58869D1*X58177Y191541D2*X143769D1*X144075Y192340D2*X57485D1*X145167Y193431D2*X147145D1*X148543Y192033*Y190055*X147145Y188657*X145749*X138543Y181452*Y180055*X137145Y178657*X135167*X133769Y180055*Y182033*X135167Y183431*X136564*X143769Y190637*Y192033*X145167Y193431*X56793Y193138D2*X144874D1*X192256Y193937D2*X55690D1*X54447Y194735D2*X192256D1*Y195534D2*X53205D1*X51655Y196332D2*X192256D1*Y197131D2*X48936D1*X193656Y197744D2*Y98544D1*X217256*Y98769*X218805*X218769Y98805*Y99569*X217256*Y101853*X217351Y102209*X217536Y102529*X217796Y102789*X218116Y102974*X218472Y103069*X220756*Y102181*X221556*Y103069*X223840*X224196Y102974*X224516Y102789*X224776Y102529*X224961Y102209*X225056Y101853*Y99569*X223543*Y98805*X223507Y98769*X225056*Y98544*X238656*X259906Y119794*Y155314*X259064Y156157*X257667*X256269Y157555*Y159533*X257667Y160931*X259645*X259906Y160670*Y197744*X193656*X259906Y197131D2*X193656D1*X259906Y194735D2*X258122D1*X258906Y193937D2*X259906D1*Y193138D2*X258906D1*Y192340D2*X259906D1*Y191541D2*X258906D1*Y190743D2*X259906D1*Y189944D2*X258213D1*X257415Y189146D2*X259906D1*Y188347D2*X256616D1*X193656Y187549D2*X259906D1*X200873Y188347D2*X193656D1*Y189146D2*X200506D1*Y189944D2*X193656D1*Y190743D2*X200506D1*Y191541D2*X193656D1*X208848Y196332D2*X212722D1*X211923Y195534D2*X209291D1*X209306Y194735D2*X211125D1*X210506Y193937D2*X209306D1*Y193138D2*X210506D1*Y191541D2*X209306D1*Y190743D2*X210506D1*X211033Y189944D2*X209306D1*Y189146D2*X211832D1*X212630Y188347D2*X208939D1*X215306D2*X214506D1*Y189146D2*X215306D1*Y189944D2*X214506D1*Y190743D2*X215306D1*Y191541D2*X214506D1*Y193937D2*X215306D1*Y194735D2*X214506D1*Y195534D2*X215306D1*Y196332D2*X214506D1*X217090D2*X222722D1*X221923Y195534D2*X217889D1*X218687Y194735D2*X221125D1*X220506Y193937D2*X219306D1*Y193138D2*X220506D1*Y191541D2*X219306D1*Y190743D2*X220506D1*X221033Y189944D2*X218779D1*X217980Y189146D2*X221832D1*X222630Y188347D2*X217182D1*X225306D2*X224506D1*Y189146D2*X225306D1*Y189944D2*X224506D1*Y190743D2*X225306D1*Y191541D2*X224506D1*Y193937D2*X225306D1*Y194735D2*X224506D1*Y195534D2*X225306D1*Y196332D2*X224506D1*X232722D2*X227090D1*X227889Y195534D2*X231923D1*X231125Y194735D2*X228687D1*X229306Y193937D2*X230506D1*Y193138D2*X229306D1*Y191541D2*X230506D1*Y190743D2*X229306D1*X228779Y189944D2*X231033D1*X231832Y189146D2*X227980D1*X227182Y188347D2*X232630D1*X232907Y185952D2*X226905D1*X227704Y185153D2*X232108D1*X231310Y184355D2*X228502D1*X228906Y183556D2*X230906D1*Y182758D2*X228906D1*Y181959D2*X230906D1*Y181161D2*X228906D1*X228631Y180362D2*X231181D1*X231980Y179564D2*X227832D1*X227034Y178765D2*X232778D1*X225306Y176370D2*X224506D1*Y177168D2*X225306D1*X223249Y178294D2*X220906Y180637D1*Y183951*X223249Y186294*X226563*X228906Y183951*Y180637*X226563Y178294*X223249*X217034Y178765D2*X222778D1*X221674Y177168D2*X218138D1*X218275Y176370D2*X221538D1*Y175571D2*X218275D1*Y173974D2*X221538D1*Y173176D2*X218275D1*Y172377D2*X221538D1*X221694Y171578D2*X218118D1*X217372Y170780D2*X222440D1*X221938Y169981D2*X217875D1*Y169183D2*X221938D1*Y168384D2*X217875D1*Y167586D2*X221938D1*X214906Y162294D2*Y167698D1*X206388Y160399D2*X213424D1*X212626Y161198D2*X207186D1*X207293Y161996D2*X212519D1*Y162795D2*X207293D1*X206983Y163593D2*X212829D1*X213506Y164392D2*X206306D1*X207875Y165190D2*X211938D1*Y165989D2*X207875D1*Y166787D2*X211938D1*Y167586D2*X207875D1*Y168384D2*X211938D1*Y169183D2*X207875D1*Y169981D2*X211938D1*X212440Y170780D2*X207372D1*X208118Y171578D2*X211694D1*X211538Y172377D2*X208275D1*Y173176D2*X211538D1*Y173974D2*X208275D1*Y175571D2*X211538D1*Y176370D2*X208275D1*X208138Y177168D2*X211674D1*X212778Y178765D2*X207034D1*X207832Y179564D2*X211980D1*X211181Y180362D2*X208631D1*X208906Y181161D2*X210906D1*Y181959D2*X208906D1*Y182758D2*X210906D1*Y183556D2*X208906D1*X208502Y184355D2*X211310D1*X212108Y185153D2*X207704D1*X213249Y186294D2*X216563D1*X218906Y183951*Y180637*X216563Y178294*X213249*X210906Y180637*Y183951*X213249Y186294*X206905Y185952D2*X212907D1*X206563Y186294D2*X208906Y183951D1*Y180637*X206563Y178294*X203249*X200906Y180637*Y183951*X203249Y186294*X206563*X204506Y188347D2*X205306D1*Y189146D2*X204506D1*Y189944D2*X205306D1*Y190743D2*X204506D1*Y191541D2*X205306D1*Y193937D2*X204506D1*Y194735D2*X205306D1*Y195534D2*X204506D1*Y196332D2*X205306D1*X193656D2*X200964D1*X200521Y195534D2*X193656D1*Y194735D2*X200506D1*Y193937D2*X193656D1*Y193138D2*X200506D1*X204506Y192340D2*X193656D1*X205306Y193138D2*X204506D1*X205306Y192694D2*X204506D1*Y196694*X201722*X201366Y196599*X201046Y196414*X200786Y196154*X200601Y195834*X200506Y195478*Y192694*X204506*Y191894*X200506*Y189110*X200601Y188754*X200786Y188434*X201046Y188174*X201366Y187990*X201722Y187894*X204506*Y191894*X205306*X209306*Y189110*X209211Y188754*X209026Y188434*X208766Y188174*X208446Y187990*X208090Y187894*X205306*Y191894*Y192694*Y196694*X208090*X208446Y196599*X208766Y196414*X209026Y196154*X209211Y195834*X209306Y195478*Y192694*X205306*X214506Y192340D2*X205306D1*X215306Y193138D2*X214506D1*X215306Y192694D2*X214506D1*Y196694*X213083*X210506Y194117*Y192694*X214506*Y191894*X210506*Y190472*X213083Y187894*X214506*Y191894*X215306*X219306*Y190472*X216729Y187894*X215306*Y191894*Y192694*Y196694*X216729*X219306Y194117*Y192694*X215306*X224506Y192340D2*X215306D1*X225306Y193138D2*X224506D1*X225306Y192694D2*X224506D1*Y196694*X223083*X220506Y194117*Y192694*X224506*Y191894*X220506*Y190472*X223083Y187894*X224506*Y191894*X225306*X229306*Y190472*X226729Y187894*X225306*Y191894*Y192694*Y196694*X226729*X229306Y194117*Y192694*X225306*X234506Y192340D2*X225306D1*X235306Y193138D2*X234506D1*X244506Y192340D2*X235306D1*X245306Y193138D2*X244506D1*Y193937D2*X245306D1*Y194735D2*X244506D1*Y195534D2*X245306D1*X244506Y196694D2*Y192694D1*X240506*Y194117*X243083Y196694*X244506*X245306Y196332D2*X244506D1*X259906D2*X247090D1*X257323Y195534D2*X259906D1*X247889D2*X252489D1*X251690Y194735D2*X248687D1*X250906Y193951D2*X253249Y196294D1*X256563*X258906Y193951*Y190637*X256563Y188294*X253249*X250906Y190637*Y193951*X249306Y193937D2*X250906D1*Y193138D2*X249306D1*X245306Y192340D2*X250906D1*X244506Y191541D2*X245306D1*Y190743D2*X244506D1*Y189944D2*X245306D1*Y189146D2*X244506D1*Y188347D2*X245306D1*X243083Y187894D2*X240506Y190472D1*Y191894*X244506*Y192694*X245306*Y196694*X246729*X249306Y194117*Y192694*X245306*Y191894*X249306*Y190472*X246729Y187894*X245306*Y191894*X244506*Y187894*X243083*X237182Y188347D2*X242630D1*X236729Y187894D2*X239306Y190472D1*Y191894*X235306*Y192694*Y196694*X236729*X239306Y194117*Y192694*X235306*X234506*Y196694*X233083*X230506Y194117*Y192694*X234506*Y191894*X230506*Y190472*X233083Y187894*X234506*Y191894*X235306*Y187894*X236729*X242907Y185952D2*X236905D1*X237704Y185153D2*X242108D1*X241310Y184355D2*X238502D1*X238906Y183556D2*X240906D1*Y182758D2*X238906D1*Y181959D2*X240906D1*Y181161D2*X238906D1*X238631Y180362D2*X241181D1*X241980Y179564D2*X237832D1*X243249Y178294D2*X240906Y180637D1*Y183951*X243249Y186294*X246563*X248906Y183951*Y180637*X246563Y178294*X243249*X237034Y178765D2*X242778D1*X236563Y178294D2*X238906Y180637D1*Y183951*X236563Y186294*X233249*X230906Y183951*Y180637*X233249Y178294*X236563*X259906Y177168D2*X238138D1*X238275Y176370D2*X259906D1*Y175571D2*X238275D1*X235306Y174773D2*X259906D1*X235306Y174791D2*X238275D1*Y176740*X238179Y177096*X237995Y177416*X237734Y177676*X237415Y177860*X237059Y177956*X235306*Y174791*X234506Y175571D2*X235306D1*X234506Y174791D2*X231538D1*Y176740*X231633Y177096*X231817Y177416*X232078Y177676*X232397Y177860*X232753Y177956*X234506*Y174791*X235306*Y173991*X238275*Y172041*X238179Y171685*X237995Y171366*X237734Y171105*X237415Y170921*X237200Y170863*X237289*X237875Y170277*Y165118*X237289Y164532*X236306*Y164270*X237293Y163283*Y161305*X235895Y159907*X233917*X232519Y161305*Y163283*X233506Y164270*Y164532*X232523*X231938Y165118*Y170277*X232523Y170863*X232612*X232397Y170921*X232078Y171105*X231817Y171366*X231633Y171685*X231538Y172041*Y173991*X234506*Y174791*X225306Y174773D2*X234506D1*X225306Y174791D2*X228275D1*Y176740*X228179Y177096*X227995Y177416*X227734Y177676*X227415Y177860*X227059Y177956*X225306*Y174791*X224506Y175571D2*X225306D1*X224506Y174791D2*X221538D1*Y176740*X221633Y177096*X221817Y177416*X222078Y177676*X222397Y177860*X222753Y177956*X224506*Y174791*X225306*Y173991*X228275*Y172041*X228179Y171685*X227995Y171366*X227734Y171105*X227415Y170921*X227200Y170863*X227289*X227875Y170277*Y165118*X227289Y164532*X226306*Y164270*X227293Y163283*Y161305*X225895Y159907*X223917*X222519Y161305*Y163283*X223506Y164270*Y164532*X222523*X221938Y165118*Y170277*X222523Y170863*X222612*X222397Y170921*X222078Y171105*X221817Y171366*X221633Y171685*X221538Y172041*Y173991*X224506*Y174791*X215306Y174773D2*X224506D1*X215306Y174791D2*X218275D1*Y176740*X218179Y177096*X217995Y177416*X217734Y177676*X217415Y177860*X217059Y177956*X215306*Y174791*X214506Y175571D2*X215306D1*X214506Y174791D2*X211538D1*Y176740*X211633Y177096*X211817Y177416*X212078Y177676*X212397Y177860*X212753Y177956*X214506*Y174791*X215306*Y173991*X218275*Y172041*X218179Y171685*X217995Y171366*X217734Y171105*X217415Y170921*X217200Y170863*X217289*X217875Y170277*Y165118*X217289Y164532*X216306*Y164270*X217293Y163283*Y161305*X215895Y159907*X213917*X212519Y161305*Y163283*X213506Y164270*Y164532*X212523*X211938Y165118*Y170277*X212523Y170863*X212612*X212397Y170921*X212078Y171105*X211817Y171366*X211633Y171685*X211538Y172041*Y173991*X214506*Y174791*X205306Y174773D2*X214506D1*X205306Y174791D2*X208275D1*Y176740*X208179Y177096*X207995Y177416*X207734Y177676*X207415Y177860*X207059Y177956*X205306*Y174791*X204506Y175571D2*X205306D1*X193656Y174773D2*X204506D1*X201538Y173974D2*X193656D1*Y173176D2*X201538D1*Y172377D2*X193656D1*Y171578D2*X201694D1*X202440Y170780D2*X193656D1*Y169981D2*X201938D1*Y169183D2*X193656D1*Y168384D2*X201938D1*Y167586D2*X193656D1*Y166787D2*X201938D1*Y165989D2*X193656D1*Y165190D2*X201938D1*X203506Y164392D2*X193656D1*Y163593D2*X202829D1*X202519Y162795D2*X193656D1*Y161996D2*X202519D1*X202626Y161198D2*X193656D1*X203917Y159907D2*X202519Y161305D1*Y163283*X203506Y164270*Y164532*X202523*X201938Y165118*Y170277*X202523Y170863*X202612*X202397Y170921*X202078Y171105*X201817Y171366*X201633Y171685*X201538Y172041*Y173991*X204506*Y174791*X201538*Y176740*X201633Y177096*X201817Y177416*X202078Y177676*X202397Y177860*X202753Y177956*X204506*Y174791*X205306*Y173991*X208275*Y172041*X208179Y171685*X207995Y171366*X207734Y171105*X207415Y170921*X207200Y170863*X207289*X207875Y170277*Y165118*X207289Y164532*X206306*Y164270*X207293Y163283*Y161305*X205895Y159907*X203917*X193656Y160399D2*X203424D1*X242519Y159601D2*X193656D1*Y158802D2*X242522D1*X243306Y158004D2*X193656D1*Y157205D2*X243306D1*Y156407D2*X193656D1*Y155608D2*X243306D1*Y154810D2*X193656D1*Y154011D2*X243306D1*Y153213D2*X193656D1*Y152414D2*X242900D1*X198976Y151616D2*X193656D1*Y150817D2*X198178D1*X198144Y150019D2*X193656D1*Y149220D2*X198144D1*X198527Y148422D2*X193656D1*Y147623D2*X199326D1*X259906Y146825D2*X193656D1*X209861Y147623D2*X259906D1*X242519Y151616D2*X210211D1*X211009Y150817D2*X242519D1*X242555Y150019D2*X211043D1*Y149220D2*X243354D1*X211043Y148805D2*Y150783D1*X209645Y152181*X207667*X207480Y151994*X201707*X201520Y152181*X199542*X198144Y150783*Y148805*X199542Y147407*X201520*X201707Y147594*X207480*X207667Y147407*X209645*X211043Y148805*X259906Y148422D2*X210660D1*X246458Y149220D2*X259906D1*Y150019D2*X247257D1*X247293Y150817D2*X259906D1*Y151616D2*X247293D1*X246912Y152414D2*X259906D1*X246506Y152820D2*X247293Y152033D1*Y150055*X245895Y148657*X243917*X242519Y150055*Y152033*X243306Y152820*Y158018*X242519Y158805*Y160783*X243917Y162181*X245895*X247293Y160783*Y158805*X246506Y158018*Y152820*X259906Y153213D2*X246506D1*X262007D2*X261306D1*Y152414D2*X262806D1*X263605Y151616D2*X261306D1*Y150817D2*X264403D1*X265202Y150019D2*X261306D1*Y149220D2*X266000D1*X266799Y148422D2*X261306D1*Y147623D2*X267256D1*Y146825D2*X261306D1*Y146026D2*X267256D1*Y145228D2*X261306D1*Y144429D2*X267256D1*X266616Y143631D2*X261306D1*Y142832D2*X266269D1*Y142034D2*X261306D1*Y141235D2*X266339D1*X267137Y140437D2*X261306D1*X268656Y148544D2*Y142294D1*X299097Y146825D2*X270056D1*Y147623D2*X299097D1*X283122Y148422D2*X270056D1*Y146026D2*X282981D1*X282183Y145228D2*X270056D1*Y144429D2*X281384D1*X280906Y143631D2*X270696D1*X271043Y142832D2*X280906D1*Y142034D2*X271043D1*X270973Y141235D2*X280906D1*X281107Y140437D2*X270175D1*X261306Y139638D2*X281905D1*X282704Y138840D2*X261306D1*X287211Y135645D2*X289575D1*X290373Y134847D2*X288010D1*X288906Y133250D2*X290906D1*X291004Y134048D2*X288808D1*X297108Y138840D2*X299097D1*Y139638D2*X297907D1*X299097Y140437D2*X298705D1*X298906Y141235D2*X299097D1*Y142034D2*X298906D1*Y142832D2*X299097D1*Y143631D2*X298906D1*X298428Y144429D2*X299097D1*Y145228D2*X297629D1*X296831Y146026D2*X299097D1*Y148422D2*X296690D1*X297489Y149220D2*X299097D1*Y150019D2*X298287D1*X298906Y150817D2*X299097D1*Y151616D2*X298906D1*Y152414D2*X299097D1*Y153213D2*X298906D1*X298846Y154011D2*X299097D1*Y154810D2*X298047D1*X297249Y155608D2*X299097D1*X287249D2*X292563D1*X291765Y154810D2*X288047D1*X288846Y154011D2*X290966D1*X290906Y153213D2*X288906D1*Y152414D2*X290906D1*Y151616D2*X288906D1*Y150817D2*X290906D1*X291525Y150019D2*X288287D1*X287489Y149220D2*X292323D1*X286563Y148294D2*X283249D1*X280906Y150637*Y153951*X283249Y156294*X286563*X288906Y153951*Y150637*X286563Y148294*X293122Y148422D2*X286690D1*X293249Y148294D2*X290906Y150637D1*Y153951*X293249Y156294*X296563*X298906Y153951*Y150637*X296563Y148294*X293249*X286831Y146026D2*X292981D1*X292183Y145228D2*X287629D1*X288428Y144429D2*X291384D1*X290906Y143631D2*X288906D1*Y142832D2*X290906D1*Y142034D2*X288906D1*X290906Y140637D2*Y143951D1*X293249Y146294*X296563*X298906Y143951*Y140637*X296563Y138294*X293249*X290906Y140637*X288906Y141235D2*X290906D1*X291107Y140437D2*X288705D1*X287907Y139638D2*X291905D1*X292704Y138840D2*X287108D1*X299097Y138041D2*X291139D1*X291938Y137243D2*X299097D1*Y136444D2*X292736D1*X297211Y135645D2*X299097D1*Y134847D2*X298010D1*X298808Y134048D2*X299097D1*Y133250D2*X298906D1*Y132451D2*X299097D1*Y131653D2*X298906D1*Y130854D2*X299097D1*Y130056D2*X298325D1*X297526Y129257D2*X299097D1*Y128459D2*X296728D1*X291520Y127660D2*X299097D1*Y126862D2*X292318D1*X296794Y126063D2*X299097D1*Y125265D2*X297592D1*X299097Y124466D2*X298391D1*X298906Y123668D2*X299097D1*Y122869D2*X298906D1*Y122071D2*X299097D1*X289906Y127294D2*X294906Y122294D1*X287592Y125265D2*X289955D1*X290754Y124466D2*X288391D1*X288906Y123668D2*X290906D1*Y122869D2*X288906D1*Y122071D2*X290906D1*Y121272D2*X288906D1*X288743Y120474D2*X291070D1*X291868Y119675D2*X287944D1*X287146Y118877D2*X292667D1*X289538Y115683D2*X287174D1*X287973Y114884D2*X290336D1*X291041Y114086D2*X288771D1*X288906Y113287D2*X290906D1*Y112489D2*X288906D1*X294906Y112294D2*X289906Y117294D1*X281781*X278656Y114169*Y108544*X276781Y106669*Y90419*X270531Y83857*X263344*X255844Y90732*Y86044D2*X252406Y89794D1*Y94794*X253656Y96044*X272406*X273656Y97294*Y118544*X282406Y127294*X289906*X292286Y129257D2*X287526D1*X288325Y130056D2*X291487D1*X290906Y130854D2*X288906D1*Y131653D2*X290906D1*Y132451D2*X288906D1*X294906Y132294D2*X289906Y137294D1*X279906*X271156Y128544*Y99794*X269906Y98544*X252406*X249906Y96044*Y84794*X252406Y82294*X197956Y80548D2*X253111D1*X253762Y79750D2*X197956D1*X239750Y78951D2*X254560D1*X254576Y78153D2*X240549D1*X241043Y77354D2*X253777D1*X253456Y76556D2*X241043D1*Y75757D2*X253456D1*X253553Y74959D2*X240322D1*X254855Y73657D2*X253456Y75055D1*Y77033*X254855Y78431*X256564*X256789Y78657*X254855*X253456Y80055*Y80423*X252159Y80894*X251826*X251636Y81085*X251383Y81177*X251242Y81479*X249326Y83394*X248506Y84214*Y96624*X251006Y99124*X251826Y99944*X269326*X269756Y100374*Y129124*X278506Y137874*X279326Y138694*X282849*X280906Y140637*Y143951*X283249Y146294*X286563*X288906Y143951*Y140637*X286963Y138694*X290486*X293068Y136112*X293249Y136294*X296563*X298906Y133951*Y130637*X296563Y128294*X293249*X290906Y130637*Y133951*X291088Y134133*X289326Y135894*X286963*X288906Y133951*Y130637*X286963Y128694*X290486*X293068Y126112*X293249Y126294*X296563*X298906Y123951*Y120637*X296563Y118294*X293249*X290906Y120637*Y123951*X291088Y124133*X289326Y125894*X286963*X288906Y123951*Y120637*X286963Y118694*X290486*X293068Y116112*X293249Y116294*X296563*X298906Y113951*Y110637*X296563Y108294*X293249*X290906Y110637*Y113951*X291088Y114133*X289326Y115894*X286963*X288906Y113951*Y110637*X286563Y108294*X283249*X283068Y108476*X280056Y105464*Y89809*X280068Y89243*X280056Y89231*Y89214*X279656Y88814*X272556Y81418*Y81402*X272156Y81002*X271764Y80594*X271748Y80593*X271736Y80582*X271170*X270605Y80570*X270593Y80582*X262673*X258231Y76139*Y75055*X256832Y73657*X254855*X240056Y74160D2*X254351D1*X280906Y73362D2*X240056D1*Y72563D2*X280906D1*Y71765D2*X240687D1*X241043Y70966D2*X280906D1*X281376Y70168D2*X241043D1*X240982Y69369D2*X282174D1*X282973Y68571D2*X240184D1*X283249Y68294D2*X280906Y70637D1*Y73951*X283249Y76294*X286563*X288906Y73951*Y70637*X286563Y68294*X283249*X227017Y66175D2*X280807D1*X299097Y66974D2*X227815D1*X230010Y67772D2*X299097D1*X237128Y68571D2*X230809D1*X231043Y69369D2*X236330D1*X236269Y70168D2*X231043D1*X230860Y70966D2*X236269D1*X236625Y71765D2*X230062D1*X237256Y72395D2*Y74693D1*X236269Y75680*Y77658*X237667Y79056*X239645*X241043Y77658*Y75680*X240056Y74693*Y72395*X241043Y71408*Y69430*X239645Y68032*X237667*X236269Y69430*Y71408*X237256Y72395*X225513Y72563D2*X237256D1*X220418D2*X223049D1*X222250Y71765D2*X219628D1*X224281Y70419D2*X223656Y69794D1*X204906*X197956Y71765D2*X203500D1*X202702Y70966D2*X197956D1*Y70168D2*X202519D1*Y69369D2*X197956D1*Y68571D2*X202753D1*X203552Y67772D2*X197956D1*Y66974D2*X205644D1*X205774Y66175D2*X197956D1*X207042Y64907D2*X205644Y66305D1*Y67407*X203917*X202519Y68805*Y70783*X203917Y72181*X205895*X206882Y71194*X207005*X206269Y71930*Y73908*X207667Y75306*X209645*X210007Y74944*X216055*X217042Y75931*X219020*X220418Y74533*Y72555*X219057Y71194*X221894*Y71408*X223292Y72806*X225270*X226668Y71408*Y71183*X227667Y72181*X229645*X231043Y70783*Y68805*X229645Y67407*X228249*X226736Y65894*X210007*X209020Y64907*X207042*X197956Y65376D2*X206572D1*X218814Y64578D2*X197956D1*X260064D2*X220998D1*X221797Y63779D2*X260019D1*X259863Y62981D2*X222293D1*Y62182D2*X259064D1*X258266Y61384D2*X222293D1*X221574Y60585D2*X257467D1*X224169Y59787D2*X222039D1*X222293Y58988D2*X223370D1*X222293Y58190D2*X222572D1*X177886Y55794D2*X220176D1*X218481Y56593D2*X178685D1*X179483Y57391D2*X217682D1*X217519Y58190D2*X180282D1*X219906Y58544D2*X218656Y59794D1*X179906*X171156Y51044*X175385Y51003D2*X173095D1*X173894Y51802D2*X176184D1*X176269Y52600D2*X174692D1*X176384Y53399D2*X175491D1*X177183Y54197D2*X176289D1*X219378Y54996D2*X177088D1*X180129Y54197D2*X218579D1*X217781Y53399D2*X180928D1*X181043Y52600D2*X216982D1*X216184Y51802D2*X181043D1*X180742Y51003D2*X215385D1*X214587Y50205D2*X179943D1*X204920Y49406D2*X213788D1*X205152Y45414D2*X207296D1*X205699Y43817D2*X205510D1*X204711Y44615D2*X206497D1*X173662Y43018D2*X201269D1*X201802Y43817D2*X172863D1*X172065Y44615D2*X202601D1*X168904Y43817D2*X168543D1*Y43018D2*X169702D1*X170501Y42220D2*X168208D1*X154644Y39824D2*X171282D1*Y39026D2*X157363D1*X159234Y38227D2*X171282D1*Y37429D2*X160476D1*X161719Y36630D2*X171282D1*Y35832D2*X162942D1*X163634Y35033D2*X171282D1*Y34235D2*X164326D1*X165018Y33436D2*X171282D1*Y32638D2*X165710D1*X166373Y31839D2*X171282D1*Y31041D2*X166738D1*X167102Y30242D2*X171282D1*Y29443D2*X167467D1*X167832Y28645D2*X171282D1*Y27846D2*X168196D1*X168528Y27048D2*X171282D1*Y26249D2*X168643D1*X168758Y25451D2*X171282D1*X170845Y23055D2*X169102D1*X168987Y23854D2*X170845D1*X171224Y24652D2*X168872D1*X174374D2*X174139D1*X177523D2*X177289D1*X174082Y31839D2*X185881D1*X185083Y32638D2*X174082D1*Y33436D2*X184284D1*X183486Y34235D2*X174082D1*Y35033D2*X182687D1*X181889Y35832D2*X174082D1*Y36630D2*X181090D1*X178895Y37429D2*X174082D1*Y38227D2*X178097D1*X177519Y39026D2*X174082D1*Y39824D2*X177519D1*Y40623D2*X174082D1*Y41421D2*X178157D1*X201269Y42220D2*X174082D1*X195405Y41421D2*X201269D1*X205531Y29169D2*X198031Y36669D1*X236333Y32638D2*X206542D1*X205744Y33436D2*X235534D1*X234736Y34235D2*X204945D1*X204147Y35033D2*X233937D1*X233506Y35832D2*X203348D1*X202550Y36630D2*X233506D1*Y37429D2*X201751D1*X200953Y38227D2*X233506D1*X232518Y39026D2*X200154D1*X231719Y39824D2*X228831D1*X229321Y40623D2*X230921D1*X234060Y42698D2*X226156D1*X236645Y46212D2*X243167D1*X242369Y45414D2*X237443D1*X238242Y44615D2*X241570D1*X240906Y43817D2*X238906D1*Y43018D2*X240906D1*Y42220D2*X238906D1*Y41421D2*X240906D1*X240921Y40623D2*X238891D1*X238093Y39824D2*X241719D1*X242518Y39026D2*X237294D1*X266608Y26249D2*X273205D1*X272406Y25451D2*X267406D1*X268205Y24652D2*X271608D1*X270906Y23854D2*X268906D1*Y23055D2*X270906D1*Y22257D2*X268906D1*Y21458D2*X270906D1*Y20660D2*X268906D1*X268130Y19861D2*X271682D1*X272480Y19063D2*X267332D1*X278906Y21458D2*X280506D1*Y20660D2*X278906D1*X278130Y19861D2*X281116D1*X281915Y19063D2*X277332D1*X232513Y16667D2*X281622D1*X224906Y12294D2*X219906Y17294D1*Y24794*X215531Y29169*X205531*X194906Y12294D2*Y22294D1*X182199Y9481D2*X192063D1*X191264Y10279D2*X181401D1*X180602Y11078D2*X190906D1*Y11876D2*X180381D1*X183827Y12675D2*X190906D1*Y13473D2*X183967D1*Y14272D2*X191227D1*X186254Y15070D2*X183967D1*X168723Y18264D2*X186250D1*X171290Y19063D2*X168838D1*X168952Y19861D2*X170845D1*Y20660D2*X169067D1*X169182Y21458D2*X170845D1*Y22257D2*X169217D1*X172682Y21891D2*Y42019D1*X167406Y47294*X201269Y47011D2*X169669D1*X170468Y46212D2*X201362D1*X202160Y45414D2*X171266D1*X203656Y47294D2*X213656D1*X225531Y59169*X258031*X262406Y63544*X280506Y65376D2*X263950D1*X264748Y64578D2*X280506D1*Y63779D2*X264793D1*X280506Y62694D2*X284506D1*Y66694*X281722*X281366Y66599*X281046Y66414*X280786Y66154*X280601Y65834*X280506Y65478*Y62694*X264793Y62981D2*X280506D1*X284506Y62182D2*X264421D1*X284506Y61894D2*X280506D1*Y59110*X280601Y58754*X280786Y58434*X281046Y58174*X281366Y57990*X281722Y57894*X284506*Y61894*X285306Y61384D2*X284506D1*X285306Y61894D2*X289306D1*Y59110*X289211Y58754*X289026Y58434*X288766Y58174*X288446Y57990*X288090Y57894*X285306*Y61894*X284506*Y62694*X285306*Y66694*X288090*X288446Y66599*X288766Y66414*X289026Y66154*X289211Y65834*X289306Y65478*Y62694*X285306*Y61894*X294506Y62182D2*X285306D1*X294506Y61894D2*X290506D1*Y60472*X293083Y57894*X294506*Y61894*X295306Y61384D2*X294506D1*Y60585D2*X295306D1*Y59787D2*X294506D1*X299097D2*X298621D1*X297823Y58988D2*X299097D1*Y58190D2*X297024D1*X271789Y57391D2*X299097D1*Y56593D2*X272587D1*X274782Y55794D2*X299097D1*Y54996D2*X275581D1*X276043Y54197D2*X299097D1*Y53399D2*X276043D1*Y52600D2*X299097D1*Y51802D2*X275290D1*X269306Y41421D2*X299097D1*Y40623D2*X269306D1*Y39824D2*X299097D1*Y39026D2*X269283D1*X268819Y38227D2*X299097D1*X264506D2*X265306D1*Y39026D2*X264506D1*Y39824D2*X265306D1*Y40623D2*X264506D1*Y41421D2*X265306D1*Y43817D2*X264506D1*Y44615D2*X265306D1*Y45414D2*X264506D1*Y46212D2*X265306D1*X260844D2*X256645D1*X257443Y45414D2*X260506D1*Y44615D2*X258242D1*X258906Y43817D2*X260506D1*X251971Y39026D2*X252518D1*X236306Y38227D2*X249196D1*X249223Y37429D2*X236306D1*X250310Y46891D2*X250752Y33544D1*X251338Y50205D2*X248975D1*X248906Y51003D2*X250906D1*Y51802D2*X248906D1*Y52600D2*X250906D1*Y53399D2*X248906D1*X248660Y54197D2*X251152D1*X251951Y54996D2*X247861D1*X247063Y55794D2*X252749D1*X237063D2*X242749D1*X241951Y54996D2*X237861D1*X238660Y54197D2*X241152D1*X240906Y53399D2*X238906D1*Y52600D2*X240906D1*Y51802D2*X238906D1*Y51003D2*X240906D1*X241338Y50205D2*X238474D1*X236877Y48608D2*X242936D1*X242137Y49406D2*X237675D1*X250310Y46891D2*X244906Y52294D1*X252369Y45414D2*X251759D1*X251733Y46212D2*X253167D1*X299097Y47011D2*X251710D1*X251377Y47809D2*X299097D1*X252936Y48608D2*X250572D1*X249774Y49406D2*X252137D1*X229321Y47809D2*X247411D1*X248209Y47011D2*X229321D1*X246645Y46212D2*X248931D1*X248958Y45414D2*X247443D1*X248984Y44615D2*X248242D1*X248906Y43817D2*X249011D1*X249037Y43018D2*X248906D1*Y42220D2*X249064D1*X249090Y41421D2*X248906D1*X248891Y40623D2*X249117D1*X249143Y39824D2*X248093D1*X247294Y39026D2*X249170D1*X246563Y38294D2*X248906Y40637D1*Y43951*X246563Y46294*X243249*X240906Y43951*Y40637*X243249Y38294*X246563*X248290Y36630D2*X246522D1*X247028Y35832D2*X247784D1*Y35033D2*X247028D1*Y34235D2*X247784D1*Y31041D2*X247028D1*Y31839D2*X247784D1*Y32638D2*X247028D1*Y33436D2*X247784D1*X244060Y33544D2*X237406D1*X234906Y36044*Y42294*X234060Y42698*X229321Y44615D2*X231570D1*X232369Y45414D2*X228988D1*X217054Y46212D2*X233167D1*X223324Y45414D2*X216256D1*X215457Y44615D2*X222991D1*Y43817D2*X214659D1*X208860Y43018D2*X222991D1*Y42220D2*X208061D1*X207263Y41421D2*X222991D1*Y40623D2*X205361D1*X223576Y39729D2*X222991Y40315D1*Y45080*X223576Y45666*X228736*X229321Y45080*Y44098*X231053*X233249Y46294*X236563*X238906Y43951*Y40637*X236563Y38294*X236306*Y36624*X237986Y34944*X241091*Y36124*X241677Y36709*X246442*X247028Y36124*Y30965*X246442Y30379*X241677*X241091Y30965*Y32144*X236826*X234326Y34644*X233506Y35464*Y38294*X233249*X230906Y40637*Y41298*X229321*Y40315*X228736Y39729*X223576*X199356Y39824D2*X223481D1*X201951Y40623D2*X198557D1*X203656Y42294D2*X206156D1*X208656Y44794*X213656*X226156Y57294*X259906*X258906Y53399D2*X260506D1*X260587Y54197D2*X258660D1*X257861Y54996D2*X261385D1*X262184Y55794D2*X257063D1*X261185Y56593D2*X262982D1*X267829Y57391D2*X261983D1*X266830Y56593D2*X268627D1*X264506D2*X265306D1*Y55794D2*X264506D1*Y54996D2*X265306D1*Y54197D2*X264506D1*Y53399D2*X265306D1*Y51003D2*X264506D1*Y50205D2*X265306D1*Y49406D2*X264506D1*Y48608D2*X265306D1*X256877D2*X262370D1*X261571Y49406D2*X257675D1*X258474Y50205D2*X260773D1*X260506Y51003D2*X258906D1*Y51802D2*X260506D1*X264506Y52600D2*X258906D1*X265306Y51802D2*X264506D1*X271269Y52600D2*X265306D1*X269306Y51802D2*X272022D1*X299097Y51003D2*X269306D1*X269039Y50205D2*X299097D1*Y49406D2*X268241D1*X267442Y48608D2*X299097D1*X266729Y47894D2*X269306Y50472D1*Y51894*X265306*Y52694*Y56694*X266729*X269306Y54117*Y52694*X265306*X264506*Y56694*X263083*X260506Y54117*Y52694*X264506*Y51894*X260506*Y50472*X263083Y47894*X264506*Y51894*X265306*Y47894*X266729*X299097Y46212D2*X268968D1*X269306Y45414D2*X299097D1*Y44615D2*X269306D1*Y43817D2*X299097D1*Y43018D2*X269306D1*X265306Y42220D2*X299097D1*X264506Y43018D2*X265306D1*X258906Y42220D2*X264506D1*X260506Y43018D2*X258906D1*X260506Y42694D2*Y45478D1*X260601Y45834*X260786Y46154*X261046Y46414*X261366Y46599*X261722Y46694*X264506*Y42694*X260506*X258906Y41421D2*X260506D1*Y40623D2*X258891D1*X258093Y39824D2*X260506D1*X260529Y39026D2*X257294D1*X261046Y38174D2*X260786Y38434D1*X260601Y38754*X260506Y39110*Y41894*X264506*Y42694*X265306*Y46694*X268090*X268446Y46599*X268766Y46414*X269026Y46154*X269211Y45834*X269306Y45478*Y42694*X265306*Y41894*X269306*Y39110*X269211Y38754*X269026Y38434*X268766Y38174*X268446Y37990*X268090Y37894*X265306*Y41894*X264506*Y37894*X261722*X261366Y37990*X261046Y38174*X251998Y38227D2*X260993D1*X299097Y37429D2*X252024D1*X253215Y36630D2*X299097D1*Y35832D2*X253721D1*Y35033D2*X299097D1*Y34235D2*X253721D1*Y33436D2*X299097D1*Y32638D2*X253721D1*Y31839D2*X299097D1*Y31041D2*X253721D1*X226438Y30242D2*X299097D1*Y29443D2*X227237D1*X228035Y28645D2*X299097D1*Y27846D2*X228834D1*X229632Y27048D2*X299097D1*X231608Y24652D2*X231306D1*X231229Y25451D2*X232406D1*X233205Y26249D2*X230431D1*X238906Y21458D2*X240506D1*Y20660D2*X238906D1*X238130Y19861D2*X241116D1*X241915Y19063D2*X237332D1*X249306Y23854D2*X250906D1*X251608Y24652D2*X248770D1*X247972Y25451D2*X252406D1*X253205Y26249D2*X247173D1*X263205D2*X256608D1*X257406Y25451D2*X262406D1*X261608Y24652D2*X258205D1*X258906Y23854D2*X260906D1*Y23055D2*X258906D1*Y22257D2*X260906D1*Y21458D2*X258906D1*Y20660D2*X260906D1*X261682Y19861D2*X258130D1*X263249Y18294D2*X260906Y20637D1*Y23951*X263249Y26294*X266563*X268906Y23951*Y20637*X266563Y18294*X263249*X257332Y19063D2*X262480D1*X262861Y8682D2*X256951D1*X257749Y9481D2*X262063D1*X261264Y10279D2*X258548D1*X258906Y11078D2*X260906D1*Y11876D2*X258906D1*Y12675D2*X260906D1*Y13473D2*X258906D1*X258585Y14272D2*X261227D1*X262025Y15070D2*X257787D1*X256988Y15869D2*X262824D1*X246988D2*X252824D1*X244506Y18264D2*X245306D1*Y19063D2*X244506D1*Y19861D2*X245306D1*Y20660D2*X244506D1*Y21458D2*X245306D1*Y23854D2*X244506D1*Y24652D2*X245306D1*Y25451D2*X244506D1*Y26249D2*X245306D1*X236608D2*X242639D1*X241840Y25451D2*X237406D1*X238205Y24652D2*X241042D1*X240506Y23854D2*X238906D1*Y23055D2*X240506D1*X244506Y22257D2*X238906D1*X244506Y22694D2*X240506D1*Y24117*X243083Y26694*X244506*Y22694*X245306Y23055D2*X244506D1*X250906Y22257D2*X245306D1*X249306Y23055D2*X250906D1*Y21458D2*X249306D1*Y20660D2*X250906D1*X251682Y19861D2*X248696D1*X253249Y18294D2*X250906Y20637D1*Y23951*X253249Y26294*X256563*X258906Y23951*Y20637*X256563Y18294*X253249*X247897Y19063D2*X252480D1*X282713Y18264D2*X247099D1*X284506Y16667D2*X285306D1*Y15869D2*X284506D1*Y15070D2*X285306D1*Y14272D2*X284506D1*X251677Y7085D2*X291278D1*X292279Y7884D2*X252475D1*X289306Y11876D2*X295995D1*X295358Y11078D2*X289306D1*Y10279D2*X294722D1*X294085Y9481D2*X289306D1*X289169Y8682D2*X293280D1*X284506D2*X285306D1*Y9481D2*X284506D1*Y10279D2*X285306D1*Y11078D2*X284506D1*Y11876D2*X285306D1*X278906D2*X280506D1*Y11078D2*X278906D1*X278548Y10279D2*X280506D1*Y9481D2*X277749D1*X276951Y8682D2*X280643D1*X266951D2*X272861D1*X272063Y9481D2*X267749D1*X268548Y10279D2*X271264D1*X270906Y11078D2*X268906D1*Y11876D2*X270906D1*Y12675D2*X268906D1*Y13473D2*X270906D1*X271227Y14272D2*X268585D1*X267787Y15070D2*X272025D1*X266563Y16294D2*X263249D1*X260906Y13951*Y10637*X263249Y8294*X266563*X268906Y10637*Y13951*X266563Y16294*X272824Y15869D2*X266988D1*X280621D2*X276988D1*X277787Y15070D2*X280506D1*X278906Y13951D2*Y10637D1*X276563Y8294*X273249*X270906Y10637*Y13951*X273249Y16294*X276563*X278906Y13951*X280506Y14272D2*X278585D1*X278906Y13473D2*X280506D1*X284506Y12675D2*X278906D1*X285306Y13473D2*X284506D1*X285306Y12694D2*X284506D1*Y16694*X281722*X281366Y16599*X281046Y16414*X280786Y16154*X280601Y15834*X280506Y15478*Y12694*X284506*Y11894*X280506*Y9110*X280601Y8754*X280786Y8434*X281046Y8174*X281366Y7990*X281722Y7894*X284506*Y11894*X285306*X289306*Y9110*X289211Y8754*X289026Y8434*X288766Y8174*X288446Y7990*X288090Y7894*X285306*Y11894*Y12694*X296498Y12675D2*X285306D1*X289306Y13473D2*X296883D1*X297267Y14272D2*X289306D1*Y15070D2*X297652D1*X298036Y15869D2*X289191D1*X288190Y16667D2*X298237D1*X288090Y16694D2*X288446Y16599D1*X288766Y16414*X289026Y16154*X289211Y15834*X289306Y15478*Y12694*X285306*Y16694*X288090*X298783Y19063D2*X287897D1*X288696Y19861D2*X298966D1*X299023Y20660D2*X289306D1*Y21458D2*X299067D1*X299097Y26249D2*X287173D1*X287972Y25451D2*X299097D1*Y24652D2*X288770D1*X289306Y23854D2*X299097D1*Y23055D2*X289306D1*X285306Y22257D2*X299097D1*X284506Y23055D2*X285306D1*Y23854D2*X284506D1*Y24652D2*X285306D1*Y25451D2*X284506D1*Y26249D2*X285306D1*X276608D2*X282639D1*X281840Y25451D2*X277406D1*X278205Y24652D2*X281042D1*X278906Y23951D2*Y20637D1*X276563Y18294*X273249*X270906Y20637*Y23951*X273249Y26294*X276563*X278906Y23951*X280506Y23854D2*X278906D1*X280506Y22694D2*Y24117D1*X283083Y26694*X284506*Y22694*X280506*X278906Y23055D2*X280506D1*X284506Y22257D2*X278906D1*X285306Y21458D2*X284506D1*Y20660D2*X285306D1*Y19861D2*X284506D1*Y19063D2*X285306D1*X284506Y17894D2*X283083D1*X280506Y20472*Y21894*X284506*Y22694*X285306*Y26694*X286729*X289306Y24117*Y22694*X285306*Y21894*X284506*Y17894*X285306Y18264D2*X284506D1*X286729Y17894D2*X285306D1*Y21894*X289306*Y20472*X286729Y17894*X298601Y18264D2*X287099D1*X231714Y17466D2*X298419D1*X231682Y19861D2*X231306D1*Y19063D2*X232480D1*X242713Y18264D2*X231306D1*X243083Y17894D2*X240506Y20472D1*Y21894*X244506*Y22694*X245306*Y26694*X246729*X249306Y24117*Y22694*X245306*Y21894*X249306*Y20472*X246729Y17894*X245306*Y21894*X244506*Y17894*X243083*X236988Y15869D2*X242824D1*X242063Y9481D2*X237749D1*X238548Y10279D2*X241264D1*X240906Y11078D2*X238906D1*Y11876D2*X240906D1*Y12675D2*X238906D1*Y13473D2*X240906D1*X241227Y14272D2*X238585D1*X237787Y15070D2*X242025D1*X234906Y12294D2*X229906Y17294D1*Y24794*X223656Y31044*X206156*X197406Y39794*X193656*X191030Y41421D2*X191907D1*X187532D2*X186655D1*X189281Y39794D2*X192406Y36669D1*X198031*X196781Y32919D2*X186781D1*X179906Y39794*X183157Y41421D2*X181655D1*X182293Y40623D2*X182519D1*Y39824D2*X182293D1*X184906Y39794D2*X189906Y34794D1*X197406*X204906Y27294*X207406*X209906Y24794*Y17294*X204906Y12294D2*X199906Y17294D1*Y29794*X196781Y32919*X174082Y31041D2*X196680D1*X180728Y30242D2*X174082D1*X179883Y29443D2*X180019D1*X174082D2*X177429D1*X176631Y28645D2*X174082D1*Y27846D2*X176269D1*Y27048D2*X174082D1*Y26249D2*X176324D1*X177123Y25451D2*X174082D1*X178656Y27294D2*X178981Y26044D1*Y21891*X182130D2*Y28269D1*X182406Y28544*X197478Y30242D2*X184084D1*X184793Y29443D2*X198277D1*X198506Y28645D2*X184793D1*Y27846D2*X198506D1*Y27048D2*X184286D1*X198205Y24652D2*X198506D1*Y25451D2*X197406D1*X196608Y26249D2*X198506D1*X183530D2*X193205D1*X192406Y25451D2*X183530D1*X183588Y24652D2*X191608D1*X190906Y23854D2*X183967D1*Y23055D2*X190906D1*Y22257D2*X183967D1*Y21458D2*X190906D1*Y20660D2*X183967D1*Y19861D2*X191682D1*X192480Y19063D2*X183522D1*X189812Y18264D2*X193506D1*Y17466D2*X190418D1*Y16667D2*X193506D1*X188031Y16669D2*X182130D1*Y15198*X178981D2*Y10719D1*X182406Y7294*X249906*X247749Y9481D2*X250113D1*X250911Y10279D2*X248548D1*X248906Y11078D2*X250906D1*Y11876D2*X248906D1*Y12675D2*X250906D1*Y13473D2*X248906D1*X248585Y14272D2*X251227D1*X252025Y15070D2*X247787D1*X249906Y7294D2*X254906Y12294D1*X250486Y5894D2*X181826D1*X177581Y10139*Y12378*X177406Y12553*X177082Y12229*X174580*X174256Y12553*X174082Y12378*Y11133*X174162Y11016*X174128Y10824*X174793Y10158*Y8180*X173395Y6782*X171417*X170019Y8180*Y10158*X171282Y11421*Y12378*X170845Y12815*Y17580*X171431Y18166*X173932*X174256Y17842*X174580Y18166*X177082*X177406Y17842*X177730Y18166*X180232*X180556Y17842*X180880Y18166*X183381*X183478Y18069*X186055*X187042Y19056*X189020*X190418Y17658*Y15680*X189020Y14282*X187042*X186055Y15269*X183967*Y12815*X183381Y12229*X180880*X180556Y12553*X180381Y12378*Y11299*X182986Y8694*X192849*X190906Y10637*Y13951*X193249Y16294*X193506*Y18294*X193249*X190906Y20637*Y23951*X193249Y26294*X196563*X198506Y24351*Y29214*X196201Y31519*X186201*X185381Y32339*X180314Y37407*X178917*X177519Y38805*Y40783*X178917Y42181*X180895*X182293Y40783*Y39387*X182519Y39161*Y40783*X183917Y42181*X185895*X187094Y40983*X188292Y42181*X190270*X191469Y40983*X192667Y42181*X194645*X195632Y41194*X197986*X206736Y32444*X224236*X231306Y25374*Y24351*X233249Y26294*X236563*X238906Y23951*Y20637*X236563Y18294*X233249*X231306Y20237*Y17874*X233068Y16112*X233249Y16294*X236563*X238906Y13951*Y10637*X236963Y8694*X242849*X240906Y10637*Y13951*X243249Y16294*X246563*X248906Y13951*Y10637*X246963Y8694*X249326*X251088Y10456*X250906Y10637*Y13951*X253249Y16294*X256563*X258906Y13951*Y10637*X256563Y8294*X253249*X253068Y8476*X250486Y5894*X290104Y6287D2*X250878D1*X158856Y5488D2*X288445D1*X286717Y4690D2*X156535D1*X153816Y3891D2*X283218D1*X120931Y11876D2*X118481D1*X118272Y11078D2*X120931D1*Y10279D2*X117941D1*X117148Y9481D2*X120946D1*X112664D2*X107148D1*X107941Y10279D2*X111871D1*X111541Y11078D2*X108272D1*X108481Y11876D2*X111331D1*Y12675D2*X108481D1*X108287Y13473D2*X111525D1*X111856Y14272D2*X107956D1*X107185Y15070D2*X112627D1*X101156Y22294D2*Y28544D1*X108656Y36044*X45142Y34235D2*X104867D1*X104068Y33436D2*X45644D1*X45903Y32638D2*X103270D1*X102471Y31839D2*X45920D1*X45789Y31041D2*X101673D1*X100874Y30242D2*X45324D1*X44525Y29443D2*X100076D1*X33407Y31041D2*X39062D1*X39528Y30242D2*X34556D1*X35057Y29443D2*X40326D1*X99756Y28645D2*X35333D1*X35391Y27846D2*X99756D1*Y27048D2*X35340D1*X35071Y26249D2*X99756D1*Y25451D2*X34570D1*X33442Y24652D2*X99756D1*X147965Y3891D2*X42184D1*X38686Y4690D2*X145245D1*X142925Y5488D2*X36957D1*X35299Y6287D2*X141682D1*X140440Y7085D2*X34125D1*X33124Y7884D2*X139197D1*X121388Y8682D2*X32122D1*X134789Y13473D2*X128881D1*Y14272D2*X134424D1*X134060Y15070D2*X128876D1*X102898Y20660D2*X132713D1*X132599Y21458D2*X103543D1*Y22257D2*X132564D1*X132678Y23055D2*X103543D1*X102973Y23854D2*X132793D1*X132908Y24652D2*X102556D1*Y25451D2*X133023D1*X133138Y26249D2*X102556D1*Y27048D2*X133253D1*X133584Y27846D2*X102556D1*X103237Y28645D2*X133949D1*X134313Y29443D2*X104035D1*X123730Y30242D2*X134678D1*X135043Y31041D2*X124529D1*X124793Y31839D2*X135408D1*X136071Y32638D2*X124793D1*X125528Y33436D2*X136763D1*X137455Y34235D2*X126326D1*X127125Y35033D2*X138147D1*X138838Y35832D2*X127923D1*X128722Y36630D2*X140062D1*X141304Y37429D2*X129520D1*X130319Y38227D2*X142547D1*X144417Y39026D2*X131117D1*X131916Y39824D2*X147137D1*X171282Y40623D2*X132714D1*X167409Y41421D2*X171282D1*X133513D2*X164903D1*X164104Y42220D2*X134311D1*X135110Y43018D2*X163769D1*Y43817D2*X135909D1*X166156Y43544D2*X164281Y45419D1*X135531*X122406Y32294*X104834Y30242D2*X121082D1*X120283Y31041D2*X105632D1*X106431Y31839D2*X120019D1*Y32638D2*X107229D1*X108028Y33436D2*X120172D1*X120970Y34235D2*X110223D1*X122814Y34681D2*X134026Y45894D1*X108076*X107256Y46714*X106799Y47171*X106760Y47173*X106393Y47578*X106006Y47964*Y48003*X93893Y61328*X93506Y61714*Y61753*X93480Y61781*X93506Y62327*Y62818*X92519Y63805*Y65783*X93917Y67181*X95895*X97293Y65783*Y63805*X96314Y62826*X108419Y49511*X109236Y48694*X112776*X108506Y52964*Y60318*X107519Y61305*Y63283*X108917Y64681*X110895*X112293Y63283*Y61305*X111306Y60318*Y54124*X114861Y50569*X138255*X137519Y51305*Y53283*X138480Y54244*X127732*X127145Y53657*X125167*X123769Y55055*Y57033*X125167Y58431*X127145*X127732Y57844*X152080*X152667Y58431*X154645*X155232Y57844*X172285*X177481Y63040*X178535Y64094*X194356*Y83218*X193769Y83805*Y85783*X195167Y87181*X197145*X198543Y85783*Y83805*X197956Y83218*Y64094*X218330*X218917Y64681*X220895*X222293Y63283*Y61305*X221407Y60419*X222293Y59533*Y57911*X224131Y59749*X224951Y60569*X257451*X260019Y63137*Y64533*X261417Y65931*X263395*X264793Y64533*Y62555*X263432Y61194*X267986*X268806Y60374*X273249Y55931*X274645*X276043Y54533*Y52555*X274645Y51157*X272667*X271269Y52555*Y53952*X266826Y58394*X262986*X261306Y56714*X260486Y55894*X256963*X258906Y53951*Y50637*X256563Y48294*X253249*X250906Y50637*Y53951*X252849Y55894*X246963*X248906Y53951*Y50637*X248724Y50456*X251283Y47897*X251690Y47517*Y47490*X251710Y47470*Y46914*X251779Y44824*X253249Y46294*X256563*X258906Y43951*Y40637*X256563Y38294*X253249*X251953Y39591*X252048Y36709*X253135*X253721Y36124*Y30965*X253135Y30379*X248370*X247784Y30965*Y36124*X248370Y36709*X249247*X248929Y46292*X246744Y48476*X246563Y48294*X243249*X240906Y50637*Y53951*X242849Y55894*X236963*X238906Y53951*Y50637*X236563Y48294*X233249*X231683Y49860*X230967Y49261*X230768Y48951*X230540Y48902*X230361Y48752*X229994Y48785*X229321Y48640*Y47008*X228736Y46422*X223576*X222991Y47008*Y51773*X223576Y52359*X228736*X229321Y51773*Y51534*X230906Y52863*Y53951*X232849Y55894*X226736*X215056Y44214*X214236Y43394*X209236*X207556Y41714*X206736Y40894*X205632*X204645Y39907*X202667*X201269Y41305*Y43283*X202667Y44681*X204645*X205604Y43722*X207776Y45894*X205632*X204645Y44907*X202667*X201269Y46305*Y48283*X202667Y49681*X204645*X205632Y48694*X213076*X220539Y56157*X218917*X217519Y57555*Y58394*X180486*X172661Y50569*X174951*X176269Y51887*Y53283*X177667Y54681*X179645*X181043Y53283*Y51305*X179645Y49907*X178249*X176111Y47769*X168911*X173262Y43418*X174082Y42598*Y24710*X174256Y24535*X174580Y24859*X177082*X177406Y24535*X177581Y24710*Y24993*X176269Y26305*Y28283*X177667Y29681*X179645*X180019Y29308*Y29533*X181417Y30931*X183395*X184793Y29533*Y27555*X183530Y26292*Y24710*X183967Y24273*Y19508*X183381Y18922*X180880*X180556Y19246*X180232Y18922*X177730*X177406Y19246*X177082Y18922*X174580*X174256Y19246*X173932Y18922*X171431*X170845Y19508*Y24273*X171282Y24710*Y41439*X168543Y44177*Y42555*X167145Y41157*X165167*X163769Y42555*Y43952*X163701Y44019*X136111*X124793Y32702*Y31305*X123395Y29907*X121417*X120019Y31305*Y33283*X121417Y34681*X122814*X111021Y35033D2*X123165D1*X123964Y35832D2*X111043D1*Y36630D2*X124762D1*X125561Y37429D2*X110648D1*X109849Y38227D2*X126359D1*X26306D2*X107463D1*X106664Y37429D2*X26306D1*Y36630D2*X106269D1*Y35832D2*X26306D1*X43992Y35033D2*X105665D1*X26306D2*X40859D1*X39710Y34235D2*X26306D1*Y33436D2*X39208D1*X38948Y32638D2*X26306D1*X38917Y31857D2*X38946Y32117D1*X38917Y32377*X38962Y32434*X38913Y32537*X38965Y32686*Y32711*X38979Y32725*X39032Y32878*X39066Y33177*X39060Y33201*X39070Y33217*X39073Y33236*X39092Y33252*X39252Y33507*X39352Y33791*Y33816*X39365Y33829*X39371Y33847*X39394Y33858*X39607Y34071*X39767Y34326*X39772Y34350*X39789Y34360*X39799Y34376*X39823Y34382*X40078Y34542*X40291Y34755*X40302Y34778*X40320Y34784*X40333Y34797*X40358*X40642Y34897*X40897Y35057*X40913Y35076*X40932Y35079*X40948Y35089*X40972Y35083*X41271Y35117*X41424Y35170*X41438Y35184*X41463*X41612Y35236*X41720Y35184*X41866*X42292Y35232*X42352Y35184*X42499*X42559Y35232*X42985Y35184*X43131*X43239Y35236*X43388Y35184*X43414*X43427Y35170*X43580Y35117*X43879Y35083*X43904Y35089*X43920Y35079*X43939Y35076*X43954Y35057*X44209Y34897*X44493Y34797*X44518*X44532Y34784*X44550Y34778*X44561Y34755*X44773Y34542*X45028Y34382*X45053Y34376*X45063Y34360*X45079Y34350*X45085Y34326*X45245Y34071*X45457Y33858*X45480Y33847*X45486Y33829*X45500Y33816*Y33791*X45599Y33507*X45759Y33252*X45779Y33236*X45781Y33217*X45791Y33201*X45786Y33177*X45819Y32878*X45873Y32725*X45886Y32711*Y32686*X45938Y32537*X45889Y32434*X45934Y32377*X45905Y32117*X45934Y31857*X45889Y31800*X45938Y31697*X45886Y31548*Y31523*X45873Y31509*X45819Y31356*X45786Y31057*X45791Y31033*X45781Y31017*X45779Y30998*X45759Y30982*X45599Y30727*X45500Y30443*Y30418*X45486Y30405*X45480Y30387*X45457Y30376*X45245Y30163*X45085Y29908*X45079Y29884*X45063Y29874*X45053Y29857*X45028Y29852*X44773Y29692*X44561Y29479*X44550Y29456*X44532Y29450*X44518Y29437*X44493*X44209Y29337*X43954Y29177*X43939Y29157*X43920Y29155*X43904Y29145*X43879Y29151*X43580Y29117*X43427Y29064*X43414Y29050*X43388*X43239Y28998*X43131Y29050*X42985*X42559Y29002*X42499Y29050*X42352*X42292Y29002*X41866Y29050*X41720*X41612Y28998*X41463Y29050*X41438*X41424Y29064*X41271Y29117*X40972Y29151*X40948Y29145*X40932Y29155*X40913Y29157*X40897Y29177*X40642Y29337*X40358Y29437*X40333*X40320Y29450*X40302Y29456*X40291Y29479*X40078Y29692*X39823Y29852*X39799Y29857*X39789Y29874*X39772Y29884*X39767Y29908*X39607Y30163*X39394Y30376*X39371Y30387*X39365Y30405*X39352Y30418*Y30443*X39252Y30727*X39092Y30982*X39073Y30998*X39070Y31017*X39060Y31033*X39066Y31057*X39032Y31356*X38979Y31509*X38965Y31523*Y31548*X38913Y31697*X38962Y31800*X38917Y31857*X26306Y31839D2*X38931D1*X26306Y31041D2*X27823D1*X26306Y30242D2*X26674D1*X26660Y25451D2*X26306D1*Y24652D2*X27788D1*X99340Y23854D2*X26306D1*Y23055D2*X98769D1*Y22257D2*X26306D1*X26335Y21458D2*X98769D1*X99414Y20660D2*X26380D1*X100167Y19907D2*X98769Y21305D1*Y23283*X99756Y24270*Y29124*X106269Y35637*Y37033*X107667Y38431*X109645*X111043Y37033*Y35055*X109645Y33657*X108249*X102556Y27964*Y24270*X103543Y23283*Y21305*X102145Y19907*X100167*X133058Y18264D2*X100916D1*X101714Y17466D2*X133173D1*X133330Y16667D2*X102513D1*X128461Y15869D2*X133695D1*X125293D2*X124519D1*Y15070D2*X125293D1*Y14272D2*X124519D1*Y13473D2*X125293D1*Y11876D2*X124519D1*Y11078D2*X125293D1*Y10279D2*X124519D1*Y9481D2*X125293D1*Y8682D2*X124519D1*X138357D2*X128424D1*X128866Y9481D2*X137665D1*X136973Y10279D2*X128881D1*Y11078D2*X136281D1*X135589Y11876D2*X128881D1*X135439Y12049D2*X133268Y16805D1*X132524Y21979*X133268Y27154*X135439Y31909*X138863Y35860*X143261Y38686*X148276Y40159*X153504*X158520Y38686*X162918Y35860*X166341Y31909*X168513Y27154*X169257Y21979*X168513Y16805*X166341Y12049*X162918Y8099*X158520Y5272*X153504Y3800*X148276*X143261Y5272*X138863Y8099*X135439Y12049*X125294Y12675D2*X135154D1*X118481D2*X124519D1*X120931Y13473D2*X118287D1*X117956Y14272D2*X120931D1*X120936Y15070D2*X117185D1*X121472Y15989D2*X121791Y16173D1*X122147Y16269*X124519*Y12682*X125293*Y16269*X127665*X128021Y16173*X128340Y15989*X128601Y15729*X128785Y15409*X128881Y15053*Y12681*X125294*Y11907*X128881*Y9535*X128785Y9179*X128601Y8860*X128340Y8599*X128021Y8415*X127665Y8319*X125293*Y11907*X124519*Y8319*X122147*X121791Y8415*X121472Y8599*X121211Y8860*X121027Y9179*X120931Y9535*Y11907*X124519*Y12681*X120931*Y15053*X121027Y15409*X121211Y15729*X121472Y15989*X121351Y15869D2*X115617D1*X114195D2*X115617D1*X116931Y15325*X117937Y14319*X118481Y13005*Y11583*X117937Y10269*X116931Y9264*X115617Y8719*X114195*X112881Y9264*X111875Y10269*X111331Y11583*Y13005*X111875Y14319*X112881Y15325*X114195Y15869*X105617*X103311D2*X104195D1*X101871Y10279D2*X97941D1*X97148Y9481D2*X102664D1*X31318D2*X92664D1*X91871Y10279D2*X30681D1*X30044Y11078D2*X91541D1*X91331Y11876D2*X29407D1*X28520Y13473D2*X91525D1*X91331Y12675D2*X28905D1*X27751Y15070D2*X70004D1*X91856Y14272D2*X28135D1*X72309Y15070D2*X92627D1*X94195Y15869D2*X73107D1*X99351D2*X95617D1*X97185Y15070D2*X100150D1*X100948Y14272D2*X97956D1*X98287Y13473D2*X101525D1*X101331Y12675D2*X98481D1*Y11876D2*X101331D1*X98481Y11583D2*Y13005D1*X97937Y14319*X96931Y15325*X95617Y15869*X94195*X92881Y15325*X91875Y14319*X91331Y13005*Y11583*X91875Y10269*X92881Y9264*X94195Y8719*X95617*X96931Y9264*X97937Y10269*X98481Y11583*X101541Y11078D2*X98272D1*X104906Y12294D2*X99906Y17294D1*X71156*X132943Y19063D2*X72764D1*X26437Y19861D2*X132828D1*X69548Y19063D2*X26619D1*X26802Y18264D2*X68769D1*Y17466D2*X26984D1*X68769Y16305D2*Y18283D1*X70167Y19681*X72145*X73132Y18694*X100486*X103570Y15610*X104195Y15869*X105617*X106931Y15325*X107937Y14319*X108481Y13005*Y11583*X107937Y10269*X106931Y9264*X105617Y8719*X104195*X102881Y9264*X101875Y10269*X101331Y11583*Y13005*X101590Y13630*X99326Y15894*X73132*X72145Y14907*X70167*X68769Y16305*X27366Y15869D2*X69205D1*X27332Y15940D2*X29109Y12251D1*X31662Y9050*X34863Y6497*X38552Y4720*X42544Y3809*X44591Y3694*X280812*X282859Y3809*X286851Y4720*X290540Y6497*X293741Y9050*X296294Y12251*X298070Y15940*X298982Y19932*X299097Y21979*Y60262*X296729Y57894*X295306*Y61894*X294506*Y62694*X295306*Y66694*X296729*X299097Y64326*Y178893*X298434Y174285*X296262Y169530*X292839Y165579*X288441Y162753*X283425Y161280*X278198*X273182Y162753*X268784Y165579*X265361Y169530*X263189Y174285*X262445Y179459*X263189Y184634*X265361Y189389*X268784Y193340*X273182Y196166*X278198Y197639*X282690*X280812Y197744*X261306*Y157874*X269236Y149944*X270056Y149124*Y144270*X271043Y143283*Y141305*X269645Y139907*X267667*X266269Y141305*Y143283*X267256Y144270*Y147964*X261306Y153914*Y119214*X240056Y97964*X239236Y97144*X224978*X225056Y96853*Y94569*X221556*Y93769*X225056*Y91485*X224978Y91194*X228555*X229542Y92181*X231520*X232918Y90783*Y88805*X231520Y87407*X229542*X228555Y88394*X188076*X187256Y89214*X175314Y101157*X173917*X172519Y102555*Y104533*X173917Y105931*X175895*X177293Y104533*Y103137*X185644Y94786*Y95783*X187042Y97181*X189020*X190418Y95783*Y94387*X191736Y93069*X201269*Y93908*X202667Y95306*X204645*X206043Y93908*Y91930*X205307Y91194*X217334*X217256Y91485*Y93769*X220756*Y94569*X217256*Y96853*X217334Y97144*X194236*X193076*X192256Y97964*Y197744*X44591*X42713Y197639*X47205*X52221Y196166*X56619Y193340*X60042Y189389*X62214Y184634*X62958Y179459*X62214Y174285*X60042Y169530*X56619Y165579*X52221Y162753*X47205Y161280*X41977*X36961Y162753*X32564Y165579*X29140Y169530*X26969Y174285*X26306Y178893*Y57464*X26559Y57717*X26751Y58023*X26755Y58024*X26756Y58028*X27062Y58220*X27317Y58475*X27321*X27323Y58478*X27663Y58598*X27969Y58790*X27973Y58789*X27975Y58792*X28334Y58832*X28675Y58952*X28773Y58904*X28973*X29398Y58952*X29459Y58904*X31771*X31831Y58952*X32257Y58904*X32457*X32555Y58952*X32896Y58832*X33254Y58792*X33257Y58789*X33261Y58790*X33566Y58598*X33907Y58478*X33909Y58475*X33913*X34168Y58220*X34473Y58028*X34474Y58024*X34478Y58023*X34670Y57717*X34925Y57462*Y57458*X34929Y57456*X35048Y57116*X35240Y56810*X35239Y56806*X35242Y56804*X35283Y56445*X35402Y56104*X35355Y56006*Y55806*X35373Y55642*X35403Y55605*X35390Y55493*X35403Y55380*X35373Y55343*X35355Y55180*Y54979*X35402Y54881*X35283Y54541*X35242Y54182*X35239Y54180*X35240Y54176*X35048Y53870*X34929Y53530*X34925Y53528*Y53524*X34670Y53269*X34478Y52963*X34474Y52962*X34473Y52958*X34168Y52766*X33913Y52511*X33909*X33907Y52507*X33566Y52388*X33261Y52196*X33257Y52197*X33254Y52194*X32896Y52153*X32555Y52034*X32457Y52081*X32257*X31831Y52034*X31771Y52081*X29459*X29398Y52034*X28973Y52081*X28773*X28675Y52034*X28334Y52153*X27975Y52194*X27973Y52197*X27969Y52196*X27663Y52388*X27323Y52507*X27321Y52511*X27317*X27062Y52766*X26756Y52958*X26755Y52962*X26751Y52963*X26559Y53269*X26306Y53522*Y29807*X26559Y30060*X26751Y30365*X26755Y30366*X26756Y30370*X27062Y30562*X27317Y30817*X27321*X27323Y30821*X27663Y30940*X27969Y31132*X27973Y31131*X27975Y31134*X28334Y31175*X28675Y31294*X28773Y31247*X28973*X29398Y31295*X29459Y31247*X31771*X31831Y31295*X32257Y31247*X32457*X32555Y31294*X32896Y31175*X33254Y31134*X33257Y31131*X33261Y31132*X33566Y30940*X33907Y30821*X33909Y30817*X33913*X34168Y30562*X34473Y30370*X34474Y30366*X34478Y30365*X34670Y30060*X34925Y29805*Y29801*X34929Y29799*X35048Y29458*X35240Y29153*X35239Y29149*X35242Y29146*X35283Y28788*X35402Y28447*X35355Y28349*Y28149*X35373Y27985*X35403Y27948*X35390Y27835*X35403Y27723*X35373Y27686*X35355Y27522*Y27322*X35402Y27224*X35283Y26883*X35242Y26525*X35239Y26522*X35240Y26518*X35048Y26213*X34929Y25872*X34925Y25870*Y25866*X34670Y25611*X34478Y25305*X34474*X34473Y25301*X34168Y25109*X33913Y24853*X33909*X33907Y24850*X33566Y24731*X33261Y24539*X33257Y24540*X33254Y24536*X32896Y24496*X32555Y24377*X32457Y24424*X32257*X31831Y24376*X31771Y24424*X29459*X29398Y24376*X28973Y24424*X28773*X28675Y24377*X28334Y24496*X27975Y24536*X27973Y24540*X27969Y24539*X27663Y24731*X27323Y24850*X27321Y24853*X27317*X27062Y25109*X26756Y25301*X26755Y25305*X26751*X26559Y25611*X26306Y25864*Y21979*X26421Y19932*X27332Y15940*X68769Y16667D2*X27166D1*D163*X219906Y62294D2*X196156D1*Y84794D2*Y62294D1*X179281*X173031Y56044*X153656*X126156*X73656Y52294D2*X74906Y53544D1*Y86044*D165*X244906Y151044D2*Y159794D1*D166*X208656Y149794D2*X200531D1*D148*X204906Y167698D3*Y174391D3*X214906D3*Y167698D3*X224906D3*Y174391D3*X234906D3*Y167698D3*X250752Y33544D3*X244060D3*D150*X124906Y12294D3*D151*X94906Y12294D3*X104906D3*X114906D3*D152*X51205Y150089D3*X31205D3*Y130089D3*X51205D3*D153*X41205Y140089D3*D154*X284906Y12294D3*X264906Y42294D3*X284906Y62294D3*X204906Y192294D3*X33656Y76044D3*D155*X33656Y86044D3*X254906Y192294D3*X244906D3*X234906D3*X224906D3*X214906D3*X204906Y182294D3*X214906D3*X224906D3*X234906D3*X244906D3*X254906D3*X294906Y152294D3*X284906D3*Y142294D3*X294906D3*Y132294D3*X284906D3*Y122294D3*X294906D3*Y112294D3*X284906D3*Y102294D3*X294906D3*Y92294D3*X284906D3*Y82294D3*X294906D3*Y62294D3*Y72294D3*X284906D3*X264906Y52294D3*X254906D3*X244906D3*X234906D3*Y42294D3*X244906D3*X254906D3*X284906Y22294D3*X274906D3*X264906D3*X254906D3*X244906D3*X234906D3*X224906D3*X214906D3*X204906D3*X194906D3*Y12294D3*X204906D3*X214906D3*X224906D3*X234906D3*X244906D3*X254906D3*X264906D3*X274906D3*D156*X226156Y42698D3*Y49391D3*X123656Y176891D3*Y170198D3*D157*X182130Y15198D3*X178981D3*X175831D3*X172682D3*Y21891D3*X175831D3*X178981D3*X182130D3*D159*X150890Y21979D3*X280812Y179459D3*X44591D3*D160*X221156Y99169D3*Y94169D3*D161*X283656Y42944D3*X71156Y17294D3*X77406Y22294D3*X101156D3*X122406Y32294D3*X108656Y36044D3*X98656Y43544D3*X77406Y44794D3*X69906D3*X73656Y52294D3*X78656Y61044D3*X170182Y149144D3*X181205Y196389D3*X187504D3*X196156Y177294D3*X289281Y159794D3*X297741Y166074D3*X269394Y196389D3*X263095D3*Y189144D3*X241156Y169794D3*X244906Y151044D3*X219906Y153544D3*X199281Y143544D3*X208656Y149794D3*X200531D3*X196156Y157294D3*X204906Y162294D3*X214906D3*X224906D3*X234906D3*X244906Y159794D3*X258656Y158544D3*X264281D3*X268656Y142294D3*X221156Y111044D3*X238656Y112294D3*X249281Y104794D3*X254281Y109794D3*X259281Y114794D3*X251781Y122294D3*X246156Y126669D3*X226781Y128544D3*X221781Y134169D3*X214906Y129794D3*X195531Y121044D3*X180531Y112919D3*X174906Y103544D3*X177406Y94794D3*X188031D3*X203656Y92919D3*Y84794D3*X196156D3*X182406Y86044D3*X176156D3*X172406Y73544D3*X170182Y64105D3*X166156Y43544D3*X153656Y56044D3*X139906Y52294D3*X124906Y62294D3*X126156Y56044D3*X117406Y53544D3*X109906Y62294D3*X101781D3*X94906Y64794D3*X91781Y74794D3*X69906Y94169D3*X65531Y91044D3*X27662Y65286D3*Y71585D3*X41781Y81044D3*X27662Y90483D3*Y96782D3*Y103081D3*Y109381D3*Y121979D3*Y115680D3*X47406Y113544D3*X95531Y158544D3*X80531D3*X61781D3*X27662Y159774D3*Y166074D3*X55221Y196389D3*X61520D3*X72406Y177919D3*X105615Y196389D3*X103031Y191969D3*X99315Y196389D3*X93016D3*X86717D3*X84281Y191969D3*X93656Y181044D3*X102406Y174794D3*X116156Y177294D3*X133031Y174794D3*X136156Y181044D3*X141156Y191044D3*X146156D3*X151156D3*X156156D3*X162308Y196389D3*X168607D3*X174906D3*X175856Y190394D3*X170182Y186940D3*Y174341D3*Y161743D3*Y155444D3*X161156Y154794D3*X159832Y149720D3*X149906Y153544D3*X131082Y159720D3*X131156Y149794D3*X113656Y153544D3*X108656D3*X95531Y148544D3*X85531D3*X78449Y129853D3*X84355Y126704D3*X91048Y124538D3*X97347Y123948D3*Y133003D3*X90654Y134184D3*X84355Y137333D3*X78056Y140089D3*X72150Y142058D3*X65851Y143633D3*X59552Y144223D3*Y134971D3*X65851Y133790D3*X72150Y131822D3*X61781Y124794D3*X71156Y119169D3*X75531Y115419D3*X87406Y113544D3*X93656Y106044D3*X87406Y103544D3*X88031Y93544D3*X84281Y87294D3*X74906Y86044D3*X66781Y78544D3*Y68544D3*X48656Y56044D3*X51781Y53544D3*X53656Y44794D3*X46156Y36669D3*X51156Y24794D3*X45378Y14843D3*X27662Y21192D3*X29237Y14893D3*X34355Y8593D3*X40260Y5837D3*X46560Y5050D3*X52859D3*X59158D3*X65457D3*X71756D3*X78056D3*X84355D3*X90654D3*X100103D3*X106402D3*X131599D3*X134581Y8869D3*X137898Y5050D3*X163095D3*X169394D3*X167731Y10444D3*X172406Y9169D3*X188031Y16669D3*X178656Y27294D3*X182406Y28544D3*X193656Y39794D3*X189281D3*X184906D3*X179906D3*X176156Y44794D3*X178656Y52294D3*X199906Y54794D3*X203656Y47294D3*Y42294D3*X254434Y5050D3*X260733D3*X267032D3*X273331D3*X279630D3*X285930Y5837D3*X292229Y9381D3*X295772Y14893D3*X297741Y21192D3*Y27491D3*Y33790D3*Y40089D3*X291756Y42944D3*X297741Y46389D3*Y52688D3*X291756Y51044D3*X283656D3*X273656Y53544D3*X262406Y63544D3*X266156Y66982D3*X258656Y69169D3*X266156Y78857D3*X255844Y90732D3*Y86044D3*Y81044D3*Y76044D3*X229906Y64794D3*X219906Y58544D3*Y62294D3*X208031Y67294D3*X204906Y69794D3*X208656Y72919D3*X218031Y73544D3*X224281Y70419D3*X228656Y69794D3*X238656Y70419D3*X243656Y75419D3*X238656Y76669D3*X230531Y89794D3*X221156Y99794D3*D162*X62214Y174285D3*X60042Y169530D3*X56619Y165579D3*D3*X52221Y162753D3*X26969Y174285D3*X29140Y169530D3*X32564Y165579D3*X162918Y8099D3*D3*X168513Y16805D3*X268806Y60374D3*X269236Y149944D3*X273182Y196166D3*X265361Y189389D3*X262445Y179459D3*X263189Y174285D3*X268784Y165579D3*X273182Y162753D3*X298434Y174285D3*X296262Y169530D3*X292839Y165579D3*D3*X288441Y162753D3*X62214Y184634D3*X60042Y189389D3*X47205Y197639D3*X158520Y38686D3*X162918Y35860D3*X166341Y31909D3*X168513Y27154D3*X158520Y5272D3*X143261D3*X138863Y8099D3*X132524Y21979D3*X133268Y27154D3*Y16805D3*X135439Y31909D3*X138863Y35860D3*D3*X143261Y38686D3*X166341Y12049D3*X135439D3*X265361Y169530D3*X263189Y184634D3*X268784Y193340D3*D3*X36961Y162753D3*D164*X156156Y133544D3*X149906D3*X143656D3*X137406D3*X131156D3*Y127294D3*X137406D3*X143656D3*X149906D3*X156156D3*Y121044D3*X149906D3*X143656D3*X137406D3*X131156D3*X112406Y102294D3*X118656D3*Y96044D3*X112406D3*Y89794D3*X118656D3*Y83544D3*X112406D3*Y77294D3*X118656D3*X124906D3*X131156D3*X137406D3*X143656D3*X149906D3*X156156D3*X0Y0D2*M02*