G04 Output by ViewMate Deluxe V11.12.18  PentaLogix*
G04 Wed Mar 06 15:41:31 2019*
%IPPOS*%
%FSLAX25Y25*%
%MOIN*%
%ADD179C,0.003*%
%ADD180C,0.008*%
%ADD181C,0.006*%
%ADD182C,0.004*%
%ADD183C,0.005*%

%LPD*%
X0Y0D2*D179*G1X59996Y87280D2*X58761Y87897D1*X64903Y86046D2*X65520D1*X64286Y84811D2*Y85428D1*X64903Y86046*X64286Y86663*Y87280*X64903Y87897*X66137*X66755Y87280*X69203D2*Y84811D1*X67969Y86046D2*X70438D1*X66755Y84811D2*X66137Y84194D1*X64903*X64286Y84811*X62454D2*X63071D1*Y84194*X62454*Y84811*X59996Y87280D2*X61230Y86046D1*X58761Y84811D2*X59378Y84194D1*X60613*X61230Y84811*Y86046*X59378*X58761Y85428*Y84811*X56312Y84194D2*X57547Y85428D1*Y87897*X55078D2*Y85428D1*X56312Y84194*X46497Y74811D2*Y77280D1*X45880Y77897*X44646*X44029Y77280*Y74811*X44646Y74194*X45880*X46497Y74811*X44029Y77280*X42814Y77897D2*Y75428D1*X41580Y74194*X40345Y75428*Y77897*X42814Y87897D2*X40345Y84194D1*X46497Y86046D2*X44029D1*X50180Y84194D2*Y87897D1*X48946Y86663*X47712Y87897*Y84194*X46497D2*Y86663D1*X45263Y87897*X44029Y86663*Y84194*X40345Y87897D2*X42814Y84194D1*X37912Y120921D2*X40381D1*X34229Y122772D2*Y119069D1*X36698Y122772*Y119069*X37912D2*Y121538D1*X39147Y122772*X40381Y121538*Y119069*X41595D2*X44064D1*Y122772*X45279D2*Y119069D1*X46513Y120303*X47747Y119069*Y122772*X122256Y165538D2*X121022Y166772D1*Y163069*X122256D2*X119787D1*X124705Y164303D2*X123470Y163069D1*X125939Y166772D2*X124088D1*X123470Y166155*Y164921*X124088Y164303*X125939*Y166772D2*Y163069D1*X197256Y192913D2*X196022Y194147D1*Y190444*X197256D2*X194787D1*X197256Y183530D2*X196639Y184147D1*X195404*X194787Y183530*Y182913*X197256Y180444*X194787*X192289Y169311D2*Y169928D1*X191672Y170546*X190438D2*X189821Y171163D1*Y171780*X190438Y172397*X191672*X192289Y171780*Y171163*X191672Y170546*X190438*X189821Y169928*Y169311*X190438Y168694*X191672*X192289Y169311*X199039Y168694D2*X199656Y169311D1*Y171780*X199039Y172397*X197804*X197187Y171780*X195973Y171163D2*X194738Y172397D1*Y168694*X195973D2*X193504D1*X197187Y169311D2*X197804Y168694D1*X199039*X210414Y155936D2*X209797Y155319D1*X208563*X207946Y155936*Y158405*X210414D2*X209797Y159022D1*X208563*X207946Y158405*Y157171D2*X209797D1*X210414Y157788*Y158405*X217781D2*X217164Y159022D1*X215929*X215312Y158405*X214098Y157788D2*X212863Y159022D1*Y155319*X214098D2*X211629D1*X215312Y155936D2*X215929Y155319D1*X217164*X217781Y155936*Y158405*X222321D2*X222938Y159022D1*X224172*X224789Y158405*Y155936*X224172Y155319*X222938*X222321Y155936*Y158405*X224789Y155936*X228473Y155319D2*X226004D1*X232156Y158405D2*X231539Y159022D1*X230304*X229687Y158405*X228473D2*X227855Y159022D1*X226621*X226004Y158405*Y157788*X228473Y155319*X229687Y155936D2*X230304Y155319D1*X231539*X232156Y155936*Y158405*X241664Y164663D2*X240430Y165897D1*Y162194*X241664D2*X239196D1*X245348D2*X242879D1*X249031Y165280D2*X248414Y165897D1*X247179*X246562Y165280*X245348D2*X244730Y165897D1*X243496*X242879Y165280*Y164663*X245348Y162194*X246562Y162811D2*X247179Y162194D1*X248414*X249031Y162811*Y165280*X257205Y175897D2*X258439Y174663D1*X254756Y172194D2*X252287D1*X257205Y175897D2*Y172194D1*X254756Y175280D2*X254139Y175897D1*X252904*X252287Y175280*Y174663*X254756Y172194*X258439D2*X255970D1*X276908Y154913D2*Y153061D1*X277525Y152444*X278142*X278759Y153061*Y154296*X278142Y154913*X275673*X275056Y154296*Y153061*X275673Y152444*X275056Y148761D2*Y151230D1*Y149995D2*X278759D1*X277525Y148761*Y107511D2*X278759Y108745D1*X275056*X277525Y111194D2*X278759Y112428D1*X275056*Y111194D2*Y113663D1*Y107511D2*Y109980D1*X236598Y61780D2*X235980Y62397D1*X234746*X234129Y61780*Y61163*X234746Y60546*X235980D2*X236598Y59928D1*Y59311*X235980Y58694*X234746*X234129Y59311*Y59928*X234746Y60546*X235980*X236598Y61163*Y61780*X275056Y60603D2*Y63071D1*X277525Y60603D2*X278759Y61837D1*X275056*X266598Y61780D2*X265980Y62397D1*X264746*X264129Y61780*Y61163*X266598Y58694*X264129*X284129Y28694D2*X286598D1*X284129Y31163*Y31780*X286598D2*X285980Y32397D1*X284746*X284129Y31780*X260973Y34288D2*X259738Y35522D1*X262804Y33053D2*X262187Y33671D1*Y34905*X262804Y35522*X264656*Y31819*X262804Y33053D2*X264656D1*X262187Y31819D2*X263421Y33053D1*X258504Y31819D2*X260973D1*X259738Y35522D2*Y31819D1*X254821Y35522D2*X257289D1*Y33671*X254821Y32436D2*Y33671D1*X255438Y34288*X256055*X257289Y33671*Y32436D2*X256672Y31819D1*X255438*X254821Y32436*X228439Y31163D2*X227205Y32397D1*Y28694*X225970D2*X228439D1*X222904Y32397D2*Y28694D1*X222287Y30546D2*X224756D1*X222904Y32397*X216613Y44069D2*Y47772D1*X217848Y46538*X219679Y45303D2*X219062Y45921D1*Y47155*X219679Y47772*X221531*Y44069*X219679Y45303D2*X221531D1*X219062Y44069D2*X220296Y45303D1*X215379Y44069D2*X217848D1*X211696Y45921D2*X214164D1*X212313Y47772*Y44069*X194720Y28694D2*X197189D1*X194720Y31163*Y31780*X197189D2*X196572Y32397D1*X195338*X194720Y31780*X191037D2*X191654Y32397D1*X192889*X193506Y31780*Y29311*X191037D2*Y31780D1*X193506Y29311*X192889Y28694*X191654*X191037Y29311*X94746Y4694D2*Y8397D1*X96598Y6546*X94129*X126598Y7163D2*X125363Y8397D1*X124129Y4694D2*X126598D1*X125363Y8397D2*Y4694D1*X126759Y20502D2*X123056Y22971D1*X126142Y16819D2*X126759Y17436D1*Y18671*X126142Y19288*X123673D2*X123056Y18671D1*Y17436*X123673Y16819*X126142*X124908Y18053D2*Y19288D1*X123673*X126759Y20502D2*X123056D1*Y22971D2*X126759D1*X123056Y24185D2*X126759D1*Y26037*X126142Y26654*X123673*X123056Y26037*Y24185*X116759D2*Y26037D1*X116142Y26654*X113673*X113056Y26037*Y24185*X116759*X113056Y20502D2*X116759Y22971D1*X114290Y18053D2*X113056Y19288D1*X116142D2*X116759Y18671D1*Y16819*X113056*X114290D2*Y18671D1*X114908Y19288*X116142*X113056Y22971D2*X116759Y20502D1*X103681D2*X107384Y22971D1*X103681Y24185D2*X107384D1*Y26037*X106767Y26654*X104298*X103681Y26037*Y24185*X107384Y20502D2*X103681Y22971D1*X107384Y16819D2*Y19288D1*X103681Y18053D2*X107384D1*X96759Y16819D2*X94290D1*X93056Y18053*X96142Y21737D2*X93673D1*X94908Y20502D2*Y22971D1*X96759Y19288D2*X94290D1*X93056Y18053*D180*X83656Y19169D2*X87406Y17294D1*X83656Y15419*X80531Y17294D2*X86781D1*D181*X252350Y141047D2*Y143182D1*X253418Y144250*X256620*Y137844*Y139979D2*X253418D1*X252350Y141047*X250175Y137844D2*Y142114D1*Y139979D2*X248040Y142114D1*X246972*X240533Y141047D2*X241601Y142114D1*X243736*X244804Y141047*Y138912*X243736Y137844*X241601*X240533Y138912*Y141047*X234088Y142114D2*X237291D1*X238358Y141047*Y138912*X237291Y137844*X234088*X231913Y138912D2*X230845Y137844D1*X228710*X227642Y139979D2*Y141047D1*X228710Y142114*X230845*X231913Y141047*Y138912*X227642Y139979D2*X231913D1*X225467Y137844D2*X222264D1*X221197Y138912*Y142114D2*X224400D1*X225467Y141047*X224400Y139979*X222264*X221197Y138912*X219022Y137844D2*X215819D1*X214751Y138912*X215819Y139979*X217954*X219022Y141047*X217954Y142114*X214751*X208306Y141047D2*Y138912D1*X209373Y137844*X211509*X212576Y138912*Y141047*X211509Y142114*X209373*X208306Y141047*X206131Y137844D2*Y142114D1*Y139979D2*X203996Y142114D1*X202928*X190044Y138912D2*X191111Y137844D1*X193246*X194314Y138912*Y143182*X193246Y144250*X191111*X190044Y143182*X186801Y142114D2*X184666D1*X183598Y141047*Y139979D2*X186801D1*X187868Y138912*X186801Y137844*X183598*Y141047*X181423Y137844D2*Y142114D1*Y139979D2*X179288Y142114D1*X178220*X171781Y144250D2*Y137844D1*Y142114D2*X174984D1*X176052Y141047*Y138912*X174984Y137844*X171781*D182*X181712Y32697D2*X180511Y31496D1*Y34499D2*X181111Y35099D1*X182913*Y31496*Y32697D2*X181111D1*X180511Y33298*Y34499*X179230D2*X178629Y35099D1*X177428*X176828Y34499*Y33898*X179230Y31496*X176828*X175547Y32097D2*X174946Y31496D1*X173745*X173145Y32097*Y33298*X173745Y33898*X174346*X175547Y33298*Y35099*X173145*X171241Y132581D2*X172008Y133348D1*X173543*X174310Y132581*Y129511*X173543Y128744*X172008*X171241Y129511*Y132581*X174310Y129511*X176612Y128744D2*X175845D1*Y129511*X176612*Y128744*X178147D2*X181216D1*X179681D2*Y133348D1*X181216Y131813*X187354D2*X188889Y128744D1*X190424Y131813*X192726Y128744D2*X194260D1*X195028Y129511*Y131046*Y130279D2*X191958D1*Y131046*X192726Y131813*X194260*X195028Y131046*X196562Y131813D2*X197330D1*X198864Y130279*Y131813D2*Y128744D1*D183*X28843Y179459D2*X28848Y179073D1*X28862Y178686*X28886Y178301*X28919Y177915*X28961Y177531*X29013Y177148*X29075Y176767*X29146Y176387*X29226Y176009*X29315Y175633*X29413Y175259*X29521Y174888*X29638Y174519*X29764Y174154*X29898Y173791*X30042Y173433*X30194Y173077*X30355Y172726*X30525Y172379*X30703Y172035*X30889Y171697*X31083Y171363*X31286Y171034*X31497Y170710*X31716Y170391*X31942Y170078*X32176Y169770*X32418Y169469*X32666Y169173*X32923Y168883*X33186Y168600*X33455Y168323*X33732Y168054*X34015Y167791*X34305Y167534*X34601Y167286*X34902Y167044*X35210Y166810*X35523Y166584*X35842Y166365*X36166Y166154*X36495Y165951*X36829Y165757*X37167Y165571*X37511Y165393*X37858Y165223*X38209Y165062*X38565Y164910*X38923Y164766*X39286Y164632*X39651Y164506*X40020Y164389*X40391Y164281*X40765Y164183*X41141Y164094*X41519Y164014*X41899Y163943*X42280Y163881*X42663Y163829*X43047Y163787*X43433Y163754*X43818Y163730*X44205Y163716*X44591Y163711*X44977Y163716*X45364Y163730*X45749Y163754*X46135Y163787*X46519Y163829*X46902Y163881*X47283Y163943*X47663Y164014*X48041Y164094*X48417Y164183*X48791Y164281*X49162Y164389*X49531Y164506*X49896Y164632*X50259Y164766*X50617Y164910*X50973Y165062*X51324Y165223*X51671Y165393*X52015Y165571*X52353Y165757*X52687Y165951*X53016Y166154*X53340Y166365*X53659Y166584*X53972Y166810*X54280Y167044*X54581Y167286*X54877Y167534*X55167Y167791*X55450Y168054*X55727Y168323*X55996Y168600*X56259Y168883*X56516Y169173*X56764Y169469*X57006Y169770*X57240Y170078*X57466Y170391*X57685Y170710*X57896Y171034*X58099Y171363*X58293Y171697*X58479Y172035*X58657Y172379*X58827Y172726*X58988Y173077*X59140Y173433*X59284Y173791*X59418Y174154*X59544Y174519*X59661Y174888*X59769Y175259*X59867Y175633*X59956Y176009*X60036Y176387*X60107Y176767*X60169Y177148*X60221Y177531*X60263Y177915*X60296Y178301*X60320Y178686*X60334Y179073*X60339Y179459*X60334Y179845*X60320Y180232*X60296Y180617*X60263Y181003*X60221Y181387*X60169Y181770*X60107Y182151*X60036Y182531*X59956Y182909*X59867Y183285*X59769Y183659*X59661Y184030*X59544Y184399*X59418Y184764*X59284Y185127*X59140Y185485*X58988Y185841*X58827Y186192*X58657Y186539*X58479Y186883*X58293Y187221*X58099Y187555*X57896Y187884*X57685Y188208*X57466Y188527*X57240Y188840*X57006Y189148*X56764Y189449*X56516Y189745*X56259Y190035*X55996Y190318*X55727Y190595*X55450Y190864*X55167Y191127*X54877Y191384*X54581Y191632*X54280Y191874*X53972Y192108*X53659Y192334*X53340Y192553*X53016Y192764*X52687Y192967*X52353Y193161*X52015Y193347*X51671Y193525*X51324Y193695*X50973Y193856*X50617Y194008*X50259Y194152*X49896Y194286*X49531Y194412*X49162Y194529*X48791Y194637*X48417Y194735*X48041Y194824*X47663Y194904*X47283Y194975*X46902Y195037*X46519Y195089*X46135Y195131*X45749Y195164*X45364Y195188*X44977Y195202*X44591Y195207*X44205Y195202*X43818Y195188*X43433Y195164*X43047Y195131*X42663Y195089*X42280Y195037*X41899Y194975*X41519Y194904*X41141Y194824*X40765Y194735*X40391Y194637*X40020Y194529*X39651Y194412*X39286Y194286*X38923Y194152*X38565Y194008*X38209Y193856*X37858Y193695*X37511Y193525*X37167Y193347*X36829Y193161*X36495Y192967*X36166Y192764*X35842Y192553*X35523Y192334*X35210Y192108*X34902Y191874*X34601Y191632*X34305Y191384*X34015Y191127*X33732Y190864*X33455Y190595*X33186Y190318*X32923Y190035*X32666Y189745*X32418Y189449*X32176Y189148*X31942Y188840*X31716Y188527*X31497Y188208*X31286Y187884*X31083Y187555*X30889Y187221*X30703Y186883*X30525Y186539*X30355Y186192*X30194Y185841*X30042Y185485*X29898Y185127*X29764Y184764*X29638Y184399*X29521Y184030*X29413Y183659*X29315Y183285*X29226Y182909*X29146Y182531*X29075Y182151*X29013Y181770*X28961Y181387*X28919Y181003*X28886Y180617*X28862Y180232*X28848Y179845*X28843Y179459*X204906Y197294D2*X199906D1*Y177294*X204906*X254906D2*X259906D1*X254906Y197294D2*X259906D1*Y177294*X265064Y179459D2*X265069Y179073D1*X265083Y178686*X265107Y178301*X265140Y177915*X265182Y177531*X265234Y177148*X265296Y176767*X265367Y176387*X265447Y176009*X265536Y175633*X265634Y175259*X265742Y174888*X265859Y174519*X265985Y174154*X266119Y173791*X266263Y173433*X266415Y173077*X266576Y172726*X266746Y172379*X266924Y172035*X267110Y171697*X267304Y171363*X267507Y171034*X267718Y170710*X267937Y170391*X268163Y170078*X268397Y169770*X268639Y169469*X268887Y169173*X269144Y168883*X269407Y168600*X269676Y168323*X269953Y168054*X270236Y167791*X270526Y167534*X270822Y167286*X271123Y167044*X271431Y166810*X271744Y166584*X272063Y166365*X272387Y166154*X272716Y165951*X273050Y165757*X273388Y165571*X273732Y165393*X274079Y165223*X274430Y165062*X274786Y164910*X275144Y164766*X275507Y164632*X275872Y164506*X276241Y164389*X276612Y164281*X276986Y164183*X277362Y164094*X277740Y164014*X278120Y163943*X278501Y163881*X278884Y163829*X279268Y163787*X279654Y163754*X280039Y163730*X280426Y163716*X280812Y163711*X281198Y163716*X281585Y163730*X281970Y163754*X282356Y163787*X282740Y163829*X283123Y163881*X283504Y163943*X283884Y164014*X284262Y164094*X284638Y164183*X285012Y164281*X285383Y164389*X285752Y164506*X286117Y164632*X286480Y164766*X286838Y164910*X287194Y165062*X287545Y165223*X287892Y165393*X288236Y165571*X288574Y165757*X288908Y165951*X289237Y166154*X289561Y166365*X289880Y166584*X290193Y166810*X290501Y167044*X290802Y167286*X291098Y167534*X291388Y167791*X291671Y168054*X291948Y168323*X292217Y168600*X292480Y168883*X292737Y169173*X292985Y169469*X293227Y169770*X293461Y170078*X293687Y170391*X293906Y170710*X294117Y171034*X294320Y171363*X294514Y171697*X294700Y172035*X294878Y172379*X295048Y172726*X295209Y173077*X295361Y173433*X295505Y173791*X295639Y174154*X295765Y174519*X295882Y174888*X295990Y175259*X296088Y175633*X296177Y176009*X296257Y176387*X296328Y176767*X296390Y177148*X296442Y177531*X296484Y177915*X296517Y178301*X296541Y178686*X296555Y179073*X296560Y179459*X296555Y179845*X296541Y180232*X296517Y180617*X296484Y181003*X296442Y181387*X296390Y181770*X296328Y182151*X296257Y182531*X296177Y182909*X296088Y183285*X295990Y183659*X295882Y184030*X295765Y184399*X295639Y184764*X295505Y185127*X295361Y185485*X295209Y185841*X295048Y186192*X294878Y186539*X294700Y186883*X294514Y187221*X294320Y187555*X294117Y187884*X293906Y188208*X293687Y188527*X293461Y188840*X293227Y189148*X292985Y189449*X292737Y189745*X292480Y190035*X292217Y190318*X291948Y190595*X291671Y190864*X291388Y191127*X291098Y191384*X290802Y191632*X290501Y191874*X290193Y192108*X289880Y192334*X289561Y192553*X289237Y192764*X288908Y192967*X288574Y193161*X288236Y193347*X287892Y193525*X287545Y193695*X287194Y193856*X286838Y194008*X286480Y194152*X286117Y194286*X285752Y194412*X285383Y194529*X285012Y194637*X284638Y194735*X284262Y194824*X283884Y194904*X283504Y194975*X283123Y195037*X282740Y195089*X282356Y195131*X281970Y195164*X281585Y195188*X281198Y195202*X280812Y195207*X280426Y195202*X280039Y195188*X279654Y195164*X279268Y195131*X278884Y195089*X278501Y195037*X278120Y194975*X277740Y194904*X277362Y194824*X276986Y194735*X276612Y194637*X276241Y194529*X275872Y194412*X275507Y194286*X275144Y194152*X274786Y194008*X274430Y193856*X274079Y193695*X273732Y193525*X273388Y193347*X273050Y193161*X272716Y192967*X272387Y192764*X272063Y192553*X271744Y192334*X271431Y192108*X271123Y191874*X270822Y191632*X270526Y191384*X270236Y191127*X269953Y190864*X269676Y190595*X269407Y190318*X269144Y190035*X268887Y189745*X268639Y189449*X268397Y189148*X268163Y188840*X267937Y188527*X267718Y188208*X267507Y187884*X267304Y187555*X267110Y187221*X266924Y186883*X266746Y186539*X266576Y186192*X266415Y185841*X266263Y185485*X266119Y185127*X265985Y184764*X265859Y184399*X265742Y184030*X265634Y183659*X265536Y183285*X265447Y182909*X265367Y182531*X265296Y182151*X265234Y181770*X265182Y181387*X265140Y181003*X265107Y180617*X265083Y180232*X265069Y179845*X265064Y179459*X299906Y152294D2*Y157294D1*X279906*Y152294*X284906Y7294D2*X289906D1*Y27294*X284906*X299906Y62294D2*Y57294D1*X279906*Y62294*X264906Y57294D2*X269906D1*Y37294*X264906*X234906D2*X229906D1*X234906Y57294D2*X229906D1*Y37294*X135142Y21979D2*X135147Y21593D1*X135161Y21206*X135185Y20821*X135218Y20435*X135260Y20051*X135312Y19668*X135374Y19287*X135445Y18907*X135525Y18529*X135614Y18153*X135712Y17779*X135820Y17408*X135937Y17039*X136063Y16674*X136197Y16311*X136341Y15953*X136493Y15597*X136654Y15246*X136824Y14899*X137002Y14555*X137188Y14217*X137382Y13883*X137585Y13554*X137796Y13230*X138015Y12911*X138241Y12598*X138475Y12290*X138717Y11989*X138965Y11693*X139222Y11403*X139485Y11120*X139754Y10843*X140031Y10574*X140314Y10311*X140604Y10054*X140900Y9806*X141201Y9564*X141509Y9330*X141822Y9104*X142141Y8885*X142465Y8674*X142794Y8471*X143128Y8277*X143466Y8091*X143810Y7913*X144157Y7743*X144508Y7582*X144864Y7430*X145222Y7286*X145585Y7152*X145950Y7026*X146319Y6909*X146690Y6801*X147064Y6703*X147440Y6614*X147818Y6534*X148198Y6463*X148579Y6401*X148962Y6349*X149346Y6307*X149732Y6274*X150117Y6250*X150504Y6236*X150890Y6231*X151276Y6236*X151663Y6250*X152048Y6274*X152434Y6307*X152818Y6349*X153201Y6401*X153582Y6463*X153962Y6534*X154340Y6614*X154716Y6703*X155090Y6801*X155461Y6909*X155830Y7026*X156195Y7152*X156558Y7286*X156916Y7430*X157272Y7582*X157623Y7743*X157970Y7913*X158314Y8091*X158652Y8277*X158986Y8471*X159315Y8674*X159639Y8885*X159958Y9104*X160271Y9330*X160579Y9564*X160880Y9806*X161176Y10054*X161466Y10311*X161749Y10574*X162026Y10843*X162295Y11120*X162558Y11403*X162815Y11693*X163063Y11989*X163305Y12290*X163539Y12598*X163765Y12911*X163984Y13230*X164195Y13554*X164398Y13883*X164592Y14217*X164778Y14555*X164956Y14899*X165126Y15246*X165287Y15597*X165439Y15953*X165583Y16311*X165717Y16674*X165843Y17039*X165960Y17408*X166068Y17779*X166166Y18153*X166255Y18529*X166335Y18907*X166406Y19287*X166468Y19668*X166520Y20051*X166562Y20435*X166595Y20821*X166619Y21206*X166633Y21593*X166638Y21979*X166633Y22365*X166619Y22752*X166595Y23137*X166562Y23523*X166520Y23907*X166468Y24290*X166406Y24671*X166335Y25051*X166255Y25429*X166166Y25805*X166068Y26179*X165960Y26550*X165843Y26919*X165717Y27284*X165583Y27647*X165439Y28005*X165287Y28361*X165126Y28712*X164956Y29059*X164778Y29403*X164592Y29741*X164398Y30075*X164195Y30404*X163984Y30728*X163765Y31047*X163539Y31360*X163305Y31668*X163063Y31969*X162815Y32265*X162558Y32555*X162295Y32838*X162026Y33115*X161749Y33384*X161466Y33647*X161176Y33904*X160880Y34152*X160579Y34394*X160271Y34628*X159958Y34854*X159639Y35073*X159315Y35284*X158986Y35487*X158652Y35681*X158314Y35867*X157970Y36045*X157623Y36215*X157272Y36376*X156916Y36528*X156558Y36672*X156195Y36806*X155830Y36932*X155461Y37049*X155090Y37157*X154716Y37255*X154340Y37344*X153962Y37424*X153582Y37495*X153201Y37557*X152818Y37609*X152434Y37651*X152048Y37684*X151663Y37708*X151276Y37722*X150890Y37727*X150504Y37722*X150117Y37708*X149732Y37684*X149346Y37651*X148962Y37609*X148579Y37557*X148198Y37495*X147818Y37424*X147440Y37344*X147064Y37255*X146690Y37157*X146319Y37049*X145950Y36932*X145585Y36806*X145222Y36672*X144864Y36528*X144508Y36376*X144157Y36215*X143810Y36045*X143466Y35867*X143128Y35681*X142794Y35487*X142465Y35284*X142141Y35073*X141822Y34854*X141509Y34628*X141201Y34394*X140900Y34152*X140604Y33904*X140314Y33647*X140031Y33384*X139754Y33115*X139485Y32838*X139222Y32555*X138965Y32265*X138717Y31969*X138475Y31668*X138241Y31360*X138015Y31047*X137796Y30728*X137585Y30404*X137382Y30075*X137188Y29741*X137002Y29403*X136824Y29059*X136654Y28712*X136493Y28361*X136341Y28005*X136197Y27647*X136063Y27284*X135937Y26919*X135820Y26550*X135712Y26179*X135614Y25805*X135525Y25429*X135445Y25051*X135374Y24671*X135312Y24290*X135260Y23907*X135218Y23523*X135185Y23137*X135161Y22752*X135147Y22365*X135142Y21979*X194906Y27294D2*X189906D1*X194906Y7294D2*X189906D1*Y27294*X184099Y25556D2*Y11532D1*X170713*Y25556*X184099*X0Y0D2*M02*