G04 Output by ViewMate Deluxe V11.12.18  PentaLogix*
G04 Wed Mar 06 15:41:31 2019*
%IPPOS*%
%FSLAX25Y25*%
%MOIN*%
%ADD10C,0.00394*%
%ADD11C,0.004*%
%ADD12C,0.003*%
%ADD13C,0.005*%
%ADD14R,0.00787X0.03937*%
%ADD15R,0.03937X0.00787*%
%ADD16C,0.012*%
%ADD17C,0.02362*%
%ADD18C,0.00197*%
%ADD19C,0.01575*%
%ADD20C,0.01969*%

%LPD*%
X0Y0D2*D10*G1X46156Y118544D2*X44281Y109169D1*X45531Y111044*X44281Y109169D2*X43656Y111044D1*X100457Y65690D2*Y146398D1*X169355*Y65690*X100457*D11*X81634Y177711D2*X84637D1*X85238Y178311*Y179512*X84637Y180113*X81634*X82235Y181394D2*X81634Y181995D1*Y183196*X82235Y183796*X82835*X85238Y181394*Y183796*X190240Y184595D2*X190840Y183994D1*X191441*X192041Y184595*X196325Y186997D2*Y187597D1*X193923*X191441D2*X192642D1*X192041Y184595D2*Y187597D1*X193923Y183994D2*Y184595D1*X196325Y186997*X250502Y148546D2*X253571D1*X252037Y147011D2*Y150081D1*X274603Y114896D2*Y112494D1*X276404*X275804Y113695*Y114296*X276404Y114896*X277606*X278206Y114296*Y113095*X277606Y112494*Y108811D2*X278206Y109411D1*Y110012*X277606Y110612*X274603*Y110012D2*Y111213D1*X219917Y78947D2*X220518Y79548D1*Y80749*X219917Y81349*X218116*Y77746*X219917Y78947D2*X218116D1*X220518Y77746D2*X219317Y78947D1*X221799Y78347D2*X222399Y77746D1*X223600*X224201Y78347*Y79548D2*X222399D1*X221799Y80148*Y80749*X222399Y81349*X223600*X224201Y80749*Y78347*X273207Y44494D2*X272606Y45095D1*X282374Y47497D2*X281774Y48097D1*X280573*X279972Y47497*Y45095*X280573Y44494*X281774*X282374Y45095*Y47497*X279972Y45095*X276289Y44494D2*X278691D1*X277490D2*Y48097D1*X276289Y46896*X275008Y48097D2*X273807D1*X274408D2*Y45095D1*X273807Y44494*X273207*X262508Y32097D2*X261307Y31497D1*X260106Y30296*Y29095*X260707Y28494*X261908*X262508Y29095*Y29695*X261908Y30296*X260106*X257624Y32097D2*X258825D1*X258224D2*Y29095D1*X257624Y28494*X257023*X256423Y29095*X218331Y37544D2*X218931D1*X215849Y35742D2*X213447D1*X217130Y36343D2*X217730Y35742D1*X218931*X219532Y36343*Y36943*X218931Y37544*X219532Y38144*Y38745*X218931Y39345*X217730*X217130Y38745*X213447D2*X214047Y39345D1*X215248*X215849Y38745*Y38144*X213447Y35742*X210964Y36943D2*X212165Y35742D1*X209763D2*Y39345D1*X211565*X212165Y38745*Y37544*X211565Y36943*X209763*X189630Y35044D2*X191431Y36845D1*Y33242*X189630Y35044D2*X192032D1*X185947Y33242D2*X188349D1*X185947Y36245D2*X186547Y36845D1*X187748*X188349Y36245*Y35644*X185947Y33242*X183464Y34443D2*X184665Y33242D1*X182263Y36845D2*X184065D1*X184665Y36245*Y35044*X184065Y34443*X182263*Y36845D2*Y33242D1*X123957Y45014D2*X124558D1*X122756Y43813D2*X123357Y43213D1*X124558*X125158Y43813*Y44414*X124558Y45014*X125158Y45615*Y46215*X124558Y46816*X123357*X122756Y46215*X121475Y46816D2*Y43813D1*X120874Y43213*X119673*X119073Y43813*Y46816*X60384Y58994D2*X63387D1*X63988Y59595*Y60796*X63387Y61396*X62186Y63879D2*Y64479D1*X62787Y65080D2*X62186Y64479D1*X61585Y65080*X60985*X60384Y64479*Y63278*X60985Y62678*X63387Y61396D2*X60384D1*X63387Y62678D2*X63988Y63278D1*Y64479*X63387Y65080*X62787*X62186Y66361D2*X63387D1*X63988Y66961*Y68162*X63387Y68763*X62787*X62186Y68162*Y66361*X60985Y67562*X60384Y68763*D12*X242607Y114678D2*X243842Y113444D1*Y116530D2*Y115296D1*X243224Y114678*X241373*Y113444D2*Y117147D1*X243224*X243842Y116530*X245056Y117147D2*X247525D1*Y116530*X245056Y114061*Y113444*X258383Y94959D2*X257766Y95576D1*Y98662*X263918D2*X262683Y98045D1*X261449Y96810*X263300*X263918Y96193*Y95576*X263300Y94959*X262066*X261449Y95576*Y96810*X260234Y98662D2*Y95576D1*X259617Y94959*X258383*X244366Y62147D2*X243132Y61530D1*X241898Y60296*Y59061D2*Y60296D1*X243749*X244366Y59678*Y59061*X243749Y58444*X242515*X241898Y59061*X234531D2*Y61530D1*X235148Y62147*X236383*X237000Y61530*X238214Y60913D2*X239449Y62147D1*Y58444*X238214D2*X240683D1*X237000Y59061D2*X236383Y58444D1*X235148*X234531Y59061*X90123Y18436D2*X90740Y17819D1*X91357*X91974Y18436*Y21522*X92592D2*X91357D1*X93806Y20905D2*X94423Y21522D1*X95658*X95040Y19671D2*X95658D1*X93806Y18436D2*X94423Y17819D1*X95658*X96275Y18436*Y19053*X95658Y19671*X96275Y20288*Y20905*X95658Y21522*X110025Y52147D2*X107556D1*Y50296*X108790Y50913*X109408*X110025Y50296*Y49061*X109408Y48444*X108173*X107556Y49061*X105107Y49678D2*X106342Y48444D1*X103873Y49678D2*X105724D1*X106342Y50296*Y51530*X105724Y52147*X103873*Y48444*X86278Y36688D2*X85660Y37305D1*X83809*Y33602*X85660*X86278Y34219*Y36688*X87492Y36070D2*X88726Y37305D1*Y33602*X89961D2*X87492D1*X95724Y32428D2*X96342Y33046D1*Y34280*X95724Y34897*X93873*Y31194*X95724Y32428D2*X93873D1*X96342Y31194D2*X95107Y32428D1*X99408Y31194D2*Y34897D1*X97556Y33046*X100025*X113158Y32421D2*X112540D1*X113775Y33655D2*X113158Y34272D1*X111923*X111306Y33655*X109474Y31803D2*X110092Y32421D1*Y33655*X109474Y34272*X107623*Y30569*X109474Y31803D2*X107623D1*X110092Y30569D2*X108857Y31803D1*X111306Y31186D2*X111923Y30569D1*X113158*X113775Y31186*Y31803*X113158Y32421*X113775Y33038*Y33655*X144449Y43069D2*Y46772D1*X143214Y45538*X141383Y44303D2*X142000Y44921D1*Y46155*X141383Y46772*X139531*Y43069*X141383Y44303D2*X139531D1*X142000Y43069D2*X140766Y44303D1*X145683Y43069D2*X143214D1*X146898Y44921D2*Y43686D1*X147515Y43069*X148749*X149366Y43686*Y44303*X148749Y44921*X146898*X148132Y46155*X149366Y46772*X171373Y80897D2*Y77811D1*X171990Y77194*X173224*X173842Y77811*Y80897*X175056Y79663D2*X176290Y80897D1*X175056Y77194D2*X177525D1*X176290Y80897D2*Y77194D1*X201889Y99388D2*X202506Y98771D1*Y97537*X201889Y96919*X199420*X198803Y97537*Y98771*X199420Y99388*X200037Y100603D2*X198803Y101837D1*X202506*Y103071D2*Y100603D1*Y106754D2*Y104286D1*X200037Y106754*X199420*X198803Y106137*X199420Y104286D2*X198803Y104903D1*Y106137*X190389Y109388D2*X191006Y108771D1*Y107537*X190389Y106919*X187920*X187303Y107537*Y108771*X187920Y109388*X187303Y111837D2*X188537Y110603D1*X187920Y114286D2*X187303Y114903D1*Y116137*X187920Y116754*X188537*X189154Y116137*Y115520D2*Y116137D1*X189772Y116754*X190389*X191006Y116137*Y114903*X190389Y114286*X191006Y110603D2*Y113071D1*X187303Y111837D2*X191006D1*X177506Y111212D2*X173803D1*X175037Y109978*X176272Y108146D2*X175654Y108763D1*X174420*X173803Y108146*Y106294*X177506*X176272Y108146D2*Y106294D1*X177506Y108763D2*X176272Y107529D1*X177506Y112446D2*Y109978D1*X176889Y113661D2*X174420D1*X173803Y114278*Y115512*X174420Y116129*X176889*X177506Y115512*Y114278*X176889Y113661*X174420Y116129*X166933Y161694D2*X164464D1*X166933Y164163*Y164780*X164464D2*X165082Y165397D1*X166316*X166933Y164780*X245683Y172444D2*X243214D1*X249366D2*X246898D1*X249366Y174913*Y175530*X248749Y176147*X247515*X246898Y175530*X243214D2*X243832Y176147D1*X245066*X245683Y175530*Y174913*X243214Y172444*X240766Y173678D2*X242000Y172444D1*X239531Y173678D2*X241383D1*X242000Y174296*Y175530*X241383Y176147*X239531*Y172444*X208891Y156803D2*X210125Y155569D1*X174531Y138671D2*X175766D1*X174531Y136819D2*Y140522D1*X177000*X178214D2*X180066D1*X180683Y139905*Y139288*X180066Y138671D2*X180683Y138053D1*Y137436*X180066Y136819*X178214*Y140522*Y138671D2*X180066D1*X180683Y139288*X181898D2*X183132Y140522D1*Y136819*X184366D2*X181898D1*X188857Y138053D2*X190092Y136819D1*Y138671D2*X189474Y138053D1*X187623*Y136819D2*Y140522D1*X189474*X190092Y139905*Y138671*X191923D2*X191306Y139288D1*Y139905*X191923Y140522*X193158*X193775Y139905*Y139288*X193158Y138671*X193775Y137436D2*Y138053D1*X193158Y138671*X191923*X191306Y138053*Y137436*X191923Y136819*X193158*X193775Y137436*X208131Y125037D2*Y126271D1*X207514Y126888*X206670Y136261D2*X206053Y136878D1*Y138113*X206670Y138730*X207904Y142413D2*Y140561D1*X207287Y139944*X206670*X206053Y140561*Y141796*X206670Y142413*X209139*X209756Y141796*Y140561*X209139Y139944*Y138730D2*X209756Y138113D1*Y136878*X209139Y136261*X206670*X206279Y131786D2*X204428Y133637D1*X208131*X206279Y131786D2*Y134254D1*X208131Y128103D2*Y130571D1*Y129337D2*X204428D1*X205662Y128103*X205045Y126888D2*X204428Y126271D1*Y125037*X205045Y124419*X207514*X208131Y125037*X220249Y123076D2*X219632Y122459D1*X218398*X217780Y123076*Y126162*X220249Y123076D2*Y126162D1*X223315Y122459D2*Y126162D1*X221464Y124310*X223932*X229500Y122811D2*X228883Y122194D1*X227648*X227031Y122811*Y125280*X227648Y125897*X228883*X229500Y125280*X230714Y124663D2*X231949Y125897D1*Y122194*X233183D2*X230714D1*X234398Y122811D2*Y125280D1*X235015Y125897*X236249*X236866Y125280*Y122811*X236249Y122194*X235015*X234398Y122811*X236866Y125280*X256306Y137905D2*X256923Y138522D1*X258158*X258775Y137905*X259989Y137288D2*X261224Y138522D1*Y134819*X263672Y137288D2*X264907Y138522D1*Y134819*X263672D2*X266141D1*X259989D2*X262458D1*X258775Y135436D2*X258158Y134819D1*X256923*X256306Y135436*Y137905*X233954Y153820D2*X236422D1*X233954Y150734D2*X234571Y150116D1*X235805*X236422Y150734*Y151968*X235805Y152585*X235188*X233954Y151968*Y153820*X232739D2*Y150734D1*X232122Y150116*X230888*X230271Y150734*Y153820*X224500Y155569D2*X223266Y156803D1*X229398Y158038D2*X230632Y159272D1*Y155569*X229398D2*X231866D1*X228183D2*X225714D1*X228183Y158038*Y158655*X227566Y159272*X226332*X225714Y158655*X222031Y159272D2*X223883D1*X224500Y158655*Y157421*X223883Y156803*X222031*Y159272D2*Y155569D1*X217491Y158655D2*X216874Y159272D1*X215640*X215023Y158655*Y156186*X215640Y155569*X216874*X217491Y156186*Y158655*X215023Y156186*X213808Y155569D2*X211339D1*X213808Y158038*Y158655*X213191Y159272*X211957*X211339Y158655*X207656Y155569D2*Y159272D1*Y156803D2*X209508D1*X210125Y157421*Y158655*X209508Y159272*X207656*X199756Y166888D2*X198522Y165654D1*X197904Y174254D2*Y172403D1*X197287Y171786*X196670*X196053Y172403*Y173637*X196670Y174254*X199139*X199756Y173637*Y172403*X199139Y171786*X199756Y168103D2*Y170571D1*Y169337D2*X196053D1*X197287Y168103*X196053Y166271D2*X196670Y166888D1*X197904*X198522Y166271*Y164419*X199756D2*X196053D1*Y166271*X186898Y166147D2*X189366D1*X186898Y163061D2*X187515Y162444D1*X188749*X189366Y163061*Y164296*X188749Y164913*X188132*X186898Y164296*Y166147*X180148D2*X181383D1*X182000Y165530*X183214Y164913D2*X184449Y166147D1*Y162444*X183214D2*X185683D1*X182000Y163061D2*X181383Y162444D1*X180148*X179531Y163061*Y165530*X180148Y166147*X177589Y172788D2*X178824Y174022D1*Y170319*X181273Y174022D2*X183741D1*Y173405*X181273Y170936*Y170319*X177589D2*X180058D1*X175141Y171553D2*X176375Y170319D1*X173906D2*Y174022D1*Y171553D2*X175758D1*X176375Y172171*Y173405*X175758Y174022*X173906*X164464Y184163D2*X165699Y185397D1*X166933Y181694D2*X164464D1*X165699Y185397D2*Y181694D1*X166306Y190801D2*X168775D1*X167540D2*Y194505D1*X166306Y193270*X163857Y194505D2*X165092D1*X164474D2*Y191419D1*X163857Y190801*X163240*X162623Y191419*X120321Y192947D2*X117852D1*X119087D2*Y196650D1*X117852Y195416*X116638Y196650D2*Y192947D1*X115404Y194181*X114169Y192947*Y196650*X112955Y196033D2*X112338Y196650D1*X111103*X110486Y196033*Y195416*X111103Y194799*X112338*X112955Y194181*Y193564*X112338Y192947*X111103*X110486Y193564*X37967Y158317D2*X38585Y157700D1*X39202*X39819Y158317*X39202Y161403D2*X40436D1*X39819Y158317D2*Y161403D1*X43502Y157700D2*Y161403D1*X41651Y159552*X44119*X90681Y156194D2*X93150D1*X90681Y159280D2*X91298Y159897D1*X92533*X93150Y159280*Y158663*X90681Y156194*X88232Y157428D2*X89467Y156194D1*X86998Y157428D2*X88849D1*X89467Y158046*Y159280*X88849Y159897*X86998*Y156194*X76394Y154452D2*X73925D1*X76394Y156921*Y157538*X75777Y158155*X74542*X73925Y157538*X72711Y158155D2*Y154452D1*X71476Y155686*X70242Y154452*Y158155*X69028Y157538D2*X68410Y158155D1*X67176*X66559Y157538*Y156921*X67176Y156304*X68410*X69028Y155686*Y155069*X68410Y154452*X67176*X66559Y155069*X65670Y121786D2*X65053Y122403D1*X66904Y123020D2*Y123637D1*X68139Y121786D2*X68756Y122403D1*Y123637*X68139Y124254*X67522*X66904Y123637*X66287Y124254*X65670*X65053Y123637*Y122403*X40632Y117444D2*Y121147D1*X39398Y119913*X36949Y117444D2*Y121147D1*X35714Y119913*X33883Y118678D2*X34500Y119296D1*Y120530*X33883Y121147*X32031*Y117444*X33883Y118678D2*X32031D1*X34500Y117444D2*X33266Y118678D1*X38183Y117444D2*X35714D1*X41866D2*X39398D1*X48839Y119787D2*X46370D1*X48839Y122255*X43921Y121021D2*X45156Y119787D1*Y122873D2*X44538Y123490D1*X43304*X42687Y122873*Y120404*X43304Y119787*X44538*X45156Y120404*Y122873*X46370D2*X46987Y123490D1*X48222*X48839Y122873*Y122255*X54464Y121163D2*X55699Y122397D1*X52633Y119928D2*X53250Y120546D1*Y121780*X52633Y122397*X50781*Y118694*X52633Y119928D2*X50781D1*X53250Y118694D2*X52016Y119928D1*X56933Y118694D2*X54464D1*X55699Y122397D2*Y118694D1*X58148Y121780D2*X58765Y122397D1*X59999*X60616Y121780*Y121163*X58148Y118694*X60616*X66287Y118103D2*X65053Y119337D1*X68756*Y118103D2*Y120571D1*X67522Y116271D2*X66904Y116888D1*X65670*X65053Y116271*Y114419*X68756*X67522Y116271D2*Y114419D1*X68756Y116888D2*X67522Y115654D1*X83783Y116546D2*X83165D1*X84400Y115311D2*Y115928D1*X83783Y116546*X84400Y117163*Y117780*X83783Y118397*X82548*X81931Y117780*X80717D2*X80099Y118397D1*X78865*X78248Y117780*Y115311*X78865Y114694*X80099*X80717Y115311*X81931D2*X82548Y114694D1*X83783*X84400Y115311*X91373Y109936D2*X91990Y109319D1*X93224*X93842Y109936*X95056Y109319D2*X97525D1*X96290D2*Y113022D1*X95056Y111788*X93842Y112405D2*X93224Y113022D1*X91990*X91373Y112405*Y109936*X70104Y97287D2*Y100990D1*X68870Y99755*X65804Y97287D2*X67038D1*X67656Y97904*Y100373*X67038Y100990*X65804*X65187Y100373*Y97904*X65804Y97287*X67656D2*X66421Y98521D1*X71339Y97287D2*X68870D1*X87556Y81194D2*X90025D1*X84490D2*X83873Y81811D1*Y84280*X84490Y84897*X85724*X86342Y84280*X87556D2*X88173Y84897D1*X89408*X90025Y84280*Y83663*X87556Y81194*X86342Y81811D2*X85724Y81194D1*X84490*X80658Y79272D2*Y75569D1*X75123Y78655D2*X75740Y79272D1*X76974*X77592Y78655*X80658Y79272D2*X78806Y77421D1*X81275*X77592Y76186D2*X76974Y75569D1*X75740*X75123Y76186*Y78655*X61998Y84905D2*X62615Y85522D1*X63849*X64467Y84905*X68150Y85522D2*X66915Y84905D1*X65681Y83671*Y82436D2*Y83671D1*X67533*X68150Y83053*Y82436*X67533Y81819*X66298*X65681Y82436*X64467D2*X63849Y81819D1*X62615*X61998Y82436*Y84905*X40740Y87444D2*X40123Y88061D1*X45658Y89296D2*X46275Y88678D1*Y88061*X45658Y87444*X44423*X43806Y88061*Y88678*X44423Y89296*X43806Y90530D2*Y89913D1*X44423Y89296*X45658*X46275Y89913*Y90530*X45658Y91147*X44423*X43806Y90530*X41357Y91147D2*X42592D1*X41974D2*Y88061D1*X41357Y87444*X40740*X39803Y73694D2*Y76163D1*X42889Y70011D2*X43506Y70628D1*Y71863*X42889Y72480*Y73694D2*X43506Y74311D1*Y75546*X42889Y76163*X41654*X41037Y75546*Y74928*X41654Y73694*X39803*X40420Y72480D2*X39803Y71863D1*Y70628*X40420Y70011*X42889*X53775Y50280D2*Y50897D1*X51306*X50092Y50280D2*X49474Y50897D1*X48240*X47623Y50280*Y47811*X48240Y47194*X49474*X50092Y47811*X51306Y47194D2*Y47811D1*X53775Y50280*X64498Y39655D2*X65115Y40272D1*X66349*X66967Y39655*X70033Y38421D2*X70650Y39038D1*Y39655*X70033Y40272*X68798*X68181Y39655*Y39038*X68798Y38421*X68181Y37186D2*X68798Y36569D1*X70033*X70650Y37186*Y37803*X70033Y38421*X68798*X68181Y37803*Y37186*X66967D2*X66349Y36569D1*X65115*X64498Y37186*Y39655*X55495Y40503D2*X57964D1*X55495Y37417D2*X56112Y36799D1*X57347*X57964Y37417*Y38651*X57347Y39268*X56729*X55495Y38651*Y40503*X51812Y39885D2*X52429Y40503D1*X53663*X54281Y39885*Y39268*X53663Y38651*X53046D2*X53663D1*X54281Y38034*Y37417*X53663Y36799*X52429*X51812Y37417*X48746Y36799D2*X49980D1*X50598Y37417*Y40503*X48129D2*Y37417D1*X48746Y36799*X45397Y19370D2*X46631Y20605D1*X44779D2*X43545D1*X42928Y19988*Y18136*X46631*X45397D2*Y19988D1*X44779Y20605*Y21819D2*X46014D1*X46631Y22436*Y23671*X46014Y24288*X45397*X44779Y23671*Y21819*X43545Y23053*X42928Y24288*X33761Y21194D2*Y23663D1*X30675Y21194D2*X30058Y21811D1*Y23046*X30675Y23663*X31292*X33761Y21194*X33144Y17511D2*X33761Y18128D1*Y18745*X33144Y19363*X30058*Y19980D2*Y18745D1*D13*X28843Y179459D2*X28848Y179073D1*X28862Y178686*X28886Y178301*X28919Y177915*X28961Y177531*X29013Y177148*X29075Y176767*X29146Y176387*X29226Y176009*X29315Y175633*X29413Y175259*X29521Y174888*X29638Y174519*X29764Y174154*X29898Y173791*X30042Y173433*X30194Y173077*X30355Y172726*X30525Y172379*X30703Y172035*X30889Y171697*X31083Y171363*X31286Y171034*X31497Y170710*X31716Y170391*X31942Y170078*X32176Y169770*X32418Y169469*X32666Y169173*X32923Y168883*X33186Y168600*X33455Y168323*X33732Y168054*X34015Y167791*X34305Y167534*X34601Y167286*X34902Y167044*X35210Y166810*X35523Y166584*X35842Y166365*X36166Y166154*X36495Y165951*X36829Y165757*X37167Y165571*X37511Y165393*X37858Y165223*X38209Y165062*X38565Y164910*X38923Y164766*X39286Y164632*X39651Y164506*X40020Y164389*X40391Y164281*X40765Y164183*X41141Y164094*X41519Y164014*X41899Y163943*X42280Y163881*X42663Y163829*X43047Y163787*X43433Y163754*X43818Y163730*X44205Y163716*X44591Y163711*X44977Y163716*X45364Y163730*X45749Y163754*X46135Y163787*X46519Y163829*X46902Y163881*X47283Y163943*X47663Y164014*X48041Y164094*X48417Y164183*X48791Y164281*X49162Y164389*X49531Y164506*X49896Y164632*X50259Y164766*X50617Y164910*X50973Y165062*X51324Y165223*X51671Y165393*X52015Y165571*X52353Y165757*X52687Y165951*X53016Y166154*X53340Y166365*X53659Y166584*X53972Y166810*X54280Y167044*X54581Y167286*X54877Y167534*X55167Y167791*X55450Y168054*X55727Y168323*X55996Y168600*X56259Y168883*X56516Y169173*X56764Y169469*X57006Y169770*X57240Y170078*X57466Y170391*X57685Y170710*X57896Y171034*X58099Y171363*X58293Y171697*X58479Y172035*X58657Y172379*X58827Y172726*X58988Y173077*X59140Y173433*X59284Y173791*X59418Y174154*X59544Y174519*X59661Y174888*X59769Y175259*X59867Y175633*X59956Y176009*X60036Y176387*X60107Y176767*X60169Y177148*X60221Y177531*X60263Y177915*X60296Y178301*X60320Y178686*X60334Y179073*X60339Y179459*X60334Y179845*X60320Y180232*X60296Y180617*X60263Y181003*X60221Y181387*X60169Y181770*X60107Y182151*X60036Y182531*X59956Y182909*X59867Y183285*X59769Y183659*X59661Y184030*X59544Y184399*X59418Y184764*X59284Y185127*X59140Y185485*X58988Y185841*X58827Y186192*X58657Y186539*X58479Y186883*X58293Y187221*X58099Y187555*X57896Y187884*X57685Y188208*X57466Y188527*X57240Y188840*X57006Y189148*X56764Y189449*X56516Y189745*X56259Y190035*X55996Y190318*X55727Y190595*X55450Y190864*X55167Y191127*X54877Y191384*X54581Y191632*X54280Y191874*X53972Y192108*X53659Y192334*X53340Y192553*X53016Y192764*X52687Y192967*X52353Y193161*X52015Y193347*X51671Y193525*X51324Y193695*X50973Y193856*X50617Y194008*X50259Y194152*X49896Y194286*X49531Y194412*X49162Y194529*X48791Y194637*X48417Y194735*X48041Y194824*X47663Y194904*X47283Y194975*X46902Y195037*X46519Y195089*X46135Y195131*X45749Y195164*X45364Y195188*X44977Y195202*X44591Y195207*X44205Y195202*X43818Y195188*X43433Y195164*X43047Y195131*X42663Y195089*X42280Y195037*X41899Y194975*X41519Y194904*X41141Y194824*X40765Y194735*X40391Y194637*X40020Y194529*X39651Y194412*X39286Y194286*X38923Y194152*X38565Y194008*X38209Y193856*X37858Y193695*X37511Y193525*X37167Y193347*X36829Y193161*X36495Y192967*X36166Y192764*X35842Y192553*X35523Y192334*X35210Y192108*X34902Y191874*X34601Y191632*X34305Y191384*X34015Y191127*X33732Y190864*X33455Y190595*X33186Y190318*X32923Y190035*X32666Y189745*X32418Y189449*X32176Y189148*X31942Y188840*X31716Y188527*X31497Y188208*X31286Y187884*X31083Y187555*X30889Y187221*X30703Y186883*X30525Y186539*X30355Y186192*X30194Y185841*X30042Y185485*X29898Y185127*X29764Y184764*X29638Y184399*X29521Y184030*X29413Y183659*X29315Y183285*X29226Y182909*X29146Y182531*X29075Y182151*X29013Y181770*X28961Y181387*X28919Y181003*X28886Y180617*X28862Y180232*X28848Y179845*X28843Y179459*X80024Y191270D2*X78056D1*X86766Y171202D2*Y190887D1*X100546*Y171202*X86766*X68213Y175522D2*X76087D1*Y183396*X68213*Y175522*X66245Y167648D2*X64276D1*Y161743D2*Y167648D1*Y191270*X66245D2*X64276D1*Y197176*X80024*Y191270*Y167648*X78056D2*X80024D1*Y161743*X64276*X25595Y140089D2*X25600Y139706D1*X25614Y139323*X25637Y138941*X25670Y138559*X25712Y138178*X25764Y137799*X25825Y137420*X25895Y137044*X25974Y136669*X26063Y136296*X26160Y135926*X26267Y135558*X26383Y135192*X26507Y134830*X26641Y134471*X26783Y134115*X26934Y133763*X27094Y133415*X27262Y133071*X27438Y132730*X27623Y132395*X27816Y132064*X28017Y131738*X28226Y131417*X28443Y131101*X28667Y130790*X28899Y130485*X29138Y130186*X29385Y129893*X29639Y129606*X29900Y129325*X30167Y129051*X30441Y128784*X30722Y128523*X31009Y128269*X31302Y128022*X31601Y127783*X31906Y127551*X32217Y127327*X32533Y127110*X32854Y126901*X33180Y126700*X33511Y126507*X33846Y126322*X34187Y126146*X34531Y125978*X34879Y125818*X35231Y125667*X35587Y125525*X35946Y125391*X36308Y125267*X36674Y125151*X37042Y125044*X37412Y124947*X37785Y124858*X38160Y124779*X38536Y124709*X38915Y124648*X39294Y124596*X39675Y124554*X40057Y124521*X40439Y124498*X40822Y124484*X41205Y124479*X41588Y124484*X41971Y124498*X42353Y124521*X42735Y124554*X43116Y124596*X43495Y124648*X43874Y124709*X44250Y124779*X44625Y124858*X44998Y124947*X45368Y125044*X45736Y125151*X46102Y125267*X46464Y125391*X46823Y125525*X47179Y125667*X47531Y125818*X47879Y125978*X48223Y126146*X48564Y126322*X48899Y126507*X49230Y126700*X49556Y126901*X49877Y127110*X50193Y127327*X50504Y127551*X50809Y127783*X51108Y128022*X51401Y128269*X51688Y128523*X51969Y128784*X52243Y129051*X52510Y129325*X52771Y129606*X53025Y129893*X53272Y130186*X53511Y130485*X53743Y130790*X53967Y131101*X54184Y131417*X54393Y131738*X54594Y132064*X54787Y132395*X54972Y132730*X55148Y133071*X55316Y133415*X55476Y133763*X55627Y134115*X55769Y134471*X55903Y134830*X56027Y135192*X56143Y135558*X56250Y135926*X56347Y136296*X56436Y136669*X56515Y137044*X56585Y137420*X56646Y137799*X56698Y138178*X56740Y138559*X56773Y138941*X56796Y139323*X56810Y139706*X56815Y140089*X56810Y140472*X56796Y140855*X56773Y141237*X56740Y141619*X56698Y142000*X56646Y142379*X56585Y142758*X56515Y143134*X56436Y143509*X56347Y143882*X56250Y144252*X56143Y144620*X56027Y144986*X55903Y145348*X55769Y145707*X55627Y146063*X55476Y146415*X55316Y146763*X55148Y147107*X54972Y147448*X54787Y147783*X54594Y148114*X54393Y148440*X54184Y148761*X53967Y149077*X53743Y149388*X53511Y149693*X53272Y149992*X53025Y150285*X52771Y150572*X52510Y150853*X52243Y151127*X51969Y151394*X51688Y151655*X51401Y151909*X51108Y152156*X50809Y152395*X50504Y152627*X50193Y152851*X49877Y153068*X49556Y153277*X49230Y153478*X48899Y153671*X48564Y153856*X48223Y154032*X47879Y154200*X47531Y154360*X47179Y154511*X46823Y154653*X46464Y154787*X46102Y154911*X45736Y155027*X45368Y155134*X44998Y155231*X44625Y155320*X44250Y155399*X43874Y155469*X43495Y155530*X43116Y155582*X42735Y155624*X42353Y155657*X41971Y155680*X41588Y155694*X41205Y155699*X40822Y155694*X40439Y155680*X40057Y155657*X39675Y155624*X39294Y155582*X38915Y155530*X38536Y155469*X38160Y155399*X37785Y155320*X37412Y155231*X37042Y155134*X36674Y155027*X36308Y154911*X35946Y154787*X35587Y154653*X35231Y154511*X34879Y154360*X34531Y154200*X34187Y154032*X33846Y153856*X33511Y153671*X33180Y153478*X32854Y153277*X32533Y153068*X32217Y152851*X31906Y152627*X31601Y152395*X31302Y152156*X31009Y151909*X30722Y151655*X30441Y151394*X30167Y151127*X29900Y150853*X29639Y150572*X29385Y150285*X29138Y149992*X28899Y149693*X28667Y149388*X28443Y149077*X28226Y148761*X28017Y148440*X27816Y148114*X27623Y147783*X27438Y147448*X27262Y147107*X27094Y146763*X26934Y146415*X26783Y146063*X26641Y145707*X26507Y145348*X26383Y144986*X26267Y144620*X26160Y144252*X26063Y143882*X25974Y143509*X25895Y143134*X25825Y142758*X25764Y142379*X25712Y142000*X25670Y141619*X25637Y141237*X25614Y140855*X25600Y140472*X25595Y140089*X53016Y128278D2*Y151900D1*X29394*Y128278*X53016*X48282Y93170D2*X64030D1*Y108918*X48282*Y93170*X29532D2*X45280D1*Y108918*X29532*Y93170*X28656Y71044D2*X38656D1*Y91044*X28656*Y71044*X38656Y70590D2*X28656D1*Y70092D2*X38656D1*Y69593D2*X28656D1*X38656Y69544D2*Y71044D1*X28656*Y69544*X38656*X45516Y58077D2*Y77762D1*X59296*Y58077*X45516*X41835Y26900D2*Y56428D1*X24906*X22150*X19788*Y26900*X22150*X24906*X41835*X83184Y27221D2*Y14867D1*X49128*Y27221*X83184*X96530Y38170D2*X80782D1*Y53918*X96530*Y38170*X131406Y7778D2*X129906D1*Y8276D2*X131406D1*Y8775D2*X129906D1*Y9273D2*X131406D1*Y9772D2*X129906D1*Y10270D2*X131406D1*Y10769D2*X129906D1*Y11267D2*X131406D1*Y11766D2*X129906D1*Y12264D2*X131406D1*Y12763D2*X129906D1*Y13261D2*X131406D1*Y13760D2*X129906D1*Y14258D2*X131406D1*Y14757D2*X129906D1*Y15255D2*X131406D1*Y15754D2*X129906D1*Y16252D2*X131406D1*Y16751D2*X129906D1*Y17249D2*X131406D1*X129906Y17294D2*Y7294D1*X89906*Y17294*X129906*X131406*Y7294*X129906*Y17294*X129296Y22452D2*X115516D1*Y42137*X129296*Y22452*X135142Y21979D2*X135147Y21593D1*X135161Y21206*X135185Y20821*X135218Y20435*X135260Y20051*X135312Y19668*X135374Y19287*X135445Y18907*X135525Y18529*X135614Y18153*X135712Y17779*X135820Y17408*X135937Y17039*X136063Y16674*X136197Y16311*X136341Y15953*X136493Y15597*X136654Y15246*X136824Y14899*X137002Y14555*X137188Y14217*X137382Y13883*X137585Y13554*X137796Y13230*X138015Y12911*X138241Y12598*X138475Y12290*X138717Y11989*X138965Y11693*X139222Y11403*X139485Y11120*X139754Y10843*X140031Y10574*X140314Y10311*X140604Y10054*X140900Y9806*X141201Y9564*X141509Y9330*X141822Y9104*X142141Y8885*X142465Y8674*X142794Y8471*X143128Y8277*X143466Y8091*X143810Y7913*X144157Y7743*X144508Y7582*X144864Y7430*X145222Y7286*X145585Y7152*X145950Y7026*X146319Y6909*X146690Y6801*X147064Y6703*X147440Y6614*X147818Y6534*X148198Y6463*X148579Y6401*X148962Y6349*X149346Y6307*X149732Y6274*X150117Y6250*X150504Y6236*X150890Y6231*X151276Y6236*X151663Y6250*X152048Y6274*X152434Y6307*X152818Y6349*X153201Y6401*X153582Y6463*X153962Y6534*X154340Y6614*X154716Y6703*X155090Y6801*X155461Y6909*X155830Y7026*X156195Y7152*X156558Y7286*X156916Y7430*X157272Y7582*X157623Y7743*X157970Y7913*X158314Y8091*X158652Y8277*X158986Y8471*X159315Y8674*X159639Y8885*X159958Y9104*X160271Y9330*X160579Y9564*X160880Y9806*X161176Y10054*X161466Y10311*X161749Y10574*X162026Y10843*X162295Y11120*X162558Y11403*X162815Y11693*X163063Y11989*X163305Y12290*X163539Y12598*X163765Y12911*X163984Y13230*X164195Y13554*X164398Y13883*X164592Y14217*X164778Y14555*X164956Y14899*X165126Y15246*X165287Y15597*X165439Y15953*X165583Y16311*X165717Y16674*X165843Y17039*X165960Y17408*X166068Y17779*X166166Y18153*X166255Y18529*X166335Y18907*X166406Y19287*X166468Y19668*X166520Y20051*X166562Y20435*X166595Y20821*X166619Y21206*X166633Y21593*X166638Y21979*X166633Y22365*X166619Y22752*X166595Y23137*X166562Y23523*X166520Y23907*X166468Y24290*X166406Y24671*X166335Y25051*X166255Y25429*X166166Y25805*X166068Y26179*X165960Y26550*X165843Y26919*X165717Y27284*X165583Y27647*X165439Y28005*X165287Y28361*X165126Y28712*X164956Y29059*X164778Y29403*X164592Y29741*X164398Y30075*X164195Y30404*X163984Y30728*X163765Y31047*X163539Y31360*X163305Y31668*X163063Y31969*X162815Y32265*X162558Y32555*X162295Y32838*X162026Y33115*X161749Y33384*X161466Y33647*X161176Y33904*X160880Y34152*X160579Y34394*X160271Y34628*X159958Y34854*X159639Y35073*X159315Y35284*X158986Y35487*X158652Y35681*X158314Y35867*X157970Y36045*X157623Y36215*X157272Y36376*X156916Y36528*X156558Y36672*X156195Y36806*X155830Y36932*X155461Y37049*X155090Y37157*X154716Y37255*X154340Y37344*X153962Y37424*X153582Y37495*X153201Y37557*X152818Y37609*X152434Y37651*X152048Y37684*X151663Y37708*X151276Y37722*X150890Y37727*X150504Y37722*X150117Y37708*X149732Y37684*X149346Y37651*X148962Y37609*X148579Y37557*X148198Y37495*X147818Y37424*X147440Y37344*X147064Y37255*X146690Y37157*X146319Y37049*X145950Y36932*X145585Y36806*X145222Y36672*X144864Y36528*X144508Y36376*X144157Y36215*X143810Y36045*X143466Y35867*X143128Y35681*X142794Y35487*X142465Y35284*X142141Y35073*X141822Y34854*X141509Y34628*X141201Y34394*X140900Y34152*X140604Y33904*X140314Y33647*X140031Y33384*X139754Y33115*X139485Y32838*X139222Y32555*X138965Y32265*X138717Y31969*X138475Y31668*X138241Y31360*X138015Y31047*X137796Y30728*X137585Y30404*X137382Y30075*X137188Y29741*X137002Y29403*X136824Y29059*X136654Y28712*X136493Y28361*X136341Y28005*X136197Y27647*X136063Y27284*X135937Y26919*X135820Y26550*X135712Y26179*X135614Y25805*X135525Y25429*X135445Y25051*X135374Y24671*X135312Y24290*X135260Y23907*X135218Y23523*X135185Y23137*X135161Y22752*X135147Y22365*X135142Y21979*X194906Y7294D2*X189906D1*Y27294*X194906*X194099Y56806D2*X180713D1*Y42782*X194099*Y56806*X221599D2*X208213D1*Y42782*X221599*Y56806*X234906Y57294D2*X229906D1*Y37294*X234906*X284906Y7294D2*X289906D1*Y27294*X284906*X264906Y37294D2*X269906D1*Y57294*X264906*X299906Y62294D2*Y57294D1*X279906*Y62294*X252298Y92845D2*X270014D1*Y61743*X252298*Y92845*X227849Y96806D2*X214463D1*Y82782*X227849*Y96806*X299906Y152294D2*Y157294D1*X279906*Y152294*X265064Y179459D2*X265069Y179073D1*X265083Y178686*X265107Y178301*X265140Y177915*X265182Y177531*X265234Y177148*X265296Y176767*X265367Y176387*X265447Y176009*X265536Y175633*X265634Y175259*X265742Y174888*X265859Y174519*X265985Y174154*X266119Y173791*X266263Y173433*X266415Y173077*X266576Y172726*X266746Y172379*X266924Y172035*X267110Y171697*X267304Y171363*X267507Y171034*X267718Y170710*X267937Y170391*X268163Y170078*X268397Y169770*X268639Y169469*X268887Y169173*X269144Y168883*X269407Y168600*X269676Y168323*X269953Y168054*X270236Y167791*X270526Y167534*X270822Y167286*X271123Y167044*X271431Y166810*X271744Y166584*X272063Y166365*X272387Y166154*X272716Y165951*X273050Y165757*X273388Y165571*X273732Y165393*X274079Y165223*X274430Y165062*X274786Y164910*X275144Y164766*X275507Y164632*X275872Y164506*X276241Y164389*X276612Y164281*X276986Y164183*X277362Y164094*X277740Y164014*X278120Y163943*X278501Y163881*X278884Y163829*X279268Y163787*X279654Y163754*X280039Y163730*X280426Y163716*X280812Y163711*X281198Y163716*X281585Y163730*X281970Y163754*X282356Y163787*X282740Y163829*X283123Y163881*X283504Y163943*X283884Y164014*X284262Y164094*X284638Y164183*X285012Y164281*X285383Y164389*X285752Y164506*X286117Y164632*X286480Y164766*X286838Y164910*X287194Y165062*X287545Y165223*X287892Y165393*X288236Y165571*X288574Y165757*X288908Y165951*X289237Y166154*X289561Y166365*X289880Y166584*X290193Y166810*X290501Y167044*X290802Y167286*X291098Y167534*X291388Y167791*X291671Y168054*X291948Y168323*X292217Y168600*X292480Y168883*X292737Y169173*X292985Y169469*X293227Y169770*X293461Y170078*X293687Y170391*X293906Y170710*X294117Y171034*X294320Y171363*X294514Y171697*X294700Y172035*X294878Y172379*X295048Y172726*X295209Y173077*X295361Y173433*X295505Y173791*X295639Y174154*X295765Y174519*X295882Y174888*X295990Y175259*X296088Y175633*X296177Y176009*X296257Y176387*X296328Y176767*X296390Y177148*X296442Y177531*X296484Y177915*X296517Y178301*X296541Y178686*X296555Y179073*X296560Y179459*X296555Y179845*X296541Y180232*X296517Y180617*X296484Y181003*X296442Y181387*X296390Y181770*X296328Y182151*X296257Y182531*X296177Y182909*X296088Y183285*X295990Y183659*X295882Y184030*X295765Y184399*X295639Y184764*X295505Y185127*X295361Y185485*X295209Y185841*X295048Y186192*X294878Y186539*X294700Y186883*X294514Y187221*X294320Y187555*X294117Y187884*X293906Y188208*X293687Y188527*X293461Y188840*X293227Y189148*X292985Y189449*X292737Y189745*X292480Y190035*X292217Y190318*X291948Y190595*X291671Y190864*X291388Y191127*X291098Y191384*X290802Y191632*X290501Y191874*X290193Y192108*X289880Y192334*X289561Y192553*X289237Y192764*X288908Y192967*X288574Y193161*X288236Y193347*X287892Y193525*X287545Y193695*X287194Y193856*X286838Y194008*X286480Y194152*X286117Y194286*X285752Y194412*X285383Y194529*X285012Y194637*X284638Y194735*X284262Y194824*X283884Y194904*X283504Y194975*X283123Y195037*X282740Y195089*X282356Y195131*X281970Y195164*X281585Y195188*X281198Y195202*X280812Y195207*X280426Y195202*X280039Y195188*X279654Y195164*X279268Y195131*X278884Y195089*X278501Y195037*X278120Y194975*X277740Y194904*X277362Y194824*X276986Y194735*X276612Y194637*X276241Y194529*X275872Y194412*X275507Y194286*X275144Y194152*X274786Y194008*X274430Y193856*X274079Y193695*X273732Y193525*X273388Y193347*X273050Y193161*X272716Y192967*X272387Y192764*X272063Y192553*X271744Y192334*X271431Y192108*X271123Y191874*X270822Y191632*X270526Y191384*X270236Y191127*X269953Y190864*X269676Y190595*X269407Y190318*X269144Y190035*X268887Y189745*X268639Y189449*X268397Y189148*X268163Y188840*X267937Y188527*X267718Y188208*X267507Y187884*X267304Y187555*X267110Y187221*X266924Y186883*X266746Y186539*X266576Y186192*X266415Y185841*X266263Y185485*X266119Y185127*X265985Y184764*X265859Y184399*X265742Y184030*X265634Y183659*X265536Y183285*X265447Y182909*X265367Y182531*X265296Y182151*X265234Y181770*X265182Y181387*X265140Y181003*X265107Y180617*X265083Y180232*X265069Y179845*X265064Y179459*X254906Y177294D2*X259906D1*Y197294*X254906*X204906D2*X199906D1*Y177294*X204906*X138656Y180237D2*X163656D1*X128361Y162603D2*X103951D1*Y184485*X128361*Y162603*X163656Y166851D2*X138656D1*X163656Y158977D2*X138656D1*Y188111*X163656*Y158977*X186156Y134794D2*X176156D1*Y119794*X186156*Y134794*X196131Y128593D2*Y138593D1*X202431D2*Y128593D1*X239758Y136192D2*X227554D1*Y148396*X239758*Y136192*X254306Y140370D2*Y130370D1*X248006D2*Y140370D1*X227530Y120887D2*Y101202D1*X214782*Y120887*X227530*D16*X254306Y142968D2*Y140370D1*X248006D2*Y142968D1*X196131Y128593D2*Y125995D1*X202431D2*Y128593D1*D18*X22150Y56428D2*Y26900D1*X24906Y51999D2*Y56428D1*Y43633D2*Y48062D1*Y35267D2*Y39696D1*Y26900D2*Y31330D1*D14*X246038Y146886D3*X204399Y122078D3*D15*X204399Y122078D3*X246038Y146886D3*D17*X47554Y10930D3*X173292Y68643D3*X272697Y59627D3*X233436Y99233D3*X128361Y188422D3*X165625Y188402D3*X223443Y149578D3*D19*X43607Y55444D3*D20*X103499Y187934D3*X112564Y25404D3*X62249Y74809D3*X0Y0D2*M02*