
M48
INCH,LZ,00.0000
T01C0.0118
T02C0.0157
T03C0.0315
T04C0.04
T05C0.063
T06C0.0709
T07C0.126
%
M72
G90
T01
X01627Y002198
X01568Y001175
X014499
X013908Y002198
X014499Y003221
X01568
X027491Y018969
X028672
X029262Y017946
X028672Y016923
X027491
X0269Y017946
X00505Y018969
X003869
X003278Y017946
X003869Y016923
X00505
X00564Y017946
X015616Y013354
X014991
X014366
X013741
X013116
Y012729
X013741
X014366
X014991
X015616
Y012104
X014991
X014366
X013741
X013116
X011866Y010229
X011241
Y009604
X011866
Y008354
X011241
Y008979
X011866
X013176Y008813
X01292Y008557
X012664Y008813
X01292Y009069
X013176Y009994
X01292Y009738
X012664Y009994
X01292Y01025
Y010919
X012664Y011175
X01292Y011431
X013176Y011175
X014101Y010919
X013845Y011175
X014101Y011431
X014357Y011175
X015538
X015282Y011431
X015026Y011175
X015282Y010919
Y009738
X015538Y009994
X015282Y01025
X015026Y009994
X014357
X014101Y01025
X013845Y009994
X014101Y009738
Y009069
X013845Y008813
X014101Y008557
X014357Y008813
X015538
X015282Y009069
X015026Y008813
X015282Y008557
X015616Y007729
X014991
X014366
X013741
X013116
X012491
X011866
X011241
T02
X017018Y014914
X018121Y019639
X01875
X019616Y017729
X028928Y015979
X029774Y016607
X026939Y019639
X02631
Y018914
X024116Y016979
X024491Y015104
X021991Y015354
X019928Y014354
X020866Y014979
X020053
X019616Y015729
X020491Y016229
X021491
X022491
X023491
X024491Y015979
X025866Y015854
X026428
X026866Y014229
X026616Y007886
X028366Y004294
X025443Y000505
X026073
X026703
X027333
X027963
X028593Y000584
X029223Y000938
X029577Y001489
X029774Y002119
Y002749
Y003379
Y004009
X029176Y004294
X029774Y004639
Y005269
X029176Y005104
X028366
X027366Y005354
X026241Y006354
X026616Y006698
X025866Y006917
X025584Y007604
Y008104
Y008604
Y009073
X020366Y009292
Y008479
X019616
X012241Y003229
X006991Y009417
X006553Y009104
X007491Y008604
X006678Y007854
Y006854
X007866Y006104
X007366Y005229
X006991Y004479
X007741
X009866Y004354
X010866Y003604
X010116Y002229
X007741
X007116Y001729
X005116Y002479
X004616Y003667
X005366Y004479
X005178Y005354
X004866Y005604
X002766Y006529
Y007159
X004178Y008104
X002766Y009048
Y009678
Y010308
Y010938
Y012198
Y011568
X004741Y011354
X009553Y015854
X008053
X006178
X002766Y015977
Y016607
X005522Y019639
X006152
X007241Y017792
X010562Y019639
X010303Y019197
X009932Y019639
X009302
X008672
X008428Y019197
X009366Y018104
X010241Y017479
X011616Y017729
X013303Y017479
X013616Y018104
X014116Y019104
X014616
X015116
X015616
X016231Y019639
X016861
X017491
X017586Y019039
X017018Y018694
Y017434
Y016174
Y015544
X016116Y015479
X015983Y014972
X014991Y015354
X013108Y015972
X013116Y014979
X011366Y015354
X010866
X009553Y014854
X008553
X007845Y012985
X008436Y01267
X009105Y012454
X009735Y012395
Y0133
X009065Y013418
X008436Y013733
X007806Y014009
X007215Y014206
X006585Y014363
X005955Y014422
Y013497
X006585Y013379
X007215Y013182
X006178Y012479
X007116Y011917
X007553Y011542
X008741Y011354
X009366Y010604
X008741Y010354
X008803Y009354
X008428Y008729
X009178Y007479
X009491Y006479
X010178Y006229
X010991
X011741Y005354
X012491Y006229
X012616Y005604
X013991Y005229
X015366Y005604
X016616Y004354
X017616Y004479
X017866Y005229
X017018Y006411
X017241Y007354
X017616Y008604
X018241
X018803Y009479
X017741
X017491Y010354
X018053Y011292
X019553Y012104
X021491Y012979
X022178Y013417
X022678Y012854
X024616Y012667
X025178Y012229
X025928Y011479
X025428Y010979
X024928Y010479
X023866Y011229
X022116Y011104
Y009979
X023053Y008979
X023866Y007667
X024366Y007542
X023866Y007042
X021991Y005854
Y006229
X022991Y006479
X022866Y006979
X022428Y007042
X021803Y007354
X020866Y007292
X020491Y006979
X020803Y006729
X019991Y005479
X020366Y004729
Y004229
X019366Y003979
X018928
X018491
X017991
X018241Y002854
X017866Y002729
X018803Y001667
X016773Y001044
X017241Y000917
X016939Y000505
X01631
X01379
X013458Y000887
X01316Y000505
X01064
X01001
X009065
X008436
X007806
X007176
X006546
X005916
X005286
X004656
X004026Y000584
X003436Y000859
X004538Y001484
X002766Y002119
X002924Y001489
T03
X009491Y001229
X010491
X011491
X012491
T04
X025491Y019229
X024491
X023491
X022491
X021491
X020491
Y018229
X021491
X022491
X023491
X024491
X025491
X028491Y015229
X029491
Y014229
X028491
Y013229
X029491
Y012229
X028491
Y011229
X029491
Y010229
X028491
Y009229
X029491
Y008229
X028491
Y007229
X029491
Y006229
X028491
X023491Y005229
X024491
X025491
X026491
Y004229
X025491
X024491
X023491
X019491Y001229
X020491
X021491
X022491
X023491
X024491
X025491
X026491
X027491
X028491
Y002229
X027491
X026491
X025491
X024491
X023491
X022491
X021491
X020491
X019491
X003366Y008604
Y007604
T05
X004121Y014009
T06
X003121Y015009
X005121
Y013009
X003121
T07
X015089Y002198
X028081Y017946
X004459
M30
